<svg width="94" height="147" viewBox="0 0 94 147" fill="none" xmlns="http://www.w3.org/2000/svg">
<mask id="mask0_19_1115" style="mask-type:alpha" maskUnits="userSpaceOnUse" x="0" y="0" width="94" height="147">
<rect width="93.3909" height="146.757" rx="11.3765" fill="#F46338"/>
</mask>
<g mask="url(#mask0_19_1115)">
<ellipse cx="39.7681" cy="75.9442" rx="97.2394" ry="92.3646" fill="#F2F7FF"/>
<path d="M96.6046 31.3907C95.5518 32.1985 94.5585 33.099 93.3733 33.6883C89.897 35.4033 85.752 34.0326 81.8851 34.2511C74.8598 34.6484 69.2514 40.2237 62.5174 42.2631C56.9952 43.9383 51.0822 43.1437 45.3083 43.1238C39.5411 43.104 33.2375 44.1435 29.3904 48.4409C26.9206 51.202 25.848 54.9034 24.8415 58.4723C24.3118 60.3528 23.7821 62.2399 23.2524 64.1204C22.8683 65.491 22.4843 66.9941 23.0537 68.2985C23.7953 70.0135 25.8347 70.6955 27.6556 71.1391C50.5326 76.7806 74.4493 75.933 97.9951 75.0524C102.551 74.8802 107.245 74.675 111.364 72.7216C113.085 71.9072 114.701 70.7551 115.721 69.1461C117.647 66.1068 117.091 62.1803 116.462 58.6312C114.913 49.8645 114.297 40.1442 111.562 31.6688C109.304 24.6699 100.948 27.0536 96.6112 31.3841L96.6046 31.3907Z" fill="#7CB8A9"/>
<g filter="url(#filter0_d_19_1115)">
<path d="M-11.6824 30.7815C-9.86815 31.9469 -8.34522 33.5559 -6.44487 34.5756C0.832081 38.4756 10.3736 32.5163 17.8756 35.9727C21.7492 37.7539 24.2918 41.7598 28.2448 43.3622C33.2639 45.395 39.0708 43.0113 44.3415 44.2296C48.8044 45.2626 52.3336 48.7454 56.6905 50.169C59.6039 51.1225 62.8153 51.1225 65.5764 52.4667C71.5026 55.3536 73.211 63.1802 78.4154 67.2192C79.594 68.133 80.9646 68.8613 81.8585 70.0598C82.7524 71.2583 82.9577 73.1653 81.7989 74.1121C81.256 74.5558 80.5343 74.6948 79.8456 74.814C57.1937 78.7736 34.0386 78.3763 11.049 77.9658C-1.108 77.7473 -13.3047 77.5288 -25.3226 75.7079C-27.0441 75.443 -28.8187 75.1318 -30.2754 74.1651C-33.5199 72.0065 -34.0364 67.5304 -34.182 63.637C-34.4866 55.4529 -35.8242 42.8524 -31.4143 35.4827C-27.7328 29.3446 -17.6285 26.9808 -11.689 30.7881L-11.6824 30.7815Z" fill="#1C6653"/>
</g>
<path d="M112.204 152.947C112.502 153.682 112.8 154.417 113.098 155.152C114.76 146.69 116.429 138.155 116.263 129.533C116.138 122.919 114.932 116.363 114.727 109.749C114.31 96.658 117.773 83.3423 114.767 70.6027C114.575 69.7883 114.31 68.9142 113.621 68.4441C112.959 67.9938 112.092 68.0468 111.297 68.113C93.5386 69.5896 75.7137 70.3378 57.8954 70.3378C27.9268 70.3444 -2.17422 68.2719 -31.9243 71.8608C-33.3545 83.733 -33.1493 96.2673 -32.8116 108.226C-32.5798 116.675 -32.3415 125.117 -32.1097 133.566C-31.9177 140.532 -31.719 147.511 -30.8318 154.423C-30.7854 154.801 -30.6729 155.258 -30.3021 155.37C-29.9313 155.476 -29.6796 154.748 -30.0637 154.761C6.24162 155.834 42.4211 150.384 78.733 149.517C89.3935 149.265 101.908 150.192 112.204 152.947Z" fill="#96BFDD"/>
<path d="M25.3246 96.7374C32.7075 98.9357 32.5089 104.988 34.6741 111.013C40.256 118.754 51.6316 118.542 60.1666 120.753C71.668 122.68 85.818 128.726 86.8973 141.869C87.1026 145.133 86.2815 148.53 87.3939 151.603C64.007 156.549 40.2229 159.31 16.4784 162.071C5.05645 162.508 -26.4947 170.004 -29.3021 154.397C-34.8973 133.751 -32.2487 112.225 -31.9309 91.1357C-31.8117 87.1628 -33.5862 74.1451 -30.1431 71.4435C-27.1303 69.0797 -19.9593 75.8203 -17.1717 77.1512C-3.04818 83.766 11.1813 90.1557 25.3246 96.7242V96.7374Z" fill="#F5ECE6"/>
<path d="M7.09594 94.5193C15.5846 99.5118 19.3853 107.093 24.2785 114.847C33.0188 126.203 49.6982 121.409 61.6963 125.653C70.3505 130.368 72.3501 142.531 71.251 151.457C52.519 155.238 31.9528 153.94 12.6116 155.244C-1.32652 155.324 -15.7877 156.37 -29.4212 153.569C-34.3542 140.743 -28.7326 126.084 -29.3087 112.483C-31.2819 65.6234 -38.38 67.7819 7.09594 94.5193Z" fill="#FFB380"/>
<path d="M32.3256 17.5311C29.8883 17.5311 -11.1175 17.7987 -13.6975 17.7147C-13.8825 17.7147 -13.9777 17.4419 -13.798 17.3527C-12.1696 16.5553 -10.3297 16.7127 -8.64315 16.1461C-7.73746 15.7881 -6.94509 15.1957 -6.3486 14.4305C-5.78213 13.7896 -5.05134 13.3128 -4.23381 13.0507C-3.48004 12.8246 -2.6796 12.7993 -1.91284 12.9773C-1.11058 13.2515 -0.326546 13.5757 0.434582 13.9478C2.40662 14.6823 4.32051 13.9846 5.72156 12.5366C6.87941 11.3456 8.0214 10.2177 9.59692 9.57762C10.2408 9.28814 10.938 9.13361 11.6448 9.12368C12.3517 9.11375 13.053 9.24864 13.7049 9.51991C15.2117 10.1967 16.2426 11.5555 17.6543 12.3739C19.3302 13.3445 21.3552 13.1137 23.1844 13.4232C25.0137 13.7327 26.4518 15.2647 28.0749 16.1513C28.6051 16.481 29.2152 16.6623 29.8408 16.6759C30.1956 16.6429 30.5485 16.5922 30.8981 16.5238C31.1567 16.4535 31.4296 16.4545 31.6877 16.5266C31.9457 16.5987 32.1791 16.7392 32.3627 16.933C32.5001 17.0537 32.4842 17.5311 32.3256 17.5311Z" fill="white"/>
<circle cx="63.2457" cy="18.7242" r="10.9254" fill="#FFF2D9"/>
<circle cx="63.2457" cy="18.7243" r="7.61464" fill="#FFE6B2"/>
<path d="M46.5637 124.017C40.1701 124.017 34.6617 121.935 30.0386 117.771C25.4483 113.607 21.9072 107.656 19.4153 99.9176C16.9234 92.1797 15.6775 82.9663 15.6775 72.2774C15.6775 61.5886 16.9234 52.3752 19.4153 44.6372C21.9072 36.8993 25.4483 30.9483 30.0386 26.7842C34.6617 22.6201 40.1701 20.5381 46.5637 20.5381C52.9574 20.5381 58.4493 22.6201 63.0396 26.7842C67.6627 30.9483 71.2202 36.8993 73.7121 44.6372C76.204 52.3752 77.4499 61.5886 77.4499 72.2774C77.4499 82.9663 76.204 92.1797 73.7121 99.9176C71.2202 107.656 67.6627 113.607 63.0396 117.771C58.4493 121.935 52.9574 124.017 46.5637 124.017ZM46.5637 120.869C55.1541 120.869 61.9249 116.558 66.8758 107.934C71.8268 99.3111 74.3023 87.4254 74.3023 72.2774C74.3023 62.1787 73.1711 53.5063 70.9087 46.2602C68.6792 38.9813 65.4987 33.4073 61.3675 29.5384C57.2362 25.6366 52.3016 23.6857 46.5637 23.6857C37.9733 23.6857 31.2026 27.9973 26.2516 36.6206C21.3006 45.2438 18.8251 57.1294 18.8251 72.2774C18.8251 82.3761 19.9399 91.0649 22.1695 98.3438C24.4319 105.59 27.6287 111.164 31.76 115.066C35.924 118.935 40.8586 120.869 46.5637 120.869Z" fill="black"/>
<path d="M118.287 31.9602C114.147 31.9602 44.457 32.4126 40.0748 32.2705C39.7599 32.2705 39.5959 31.8051 39.9042 31.6242C42.6661 30.2734 45.8085 30.5448 48.6688 29.5948C50.3548 29.0325 51.3913 27.9467 52.5656 26.6993C53.5359 25.6099 54.7906 24.803 56.1934 24.3662C57.4722 23.9878 58.8291 23.9455 60.1296 24.2434C61.5466 24.5795 62.7537 25.3744 64.1248 25.8785C67.4706 27.1194 70.7245 25.9367 73.1124 23.5001C75.0805 21.4901 77.0486 19.6223 79.7055 18.5042C80.8001 18.015 81.9849 17.7522 83.1866 17.7322C84.3884 17.7122 85.5815 17.9354 86.6922 18.3879C89.2507 19.5319 91.0024 21.8262 93.4034 23.2093C96.2506 24.8444 99.6554 24.4567 102.798 24.9543C105.94 25.452 108.354 28.0566 111.11 29.556C112.009 30.124 113.047 30.4411 114.114 30.4737C114.731 30.4737 115.341 30.2928 115.945 30.2217C116.896 30.1053 117.795 30.1312 118.438 30.9132C118.602 31.12 118.562 31.9602 118.287 31.9602Z" fill="white"/>
<g clip-path="url(#clip0_19_1115)">
<path d="M0.366139 128.971C0.366139 128.971 -0.958147 127.978 -1.28922 127.647C-1.62029 127.316 9.34469 47.8422 9.34469 47.8422C9.36925 47.642 9.55345 47.5031 9.75402 47.5317L10.4458 47.6216C10.6464 47.6461 10.7855 47.8299 10.7569 48.0302C10.7569 48.0302 0.411165 128.624 0.366139 128.971Z" fill="#DC9F5E"/>
<path d="M-39.0523 62.3884C-39.0523 62.3884 -20.8863 50.0452 9.9281 49.514C9.9281 49.514 33.1699 56.4967 51.0617 70.9767L52.0195 77.0401C52.0277 77.0809 52.0195 77.1218 51.995 77.1545L49.3097 81.1422C49.232 81.2566 49.056 81.228 49.0232 81.0932L47.4596 75.0625L46.338 82.7071C46.3094 82.9032 46.1456 83.0462 45.9491 83.0462C43.1493 83.0666 23.8576 83.2055 20.2678 82.9808C20.0222 82.9645 19.8257 82.7684 19.8052 82.5191L19.2977 75.4834L16.9522 82.4987C16.9522 82.4987 -16.6743 78.2903 -18.0578 76.9665L-18.8683 69.6243L-21.1933 76.0064C-21.2629 76.2025 -21.4716 76.3128 -21.6763 76.2638C-23.9235 75.704 -35.8514 72.5784 -39.9078 69.9185C-39.9938 69.8613 -40.0347 69.7633 -40.0225 69.6611L-39.0564 62.3925L-39.0523 62.3884Z" fill="#F2F2F2"/>
<path d="M9.92196 49.4437C10.1635 49.4356 -14.7361 63.503 -18.8744 69.5499C-18.8744 69.5499 -37.4662 64.3814 -39.0585 62.3181C-35.571 60.9739 -8.64116 50.0811 9.92196 49.4437Z" fill="#FF5032"/>
<path d="M9.92189 49.4437C9.92189 49.4437 19.3979 70.7267 19.2915 75.409C19.2915 75.409 39.9913 76.9984 47.4534 74.9881C47.4534 74.9881 16.901 49.7502 9.92189 49.4437Z" fill="#FF5032"/>
<path d="M19.2915 75.4091L19.799 82.4611C19.8154 82.6981 19.9996 82.8902 20.237 82.9188C34.8747 84.7778 44.2892 83.3232 46.0002 83.0209C46.1681 82.9923 46.2991 82.8575 46.3236 82.6859L47.4534 74.9841C47.4534 74.9841 39.9831 76.4142 19.2915 75.405V75.4091Z" fill="#BF3C26"/>
<path d="M47.4533 74.9882L49.0169 81.0188C49.0497 81.1496 49.2257 81.1823 49.3034 81.0679L51.96 77.1169C51.9968 77.0597 52.0132 76.9903 52.005 76.9208L51.0595 70.9065C51.0595 70.9065 50.2735 73.8483 47.4533 74.9882Z" fill="#DBDDDD"/>
<path d="M-18.8744 69.5499L-18.064 76.8921C-14.5642 79.0698 16.5817 83.5111 16.946 82.4243C17.3103 81.3415 19.2915 75.409 19.2915 75.409C19.2915 75.409 -3.60642 74.8247 -18.8744 69.5499Z" fill="#DBDDDD"/>
<path d="M6.28711 81.6848C6.28711 81.6848 4.59658 94.3794 4.55155 94.7226C4.50652 95.0699 3.08615 94.9269 3.13936 94.5346C3.19257 94.1424 4.87492 81.4968 4.87492 81.4968" fill="#CC8D54"/>
</g>
</g>
<defs>
<filter id="filter0_d_19_1115" x="-39.161" y="28.9489" width="126.311" height="58.3668" filterUnits="userSpaceOnUse" color-interpolation-filters="sRGB">
<feFlood flood-opacity="0" result="BackgroundImageFix"/>
<feColorMatrix in="SourceAlpha" type="matrix" values="0 0 0 0 0 0 0 0 0 0 0 0 0 0 0 0 0 0 127 0" result="hardAlpha"/>
<feOffset dy="4.55061"/>
<feGaussianBlur stdDeviation="2.2753"/>
<feComposite in2="hardAlpha" operator="out"/>
<feColorMatrix type="matrix" values="0 0 0 0 0 0 0 0 0 0 0 0 0 0 0 0 0 0 0.25 0"/>
<feBlend mode="normal" in2="BackgroundImageFix" result="effect1_dropShadow_19_1115"/>
<feBlend mode="normal" in="SourceGraphic" in2="effect1_dropShadow_19_1115" result="shape"/>
</filter>
<clipPath id="clip0_19_1115">
<rect width="92.0379" height="99.9836" fill="white" transform="matrix(-1 0 0 1 52.0133 47.5275)"/>
</clipPath>
</defs>
</svg>
