<svg width="94" height="147" viewBox="0 0 94 147" fill="none" xmlns="http://www.w3.org/2000/svg">
<mask id="mask0_19_1111" style="mask-type:alpha" maskUnits="userSpaceOnUse" x="0" y="0" width="94" height="147">
<rect x="0.315796" width="93.2875" height="146.757" rx="11.3765" fill="#F46338"/>
</mask>
<g mask="url(#mask0_19_1111)">
<path d="M245.26 -65.9838H-4.68872V184.3H245.26V-65.9838Z" fill="#E0E6FC"/>
<circle cx="85.6396" cy="3.41296" r="19.1126" stroke="white" stroke-width="0.455061"/>
<circle opacity="0.4" cx="-5.37244" cy="73.9474" r="19.1126" stroke="white" stroke-width="0.455061"/>
<path d="M116.201 112.001H0.315796V152.445H116.201V112.001Z" fill="#8274FC"/>
<mask id="mask1_19_1111" style="mask-type:luminance" maskUnits="userSpaceOnUse" x="0" y="112" width="117" height="41">
<path d="M116.201 112.001H0.315796V152.445H116.201V112.001Z" fill="white"/>
</mask>
<g mask="url(#mask1_19_1111)">
<path d="M0.315796 112.92C1.15249 112.92 1.9521 113.252 2.54311 113.843C3.13413 114.435 3.93605 114.767 4.77042 114.767C5.6048 114.767 6.40672 114.435 6.99774 113.843C7.58875 113.252 8.39068 112.92 9.22505 112.92C10.0594 112.92 10.8614 113.252 11.4524 113.843C12.0434 114.435 12.8453 114.767 13.6797 114.767C14.5141 114.767 15.316 114.435 15.907 113.843C16.498 113.252 17.2999 112.92 18.1343 112.92C18.9687 112.92 19.7706 113.252 20.3616 113.843C20.9526 114.435 21.7546 114.767 22.5889 114.767C23.4233 114.767 24.2276 114.435 24.8186 113.843C25.4096 113.252 26.2115 112.92 27.0459 112.92C27.8803 112.92 28.6822 113.252 29.2732 113.843C29.8642 114.435 30.6661 114.767 31.5005 114.767C32.3349 114.767 33.1391 114.435 33.7278 113.843C34.3188 113.252 35.1208 112.92 35.9551 112.92C36.7895 112.92 37.5938 113.252 38.1848 113.843C38.7758 114.435 39.5777 114.767 40.4144 114.767C41.2511 114.767 42.0507 114.435 42.6417 113.843C43.2327 113.252 44.0347 112.92 44.869 112.92C45.7034 112.92 46.5053 113.252 47.0963 113.843C47.6874 114.435 48.4893 114.767 49.3237 114.767C50.158 114.767 50.96 114.435 51.551 113.843C52.142 113.252 52.9439 112.92 53.7783 112.92C54.6127 112.92 55.4146 113.252 56.0056 113.843C56.5966 114.435 57.3986 114.767 58.2329 114.767C59.0673 114.767 59.8715 114.435 60.4602 113.843C61.0513 113.252 61.8532 112.92 62.6876 112.92C63.5219 112.92 64.3239 113.252 64.9149 113.843C65.5059 114.435 66.3078 114.767 67.1422 114.767C67.9766 114.767 68.7785 114.435 69.3695 113.843C69.9605 113.252 70.7624 112.92 71.5968 112.92C72.4312 112.92 73.2354 113.252 73.8264 113.843C74.4175 114.435 75.2194 114.767 76.0538 114.767C76.8881 114.767 77.6901 114.435 78.2811 113.843C78.8721 113.252 79.674 112.92 80.5084 112.92C81.3428 112.92 82.147 113.252 82.7357 113.843C83.3267 114.435 84.1286 114.767 84.963 114.767C85.7974 114.767 86.5993 114.435 87.1903 113.843C87.7813 113.252 88.5833 112.92 89.4176 112.92C90.252 112.92 91.0563 113.252 91.645 113.843C92.236 114.435 93.0379 114.767 93.8723 114.767C94.7066 114.767 95.5109 114.435 96.0996 113.843C96.6906 113.252 97.4925 112.92 98.3269 112.92C99.1613 112.92 99.9655 113.252 100.554 113.843C101.145 114.435 101.947 114.767 102.784 114.767C103.621 114.767 104.42 114.435 105.011 113.843C105.602 113.252 106.404 112.92 107.238 112.92C108.073 112.92 108.875 113.252 109.466 113.843C110.057 114.435 110.859 114.767 111.693 114.767C112.527 114.767 113.332 114.435 113.92 113.843C114.511 113.252 115.313 112.92 116.148 112.92" stroke="#E0E6FC" stroke-width="1.13765" stroke-linejoin="round"/>
<path d="M0.315796 116.617C1.15249 116.617 1.9521 116.949 2.54311 117.54C3.13413 118.132 3.93605 118.464 4.77042 118.464C5.6048 118.464 6.40672 118.132 6.99774 117.54C7.58875 116.949 8.39068 116.617 9.22505 116.617C10.0594 116.617 10.8614 116.949 11.4524 117.54C12.0434 118.132 12.8453 118.464 13.6797 118.464C14.5141 118.464 15.316 118.132 15.907 117.54C16.498 116.949 17.2999 116.617 18.1343 116.617C18.9687 116.617 19.7706 116.949 20.3616 117.54C20.9526 118.132 21.7546 118.464 22.5889 118.464C23.4233 118.464 24.2276 118.132 24.8186 117.54C25.4096 116.949 26.2115 116.617 27.0459 116.617C27.8803 116.617 28.6822 116.949 29.2732 117.54C29.8642 118.132 30.6661 118.464 31.5005 118.464C32.3349 118.464 33.1391 118.132 33.7278 117.54C34.3188 116.949 35.1208 116.617 35.9551 116.617C36.7895 116.617 37.5938 116.949 38.1848 117.54C38.7758 118.132 39.5777 118.464 40.4144 118.464C41.2511 118.464 42.0507 118.132 42.6417 117.54C43.2327 116.949 44.0347 116.617 44.869 116.617C45.7034 116.617 46.5053 116.949 47.0963 117.54C47.6874 118.132 48.4893 118.464 49.3237 118.464C50.158 118.464 50.96 118.132 51.551 117.54C52.142 116.949 52.9439 116.617 53.7783 116.617C54.6127 116.617 55.4146 116.949 56.0056 117.54C56.5966 118.132 57.3986 118.464 58.2329 118.464C59.0673 118.464 59.8715 118.132 60.4602 117.54C61.0513 116.949 61.8532 116.617 62.6876 116.617C63.5219 116.617 64.3239 116.949 64.9149 117.54C65.5059 118.132 66.3078 118.464 67.1422 118.464C67.9766 118.464 68.7785 118.132 69.3695 117.54C69.9605 116.949 70.7624 116.617 71.5968 116.617C72.4312 116.617 73.2354 116.949 73.8264 117.54C74.4175 118.132 75.2194 118.464 76.0538 118.464C76.8881 118.464 77.6901 118.132 78.2811 117.54C78.8721 116.949 79.674 116.617 80.5084 116.617C81.3428 116.617 82.147 116.949 82.7357 117.54C83.3267 118.132 84.1286 118.464 84.963 118.464C85.7974 118.464 86.5993 118.132 87.1903 117.54C87.7813 116.949 88.5833 116.617 89.4176 116.617C90.252 116.617 91.0563 116.949 91.645 117.54C92.236 118.132 93.0379 118.464 93.8723 118.464C94.7066 118.464 95.5109 118.132 96.0996 117.54C96.6906 116.949 97.4925 116.617 98.3269 116.617C99.1613 116.617 99.9655 116.949 100.554 117.54C101.145 118.132 101.947 118.464 102.784 118.464C103.621 118.464 104.42 118.132 105.011 117.54C105.602 116.949 106.404 116.617 107.238 116.617C108.073 116.617 108.875 116.949 109.466 117.54C110.057 118.132 110.859 118.464 111.693 118.464C112.527 118.464 113.332 118.132 113.92 117.54C114.511 116.949 115.313 116.617 116.148 116.617" stroke="#E0E6FC" stroke-width="1.13765" stroke-linejoin="round"/>
<path d="M0.315796 120.314C1.15249 120.314 1.9521 120.646 2.54311 121.237C3.13413 121.829 3.93605 122.161 4.77042 122.161C5.6048 122.161 6.40672 121.829 6.99774 121.237C7.58875 120.646 8.39068 120.314 9.22505 120.314C10.0594 120.314 10.8614 120.646 11.4524 121.237C12.0434 121.829 12.8453 122.161 13.6797 122.161C14.5141 122.161 15.316 121.829 15.907 121.237C16.498 120.646 17.2999 120.314 18.1343 120.314C18.9687 120.314 19.7706 120.646 20.3616 121.237C20.9526 121.829 21.7546 122.161 22.5889 122.161C23.4233 122.161 24.2276 121.829 24.8186 121.237C25.4096 120.646 26.2115 120.314 27.0459 120.314C27.8803 120.314 28.6822 120.646 29.2732 121.237C29.8642 121.829 30.6661 122.161 31.5005 122.161C32.3349 122.161 33.1391 121.829 33.7278 121.237C34.3188 120.646 35.1208 120.314 35.9551 120.314C36.7895 120.314 37.5938 120.646 38.1848 121.237C38.7758 121.829 39.5777 122.161 40.4144 122.161C41.2511 122.161 42.0507 121.829 42.6417 121.237C43.2327 120.646 44.0347 120.314 44.869 120.314C45.7034 120.314 46.5053 120.646 47.0963 121.237C47.6874 121.829 48.4893 122.161 49.3237 122.161C50.158 122.161 50.96 121.829 51.551 121.237C52.142 120.646 52.9439 120.314 53.7783 120.314C54.6127 120.314 55.4146 120.646 56.0056 121.237C56.5966 121.829 57.3986 122.161 58.2329 122.161C59.0673 122.161 59.8715 121.829 60.4602 121.237C61.0513 120.646 61.8532 120.314 62.6876 120.314C63.5219 120.314 64.3239 120.646 64.9149 121.237C65.5059 121.829 66.3078 122.161 67.1422 122.161C67.9766 122.161 68.7785 121.829 69.3695 121.237C69.9605 120.646 70.7624 120.314 71.5968 120.314C72.4312 120.314 73.2354 120.646 73.8264 121.237C74.4175 121.829 75.2194 122.161 76.0538 122.161C76.8881 122.161 77.6901 121.829 78.2811 121.237C78.8721 120.646 79.674 120.314 80.5084 120.314C81.3428 120.314 82.147 120.646 82.7357 121.237C83.3267 121.829 84.1286 122.161 84.963 122.161C85.7974 122.161 86.5993 121.829 87.1903 121.237C87.7813 120.646 88.5833 120.314 89.4176 120.314C90.252 120.314 91.0563 120.646 91.645 121.237C92.236 121.829 93.0379 122.161 93.8723 122.161C94.7066 122.161 95.5109 121.829 96.0996 121.237C96.6906 120.646 97.4925 120.314 98.3269 120.314C99.1613 120.314 99.9655 120.646 100.554 121.237C101.145 121.829 101.947 122.161 102.784 122.161C103.621 122.161 104.42 121.829 105.011 121.237C105.602 120.646 106.404 120.314 107.238 120.314C108.073 120.314 108.875 120.646 109.466 121.237C110.057 121.829 110.859 122.161 111.693 122.161C112.527 122.161 113.332 121.829 113.92 121.237C114.511 120.646 115.313 120.314 116.148 120.314" stroke="#E0E6FC" stroke-width="1.13765" stroke-linejoin="round"/>
<path d="M0.315796 124.013C1.15249 124.013 1.9521 124.345 2.54311 124.937C3.13413 125.529 3.93605 125.86 4.77042 125.86C5.6048 125.86 6.40672 125.529 6.99774 124.937C7.58875 124.345 8.39068 124.013 9.22505 124.013C10.0594 124.013 10.8614 124.345 11.4524 124.937C12.0434 125.529 12.8453 125.86 13.6797 125.86C14.5141 125.86 15.316 125.529 15.907 124.937C16.498 124.345 17.2999 124.013 18.1343 124.013C18.9687 124.013 19.7706 124.345 20.3616 124.937C20.9526 125.529 21.7546 125.86 22.5889 125.86C23.4233 125.86 24.2276 125.529 24.8186 124.937C25.4096 124.345 26.2115 124.013 27.0459 124.013C27.8803 124.013 28.6822 124.345 29.2732 124.937C29.8642 125.529 30.6661 125.86 31.5005 125.86C32.3349 125.86 33.1391 125.529 33.7278 124.937C34.3188 124.345 35.1208 124.013 35.9551 124.013C36.7895 124.013 37.5938 124.345 38.1848 124.937C38.7758 125.529 39.5777 125.86 40.4144 125.86C41.2511 125.86 42.0507 125.529 42.6417 124.937C43.2327 124.345 44.0347 124.013 44.869 124.013C45.7034 124.013 46.5053 124.345 47.0963 124.937C47.6874 125.529 48.4893 125.86 49.3237 125.86C50.158 125.86 50.96 125.529 51.551 124.937C52.142 124.345 52.9439 124.013 53.7783 124.013C54.6127 124.013 55.4146 124.345 56.0056 124.937C56.5966 125.529 57.3986 125.86 58.2329 125.86C59.0673 125.86 59.8715 125.529 60.4602 124.937C61.0513 124.345 61.8532 124.013 62.6876 124.013C63.5219 124.013 64.3239 124.345 64.9149 124.937C65.5059 125.529 66.3078 125.86 67.1422 125.86C67.9766 125.86 68.7785 125.529 69.3695 124.937C69.9605 124.345 70.7624 124.013 71.5968 124.013C72.4312 124.013 73.2354 124.345 73.8264 124.937C74.4175 125.529 75.2194 125.86 76.0538 125.86C76.8881 125.86 77.6901 125.529 78.2811 124.937C78.8721 124.345 79.674 124.013 80.5084 124.013C81.3428 124.013 82.147 124.345 82.7357 124.937C83.3267 125.529 84.1286 125.86 84.963 125.86C85.7974 125.86 86.5993 125.529 87.1903 124.937C87.7813 124.345 88.5833 124.013 89.4176 124.013C90.252 124.013 91.0563 124.345 91.645 124.937C92.236 125.529 93.0379 125.86 93.8723 125.86C94.7066 125.86 95.5109 125.529 96.0996 124.937C96.6906 124.345 97.4925 124.013 98.3269 124.013C99.1613 124.013 99.9655 124.345 100.554 124.937C101.145 125.529 101.947 125.86 102.784 125.86C103.621 125.86 104.42 125.529 105.011 124.937C105.602 124.345 106.404 124.013 107.238 124.013C108.073 124.013 108.875 124.345 109.466 124.937C110.057 125.529 110.859 125.86 111.693 125.86C112.527 125.86 113.332 125.529 113.92 124.937C114.511 124.345 115.313 124.013 116.148 124.013" stroke="#E0E6FC" stroke-width="1.13765" stroke-linejoin="round"/>
<path d="M0.315796 127.71C1.15249 127.71 1.9521 128.042 2.54311 128.634C3.13413 129.226 3.93605 129.558 4.77042 129.558C5.6048 129.558 6.40672 129.226 6.99774 128.634C7.58875 128.042 8.39068 127.71 9.22505 127.71C10.0594 127.71 10.8614 128.042 11.4524 128.634C12.0434 129.226 12.8453 129.558 13.6797 129.558C14.5141 129.558 15.316 129.226 15.907 128.634C16.498 128.042 17.2999 127.71 18.1343 127.71C18.9687 127.71 19.7706 128.042 20.3616 128.634C20.9526 129.226 21.7546 129.558 22.5889 129.558C23.4233 129.558 24.2276 129.226 24.8186 128.634C25.4096 128.042 26.2115 127.71 27.0459 127.71C27.8803 127.71 28.6822 128.042 29.2732 128.634C29.8642 129.226 30.6661 129.558 31.5005 129.558C32.3349 129.558 33.1391 129.226 33.7278 128.634C34.3188 128.042 35.1208 127.71 35.9551 127.71C36.7895 127.71 37.5938 128.042 38.1848 128.634C38.7758 129.226 39.5777 129.558 40.4144 129.558C41.2511 129.558 42.0507 129.226 42.6417 128.634C43.2327 128.042 44.0347 127.71 44.869 127.71C45.7034 127.71 46.5053 128.042 47.0963 128.634C47.6874 129.226 48.4893 129.558 49.3237 129.558C50.158 129.558 50.96 129.226 51.551 128.634C52.142 128.042 52.9439 127.71 53.7783 127.71C54.6127 127.71 55.4146 128.042 56.0056 128.634C56.5966 129.226 57.3986 129.558 58.2329 129.558C59.0673 129.558 59.8715 129.226 60.4602 128.634C61.0513 128.042 61.8532 127.71 62.6876 127.71C63.5219 127.71 64.3239 128.042 64.9149 128.634C65.5059 129.226 66.3078 129.558 67.1422 129.558C67.9766 129.558 68.7785 129.226 69.3695 128.634C69.9605 128.042 70.7624 127.71 71.5968 127.71C72.4312 127.71 73.2354 128.042 73.8264 128.634C74.4175 129.226 75.2194 129.558 76.0538 129.558C76.8881 129.558 77.6901 129.226 78.2811 128.634C78.8721 128.042 79.674 127.71 80.5084 127.71C81.3428 127.71 82.147 128.042 82.7357 128.634C83.3267 129.226 84.1286 129.558 84.963 129.558C85.7974 129.558 86.5993 129.226 87.1903 128.634C87.7813 128.042 88.5833 127.71 89.4176 127.71C90.252 127.71 91.0563 128.042 91.645 128.634C92.236 129.226 93.0379 129.558 93.8723 129.558C94.7066 129.558 95.5109 129.226 96.0996 128.634C96.6906 128.042 97.4925 127.71 98.3269 127.71C99.1613 127.71 99.9655 128.042 100.554 128.634C101.145 129.226 101.947 129.558 102.784 129.558C103.621 129.558 104.42 129.226 105.011 128.634C105.602 128.042 106.404 127.71 107.238 127.71C108.073 127.71 108.875 128.042 109.466 128.634C110.057 129.226 110.859 129.558 111.693 129.558C112.527 129.558 113.332 129.226 113.92 128.634C114.511 128.042 115.313 127.71 116.148 127.71" stroke="#E0E6FC" stroke-width="1.13765" stroke-linejoin="round"/>
<path d="M0.315796 131.407C1.15249 131.407 1.9521 131.739 2.54311 132.331C3.13413 132.923 3.93605 133.255 4.77042 133.255C5.6048 133.255 6.40672 132.923 6.99774 132.331C7.58875 131.739 8.39068 131.407 9.22505 131.407C10.0594 131.407 10.8614 131.739 11.4524 132.331C12.0434 132.923 12.8453 133.255 13.6797 133.255C14.5141 133.255 15.316 132.923 15.907 132.331C16.498 131.739 17.2999 131.407 18.1343 131.407C18.9687 131.407 19.7706 131.739 20.3616 132.331C20.9526 132.923 21.7546 133.255 22.5889 133.255C23.4233 133.255 24.2276 132.923 24.8186 132.331C25.4096 131.739 26.2115 131.407 27.0459 131.407C27.8803 131.407 28.6822 131.739 29.2732 132.331C29.8642 132.923 30.6661 133.255 31.5005 133.255C32.3349 133.255 33.1391 132.923 33.7278 132.331C34.3188 131.739 35.1208 131.407 35.9551 131.407C36.7895 131.407 37.5938 131.739 38.1848 132.331C38.7758 132.923 39.5777 133.255 40.4144 133.255C41.2511 133.255 42.0507 132.923 42.6417 132.331C43.2327 131.739 44.0347 131.407 44.869 131.407C45.7034 131.407 46.5053 131.739 47.0963 132.331C47.6874 132.923 48.4893 133.255 49.3237 133.255C50.158 133.255 50.96 132.923 51.551 132.331C52.142 131.739 52.9439 131.407 53.7783 131.407C54.6127 131.407 55.4146 131.739 56.0056 132.331C56.5966 132.923 57.3986 133.255 58.2329 133.255C59.0673 133.255 59.8715 132.923 60.4602 132.331C61.0513 131.739 61.8532 131.407 62.6876 131.407C63.5219 131.407 64.3239 131.739 64.9149 132.331C65.5059 132.923 66.3078 133.255 67.1422 133.255C67.9766 133.255 68.7785 132.923 69.3695 132.331C69.9605 131.739 70.7624 131.407 71.5968 131.407C72.4312 131.407 73.2354 131.739 73.8264 132.331C74.4175 132.923 75.2194 133.255 76.0538 133.255C76.8881 133.255 77.6901 132.923 78.2811 132.331C78.8721 131.739 79.674 131.407 80.5084 131.407C81.3428 131.407 82.147 131.739 82.7357 132.331C83.3267 132.923 84.1286 133.255 84.963 133.255C85.7974 133.255 86.5993 132.923 87.1903 132.331C87.7813 131.739 88.5833 131.407 89.4176 131.407C90.252 131.407 91.0563 131.739 91.645 132.331C92.236 132.923 93.0379 133.255 93.8723 133.255C94.7066 133.255 95.5109 132.923 96.0996 132.331C96.6906 131.739 97.4925 131.407 98.3269 131.407C99.1613 131.407 99.9655 131.739 100.554 132.331C101.145 132.923 101.947 133.255 102.784 133.255C103.621 133.255 104.42 132.923 105.011 132.331C105.602 131.739 106.404 131.407 107.238 131.407C108.073 131.407 108.875 131.739 109.466 132.331C110.057 132.923 110.859 133.255 111.693 133.255C112.527 133.255 113.332 132.923 113.92 132.331C114.511 131.739 115.313 131.407 116.148 131.407" stroke="#E0E6FC" stroke-width="1.13765" stroke-linejoin="round"/>
<path d="M0.315796 135.107C1.15249 135.107 1.9521 135.439 2.54311 136.03C3.13413 136.622 3.93605 136.954 4.77042 136.954C5.6048 136.954 6.40672 136.622 6.99774 136.03C7.58875 135.439 8.39068 135.107 9.22505 135.107C10.0594 135.107 10.8614 135.439 11.4524 136.03C12.0434 136.622 12.8453 136.954 13.6797 136.954C14.5141 136.954 15.316 136.622 15.907 136.03C16.498 135.439 17.2999 135.107 18.1343 135.107C18.9687 135.107 19.7706 135.439 20.3616 136.03C20.9526 136.622 21.7546 136.954 22.5889 136.954C23.4233 136.954 24.2276 136.622 24.8186 136.03C25.4096 135.439 26.2115 135.107 27.0459 135.107C27.8803 135.107 28.6822 135.439 29.2732 136.03C29.8642 136.622 30.6661 136.954 31.5005 136.954C32.3349 136.954 33.1391 136.622 33.7278 136.03C34.3188 135.439 35.1208 135.107 35.9551 135.107C36.7895 135.107 37.5938 135.439 38.1848 136.03C38.7758 136.622 39.5777 136.954 40.4144 136.954C41.2511 136.954 42.0507 136.622 42.6417 136.03C43.2327 135.439 44.0347 135.107 44.869 135.107C45.7034 135.107 46.5053 135.439 47.0963 136.03C47.6874 136.622 48.4893 136.954 49.3237 136.954C50.158 136.954 50.96 136.622 51.551 136.03C52.142 135.439 52.9439 135.107 53.7783 135.107C54.6127 135.107 55.4146 135.439 56.0056 136.03C56.5966 136.622 57.3986 136.954 58.2329 136.954C59.0673 136.954 59.8715 136.622 60.4602 136.03C61.0513 135.439 61.8532 135.107 62.6876 135.107C63.5219 135.107 64.3239 135.439 64.9149 136.03C65.5059 136.622 66.3078 136.954 67.1422 136.954C67.9766 136.954 68.7785 136.622 69.3695 136.03C69.9605 135.439 70.7624 135.107 71.5968 135.107C72.4312 135.107 73.2354 135.439 73.8264 136.03C74.4175 136.622 75.2194 136.954 76.0538 136.954C76.8881 136.954 77.6901 136.622 78.2811 136.03C78.8721 135.439 79.674 135.107 80.5084 135.107C81.3428 135.107 82.147 135.439 82.7357 136.03C83.3267 136.622 84.1286 136.954 84.963 136.954C85.7974 136.954 86.5993 136.622 87.1903 136.03C87.7813 135.439 88.5833 135.107 89.4176 135.107C90.252 135.107 91.0563 135.439 91.645 136.03C92.236 136.622 93.0379 136.954 93.8723 136.954C94.7066 136.954 95.5109 136.622 96.0996 136.03C96.6906 135.439 97.4925 135.107 98.3269 135.107C99.1613 135.107 99.9655 135.439 100.554 136.03C101.145 136.622 101.947 136.954 102.784 136.954C103.621 136.954 104.42 136.622 105.011 136.03C105.602 135.439 106.404 135.107 107.238 135.107C108.073 135.107 108.875 135.439 109.466 136.03C110.057 136.622 110.859 136.954 111.693 136.954C112.527 136.954 113.332 136.622 113.92 136.03C114.511 135.439 115.313 135.107 116.148 135.107" stroke="#E0E6FC" stroke-width="1.13765" stroke-linejoin="round"/>
<path d="M0.315796 138.804C1.15249 138.804 1.9521 139.136 2.54311 139.727C3.13413 140.319 3.93605 140.651 4.77042 140.651C5.6048 140.651 6.40672 140.319 6.99774 139.727C7.58875 139.136 8.39068 138.804 9.22505 138.804C10.0594 138.804 10.8614 139.136 11.4524 139.727C12.0434 140.319 12.8453 140.651 13.6797 140.651C14.5141 140.651 15.316 140.319 15.907 139.727C16.498 139.136 17.2999 138.804 18.1343 138.804C18.9687 138.804 19.7706 139.136 20.3616 139.727C20.9526 140.319 21.7546 140.651 22.5889 140.651C23.4233 140.651 24.2276 140.319 24.8186 139.727C25.4096 139.136 26.2115 138.804 27.0459 138.804C27.8803 138.804 28.6822 139.136 29.2732 139.727C29.8642 140.319 30.6661 140.651 31.5005 140.651C32.3349 140.651 33.1391 140.319 33.7278 139.727C34.3188 139.136 35.1208 138.804 35.9551 138.804C36.7895 138.804 37.5938 139.136 38.1848 139.727C38.7758 140.319 39.5777 140.651 40.4144 140.651C41.2511 140.651 42.0507 140.319 42.6417 139.727C43.2327 139.136 44.0347 138.804 44.869 138.804C45.7034 138.804 46.5053 139.136 47.0963 139.727C47.6874 140.319 48.4893 140.651 49.3237 140.651C50.158 140.651 50.96 140.319 51.551 139.727C52.142 139.136 52.9439 138.804 53.7783 138.804C54.6127 138.804 55.4146 139.136 56.0056 139.727C56.5966 140.319 57.3986 140.651 58.2329 140.651C59.0673 140.651 59.8715 140.319 60.4602 139.727C61.0513 139.136 61.8532 138.804 62.6876 138.804C63.5219 138.804 64.3239 139.136 64.9149 139.727C65.5059 140.319 66.3078 140.651 67.1422 140.651C67.9766 140.651 68.7785 140.319 69.3695 139.727C69.9605 139.136 70.7624 138.804 71.5968 138.804C72.4312 138.804 73.2354 139.136 73.8264 139.727C74.4175 140.319 75.2194 140.651 76.0538 140.651C76.8881 140.651 77.6901 140.319 78.2811 139.727C78.8721 139.136 79.674 138.804 80.5084 138.804C81.3428 138.804 82.147 139.136 82.7357 139.727C83.3267 140.319 84.1286 140.651 84.963 140.651C85.7974 140.651 86.5993 140.319 87.1903 139.727C87.7813 139.136 88.5833 138.804 89.4176 138.804C90.252 138.804 91.0563 139.136 91.645 139.727C92.236 140.319 93.0379 140.651 93.8723 140.651C94.7066 140.651 95.5109 140.319 96.0996 139.727C96.6906 139.136 97.4925 138.804 98.3269 138.804C99.1613 138.804 99.9655 139.136 100.554 139.727C101.145 140.319 101.947 140.651 102.784 140.651C103.621 140.651 104.42 140.319 105.011 139.727C105.602 139.136 106.404 138.804 107.238 138.804C108.073 138.804 108.875 139.136 109.466 139.727C110.057 140.319 110.859 140.651 111.693 140.651C112.527 140.651 113.332 140.319 113.92 139.727C114.511 139.136 115.313 138.804 116.148 138.804" stroke="#E0E6FC" stroke-width="1.13765" stroke-linejoin="round"/>
<path d="M0.315796 142.501C1.15249 142.501 1.9521 142.832 2.54311 143.424C3.13413 144.016 3.93605 144.348 4.77042 144.348C5.6048 144.348 6.40672 144.016 6.99774 143.424C7.58875 142.832 8.39068 142.501 9.22505 142.501C10.0594 142.501 10.8614 142.832 11.4524 143.424C12.0434 144.016 12.8453 144.348 13.6797 144.348C14.5141 144.348 15.316 144.016 15.907 143.424C16.498 142.832 17.2999 142.501 18.1343 142.501C18.9687 142.501 19.7706 142.832 20.3616 143.424C20.9526 144.016 21.7546 144.348 22.5889 144.348C23.4233 144.348 24.2276 144.016 24.8186 143.424C25.4096 142.832 26.2115 142.501 27.0459 142.501C27.8803 142.501 28.6822 142.832 29.2732 143.424C29.8642 144.016 30.6661 144.348 31.5005 144.348C32.3349 144.348 33.1391 144.016 33.7278 143.424C34.3188 142.832 35.1208 142.501 35.9551 142.501C36.7895 142.501 37.5938 142.832 38.1848 143.424C38.7758 144.016 39.5777 144.348 40.4144 144.348C41.2511 144.348 42.0507 144.016 42.6417 143.424C43.2327 142.832 44.0347 142.501 44.869 142.501C45.7034 142.501 46.5053 142.832 47.0963 143.424C47.6874 144.016 48.4893 144.348 49.3237 144.348C50.158 144.348 50.96 144.016 51.551 143.424C52.142 142.832 52.9439 142.501 53.7783 142.501C54.6127 142.501 55.4146 142.832 56.0056 143.424C56.5966 144.016 57.3986 144.348 58.2329 144.348C59.0673 144.348 59.8715 144.016 60.4602 143.424C61.0513 142.832 61.8532 142.501 62.6876 142.501C63.5219 142.501 64.3239 142.832 64.9149 143.424C65.5059 144.016 66.3078 144.348 67.1422 144.348C67.9766 144.348 68.7785 144.016 69.3695 143.424C69.9605 142.832 70.7624 142.501 71.5968 142.501C72.4312 142.501 73.2354 142.832 73.8264 143.424C74.4175 144.016 75.2194 144.348 76.0538 144.348C76.8881 144.348 77.6901 144.016 78.2811 143.424C78.8721 142.832 79.674 142.501 80.5084 142.501C81.3428 142.501 82.147 142.832 82.7357 143.424C83.3267 144.016 84.1286 144.348 84.963 144.348C85.7974 144.348 86.5993 144.016 87.1903 143.424C87.7813 142.832 88.5833 142.501 89.4176 142.501C90.252 142.501 91.0563 142.832 91.645 143.424C92.236 144.016 93.0379 144.348 93.8723 144.348C94.7066 144.348 95.5109 144.016 96.0996 143.424C96.6906 142.832 97.4925 142.501 98.3269 142.501C99.1613 142.501 99.9655 142.832 100.554 143.424C101.145 144.016 101.947 144.348 102.784 144.348C103.621 144.348 104.42 144.016 105.011 143.424C105.602 142.832 106.404 142.501 107.238 142.501C108.073 142.501 108.875 142.832 109.466 143.424C110.057 144.016 110.859 144.348 111.693 144.348C112.527 144.348 113.332 144.016 113.92 143.424C114.511 142.832 115.313 142.501 116.148 142.501" stroke="#E0E6FC" stroke-width="1.13765" stroke-linejoin="round"/>
<path d="M0.315796 146.198C1.15249 146.198 1.9521 146.53 2.54311 147.121C3.13413 147.713 3.93605 148.045 4.77042 148.045C5.6048 148.045 6.40672 147.713 6.99774 147.121C7.58875 146.53 8.39068 146.198 9.22505 146.198C10.0594 146.198 10.8614 146.53 11.4524 147.121C12.0434 147.713 12.8453 148.045 13.6797 148.045C14.5141 148.045 15.316 147.713 15.907 147.121C16.498 146.53 17.2999 146.198 18.1343 146.198C18.9687 146.198 19.7706 146.53 20.3616 147.121C20.9526 147.713 21.7546 148.045 22.5889 148.045C23.4233 148.045 24.2276 147.713 24.8186 147.121C25.4096 146.53 26.2115 146.198 27.0459 146.198C27.8803 146.198 28.6822 146.53 29.2732 147.121C29.8642 147.713 30.6661 148.045 31.5005 148.045C32.3349 148.045 33.1391 147.713 33.7278 147.121C34.3188 146.53 35.1208 146.198 35.9551 146.198C36.7895 146.198 37.5938 146.53 38.1848 147.121C38.7758 147.713 39.5777 148.045 40.4144 148.045C41.2511 148.045 42.0507 147.713 42.6417 147.121C43.2327 146.53 44.0347 146.198 44.869 146.198C45.7034 146.198 46.5053 146.53 47.0963 147.121C47.6874 147.713 48.4893 148.045 49.3237 148.045C50.158 148.045 50.96 147.713 51.551 147.121C52.142 146.53 52.9439 146.198 53.7783 146.198C54.6127 146.198 55.4146 146.53 56.0056 147.121C56.5966 147.713 57.3986 148.045 58.2329 148.045C59.0673 148.045 59.8715 147.713 60.4602 147.121C61.0513 146.53 61.8532 146.198 62.6876 146.198C63.5219 146.198 64.3239 146.53 64.9149 147.121C65.5059 147.713 66.3078 148.045 67.1422 148.045C67.9766 148.045 68.7785 147.713 69.3695 147.121C69.9605 146.53 70.7624 146.198 71.5968 146.198C72.4312 146.198 73.2354 146.53 73.8264 147.121C74.4175 147.713 75.2194 148.045 76.0538 148.045C76.8881 148.045 77.6901 147.713 78.2811 147.121C78.8721 146.53 79.674 146.198 80.5084 146.198C81.3428 146.198 82.147 146.53 82.7357 147.121C83.3267 147.713 84.1286 148.045 84.963 148.045C85.7974 148.045 86.5993 147.713 87.1903 147.121C87.7813 146.53 88.5833 146.198 89.4176 146.198C90.252 146.198 91.0563 146.53 91.645 147.121C92.236 147.713 93.0379 148.045 93.8723 148.045C94.7066 148.045 95.5109 147.713 96.0996 147.121C96.6906 146.53 97.4925 146.198 98.3269 146.198C99.1613 146.198 99.9655 146.53 100.554 147.121C101.145 147.713 101.947 148.045 102.784 148.045C103.621 148.045 104.42 147.713 105.011 147.121C105.602 146.53 106.404 146.198 107.238 146.198C108.073 146.198 108.875 146.53 109.466 147.121C110.057 147.713 110.859 148.045 111.693 148.045C112.527 148.045 113.332 147.713 113.92 147.121C114.511 146.53 115.313 146.198 116.148 146.198" stroke="#E0E6FC" stroke-width="1.13765" stroke-linejoin="round"/>
</g>
<mask id="mask2_19_1111" style="mask-type:luminance" maskUnits="userSpaceOnUse" x="-2" y="110" width="98" height="35">
<path d="M95.4244 110.352H-1.95947V144.002H95.4244V110.352Z" fill="white"/>
</mask>
<g mask="url(#mask2_19_1111)">
<path fill-rule="evenodd" clip-rule="evenodd" d="M40.4431 126.265C10.9216 126.265 -13.0472 124.632 -13.0472 122.619C-13.0472 120.607 10.9216 118.973 40.4431 118.973H71.4115V126.265H40.4431Z" fill="#7C0194"/>
</g>
<path d="M48.9931 21.6154V124.508H45.7777V25.0317H45.1748L23.0688 39.702V35.8837L44.5719 21.6154H48.9931Z" fill="black"/>
<path fill-rule="evenodd" clip-rule="evenodd" d="M16.9242 22.7529C16.7448 22.7529 16.5994 22.8973 16.5994 23.0755V31.6821L13.8974 28.9994C13.7706 28.8734 13.5649 28.8734 13.4381 28.9994C13.3113 29.1254 13.3113 29.3296 13.4382 29.4556L16.1399 32.1381H7.46652C7.28716 32.1381 7.14175 32.2826 7.14175 32.4607C7.14175 32.6388 7.28716 32.7833 7.46652 32.7833H16.1395L13.4383 35.463C13.3114 35.5889 13.3113 35.7931 13.438 35.9191C13.5648 36.0452 13.7704 36.0453 13.8973 35.9194L16.5994 33.2388V41.8432C16.5994 42.0213 16.7448 42.1657 16.9242 42.1657C17.1035 42.1657 17.2489 42.0213 17.2489 41.8432V33.2383L19.9539 35.9195C20.0808 36.0453 20.2865 36.0451 20.4132 35.919C20.5399 35.7929 20.5397 35.5887 20.4127 35.4629L17.7093 32.7833H26.3846C26.5639 32.7833 26.7094 32.6388 26.7094 32.4607C26.7094 32.2826 26.5639 32.1381 26.3846 32.1381H17.7089L20.4128 29.4557C20.5397 29.3298 20.5398 29.1255 20.4131 28.9995C20.2863 28.8735 20.0807 28.8734 19.9538 28.9993L17.2489 31.6826V23.0755C17.2489 22.8973 17.1035 22.7529 16.9242 22.7529Z" fill="#FBFBFB"/>
<path opacity="0.4" fill-rule="evenodd" clip-rule="evenodd" d="M89.6208 68.259C89.5269 68.259 89.4509 68.3352 89.4509 68.4292V72.9686L88.037 71.5536C87.9707 71.4871 87.8631 71.4872 87.7967 71.5536C87.7304 71.6201 87.7304 71.7278 87.7967 71.7942L89.2105 73.2091H84.672C84.5782 73.2091 84.5021 73.2852 84.5021 73.3792C84.5021 73.4732 84.5782 73.5493 84.672 73.5493H89.2102L87.7968 74.9627C87.7304 75.0291 87.7303 75.1368 87.7967 75.2033C87.863 75.2697 87.9706 75.2698 88.037 75.2034L89.4509 73.7896V78.3278C89.4509 78.4217 89.5269 78.4979 89.6208 78.4979C89.7147 78.4979 89.7907 78.4217 89.7907 78.3278V73.7893L91.2061 75.2035C91.2726 75.2698 91.3802 75.2697 91.4465 75.2032C91.5128 75.1367 91.5127 75.029 91.4462 74.9626L90.0316 73.5493H94.571C94.6649 73.5493 94.741 73.4732 94.741 73.3792C94.741 73.2852 94.6649 73.2091 94.571 73.2091H90.0314L91.4463 71.7943C91.5127 71.7279 91.5127 71.6201 91.4464 71.5537C91.3801 71.4872 91.2725 71.4871 91.2061 71.5535L89.7907 72.9688V68.4292C89.7907 68.3352 89.7147 68.259 89.6208 68.259Z" fill="#FBFBFB"/>
<path fill-rule="evenodd" clip-rule="evenodd" d="M51.6238 120.038L46.9595 71.672H93.6032L88.9388 120.038C88.9388 123.483 80.5779 126.279 70.2813 126.279C59.9847 126.279 51.6238 123.483 51.6238 120.038Z" fill="#FFFAF2"/>
<path fill-rule="evenodd" clip-rule="evenodd" d="M53.2044 103.425C53.114 102.722 53.3805 102.021 53.9136 101.557C54.4467 101.093 55.1767 100.926 55.8605 101.111C56.7342 101.35 57.7054 101.617 58.651 101.877C61.6663 102.703 64.8902 102.253 67.5625 100.626C69.1038 99.6887 70.8931 98.6002 72.6151 97.5535C76.7893 95.0169 82.1154 95.4277 85.8492 98.577C87.0058 99.5518 87.8587 100.271 87.8587 100.271C87.8587 100.271 86.3916 111.657 86.0092 114.628C85.9535 115.059 85.6615 115.424 85.2536 115.572C81.8744 116.716 76.4463 117.459 70.3299 117.459C64.2135 117.459 58.7854 116.716 55.4062 115.57C54.9983 115.421 54.7062 115.057 54.6506 114.625C54.3957 112.662 53.6679 107.02 53.2044 103.423V103.425Z" fill="#5CBAEF"/>
<mask id="mask3_19_1111" style="mask-type:luminance" maskUnits="userSpaceOnUse" x="53" y="95" width="35" height="23">
<path d="M53.2044 103.425C53.114 102.722 53.3805 102.021 53.9136 101.557C54.4467 101.093 55.1767 100.926 55.8605 101.111C56.7342 101.35 57.7054 101.617 58.651 101.877C61.6663 102.703 64.8902 102.253 67.5625 100.626C69.1038 99.6887 70.8931 98.6002 72.6151 97.5535C76.7893 95.0169 82.1154 95.4277 85.8492 98.577C87.0058 99.5518 87.8587 100.271 87.8587 100.271C87.8587 100.271 86.3916 111.657 86.0092 114.628C85.9535 115.059 85.6615 115.424 85.2536 115.572C81.8744 116.716 76.4463 117.459 70.3299 117.459C64.2135 117.459 58.7854 116.716 55.4062 115.57C54.9983 115.421 54.7062 115.057 54.6506 114.625C54.3957 112.662 53.6679 107.02 53.2044 103.423V103.425Z" fill="white"/>
</mask>
<g mask="url(#mask3_19_1111)">
<path fill-rule="evenodd" clip-rule="evenodd" d="M65.231 103.915C65.18 103.725 65.0549 103.562 64.8857 103.465C64.7165 103.367 64.5125 103.34 64.3225 103.391C62.5842 103.857 58.1551 105.045 56.4168 105.512C56.2267 105.563 56.0645 105.688 55.9672 105.858C55.8698 106.029 55.842 106.231 55.893 106.422C56.3588 108.162 57.5455 112.597 58.0114 114.34C58.0624 114.53 58.1852 114.693 58.3567 114.79C58.5259 114.888 58.7299 114.916 58.9199 114.865C60.6582 114.398 65.0873 113.21 66.8279 112.743C67.018 112.692 67.1802 112.567 67.2776 112.398C67.3749 112.226 67.4027 112.024 67.3517 111.834C66.8859 110.093 65.6992 105.658 65.2333 103.915H65.231Z" fill="white"/>
</g>
<path fill-rule="evenodd" clip-rule="evenodd" d="M53.186 103.274C54.4932 106.233 57.0937 108.42 60.2295 109.202C63.3654 109.982 66.6844 109.269 69.2246 107.266C71.4032 105.549 73.8206 103.646 75.7721 102.107C78.2173 100.181 81.3415 99.3406 84.4217 99.7816C86.2319 100.042 87.8612 100.274 87.8612 100.274C87.8612 100.274 86.3941 111.659 86.0117 114.63C85.9561 115.062 85.664 115.426 85.2561 115.575C81.8769 116.719 76.4488 117.462 70.3324 117.462C64.216 117.462 58.7879 116.719 55.4087 115.572C55.0008 115.424 54.7088 115.059 54.6531 114.628C54.3194 112.054 53.1907 103.274 53.1907 103.274H53.186Z" fill="#B0DAF9"/>
<mask id="mask4_19_1111" style="mask-type:luminance" maskUnits="userSpaceOnUse" x="53" y="99" width="35" height="19">
<path d="M53.186 103.274C54.4932 106.233 57.0937 108.42 60.2295 109.202C63.3654 109.982 66.6844 109.269 69.2246 107.266C71.4032 105.549 73.8206 103.646 75.7721 102.107C78.2173 100.181 81.3415 99.3406 84.4217 99.7816C86.2319 100.042 87.8612 100.274 87.8612 100.274C87.8612 100.274 86.3941 111.659 86.0117 114.63C85.9561 115.062 85.664 115.426 85.2561 115.575C81.8769 116.719 76.4488 117.462 70.3324 117.462C64.216 117.462 58.7879 116.719 55.4087 115.572C55.0008 115.424 54.7088 115.059 54.6531 114.628C54.3194 112.054 53.1907 103.274 53.1907 103.274H53.186Z" fill="white"/>
</mask>
<g mask="url(#mask4_19_1111)">
<path fill-rule="evenodd" clip-rule="evenodd" d="M65.0063 103.975C65.4722 105.716 66.6589 110.151 67.1247 111.892C67.1595 112.022 67.1409 112.161 67.0737 112.279C67.0065 112.395 66.8953 112.481 66.7631 112.516C65.0249 112.982 60.5957 114.171 58.8551 114.637C58.7253 114.672 58.5863 114.653 58.4681 114.586C58.3499 114.519 58.2664 114.407 58.2317 114.278C57.7658 112.537 56.5792 108.102 56.1133 106.361C56.0785 106.231 56.0971 106.092 56.1643 105.974C56.2315 105.858 56.3427 105.772 56.4749 105.737C58.2131 105.27 62.6423 104.082 64.3805 103.616C64.5103 103.581 64.6494 103.599 64.7676 103.667C64.8858 103.734 64.9692 103.845 65.004 103.975H65.0063ZM65.2311 103.915C65.1802 103.725 65.055 103.562 64.8858 103.465C64.7166 103.367 64.5127 103.34 64.3226 103.391C62.5843 103.857 58.1552 105.045 56.4169 105.512C56.2269 105.563 56.0646 105.688 55.9673 105.858C55.8699 106.029 55.8421 106.231 55.8931 106.422C56.359 108.162 57.5456 112.597 58.0115 114.34C58.0625 114.53 58.1853 114.693 58.3568 114.79C58.526 114.888 58.73 114.916 58.92 114.865C60.6583 114.398 65.0874 113.21 66.828 112.743C67.0181 112.692 67.1803 112.567 67.2777 112.398C67.375 112.226 67.4028 112.024 67.3518 111.834C66.886 110.093 65.6993 105.658 65.2335 103.915H65.2311Z" fill="#FBF1E1"/>
</g>
<path fill-rule="evenodd" clip-rule="evenodd" d="M85.3741 108.712L79.5868 114.507C79.4918 114.602 79.362 114.656 79.2276 114.656C79.0932 114.656 78.9634 114.602 78.8683 114.507L73.081 108.712C72.986 108.617 72.9327 108.487 72.9327 108.352C72.9327 108.218 72.986 108.088 73.081 107.993C74.3534 106.718 77.5959 103.472 78.8683 102.198C78.9634 102.102 79.0932 102.049 79.2276 102.049C79.362 102.049 79.4918 102.102 79.5868 102.198C80.8592 103.472 84.1017 106.718 85.3741 107.993C85.4692 108.088 85.5225 108.218 85.5225 108.352C85.5225 108.487 85.4692 108.617 85.3741 108.712ZM85.5387 108.877C85.6778 108.738 85.7566 108.55 85.7566 108.352C85.7566 108.155 85.6778 107.967 85.5387 107.828C84.2663 106.554 81.0238 103.307 79.7514 102.033C79.6123 101.893 79.4246 101.815 79.2276 101.815C79.0306 101.815 78.8428 101.893 78.7038 102.033C77.4314 103.307 74.1889 106.554 72.9165 107.828C72.7774 107.967 72.6986 108.155 72.6986 108.352C72.6986 108.55 72.7774 108.738 72.9165 108.877L78.7038 114.672C78.8428 114.811 79.0306 114.89 79.2276 114.89C79.4246 114.89 79.6123 114.811 79.7514 114.672L85.5387 108.877Z" fill="#FBF1E1"/>
<path fill-rule="evenodd" clip-rule="evenodd" d="M70.0379 112.37C70.4435 112.37 70.7726 112.699 70.7726 113.105C70.7726 113.511 70.4435 113.841 70.0379 113.841C69.6323 113.841 69.3032 113.511 69.3032 113.105C69.3032 112.699 69.6323 112.37 70.0379 112.37Z" fill="#FBF1E1"/>
<path fill-rule="evenodd" clip-rule="evenodd" d="M84.8897 102.569C85.2953 102.569 85.6245 102.898 85.6245 103.305C85.6245 103.711 85.2953 104.04 84.8897 104.04C84.4841 104.04 84.155 103.711 84.155 103.305C84.155 102.898 84.4841 102.569 84.8897 102.569Z" fill="#FBF1E1"/>
<path fill-rule="evenodd" clip-rule="evenodd" d="M66.6125 114.888C66.8373 114.888 67.0204 115.071 67.0204 115.296C67.0204 115.521 66.8373 115.705 66.6125 115.705C66.3877 115.705 66.2046 115.521 66.2046 115.296C66.2046 115.071 66.3877 114.888 66.6125 114.888Z" fill="#FBF1E1"/>
<path fill-rule="evenodd" clip-rule="evenodd" d="M55.7981 110.504C56.0229 110.504 56.206 110.687 56.206 110.912C56.206 111.137 56.0229 111.321 55.7981 111.321C55.5732 111.321 55.3901 111.137 55.3901 110.912C55.3901 110.687 55.5732 110.504 55.7981 110.504Z" fill="#FBF1E1"/>
<path fill-rule="evenodd" clip-rule="evenodd" d="M75.0189 114.99C75.2437 114.99 75.4268 115.173 75.4268 115.398C75.4268 115.624 75.2437 115.807 75.0189 115.807C74.7941 115.807 74.611 115.624 74.611 115.398C74.611 115.173 74.7941 114.99 75.0189 114.99Z" fill="#FBF1E1"/>
<path fill-rule="evenodd" clip-rule="evenodd" d="M82.0877 101.281C82.3125 101.281 82.4956 101.464 82.4956 101.689C82.4956 101.914 82.3125 102.098 82.0877 102.098C81.8629 102.098 81.6798 101.914 81.6798 101.689C81.6798 101.464 81.8629 101.281 82.0877 101.281Z" fill="#FBF1E1"/>
<path d="M70.2813 76.2227C83.1616 76.2227 93.6032 74.1853 93.6032 71.6721C93.6032 69.1588 83.1616 67.1215 70.2813 67.1215C57.401 67.1215 46.9595 69.1588 46.9595 71.6721C46.9595 74.1853 57.401 76.2227 70.2813 76.2227Z" fill="#FBFBFB"/>
<path d="M90.1904 73.9474C86.045 75.3159 78.8846 76.2227 70.754 76.2227C62.6234 76.2227 55.6835 75.3427 51.5103 74.0076" stroke="#7C0194" stroke-width="1.13765" stroke-miterlimit="1.5"/>
</g>
</svg>
