<svg width="96" height="150" viewBox="0 0 96 150" fill="none" xmlns="http://www.w3.org/2000/svg">
<mask id="mask0_117_18273" style="mask-type:alpha" maskUnits="userSpaceOnUse" x="0" y="0" width="96" height="150">
<rect x="0.963867" width="94.9073" height="149.137" rx="11.561" fill="#F6DFCF"/>
</mask>
<g mask="url(#mask0_117_18273)">
<rect x="-1.94019" y="-6.10352e-05" width="110.349" height="156.812" fill="url(#paint0_linear_117_18273)"/>
<mask id="mask1_117_18273" style="mask-type:luminance" maskUnits="userSpaceOnUse" x="-16" y="-3" width="163" height="162">
<path d="M146.16 -2.9039L-15.0078 -2.9039L-15.0078 158.264L146.16 158.264L146.16 -2.9039Z" fill="white"/>
</mask>
<g mask="url(#mask1_117_18273)">
<path d="M83.2424 53.2392L82.2738 53.7675L83.2424 54.298L83.7707 55.2666L84.3012 54.298L85.2698 53.7675L84.3012 53.2392L83.7707 52.2706L83.2424 53.2392Z" fill="white"/>
<path d="M55.655 134.549L54.6864 135.077L55.655 135.608L56.1833 136.576L56.7138 135.608L57.6824 135.077L56.7138 134.549L56.1833 133.58L55.655 134.549Z" fill="white"/>
<path opacity="0.5" d="M112.068 -2.7678L33.0706 -2.90381C32.0103 -2.11365 31.3855 -0.750304 31.4613 0.590375C31.5402 1.93105 32.3196 3.2102 33.4651 3.86435C34.7178 4.58326 36.2325 4.5444 37.6652 4.48611C43.1969 4.26591 48.7287 4.0457 54.2636 3.82549C55.346 3.78339 56.4567 3.74453 57.4823 4.10075C58.5079 4.45697 59.4451 5.30218 59.606 6.39998C59.8585 8.13898 58.1292 9.53795 56.4631 9.94274C54.7969 10.3475 53.0014 10.1889 51.4204 10.8657C48.5772 12.0865 47.3528 15.8689 48.2901 18.8806C49.2273 21.8923 51.859 24.0943 54.7275 25.2407C57.5991 26.3871 60.7231 26.6365 63.7935 26.8729C70.0195 27.3521 76.2423 27.8282 82.4683 28.3074C93.0838 29.1235 103.579 28.7155 114.217 29.0393C113.317 18.479 112.964 7.786 112.065 -2.77427L112.068 -2.7678Z" fill="white"/>
<path d="M-5.48602 24.9412C-6.40115 26.0988 -6.61746 27.9714 -5.7356 29.1618C-4.75058 30.4936 -2.94028 30.5408 -1.3729 30.4718C2.18116 30.3194 5.73189 30.1634 9.28594 30.011C10.2044 29.971 11.1395 29.9275 12.0047 29.5864C12.87 29.2452 13.6653 28.5521 13.9348 27.594C14.3608 26.0916 13.3192 24.4694 11.9947 23.8452C9.28927 22.5678 5.83172 23.9142 2.95653 23.6964C0.191157 23.4896 -3.35957 22.2484 -5.48602 24.9412Z" fill="#F8F2EE"/>
<path opacity="0.5" d="M-20.1186 150.868L58.8786 151.004C59.9389 150.214 60.5637 148.85 60.488 147.51C60.4091 146.169 59.6296 144.89 58.4842 144.236C57.2314 143.517 55.7167 143.556 54.2841 143.614C48.7523 143.834 43.2205 144.054 37.6856 144.275C36.6032 144.317 35.4925 144.356 34.4669 143.999C33.4413 143.643 32.5041 142.798 32.3432 141.7C32.0907 139.961 33.82 138.562 35.4862 138.157C37.1523 137.753 38.9479 137.911 40.5288 137.234C43.372 136.014 44.5964 132.231 43.6592 129.219C42.7219 126.208 40.0902 124.006 37.2217 122.859C34.3502 121.713 31.2261 121.464 28.1557 121.227C21.9297 120.748 15.7069 120.272 9.48089 119.793C-1.13454 118.977 -11.6301 119.385 -22.2676 119.061C-21.3682 129.621 -21.0148 140.314 -20.1155 150.874L-20.1186 150.868Z" fill="white"/>
<circle cx="60.4942" cy="23.2314" r="1.45196" fill="white"/>
<path fill-rule="evenodd" clip-rule="evenodd" d="M24.1953 11.6157L23.682 12.5551L22.7433 13.0688L23.682 13.5826L24.1953 14.5196L24.7085 13.5826L25.6472 13.0688L24.7085 12.5551L24.1953 11.6157ZM24.1953 12.0294L24.5624 12.7014L25.2339 13.0688L24.5625 13.4363L24.1953 14.1067L23.828 13.4363L23.1566 13.0688L23.8281 12.7014L24.1953 12.0294Z" fill="white"/>
<path fill-rule="evenodd" clip-rule="evenodd" d="M8.22358 43.5588L7.7103 44.4983L6.77162 45.012L7.71035 45.5257L8.22358 46.4627L8.7368 45.5257L9.67554 45.012L8.73685 44.4983L8.22358 43.5588ZM8.22358 43.9725L8.59074 44.6445L9.26221 45.012L8.59079 45.3794L8.22358 46.0498L7.85637 45.3794L7.18494 45.012L7.85642 44.6445L8.22358 43.9725Z" fill="white"/>
<path d="M63.2991 123.574C64.4237 123.689 65.562 123.981 66.6082 124.146C67.2694 124.25 68.0396 124.321 68.5201 123.864C68.9699 123.44 68.9699 122.75 69.0517 122.141C69.2698 120.479 70.3536 118.952 71.8633 118.182C73.3696 117.412 75.2611 117.418 76.7606 118.199C78.2601 118.979 79.3336 120.516 79.5415 122.178C79.5892 122.555 79.596 122.942 79.7187 123.302C79.9675 124.022 80.6695 124.227 81.3716 124.22C83.6072 124.2 85.6009 123.033 87.8229 123.773C88.651 124.049 89.4178 124.52 89.9767 125.186C90.1403 125.384 91.2479 127.772 90.9275 127.772L57.6452 127.772C57.3385 127.772 58.4086 125.418 58.5654 125.223C59.1243 124.54 59.8979 124.059 60.7329 123.776C61.544 123.504 62.413 123.483 63.2923 123.574L63.2991 123.574Z" fill="white"/>
<circle opacity="0.8" cx="114.217" cy="152.456" r="31.6527" stroke="white" stroke-width="0.580784"/>
<path d="M77.1374 27.3049C77.1374 28.4301 72.4849 27.7014 71.7502 28.4408C71.0156 29.1802 71.7396 33.8632 70.6217 33.8632C69.5038 33.8632 70.2278 29.1802 69.4931 28.4408C68.7585 27.7014 64.106 28.4301 64.106 27.3049C64.106 26.1796 68.7585 26.9084 69.4931 26.1689C70.2278 25.4295 69.5038 20.7465 70.6217 20.7465C71.7396 20.7465 71.0156 25.4295 71.7502 26.1689C72.4849 26.9084 77.1374 26.1796 77.1374 27.3049Z" fill="white"/>
<path d="M36.4826 50.5362C36.4826 51.6615 31.8301 50.9327 31.0954 51.6722C30.3608 52.4116 31.0848 57.0946 29.9669 57.0946C28.849 57.0946 29.573 52.4116 28.8384 51.6722C28.1037 50.9327 23.4512 51.6615 23.4512 50.5362C23.4512 49.411 28.1037 50.1397 28.8384 49.4003C29.573 48.6609 28.849 43.9779 29.9669 43.9779C31.0848 43.9779 30.3608 48.6609 31.0954 49.4003C31.8301 50.1397 36.4826 49.411 36.4826 50.5362Z" fill="white"/>
</g>
<g clip-path="url(#clip0_117_18273)">
<path d="M78.7188 72.0147C78.9758 71.1437 78.81 70.3685 79.0007 69.6433C79.1623 69.0182 79.1748 68.4472 79.1085 67.7512C79.1085 67.5637 79.1002 67.5595 79.096 67.3678C79.0919 67.2594 79.1043 66.8677 79.1043 66.7593C79.2328 65.8091 79.324 65.1506 79.1789 64.3421C79.2162 63.9962 79.2038 63.7086 79.125 63.3627C79.1085 63.0335 79.1872 62.8126 79.0712 62.5125C79.0421 62.3125 79.1333 62.2333 79.1085 62.0332C79.2162 61.6582 79.0712 61.1747 79.0712 60.7705L79.0214 60.4704C79.0339 60.1245 78.9841 59.8661 78.8929 59.5494C78.9385 59.2951 78.7023 59.0576 78.6898 58.7908C78.6608 58.1865 78.5158 57.6072 78.2754 57.0821C78.1966 55.7985 77.7075 54.7983 77.0444 53.6689C76.3729 51.8351 74.7937 50.514 73.5835 48.997C72.6136 47.78 71.3826 47.009 70.1599 46.0588C68.5476 44.8043 66.9726 43.7583 65.3602 42.508C64.867 42.1246 64.2453 41.3702 63.5158 41.3619C63.0682 40.9493 62.6744 40.5784 62.032 40.4242C61.6755 40.3367 61.2611 39.9782 60.9005 39.9074C60.2456 39.5823 59.7068 39.524 58.9773 39.3864C57.9162 39.1864 56.3951 39.5031 55.4459 40.1199C54.675 40.6201 54.1072 41.2619 53.7507 42.1121C53.4523 42.8289 53.5849 44.3376 53.7342 45.1211C53.1788 45.4045 52.3954 45.1377 52.0265 45.642C50.8494 46.3005 49.9914 47.8425 50.066 49.1845C50.1241 50.2181 50.0992 51.2475 49.9997 52.2727C49.9293 52.6853 49.8381 53.0896 49.7427 53.4896C49.8339 53.6605 49.892 53.8647 49.8837 54.1065C49.8795 54.294 49.8588 54.4774 49.8298 54.6607C49.8215 54.7316 49.8049 54.8024 49.7925 54.8733C49.7179 55.2859 49.6225 55.6943 49.5894 56.1111C49.5314 56.7946 49.2868 57.428 49.1583 58.0949C49.15 58.1365 49.1335 58.1699 49.1252 58.2116C49.1459 58.4199 49.1708 58.6241 49.2081 58.8284C49.0464 59.0993 48.9138 59.3868 48.8019 59.6785C48.7977 59.8578 48.7521 60.0453 48.6527 60.237C48.5615 60.412 48.4579 60.5746 48.346 60.733C48.4247 61.0414 48.3998 61.3748 48.2133 61.6415C47.9398 62.0374 47.6082 62.375 47.3222 62.7584C47.2061 62.9168 47.0942 63.0752 46.9782 63.2335C46.9782 63.2835 46.9782 63.3294 46.9657 63.3794C46.9575 63.5461 46.9077 63.7003 46.8165 63.8462C46.8041 63.867 46.7958 63.8837 46.7834 63.9003C46.7792 63.9087 46.7709 63.917 46.7668 63.9212C46.6922 64.0587 46.601 64.1879 46.4974 64.3046C46.4767 64.3296 46.4518 64.3504 46.4269 64.3713C46.3482 64.4338 46.2694 64.4963 46.1865 64.5547C46.0788 64.9672 45.6767 64.9839 45.6228 65.4048C45.4861 65.509 44.8478 66.2967 44.6322 66.5801C44.6032 66.6301 44.4789 66.8218 44.4499 66.876C44.1307 67.1427 44.1307 67.3136 43.7784 67.6012C42.3982 68.7306 39.8119 71.723 39.7621 71.8188C39.3684 72.6315 38.7674 73.315 38.3653 74.1318C38.3322 74.1985 38.3073 74.2652 38.2783 74.3319C38.299 74.4319 38.3073 74.5403 38.2907 74.6569C38.2783 74.7736 38.2534 74.882 38.2327 74.9862C38.2369 74.9862 38.241 74.9862 38.2493 74.9862C37.9219 76.9116 37.1841 77.7451 37.1178 80.675C37.1136 80.8875 37.039 81.0667 36.9478 81.2209C36.9313 81.5543 36.8774 81.8836 36.7903 82.2003C37.0141 82.4045 36.8276 83.1464 36.9064 83.4506C36.9934 83.7882 37.0017 83.9341 36.9022 84.2675C36.7779 84.6759 36.8276 84.7176 36.4214 84.8468C36.3468 84.8968 36.2722 84.9343 36.1893 84.9676C36.1976 85.026 35.8619 84.7926 35.8702 84.8509C34.8464 84.9384 34.2081 84.8259 33.1802 84.8968C32.8404 84.9176 32.658 84.9551 32.3181 84.976C32.2974 84.976 31.7627 84.976 31.742 84.976C29.6323 84.7884 27.8335 85.0801 25.7196 84.9426C24.9321 84.8926 24.1405 84.8468 23.353 84.8009C22.9634 85.1635 22.3334 85.2385 21.8733 84.9718C21.8484 84.9676 21.836 84.9635 21.8318 84.9593C21.7448 84.9593 21.6536 84.9593 21.5707 84.9593C21.2723 84.9551 20.978 84.9301 20.6837 84.8759C20.6713 84.8759 20.663 84.8843 20.6506 84.8843C20.348 84.9468 20.0413 84.9926 19.7346 85.0301C19.3035 85.1468 18.8476 84.8676 18.3212 84.8884C17.8653 84.9051 17.5088 84.8884 17.0281 85.0135C16.1742 85.7053 16.2198 86.1637 15.6478 87.8141C15.6271 87.8433 15.424 88.2559 15.4033 88.285C15.2126 88.5768 15.4655 88.6268 15.3246 88.9685C15.2292 89.0811 15.1463 89.2061 15.0551 89.3228C15.0469 89.6228 15.022 89.9271 14.9681 90.2396C14.9681 90.2605 14.9598 90.2813 14.9557 90.3022C14.6407 91.5316 14.4293 92.3735 14.2552 93.7363C14.2884 93.7905 14.3132 93.8488 14.3505 93.903C14.3381 93.9822 14.3257 94.0613 14.3174 94.1405C14.0397 96.5411 14.1516 98.9124 14.4956 101.3C14.5951 102.001 14.7111 102.659 15.109 103.268C15.9048 104.485 16.4188 105.539 17.7783 105.66C18.8932 105.76 20.5635 105.747 21.6868 105.764C26.4781 105.835 30.7141 105.993 35.1904 105.764C36.409 105.701 37.5032 105.797 38.7176 105.672C39.5176 105.589 40.102 105.714 40.8978 105.593C40.96 105.585 42.0169 105.564 42.0749 105.551C49.7345 105.243 53.1124 103.601 58.5089 100.884C59.1307 100.571 59.3628 100.313 60.3451 99.8001C60.6186 99.6543 60.6891 99.5168 60.9709 99.3876C61.717 99.0958 62.032 98.4623 62.7656 98.1456C62.5833 97.733 63.1842 97.8497 63.5697 97.4204C64.6681 96.2035 65.6379 95.4617 66.9767 94.574C67.0596 94.524 67.0845 94.4198 67.1674 94.3697C67.0016 94.1739 67.6109 93.8863 67.7849 93.7404C68.3818 93.2403 68.7507 92.6485 69.418 92.3026C69.4802 91.9067 70.2386 92.0526 70.1475 91.6441C70.2096 91.4899 70.4334 91.5024 70.4749 91.3399C70.4832 91.3024 70.7485 91.1107 70.7567 91.0732C71.8841 90.0563 72.3939 89.3103 73.4011 88.31C73.886 87.8308 74.3876 87.2973 74.5865 86.6222C74.7274 86.4846 74.9305 86.3971 75.0176 86.2179C75.4238 85.4011 76.0869 84.6509 76.1988 83.7382C76.2569 83.6757 76.3646 83.6381 76.3771 83.5548C76.5677 82.367 76.6962 81.7419 77.3055 80.6375C77.3138 80.3749 77.579 80.0957 77.5293 79.8498C77.6951 79.3413 77.7946 78.7996 77.7407 78.3453C77.72 78.1827 77.6992 78.0244 77.6744 77.8618C77.8484 77.4993 78.0059 77.12 78.1386 76.7408C78.3417 76.1615 78.4121 75.5155 78.408 74.907C78.408 74.8445 78.408 74.782 78.4038 74.7195C78.6235 74.2569 78.7313 73.7609 78.7106 73.2316C78.7271 72.7899 78.7437 72.6148 78.7354 72.0272L78.7188 72.0147ZM67.1301 67.2886C65.8037 68.2888 64.523 69.1349 63.1055 70.0017C62.5128 70.3268 62.0486 70.7352 61.4766 71.0936C61.0663 71.352 60.9088 71.1853 60.5979 71.5604C60.5067 71.6104 60.3741 71.6646 60.287 71.7271C59.9638 71.5646 59.8311 71.7771 59.5203 71.5896C59.4457 71.4646 59.3379 71.4479 59.2674 71.3187C59.1555 70.9686 58.9732 70.7894 58.712 70.5227C58.2603 70.0559 58.0572 69.9392 57.8251 68.9265C57.8251 68.8848 57.6675 68.6389 57.6717 68.6014C57.68 68.2638 57.6344 67.9346 57.5598 67.6178C58.0613 66.9135 58.1069 66.0092 58.5048 65.2006C58.6291 64.9464 59.0229 64.1129 58.9566 63.8128C59.4208 62.9543 59.4166 62.9626 59.7607 62.0458C60.1088 61.108 60.2829 59.9078 60.2497 58.9034C60.2207 58.124 60.0922 57.2697 60.1917 56.4945C60.457 54.4274 60.3036 53.0562 59.9803 51.36C59.8891 50.8891 59.9016 50.3473 59.6943 49.8472C59.8726 49.993 59.6985 50.4515 59.8767 50.5973C61.2196 54.1356 63.5573 56.5903 66.355 58.545C66.7778 58.8409 66.8938 59.2826 67.329 59.491C67.1093 59.7744 67.2503 59.7994 67.1384 60.1453C66.8772 60.6413 66.757 61.0289 66.7778 61.604C66.7943 61.7248 66.6741 61.9707 66.6907 62.0916C66.5747 62.4792 66.5954 62.6542 66.5912 63.0752L66.5912 63.5294C66.5664 64.1046 66.6493 64.7714 66.9104 65.2673C67.0762 65.7841 67.1218 66.0217 67.528 66.4009C67.6357 66.5176 67.7062 66.6468 67.8222 66.7468C67.4492 67.0594 67.5031 66.9885 67.1259 67.2886L67.1301 67.2886Z" fill="#FBE7CA"/>
<path d="M42.4312 68.7304C38.1745 72.848 36.4834 78.7744 36.7736 84.6007C36.7819 84.8007 37.0927 84.8007 37.0844 84.6007C36.7985 78.8536 38.4481 73.0189 42.6509 68.9513C42.7959 68.8096 42.5763 68.5887 42.4312 68.7304Z" fill="#0A0A0A"/>
<path d="M56.1464 45.4332C54.7206 44.8831 52.9632 44.8081 51.5954 45.5666C51.0276 45.8792 50.5509 46.3543 50.3147 46.9669C50.0121 47.7463 50.0992 48.7048 50.0411 49.5217C49.751 53.6434 49.2495 57.8611 47.5999 61.6869C46.6714 63.8416 45.3617 65.8004 43.6748 67.4299C43.5297 67.5674 43.7494 67.7883 43.8944 67.6508C46.6797 64.9627 48.3335 61.4327 49.2246 57.6944C49.6722 55.8314 49.9458 53.9268 50.1365 52.0222C50.2359 51.0303 50.3147 50.0385 50.381 49.0424C50.4349 48.2214 50.3561 47.3128 50.8535 46.6127C51.9684 45.0373 54.4677 45.1207 56.0635 45.7375C56.25 45.8083 56.3329 45.5083 56.1464 45.4374L56.1464 45.4332Z" fill="#1D1D1B"/>
<path d="M24.1153 85.1298C28.4176 85.159 32.7157 85.0965 37.0138 84.9464C37.2128 84.9381 37.2128 84.6255 37.0138 84.6339C32.7157 84.7881 28.4176 84.8464 24.1153 84.8172C23.9163 84.8172 23.9163 85.1298 24.1153 85.1298Z" fill="black"/>
<path d="M16.9534 84.9881C18.8642 85.0465 20.7749 85.0882 22.6856 85.1132C22.8846 85.1132 22.8846 84.8048 22.6856 84.8006C20.7749 84.7756 18.8642 84.7339 16.9534 84.6756C16.7545 84.6714 16.7545 84.984 16.9534 84.9881Z" fill="black"/>
<path d="M36.9064 84.6757C35.9324 85.5634 35.1574 86.6553 34.6351 87.8681C34.5564 88.0515 34.8258 88.2098 34.9045 88.0265C35.4143 86.8345 36.1687 85.7676 37.1261 84.8966C37.2753 84.7632 37.0557 84.5423 36.9064 84.6757Z" fill="#1D1D1B"/>
<path d="M16.7875 84.7756C15.3078 87.3346 14.6032 90.2519 14.2799 93.1734C14.11 94.7154 14.0478 96.2699 14.0313 97.8203C14.0147 99.3706 14.0934 101.021 14.6488 102.517C15.1462 103.859 15.9959 105.055 17.2435 105.776C17.4175 105.876 17.575 105.605 17.401 105.505C13.9857 103.526 14.2385 98.858 14.4084 95.4489C14.5908 91.8273 15.2208 88.1056 17.0528 84.9299C17.1523 84.7548 16.887 84.5964 16.7834 84.7715L16.7875 84.7756Z" fill="#0A0A0A"/>
<path d="M27.1866 105.989C32.9644 106.01 38.7422 105.876 44.5117 105.593C44.7107 105.585 44.7107 105.272 44.5117 105.28C38.7422 105.564 32.9644 105.697 27.1866 105.676C26.9876 105.676 26.9876 105.989 27.1866 105.989Z" fill="#FBE7CA"/>
<path d="M17.3677 105.801C20.1571 105.897 22.9507 105.956 25.7402 105.981C25.9391 105.981 25.9391 105.668 25.7402 105.668C22.9466 105.643 20.1571 105.585 17.3677 105.489C17.1688 105.48 17.1688 105.793 17.3677 105.801Z" fill="#FBE7CA"/>
<path d="M53.8749 44.7831C53.6718 43.712 53.6718 42.5534 54.2355 41.5865C54.6334 40.903 55.2675 40.4071 55.9763 40.0737C56.5607 39.8028 57.2031 39.6319 57.8456 39.5485C59.4496 39.3443 60.9832 40.0403 62.3799 40.7572C62.5582 40.8488 62.7157 40.578 62.5374 40.4863C61.4018 39.9028 60.2122 39.3485 58.9273 39.2235C58.1813 39.1526 57.4269 39.261 56.7099 39.4694C55.4582 39.8361 54.2976 40.5946 53.7712 41.8366C53.3651 42.7951 53.3941 43.8579 53.5847 44.8664C53.622 45.0623 53.9205 44.9789 53.8832 44.7831L53.8749 44.7831Z" fill="#1D1D1B"/>
<path d="M73.5046 49.1174C76.149 51.8555 78.4369 55.3396 78.7229 59.2405C78.7394 59.4406 79.0503 59.4406 79.0337 59.2405C78.7394 55.2521 76.4308 51.6972 73.7243 48.8965C73.5833 48.7506 73.3637 48.9715 73.5046 49.1174Z" fill="#FBE7CA"/>
<path d="M62.6536 40.9158C66.044 43.0287 69.2687 45.4043 72.2944 48.0215C72.4436 48.1507 72.6674 47.9298 72.514 47.8006C69.4676 45.1667 66.2264 42.7745 62.8111 40.6449C62.6412 40.5365 62.4837 40.8074 62.6536 40.9158Z" fill="#1D1D1B"/>
<path d="M78.7272 59.1948C79.1293 62.108 79.121 65.0878 78.98 68.0218C78.8308 71.1684 78.4992 74.3233 77.8651 77.4115C77.5791 78.7951 77.2309 80.1746 76.7253 81.4957C76.6548 81.6833 76.9532 81.7666 77.0237 81.5791C78.0102 79.0118 78.4661 76.2279 78.8143 73.5106C79.2246 70.289 79.4194 67.0341 79.3572 63.7875C79.3282 62.2247 79.237 60.6618 79.0256 59.1156C78.9966 58.9156 78.6982 59.0031 78.7272 59.199L78.7272 59.1948Z" fill="#FBE7CA"/>
<path d="M76.8164 81.329C76.576 81.9958 76.4475 82.6959 76.2071 83.3627C75.9667 84.0296 75.6931 84.6214 75.3698 85.2215C74.7647 86.3384 74.0228 87.3678 73.2021 88.3347C71.5732 90.2518 69.6666 91.9022 67.7849 93.5567C65.6213 95.453 63.5282 97.4451 61.1616 99.0913C58.7949 100.738 55.9309 102.063 53.1704 103.246C50.41 104.43 47.546 105.076 44.5162 105.284C44.3172 105.297 44.3172 105.609 44.5162 105.597C47.1978 105.414 49.8049 104.947 52.3125 103.942C55.0729 102.838 57.8457 101.592 60.3616 99.9957C62.8692 98.4078 65.0494 96.3824 67.271 94.4236C69.2356 92.6899 71.2499 91.002 72.999 89.0432C73.9316 88.0013 74.7896 86.8802 75.4859 85.6591C75.8341 85.0465 76.1408 84.4088 76.3977 83.7503C76.6962 82.9877 76.8412 82.1833 77.1189 81.4123C77.1894 81.2248 76.8868 81.1414 76.8205 81.329L76.8164 81.329Z" fill="#FBE7CA"/>
<path d="M56.113 45.7669C57.7419 46.3045 58.7242 47.9883 59.3376 49.4969C60.0712 51.2932 60.2619 53.1144 60.2536 55.0482C60.2453 57.2862 60.2287 59.5575 59.7189 61.7455C59.4537 62.8791 59.0392 63.9377 58.5004 64.9671C58.0776 65.7756 57.6714 66.5883 57.5968 67.5135C57.4517 69.3223 58.4299 71.131 60.0091 71.9937C60.1832 72.0896 60.3407 71.8187 60.1666 71.7228C58.5087 70.8143 57.5512 68.7846 58.003 66.9217C58.2641 65.8506 58.9273 64.9296 59.3501 63.921C59.7728 62.9125 60.0547 61.8331 60.2287 60.7453C60.5811 58.5782 60.5935 56.3485 60.5603 54.1563C60.5355 52.4018 60.2122 50.7347 59.5158 49.1218C58.8568 47.6048 57.8372 46.0045 56.1959 45.4627C56.0052 45.4002 55.9223 45.7002 56.113 45.7627L56.113 45.7669Z" fill="#1D1D1B"/>
<path d="M59.9927 51.3889C60.8879 53.0976 62.0733 54.6938 63.3458 56.1358C64.8421 57.8362 66.7279 59.6158 69.0117 60.0992C69.2065 60.1409 69.2894 59.8408 69.0946 59.7991C66.8233 59.3199 64.9664 57.5236 63.4867 55.8274C62.264 54.4271 61.1283 52.8809 60.2621 51.2305C60.1667 51.0513 59.9015 51.2097 59.9927 51.3889Z" fill="#1D1D1B"/>
<path d="M67.2208 59.4657C66.5121 61.887 65.7785 64.9752 67.8591 66.959C68.0042 67.0966 68.2239 66.8757 68.0788 66.7381C66.0852 64.8419 66.8437 61.8579 67.5193 59.549C67.5773 59.3573 67.2747 59.274 67.2208 59.4657Z" fill="#0A0A0A"/>
<path d="M60.1624 71.9937C61.5591 71.3186 62.8482 70.4017 64.1331 69.5432C65.4179 68.6846 66.6987 67.7636 68.0499 66.9843C68.2239 66.8842 68.0664 66.6133 67.8924 66.7134C66.5412 67.4885 65.2687 68.4054 63.9756 69.2723C62.6824 70.1391 61.4016 71.0518 60.0049 71.7228C59.8266 71.8104 59.9841 72.0812 60.1624 71.9937Z" fill="#1D1D1B"/>
</g>
</g>
<defs>
<linearGradient id="paint0_linear_117_18273" x1="24.9211" y1="11.6156" x2="61.2201" y2="211.26" gradientUnits="userSpaceOnUse">
<stop stop-color="#FB7237"/>
<stop offset="1" stop-color="#EFCA6B" stop-opacity="0"/>
</linearGradient>
<clipPath id="clip0_117_18273">
<rect width="65.3382" height="66.7902" fill="white" transform="translate(14.0315 39.203)"/>
</clipPath>
</defs>
</svg>
