<svg width="94" height="148" viewBox="0 0 94 148" fill="none" xmlns="http://www.w3.org/2000/svg">
<mask id="mask0_32_7026" style="mask-type:alpha" maskUnits="userSpaceOnUse" x="0" y="0" width="94" height="148">
<rect x="0.315796" y="0.631714" width="93.393" height="146.757" rx="11.3765" fill="#F6DFCF"/>
</mask>
<g mask="url(#mask0_32_7026)">
<rect width="252.525" height="168.35" transform="matrix(-1 0 0 1 219.849 -9.60718)" fill="#F8F2EE"/>
<path d="M43.9544 94.6296V88.1606C43.9544 85.3266 44.3395 82.816 45.1096 80.6289C45.8797 78.4418 47.1735 76.3471 48.991 74.3447C50.8393 72.3424 53.3498 70.2323 56.5227 68.0144C59.6648 65.7965 62.1292 63.7479 63.9158 61.8689C65.7333 59.959 67.0117 58.0491 67.751 56.1392C68.5211 54.1985 68.9062 52.1192 68.9062 49.9012C68.9062 45.989 67.9821 42.5235 66.1338 39.5047C64.2855 36.455 61.7595 34.0676 58.5558 32.3426C55.383 30.6175 51.8096 29.755 47.8358 29.755C43.6464 29.755 39.9036 30.7253 36.6075 32.666C33.3422 34.5759 30.7546 37.1943 28.8447 40.5212C26.9656 43.8173 26.0261 47.5601 26.0261 51.7495H23.0688C23.0688 47.0056 24.147 42.7546 26.3033 38.9964C28.4597 35.2382 31.4015 32.2656 35.1289 30.0784C38.887 27.8913 43.1227 26.7977 47.8358 26.7977C52.3641 26.7977 56.4303 27.7989 60.0345 29.8012C63.6694 31.8035 66.5496 34.5451 68.6752 38.026C70.8007 41.4762 71.8635 45.4346 71.8635 49.9012C71.8635 52.4888 71.4168 54.8916 70.5235 57.1095C69.6609 59.2967 68.2285 61.453 66.2262 63.5785C64.2239 65.704 61.5439 67.9836 58.1862 70.4172C55.2597 72.5427 52.9648 74.4834 51.3013 76.2392C49.6687 77.9643 48.5289 79.7664 47.882 81.6455C47.2351 83.4937 46.9117 85.6655 46.9117 88.1606V94.6296H43.9544ZM45.433 123.278C44.5089 123.278 43.7234 122.955 43.0765 122.308C42.4296 121.661 42.1061 120.875 42.1061 119.951C42.1061 119.027 42.4296 118.241 43.0765 117.595C43.7234 116.948 44.5089 116.624 45.433 116.624C46.3572 116.624 47.1427 116.948 47.7896 117.595C48.4365 118.241 48.7599 119.027 48.7599 119.951C48.7599 120.567 48.6059 121.137 48.2979 121.661C48.0206 122.154 47.6202 122.539 47.0965 122.816C46.6036 123.124 46.0491 123.278 45.433 123.278Z" fill="black"/>
</g>
</svg>
