<svg width="95" height="150" viewBox="0 0 95 150" fill="none" xmlns="http://www.w3.org/2000/svg">
<mask id="mask0_384_2" style="mask-type:alpha" maskUnits="userSpaceOnUse" x="0" y="0" width="95" height="150">
<rect width="94.8" height="149.137" rx="11.561" fill="#F46338"/>
</mask>
<g mask="url(#mask0_384_2)">
<path d="M248.916 -67.0538H-5.08548V187.288H248.916V-67.0538Z" fill="#E0E6FC"/>
<circle cx="86.7075" cy="3.46842" r="19.4224" stroke="white" stroke-width="0.462439"/>
<circle opacity="0.4" cx="-5.78052" cy="75.1462" r="19.4224" stroke="white" stroke-width="0.462439"/>
<path d="M137.342 122.282L-9.26128 83L-25 141.738L121.603 181.02L137.342 122.282Z" fill="#8274FC"/>
<mask id="mask1_384_2" style="mask-type:luminance" maskUnits="userSpaceOnUse" x="-25" y="83" width="163" height="99">
<path d="M137.342 122.282L-9.26128 83L-25 141.738L121.603 181.02L137.342 122.282Z" fill="white"/>
</mask>
<g mask="url(#mask1_384_2)">
<path d="M-8.17935 78.9618C-7.12088 79.2454 -6.23846 79.9985 -5.72108 81.0583C-5.2037 82.1181 -4.31835 82.8719 -3.26281 83.1547C-2.20726 83.4376 -1.06362 83.2274 -0.0856478 82.5683C0.892326 81.9091 2.03597 81.699 3.09151 81.9818C4.14706 82.2647 5.0324 83.0185 5.54978 84.0783C6.06716 85.1381 6.95252 85.8919 8.00806 86.1748C9.0636 86.4576 10.2072 86.2474 11.1852 85.5883C12.1632 84.9292 13.3068 84.719 14.3624 85.0018C15.4179 85.2847 16.3033 86.0385 16.8206 87.0983C17.338 88.1581 18.2234 88.9119 19.2789 89.1948C20.3345 89.4776 21.481 89.2682 22.459 88.6091C23.437 87.95 24.5806 87.7398 25.6362 88.0226C26.6917 88.3055 27.5771 89.0593 28.0944 90.1191C28.6118 91.1789 29.4972 91.9327 30.5527 92.2156C31.6083 92.4984 32.7548 92.2891 33.7299 91.6291C34.7078 90.97 35.8515 90.7598 36.907 91.0427C37.9626 91.3255 38.8509 92.0801 39.3682 93.1399C39.8856 94.1997 40.771 94.9535 41.8294 95.2372C42.8879 95.5208 44.0286 95.3099 45.0066 94.6507C45.9846 93.9916 47.1282 93.7814 48.1838 94.0643C49.2393 94.3471 50.1247 95.1009 50.642 96.1607C51.1594 97.2205 52.0448 97.9744 53.1003 98.2572C54.1559 98.54 55.2995 98.3299 56.2775 97.6707C57.2554 97.0116 58.3991 96.8014 59.4546 97.0843C60.5102 97.3671 61.3955 98.1209 61.9129 99.1807C62.4303 100.241 63.3156 100.994 64.3712 101.277C65.4267 101.56 66.5733 101.351 67.5483 100.691C68.5263 100.032 69.6699 99.8215 70.7255 100.104C71.781 100.387 72.6664 101.141 73.1838 102.201C73.7011 103.261 74.5865 104.014 75.642 104.297C76.6976 104.58 77.8412 104.37 78.8192 103.711C79.7972 103.052 80.9408 102.841 81.9963 103.124C83.0519 103.407 83.9402 104.162 84.4576 105.222C84.9749 106.281 85.8603 107.035 86.9158 107.318C87.9714 107.601 89.115 107.391 90.093 106.732C91.071 106.072 92.2146 105.862 93.2701 106.145C94.3257 106.428 95.214 107.183 95.7284 108.242C96.2458 109.301 97.1311 110.055 98.1867 110.338C99.2422 110.621 100.386 110.411 101.364 109.752C102.342 109.092 103.485 108.882 104.541 109.165C105.597 109.448 106.485 110.203 106.999 111.262C107.517 112.321 108.402 113.075 109.458 113.358C110.513 113.641 111.66 113.432 112.635 112.772C113.613 112.112 114.756 111.902 115.812 112.185C116.867 112.468 117.756 113.223 118.27 114.282C118.788 115.341 119.673 116.095 120.731 116.379C121.79 116.662 122.931 116.452 123.909 115.792C124.886 115.133 126.03 114.923 127.086 115.206C128.141 115.489 129.027 116.243 129.544 117.302C130.061 118.362 130.947 119.116 132.002 119.399C133.058 119.682 134.204 119.472 135.179 118.812C136.157 118.153 137.301 117.943 138.357 118.226" stroke="#E0E6FC" stroke-width="1.1561" stroke-linejoin="round"/>
<path d="M-9.61903 84.3344C-8.56056 84.618 -7.67814 85.371 -7.16076 86.4308C-6.64338 87.4906 -5.75803 88.2444 -4.70249 88.5273C-3.64694 88.8101 -2.5033 88.6 -1.52533 87.9408C-0.547357 87.2817 0.596286 87.0715 1.65183 87.3544C2.70737 87.6372 3.59272 88.391 4.1101 89.4508C4.62748 90.5107 5.51283 91.2645 6.56838 91.5473C7.62392 91.8301 8.76756 91.62 9.74553 90.9608C10.7235 90.3017 11.8672 90.0916 12.9227 90.3744C13.9782 90.6572 14.8636 91.411 15.381 92.4709C15.8983 93.5307 16.7837 94.2845 17.8392 94.5673C18.8948 94.8501 20.0414 94.6408 21.0193 93.9817C21.9973 93.3225 23.1409 93.1124 24.1965 93.3952C25.252 93.678 26.1374 94.4318 26.6548 95.4917C27.1721 96.5515 28.0575 97.3053 29.113 97.5881C30.1686 97.871 31.3152 97.6616 32.2902 97.0017C33.2682 96.3425 34.4118 96.1324 35.4674 96.4152C36.5229 96.698 37.4112 97.4526 37.9286 98.5125C38.4459 99.5723 39.3313 100.326 40.3898 100.61C41.4482 100.893 42.5889 100.682 43.5669 100.023C44.5449 99.3641 45.6885 99.154 46.7441 99.4368C47.7996 99.7196 48.685 100.473 49.2023 101.533C49.7197 102.593 50.6051 103.347 51.6606 103.63C52.7162 103.913 53.8598 103.702 54.8378 103.043C55.8158 102.384 56.9594 102.174 58.0149 102.457C59.0705 102.74 59.9558 103.493 60.4732 104.553C60.9906 105.613 61.8759 106.367 62.9315 106.65C63.987 106.933 65.1336 106.723 66.1086 106.063C67.0866 105.404 68.2303 105.194 69.2858 105.477C70.3414 105.76 71.2267 106.513 71.7441 107.573C72.2615 108.633 73.1468 109.387 74.2023 109.67C75.2579 109.953 76.4015 109.742 77.3795 109.083C78.3575 108.424 79.5011 108.214 80.5567 108.497C81.6122 108.78 82.5005 109.534 83.0179 110.594C83.5353 111.654 84.4206 112.408 85.4761 112.691C86.5317 112.973 87.6753 112.763 88.6533 112.104C89.6313 111.445 90.7749 111.235 91.8305 111.518C92.886 111.8 93.7743 112.555 94.2887 113.614C94.8061 114.674 95.6915 115.428 96.747 115.711C97.8026 115.993 98.9462 115.783 99.9242 115.124C100.902 114.465 102.046 114.255 103.101 114.538C104.157 114.821 105.045 115.575 105.56 116.634C106.077 117.694 106.962 118.448 108.018 118.731C109.073 119.013 110.22 118.804 111.195 118.144C112.173 117.485 113.317 117.275 114.372 117.558C115.428 117.841 116.316 118.595 116.83 119.654C117.348 120.714 118.233 121.468 119.292 121.751C120.35 122.035 121.491 121.824 122.469 121.165C123.447 120.506 124.59 120.296 125.646 120.579C126.702 120.861 127.587 121.615 128.104 122.675C128.622 123.735 129.507 124.489 130.563 124.771C131.618 125.054 132.765 124.845 133.74 124.185C134.718 123.526 135.861 123.316 136.917 123.599" stroke="#E0E6FC" stroke-width="1.1561" stroke-linejoin="round"/>
<path d="M-11.0576 89.7033C-9.99916 89.9869 -9.11674 90.7399 -8.59936 91.7998C-8.08198 92.8596 -7.19663 93.6134 -6.14109 93.8962C-5.08554 94.1791 -3.9419 93.9689 -2.96393 93.3098C-1.98596 92.6506 -0.842312 92.4405 0.213232 92.7233C1.26878 93.0061 2.15412 93.76 2.6715 94.8198C3.18888 95.8796 4.07423 96.6334 5.12978 96.9162C6.18532 97.1991 7.32896 96.9889 8.30694 96.3298C9.28491 95.6707 10.4286 95.4605 11.4841 95.7433C12.5396 96.0262 13.425 96.78 13.9424 97.8398C14.4597 98.8996 15.3451 99.6534 16.4006 99.9363C17.4562 100.219 18.6028 100.01 19.5807 99.3506C20.5587 98.6915 21.7023 98.4813 22.7579 98.7641C23.8134 99.047 24.6988 99.8008 25.2162 100.861C25.7335 101.92 26.6189 102.674 27.6744 102.957C28.73 103.24 29.8766 103.031 30.8516 102.371C31.8296 101.711 32.9732 101.501 34.0288 101.784C35.0843 102.067 35.9726 102.822 36.49 103.881C37.0073 104.941 37.8927 105.695 38.9512 105.979C40.0096 106.262 41.1503 106.051 42.1283 105.392C43.1063 104.733 44.2499 104.523 45.3055 104.806C46.361 105.089 47.2464 105.842 47.7638 106.902C48.2811 107.962 49.1665 108.716 50.222 108.999C51.2776 109.282 52.4212 109.071 53.3992 108.412C54.3772 107.753 55.5208 107.543 56.5763 107.826C57.6319 108.109 58.5172 108.862 59.0346 109.922C59.552 110.982 60.4374 111.736 61.4929 112.019C62.5484 112.302 63.695 112.092 64.67 111.432C65.648 110.773 66.7917 110.563 67.8472 110.846C68.9028 111.129 69.7881 111.882 70.3055 112.942C70.8229 114.002 71.7082 114.756 72.7637 115.039C73.8193 115.322 74.9629 115.111 75.9409 114.452C76.9189 113.793 78.0625 113.583 79.1181 113.866C80.1736 114.149 81.0619 114.903 81.5793 115.963C82.0967 117.023 82.982 117.777 84.0375 118.06C85.0931 118.342 86.2367 118.132 87.2147 117.473C88.1927 116.814 89.3363 116.604 90.3919 116.887C91.4474 117.169 92.3357 117.924 92.8501 118.983C93.3675 120.043 94.2529 120.797 95.3084 121.08C96.364 121.362 97.5076 121.152 98.4856 120.493C99.4635 119.834 100.607 119.624 101.663 119.907C102.718 120.189 103.607 120.944 104.121 122.003C104.638 123.063 105.524 123.817 106.579 124.1C107.635 124.382 108.781 124.173 109.756 123.513C110.734 122.854 111.878 122.644 112.934 122.927C113.989 123.209 114.877 123.964 115.392 125.023C115.909 126.083 116.795 126.837 117.853 127.12C118.912 127.404 120.052 127.193 121.03 126.534C122.008 125.875 123.152 125.665 124.207 125.947C125.263 126.23 126.148 126.984 126.666 128.044C127.183 129.104 128.068 129.858 129.124 130.14C130.179 130.423 131.326 130.214 132.301 129.554C133.279 128.895 134.423 128.685 135.478 128.967" stroke="#E0E6FC" stroke-width="1.1561" stroke-linejoin="round"/>
<path d="M-12.4964 95.0727C-11.4379 95.3564 -10.5555 96.1094 -10.0381 97.1692C-9.52072 98.229 -8.63537 98.9828 -7.57982 99.2657C-6.52428 99.5485 -5.38064 99.3384 -4.40266 98.6792C-3.42469 98.0201 -2.28105 97.8099 -1.2255 98.0928C-0.169961 98.3756 0.715387 99.1294 1.23277 100.189C1.75015 101.249 2.6355 102.003 3.69104 102.286C4.74658 102.569 5.89023 102.358 6.8682 101.699C7.84617 101.04 8.98982 100.83 10.0454 101.113C11.1009 101.396 11.9862 102.149 12.5036 103.209C13.021 104.269 13.9064 105.023 14.9619 105.306C16.0174 105.589 17.164 105.379 18.142 104.72C19.12 104.061 20.2636 103.851 21.3192 104.134C22.3747 104.416 23.26 105.17 23.7774 106.23C24.2948 107.29 25.1802 108.044 26.2357 108.327C27.2912 108.609 28.4378 108.4 29.4129 107.74C30.3908 107.081 31.5345 106.871 32.59 107.154C33.6456 107.436 34.5338 108.191 35.0512 109.251C35.5686 110.311 36.4539 111.064 37.5124 111.348C38.5709 111.632 39.7116 111.421 40.6896 110.762C41.6676 110.103 42.8112 109.892 43.8667 110.175C44.9223 110.458 45.8076 111.212 46.325 112.272C46.8424 113.331 47.7277 114.085 48.7833 114.368C49.8388 114.651 50.9825 114.441 51.9604 113.782C52.9384 113.123 54.0821 112.912 55.1376 113.195C56.1932 113.478 57.0785 114.232 57.5959 115.292C58.1133 116.351 58.9986 117.105 60.0542 117.388C61.1097 117.671 62.2563 117.462 63.2313 116.802C64.2093 116.143 65.3529 115.932 66.4085 116.215C67.464 116.498 68.3494 117.252 68.8667 118.312C69.3841 119.372 70.2695 120.125 71.325 120.408C72.3806 120.691 73.5242 120.481 74.5022 119.822C75.4801 119.163 76.6238 118.952 77.6793 119.235C78.7349 119.518 79.6232 120.273 80.1405 121.333C80.6579 122.392 81.5433 123.146 82.5988 123.429C83.6544 123.712 84.798 123.502 85.776 122.843C86.7539 122.183 87.8976 121.973 88.9531 122.256C90.0087 122.539 90.897 123.293 91.4114 124.353C91.9288 125.412 92.8141 126.166 93.8697 126.449C94.9252 126.732 96.0689 126.522 97.0468 125.863C98.0248 125.203 99.1684 124.993 100.224 125.276C101.28 125.559 102.168 126.314 102.682 127.373C103.2 128.432 104.085 129.186 105.141 129.469C106.196 129.752 107.343 129.542 108.318 128.883C109.296 128.223 110.439 128.013 111.495 128.296C112.55 128.579 113.439 129.334 113.953 130.393C114.471 131.452 115.356 132.206 116.414 132.49C117.473 132.773 118.614 132.562 119.591 131.903C120.569 131.244 121.713 131.034 122.769 131.317C123.824 131.6 124.71 132.354 125.227 133.413C125.744 134.473 126.63 135.227 127.685 135.51C128.741 135.793 129.887 135.583 130.862 134.923C131.84 134.264 132.984 134.054 134.04 134.337" stroke="#E0E6FC" stroke-width="1.1561" stroke-linejoin="round"/>
<path d="M-13.9359 100.445C-12.8774 100.729 -11.995 101.482 -11.4776 102.542C-10.9603 103.602 -10.0749 104.355 -9.01937 104.638C-7.96383 104.921 -6.82018 104.711 -5.84221 104.052C-4.86424 103.393 -3.72059 103.182 -2.66505 103.465C-1.60951 103.748 -0.724158 104.502 -0.206777 105.562C0.310603 106.622 1.19595 107.375 2.25149 107.658C3.30704 107.941 4.45068 107.731 5.42865 107.072C6.40663 106.413 7.55027 106.202 8.60581 106.485C9.66136 106.768 10.5467 107.522 11.0641 108.582C11.5815 109.642 12.4668 110.395 13.5224 110.678C14.5779 110.961 15.7245 110.752 16.7024 110.093C17.6804 109.433 18.8241 109.223 19.8796 109.506C20.9352 109.789 21.8205 110.543 22.3379 111.603C22.8553 112.662 23.7406 113.416 24.7962 113.699C25.8517 113.982 26.9983 113.772 27.9733 113.113C28.9513 112.453 30.0949 112.243 31.1505 112.526C32.206 112.809 33.0943 113.564 33.6117 114.623C34.1291 115.683 35.0144 116.437 36.0729 116.721C37.1314 117.004 38.2721 116.793 39.25 116.134C40.228 115.475 41.3717 115.265 42.4272 115.548C43.4827 115.831 44.3681 116.584 44.8855 117.644C45.4029 118.704 46.2882 119.458 47.3437 119.741C48.3993 120.023 49.5429 119.813 50.5209 119.154C51.4989 118.495 52.6425 118.285 53.6981 118.568C54.7536 118.851 55.639 119.604 56.1563 120.664C56.6737 121.724 57.5591 122.478 58.6146 122.761C59.6702 123.043 60.8167 122.834 61.7918 122.174C62.7697 121.515 63.9134 121.305 64.9689 121.588C66.0245 121.871 66.9098 122.624 67.4272 123.684C67.9446 124.744 68.8299 125.498 69.8855 125.781C70.941 126.063 72.0847 125.853 73.0626 125.194C74.0406 124.535 75.1842 124.325 76.2398 124.608C77.2953 124.891 78.1836 125.645 78.701 126.705C79.2184 127.765 80.1037 128.519 81.1593 128.801C82.2148 129.084 83.3585 128.874 84.3364 128.215C85.3144 127.556 86.458 127.346 87.5136 127.629C88.5691 127.911 89.4574 128.666 89.9719 129.725C90.4892 130.785 91.3746 131.539 92.4301 131.821C93.4857 132.104 94.6293 131.894 95.6073 131.235C96.5853 130.576 97.7289 130.366 98.7844 130.649C99.84 130.931 100.728 131.686 101.243 132.745C101.76 133.805 102.645 134.559 103.701 134.841C104.757 135.124 105.903 134.915 106.878 134.255C107.856 133.596 109 133.386 110.055 133.669C111.111 133.951 111.999 134.706 112.514 135.765C113.031 136.825 113.916 137.579 114.975 137.862C116.033 138.146 117.174 137.935 118.152 137.276C119.13 136.617 120.274 136.407 121.329 136.689C122.385 136.972 123.27 137.726 123.787 138.786C124.305 139.846 125.19 140.599 126.246 140.882C127.301 141.165 128.448 140.956 129.423 140.296C130.401 139.637 131.544 139.427 132.6 139.709" stroke="#E0E6FC" stroke-width="1.1561" stroke-linejoin="round"/>
<path d="M-15.3747 105.815C-14.3162 106.098 -13.4338 106.851 -12.9164 107.911C-12.399 108.971 -11.5137 109.725 -10.4581 110.008C-9.40257 110.29 -8.25893 110.08 -7.28096 109.421C-6.30298 108.762 -5.15934 108.552 -4.1038 108.835C-3.04826 109.118 -2.16291 109.871 -1.64553 110.931C-1.12815 111.991 -0.242797 112.745 0.812746 113.028C1.86829 113.31 3.01193 113.1 3.98991 112.441C4.96788 111.782 6.11152 111.572 7.16706 111.855C8.22261 112.138 9.10796 112.891 9.62534 113.951C10.1427 115.011 11.0281 115.765 12.0836 116.048C13.1392 116.33 14.2857 116.121 15.2637 115.462C16.2417 114.803 17.3853 114.593 18.4409 114.876C19.4964 115.158 20.3818 115.912 20.8991 116.972C21.4165 118.032 22.3019 118.786 23.3574 119.068C24.4129 119.351 25.5595 119.142 26.5346 118.482C27.5125 117.823 28.6562 117.613 29.7117 117.896C30.7673 118.178 31.6555 118.933 32.1729 119.993C32.6903 121.053 33.5757 121.806 34.6341 122.09C35.6926 122.374 36.8333 122.163 37.8113 121.504C38.7893 120.844 39.9329 120.634 40.9884 120.917C42.044 121.2 42.9293 121.954 43.4467 123.014C43.9641 124.073 44.8494 124.827 45.905 125.11C46.9605 125.393 48.1042 125.183 49.0822 124.524C50.0601 123.864 51.2038 123.654 52.2593 123.937C53.3149 124.22 54.2002 124.974 54.7176 126.034C55.235 127.093 56.1203 127.847 57.1759 128.13C58.2314 128.413 59.378 128.204 60.353 127.544C61.331 126.884 62.4746 126.674 63.5302 126.957C64.5857 127.24 65.4711 127.994 65.9884 129.054C66.5058 130.113 67.3912 130.867 68.4467 131.15C69.5023 131.433 70.6459 131.223 71.6239 130.564C72.6019 129.904 73.7455 129.694 74.801 129.977C75.8566 130.26 76.7449 131.015 77.2622 132.074C77.7796 133.134 78.665 133.888 79.7205 134.171C80.7761 134.454 81.9197 134.244 82.8977 133.584C83.8757 132.925 85.0193 132.715 86.0748 132.998C87.1304 133.281 88.0187 134.035 88.5331 135.094C89.0505 136.154 89.9358 136.908 90.9914 137.191C92.0469 137.474 93.1906 137.264 94.1685 136.604C95.1465 135.945 96.2902 135.735 97.3457 136.018C98.4012 136.301 99.2895 137.055 99.804 138.114C100.321 139.174 101.207 139.928 102.262 140.211C103.318 140.494 104.464 140.284 105.439 139.624C106.417 138.965 107.561 138.755 108.617 139.038C109.672 139.321 110.56 140.075 111.075 141.134C111.592 142.194 112.478 142.948 113.536 143.232C114.595 143.515 115.735 143.304 116.713 142.645C117.691 141.986 118.835 141.776 119.89 142.059C120.946 142.342 121.831 143.095 122.349 144.155C122.866 145.215 123.751 145.969 124.807 146.252C125.862 146.535 127.009 146.325 127.984 145.665C128.962 145.006 130.106 144.796 131.161 145.079" stroke="#E0E6FC" stroke-width="1.1561" stroke-linejoin="round"/>
<path d="M-16.8134 111.184C-15.7549 111.468 -14.8725 112.221 -14.3551 113.281C-13.8377 114.34 -12.9524 115.094 -11.8969 115.377C-10.8413 115.66 -9.69767 115.45 -8.71969 114.791C-7.74172 114.131 -6.59808 113.921 -5.54254 114.204C-4.48699 114.487 -3.60164 115.241 -3.08426 116.301C-2.56688 117.36 -1.68153 118.114 -0.62599 118.397C0.429554 118.68 1.5732 118.47 2.55117 117.811C3.52914 117.151 4.67278 116.941 5.72833 117.224C6.78387 117.507 7.66922 118.261 8.1866 119.321C8.70398 120.38 9.58933 121.134 10.6449 121.417C11.7004 121.7 12.847 121.491 13.825 120.831C14.8029 120.172 15.9466 119.962 17.0021 120.245C18.0577 120.528 18.943 121.282 19.4604 122.341C19.9778 123.401 20.8631 124.155 21.9187 124.438C22.9742 124.721 24.1208 124.511 25.0958 123.851C26.0738 123.192 27.2174 122.982 28.273 123.265C29.3285 123.548 30.2168 124.302 30.7342 125.362C31.2516 126.422 32.1369 127.176 33.1954 127.459C34.2539 127.743 35.3946 127.532 36.3726 126.873C37.3505 126.214 38.4942 126.004 39.5497 126.287C40.6053 126.569 41.4906 127.323 42.008 128.383C42.5254 129.443 43.4107 130.197 44.4663 130.479C45.5218 130.762 46.6654 130.552 47.6434 129.893C48.6214 129.234 49.765 129.024 50.8206 129.307C51.8761 129.589 52.7615 130.343 53.2788 131.403C53.7962 132.463 54.6816 133.217 55.7371 133.5C56.7927 133.782 57.9392 133.573 58.9143 132.913C59.8923 132.254 61.0359 132.044 62.0914 132.327C63.147 132.609 64.0323 133.363 64.5497 134.423C65.0671 135.483 65.9524 136.237 67.008 136.52C68.0635 136.802 69.2072 136.592 70.1851 135.933C71.1631 135.274 72.3068 135.064 73.3623 135.347C74.4178 135.629 75.3061 136.384 75.8235 137.444C76.3409 138.504 77.2262 139.257 78.2818 139.54C79.3373 139.823 80.481 139.613 81.4589 138.954C82.4369 138.295 83.5806 138.085 84.6361 138.367C85.6916 138.65 86.5799 139.405 87.0944 140.464C87.6118 141.524 88.4971 142.278 89.5526 142.56C90.6082 142.843 91.7518 142.633 92.7298 141.974C93.7078 141.315 94.8514 141.105 95.907 141.387C96.9625 141.67 97.8508 142.425 98.3652 143.484C98.8826 144.544 99.768 145.298 100.824 145.58C101.879 145.863 103.026 145.654 104.001 144.994C104.979 144.335 106.122 144.125 107.178 144.407C108.233 144.69 109.122 145.445 109.636 146.504C110.153 147.564 111.039 148.318 112.097 148.601C113.156 148.885 114.296 148.674 115.274 148.015C116.252 147.356 117.396 147.145 118.452 147.428C119.507 147.711 120.393 148.465 120.91 149.525C121.427 150.585 122.313 151.338 123.368 151.621C124.424 151.904 125.57 151.695 126.545 151.035C127.523 150.376 128.667 150.165 129.722 150.448" stroke="#E0E6FC" stroke-width="1.1561" stroke-linejoin="round"/>
<path d="M-18.253 116.557C-17.1945 116.84 -16.3121 117.593 -15.7947 118.653C-15.2773 119.713 -14.392 120.467 -13.3364 120.749C-12.2809 121.032 -11.1372 120.822 -10.1593 120.163C-9.18128 119.504 -8.03764 119.294 -6.9821 119.577C-5.92655 119.859 -5.0412 120.613 -4.52382 121.673C-4.00644 122.733 -3.12109 123.487 -2.06555 123.77C-1.01001 124.052 0.133637 123.842 1.11161 123.183C2.08958 122.524 3.23322 122.314 4.28877 122.597C5.34431 122.879 6.22966 123.633 6.74704 124.693C7.26442 125.753 8.14977 126.507 9.20531 126.79C10.2609 127.072 11.4074 126.863 12.3854 126.204C13.3634 125.545 14.507 125.335 15.5626 125.617C16.6181 125.9 17.5035 126.654 18.0208 127.714C18.5382 128.774 19.4236 129.528 20.4791 129.81C21.5347 130.093 22.6812 129.884 23.6563 129.224C24.6342 128.565 25.7779 128.355 26.8334 128.637C27.889 128.92 28.7773 129.675 29.2946 130.735C29.812 131.794 30.6974 132.548 31.7558 132.832C32.8143 133.116 33.955 132.905 34.933 132.245C35.911 131.586 37.0546 131.376 38.1102 131.659C39.1657 131.942 40.051 132.696 40.5684 133.755C41.0858 134.815 41.9712 135.569 43.0267 135.852C44.0822 136.135 45.2259 135.925 46.2039 135.265C47.1818 134.606 48.3255 134.396 49.381 134.679C50.4366 134.962 51.3219 135.716 51.8393 136.775C52.3567 137.835 53.242 138.589 54.2976 138.872C55.3531 139.155 56.4997 138.945 57.4747 138.286C58.4527 137.626 59.5963 137.416 60.6519 137.699C61.7074 137.982 62.5928 138.736 63.1102 139.796C63.6275 140.855 64.5129 141.609 65.5684 141.892C66.624 142.175 67.7676 141.965 68.7456 141.306C69.7236 140.646 70.8672 140.436 71.9227 140.719C72.9783 141.002 73.8666 141.756 74.384 142.816C74.9013 143.876 75.7867 144.63 76.8422 144.913C77.8978 145.196 79.0414 144.985 80.0194 144.326C80.9974 143.667 82.141 143.457 83.1965 143.74C84.2521 144.023 85.1404 144.777 85.6548 145.836C86.1722 146.896 87.0575 147.65 88.1131 147.933C89.1686 148.216 90.3123 148.005 91.2902 147.346C92.2682 146.687 93.4119 146.477 94.4674 146.76C95.5229 147.043 96.4112 147.797 96.9257 148.856C97.4431 149.916 98.3284 150.67 99.3839 150.953C100.439 151.236 101.586 151.026 102.561 150.366C103.539 149.707 104.683 149.497 105.738 149.78C106.794 150.063 107.682 150.817 108.197 151.876C108.714 152.936 109.599 153.69 110.658 153.974C111.716 154.257 112.857 154.046 113.835 153.387C114.813 152.728 115.957 152.518 117.012 152.801C118.068 153.084 118.953 153.837 119.47 154.897C119.988 155.957 120.873 156.711 121.929 156.994C122.984 157.276 124.131 157.067 125.106 156.407C126.084 155.748 127.227 155.538 128.283 155.821" stroke="#E0E6FC" stroke-width="1.1561" stroke-linejoin="round"/>
<path d="M-19.6916 121.926C-18.6331 122.209 -17.7507 122.962 -17.2333 124.022C-16.7159 125.082 -15.8306 125.836 -14.775 126.118C-13.7195 126.401 -12.5758 126.191 -11.5979 125.532C-10.6199 124.873 -9.47624 124.663 -8.42069 124.946C-7.36515 125.228 -6.4798 125.982 -5.96242 127.042C-5.44504 128.102 -4.55969 128.856 -3.50415 129.138C-2.4486 129.421 -1.30496 129.211 -0.326991 128.552C0.650982 127.893 1.79463 127.683 2.85017 127.966C3.90571 128.248 4.79106 129.002 5.30844 130.062C5.82582 131.122 6.71117 131.876 7.76672 132.158C8.82226 132.441 9.96883 132.232 10.9468 131.573C11.9248 130.914 13.0684 130.704 14.124 130.986C15.1795 131.269 16.0649 132.023 16.5822 133.083C17.0996 134.143 17.985 134.896 19.0405 135.179C20.0961 135.462 21.2426 135.253 22.2177 134.593C23.1956 133.934 24.3393 133.724 25.3948 134.006C26.4504 134.289 27.3386 135.044 27.856 136.104C28.3734 137.163 29.2588 137.917 30.3172 138.201C31.3757 138.484 32.5164 138.274 33.4944 137.614C34.4724 136.955 35.616 136.745 36.6716 137.028C37.7271 137.311 38.6124 138.065 39.1298 139.124C39.6472 140.184 40.5326 140.938 41.5881 141.221C42.6436 141.504 43.7873 141.294 44.7653 140.634C45.7432 139.975 46.8869 139.765 47.9424 140.048C48.998 140.331 49.8833 141.085 50.4007 142.144C50.9181 143.204 51.8034 143.958 52.859 144.241C53.9145 144.524 55.0611 144.314 56.0361 143.654C57.0141 142.995 58.1577 142.785 59.2133 143.068C60.2688 143.351 61.1542 144.105 61.6716 145.164C62.1889 146.224 63.0743 146.978 64.1298 147.261C65.1854 147.544 66.329 147.334 67.307 146.674C68.285 146.015 69.4286 145.805 70.4841 146.088C71.5397 146.371 72.428 147.125 72.9454 148.185C73.4627 149.245 74.3481 149.999 75.4036 150.282C76.4592 150.565 77.6028 150.354 78.5808 149.695C79.5588 149.036 80.7024 148.826 81.7579 149.109C82.8135 149.392 83.7018 150.146 84.2162 151.205C84.7336 152.265 85.6189 153.019 86.6745 153.302C87.73 153.585 88.8737 153.374 89.8516 152.715C90.8296 152.056 91.9733 151.846 93.0288 152.129C94.0843 152.412 94.9726 153.166 95.4871 154.225C96.0045 155.285 96.8898 156.039 97.9453 156.322C99.0009 156.605 100.147 156.395 101.123 155.735C102.1 155.076 103.244 154.866 104.3 155.149C105.355 155.432 106.243 156.186 106.758 157.245C107.275 158.305 108.161 159.059 109.219 159.343C110.278 159.626 111.418 159.415 112.396 158.756C113.374 158.097 114.518 157.887 115.573 158.17C116.629 158.452 117.514 159.206 118.032 160.266C118.549 161.326 119.434 162.08 120.49 162.363C121.546 162.645 122.692 162.436 123.667 161.776C124.645 161.117 125.789 160.907 126.844 161.19" stroke="#E0E6FC" stroke-width="1.1561" stroke-linejoin="round"/>
<path d="M-21.1302 127.294C-20.0717 127.578 -19.1893 128.331 -18.6719 129.391C-18.1545 130.451 -17.2692 131.205 -16.2136 131.487C-15.1581 131.77 -14.0144 131.56 -13.0365 130.901C-12.0585 130.242 -10.9148 130.032 -9.85929 130.314C-8.80375 130.597 -7.9184 131.351 -7.40102 132.411C-6.88364 133.471 -5.99829 134.225 -4.94275 134.507C-3.8872 134.79 -2.74356 134.58 -1.76559 133.921C-0.787616 133.262 0.356027 133.052 1.41157 133.334C2.46711 133.617 3.35246 134.371 3.86984 135.431C4.38722 136.491 5.27257 137.245 6.32812 137.527C7.38366 137.81 8.53023 137.601 9.5082 136.942C10.4862 136.283 11.6298 136.072 12.6854 136.355C13.7409 136.638 14.6263 137.392 15.1436 138.452C15.661 139.512 16.5464 140.265 17.6019 140.548C18.6575 140.831 19.804 140.622 20.7791 139.962C21.757 139.303 22.9007 139.092 23.9562 139.375C25.0118 139.658 25.9001 140.413 26.4174 141.473C26.9348 142.532 27.8202 143.286 28.8786 143.57C29.9371 143.853 31.0778 143.642 32.0558 142.983C33.0338 142.324 34.1774 142.114 35.233 142.397C36.2885 142.68 37.1738 143.434 37.6912 144.493C38.2086 145.553 39.094 146.307 40.1495 146.59C41.205 146.873 42.3487 146.663 43.3267 146.003C44.3046 145.344 45.4483 145.134 46.5038 145.417C47.5594 145.7 48.4447 146.454 48.9621 147.513C49.4795 148.573 50.3648 149.327 51.4204 149.61C52.4759 149.893 53.6225 149.683 54.5975 149.023C55.5755 148.364 56.7191 148.154 57.7747 148.437C58.8302 148.72 59.7156 149.474 60.233 150.533C60.7503 151.593 61.6357 152.347 62.6912 152.63C63.7468 152.913 64.8904 152.703 65.8684 152.043C66.8464 151.384 67.99 151.174 69.0455 151.457C70.1011 151.74 70.9894 152.494 71.5068 153.554C72.0241 154.614 72.9095 155.368 73.965 155.651C75.0206 155.933 76.1642 155.723 77.1422 155.064C78.1202 154.405 79.2638 154.195 80.3193 154.478C81.3749 154.761 82.2632 155.515 82.7776 156.574C83.295 157.634 84.1803 158.388 85.2359 158.671C86.2914 158.954 87.4351 158.743 88.413 158.084C89.391 157.425 90.5347 157.215 91.5902 157.498C92.6457 157.781 93.534 158.535 94.0485 159.594C94.5659 160.654 95.4512 161.408 96.5068 161.691C97.5623 161.974 98.7089 161.764 99.6839 161.104C100.662 160.445 101.806 160.235 102.861 160.518C103.917 160.801 104.805 161.555 105.319 162.614C105.837 163.674 106.722 164.428 107.781 164.712C108.839 164.995 109.98 164.784 110.958 164.125C111.936 163.466 113.079 163.256 114.135 163.539C115.19 163.821 116.076 164.575 116.593 165.635C117.111 166.695 117.996 167.449 119.051 167.732C120.107 168.014 121.254 167.805 122.229 167.145C123.207 166.486 124.35 166.276 125.406 166.559" stroke="#E0E6FC" stroke-width="1.1561" stroke-linejoin="round"/>
<path d="M-22.5689 132.664C-21.5104 132.948 -20.628 133.701 -20.1106 134.76C-19.5932 135.82 -18.7079 136.574 -17.6523 136.857C-16.5968 137.14 -15.4532 136.93 -14.4752 136.27C-13.4972 135.611 -12.3536 135.401 -11.298 135.684C-10.2425 135.967 -9.35714 136.721 -8.83976 137.78C-8.32238 138.84 -7.43703 139.594 -6.38149 139.877C-5.32594 140.16 -4.1823 139.95 -3.20433 139.29C-2.22635 138.631 -1.08271 138.421 -0.0271654 138.704C1.02838 138.987 1.91372 139.741 2.4311 140.8C2.94848 141.86 3.83383 142.614 4.88938 142.897C5.94492 143.18 7.0915 142.97 8.06947 142.311C9.04744 141.652 10.1911 141.442 11.2466 141.725C12.3022 142.008 13.1875 142.761 13.7049 143.821C14.2223 144.881 15.1076 145.635 16.1632 145.918C17.2187 146.201 18.3653 145.991 19.3403 145.331C20.3183 144.672 21.4619 144.462 22.5175 144.745C23.573 145.028 24.4613 145.782 24.9787 146.842C25.4961 147.902 26.3814 148.656 27.4399 148.939C28.4984 149.223 29.6391 149.012 30.6171 148.353C31.595 147.694 32.7387 147.484 33.7942 147.766C34.8498 148.049 35.7351 148.803 36.2525 149.863C36.7699 150.923 37.6552 151.676 38.7108 151.959C39.7663 152.242 40.9099 152.032 41.8879 151.373C42.8659 150.714 44.0095 150.504 45.0651 150.786C46.1206 151.069 47.006 151.823 47.5234 152.883C48.0407 153.943 48.9261 154.696 49.9816 154.979C51.0372 155.262 52.1837 155.053 53.1588 154.393C54.1368 153.734 55.2804 153.524 56.336 153.806C57.3915 154.089 58.2768 154.843 58.7942 155.903C59.3116 156.963 60.1969 157.716 61.2525 157.999C62.308 158.282 63.4517 158.072 64.4296 157.413C65.4076 156.754 66.5513 156.544 67.6068 156.826C68.6623 157.109 69.5506 157.864 70.068 158.924C70.5854 159.983 71.4707 160.737 72.5263 161.02C73.5818 161.303 74.7255 161.093 75.7034 160.434C76.6814 159.775 77.8251 159.564 78.8806 159.847C79.9361 160.13 80.8244 160.885 81.3389 161.944C81.8563 163.003 82.7416 163.757 83.7971 164.04C84.8527 164.323 85.9963 164.113 86.9743 163.454C87.9523 162.795 89.0959 162.584 90.1515 162.867C91.207 163.15 92.0953 163.905 92.6097 164.964C93.1271 166.024 94.0125 166.777 95.068 167.06C96.1236 167.343 97.2701 167.134 98.2452 166.474C99.2231 165.815 100.367 165.604 101.422 165.887C102.478 166.17 103.366 166.925 103.881 167.984C104.398 169.044 105.283 169.797 106.342 170.081C107.4 170.365 108.541 170.154 109.519 169.495C110.497 168.835 111.641 168.625 112.696 168.908C113.752 169.191 114.637 169.945 115.154 171.005C115.672 172.064 116.557 172.818 117.613 173.101C118.668 173.384 119.815 173.174 120.79 172.515C121.768 171.855 122.911 171.645 123.967 171.928" stroke="#E0E6FC" stroke-width="1.1561" stroke-linejoin="round"/>
<path d="M-24.0085 138.036C-22.95 138.32 -22.0676 139.073 -21.5502 140.133C-21.0328 141.193 -20.1475 141.946 -19.0919 142.229C-18.0364 142.512 -16.8927 142.302 -15.9147 141.643C-14.9368 140.984 -13.7931 140.774 -12.7376 141.056C-11.682 141.339 -10.7967 142.093 -10.2793 143.153C-9.76194 144.213 -8.87659 144.967 -7.82105 145.249C-6.7655 145.532 -5.62186 145.322 -4.64389 144.663C-3.66591 144.004 -2.52227 143.794 -1.46673 144.076C-0.411181 144.359 0.474164 145.113 0.991544 146.173C1.50892 147.233 2.39427 147.987 3.44982 148.269C4.50536 148.552 5.65194 148.343 6.62991 147.684C7.60788 147.025 8.75153 146.814 9.80707 147.097C10.8626 147.38 11.748 148.134 12.2653 149.194C12.7827 150.254 13.6681 151.007 14.7236 151.29C15.7792 151.573 16.9257 151.364 17.9008 150.704C18.8787 150.045 20.0224 149.834 21.0779 150.117C22.1335 150.4 23.0218 151.155 23.5391 152.214C24.0565 153.274 24.9419 154.028 26.0003 154.312C27.0588 154.595 28.1995 154.384 29.1775 153.725C30.1555 153.066 31.2991 152.856 32.3547 153.139C33.4102 153.422 34.2955 154.175 34.8129 155.235C35.3303 156.295 36.2157 157.049 37.2712 157.332C38.3267 157.615 39.4704 157.404 40.4484 156.745C41.4263 156.086 42.57 155.876 43.6255 156.159C44.6811 156.442 45.5664 157.195 46.0838 158.255C46.6012 159.315 47.4865 160.069 48.5421 160.352C49.5976 160.635 50.7442 160.425 51.7192 159.765C52.6972 159.106 53.8408 158.896 54.8964 159.179C55.9519 159.462 56.8373 160.216 57.3547 161.275C57.872 162.335 58.7574 163.089 59.8129 163.372C60.8685 163.655 62.0121 163.444 62.9901 162.785C63.9681 162.126 65.1117 161.916 66.1672 162.199C67.2228 162.482 68.1111 163.236 68.6285 164.296C69.1458 165.356 70.0312 166.11 71.0867 166.393C72.1423 166.675 73.2859 166.465 74.2639 165.806C75.2419 165.147 76.3855 164.937 77.441 165.22C78.4966 165.503 79.3849 166.257 79.8993 167.316C80.4167 168.376 81.302 169.13 82.3576 169.413C83.4131 169.695 84.5568 169.485 85.5347 168.826C86.5127 168.167 87.6564 167.957 88.7119 168.24C89.7675 168.523 90.6557 169.277 91.1702 170.336C91.6876 171.396 92.5729 172.15 93.6285 172.433C94.684 172.715 95.8306 172.506 96.8056 171.846C97.7836 171.187 98.9272 170.977 99.9828 171.26C101.038 171.543 101.927 172.297 102.441 173.356C102.958 174.416 103.844 175.17 104.902 175.453C105.961 175.737 107.101 175.526 108.079 174.867C109.057 174.208 110.201 173.998 111.257 174.281C112.312 174.563 113.197 175.317 113.715 176.377C114.232 177.437 115.118 178.191 116.173 178.473C117.229 178.756 118.375 178.547 119.35 177.887C120.328 177.228 121.472 177.018 122.527 177.301" stroke="#E0E6FC" stroke-width="1.1561" stroke-linejoin="round"/>
</g>
<g clip-path="url(#clip0_384_2)">
<path d="M7.39528 99.0027C6.18305 97.153 6.81477 93.6763 8.55629 92.1691C7.02819 90.9702 6.05499 89.3004 6.00377 87.1424C5.95255 84.993 7.45504 82.15 9.57217 81.6019C8.30018 80.3688 7.14771 79.3669 6.95136 77.6371C6.14036 70.5038 17.3322 68.2859 22.4799 67.0614C25.869 66.2564 29.5655 66.0252 32.7412 64.5951L54.5101 70.735L97.8602 59.9709L104.775 101.238C104.775 101.238 77.6791 102.788 72.9497 103.772C68.2288 104.757 63.9092 107.378 57.3102 108.748C51.9661 109.861 43.4634 110.82 35.2425 111.137C32.5021 111.24 32.0411 110.752 29.3094 111.026C26.8934 111.274 24.4604 111.514 22.0274 111.308C19.0651 111.06 12.9954 111.017 11.2795 106.787C10.699 105.365 10.3917 103.25 11.2112 102.111C9.08557 101.409 8.17213 100.184 7.39528 98.9941V99.0027Z" fill="#F2A781"/>
<path d="M11.2113 102.111C11.2113 102.111 17.2553 103.387 23.1714 102.959C27.5678 102.642 30.2826 102.034 31.0423 101.246C31.8021 100.458 33.0485 97.0588 31.3582 94.8837C30.4192 93.6762 29.2838 92.9484 28.6776 92.3746C28.6776 92.3746 13.7979 93.1881 8.59898 92.152" stroke="black" stroke-miterlimit="10" stroke-linecap="round"/>
<path d="M30.957 101.486C32.1948 102.479 32.596 104.175 32.1692 105.665C31.7423 107.155 30.5643 108.439 29.1471 109.304C27.73 110.169 26.0739 110.64 24.4177 110.923" stroke="black" stroke-miterlimit="10" stroke-linecap="round"/>
<path d="M28.1057 92.5202C30.0179 91.955 31.5972 90.465 32.1521 88.7009C32.707 86.9369 32.2119 84.9673 30.8887 83.6571C30.3765 83.1519 29.7533 82.7409 29.1045 82.3812L9.57217 81.6105" stroke="black" stroke-miterlimit="10" stroke-linecap="round"/>
<path d="M97.8517 59.9795C91.9271 61.2468 86.0025 62.4885 80.0523 63.6103C76.0571 64.3639 72.0363 65.1517 67.9556 65.2117C63.8067 65.2716 60.2042 64.3211 56.3882 62.7882C51.4283 60.793 46.366 59.4143 41.278 57.8386C39.4426 57.2649 37.6157 56.5456 36.0193 55.4666C34.2266 54.2506 33.0826 52.5208 31.6399 50.9537C28.9252 47.9993 26.2959 43.7605 24.0677 44.437C19.7566 45.7301 19.6286 50.3457 21.814 55.0384C24.4263 60.6388 29.5655 64.9377 32.4765 70.4182C36.9328 78.7846 43.011 86.4317 52.4015 89.3175" fill="#F2A781"/>
<path d="M29.335 65.6741C30.496 67.1898 31.5887 68.7483 32.4765 70.4096C36.9327 78.776 43.011 86.4231 52.4015 89.3089" stroke="black" stroke-miterlimit="10" stroke-linecap="round"/>
<path d="M26.8507 45.6102C26.8507 45.6102 25.8605 46.5179 26.1166 47.2372C26.4666 48.2049 27.1581 49.0098 27.8837 49.7463C28.0886 49.9603 28.3105 50.1744 28.5837 50.2943C29.2411 50.5855 30.0435 50.2429 30.4874 49.6778" stroke="black" stroke-miterlimit="10"/>
<path d="M29.1045 82.3726C31.7253 80.1718 32.0924 76.8835 30.0948 73.912C28.7801 71.951 26.7056 71.7883 24.3068 71.9425C20.4225 72.1908 17.2724 71.2831 13.3711 71.8997" stroke="black" stroke-miterlimit="10" stroke-linecap="round"/>
<path d="M97.6809 60.8101L65.7019 64.6551L71.8911 115.393L113.124 111.008" fill="white"/>
<path d="M124 54.6959L71.6436 63.773L78.5072 120L124 115.162" fill="#2A2E3F"/>
<path d="M91.6966 118.596L84.7391 61.5037" stroke="black" stroke-miterlimit="10"/>
<path d="M12.7906 36.0877L2.29878 25.7774" stroke="black" stroke-miterlimit="10"/>
<path d="M20.2603 30.6157L15.3943 17.1627" stroke="black" stroke-miterlimit="10"/>
<path d="M27.6191 30.6671L31.3667 17.1113" stroke="black" stroke-miterlimit="10"/>
</g>
<mask id="mask2_384_2" style="mask-type:luminance" maskUnits="userSpaceOnUse" x="0" y="137" width="90" height="32">
<path d="M89.4798 137.257H0V168.175H89.4798V137.257Z" fill="white"/>
</mask>
<g mask="url(#mask2_384_2)">
</g>
<path fill-rule="evenodd" clip-rule="evenodd" d="M59.941 31C59.7587 31 59.611 31.1468 59.611 31.3278V40.074L56.8652 37.3477C56.7363 37.2197 56.5273 37.2197 56.3985 37.3478C56.2696 37.4758 56.2696 37.6833 56.3985 37.8113L59.1441 40.5374H50.33C50.1478 40.5374 50 40.6841 50 40.8652C50 41.0462 50.1478 41.193 50.33 41.193H59.1436L56.3986 43.9161C56.2697 44.0441 56.2696 44.2516 56.3984 44.3797C56.5272 44.5078 56.7362 44.5079 56.8651 44.3799L59.611 41.6559V50.3998C59.611 50.5808 59.7587 50.7276 59.941 50.7276C60.1233 50.7276 60.2711 50.5808 60.2711 50.3998V41.6554L63.0199 44.38C63.1489 44.5079 63.3579 44.5077 63.4866 44.3796C63.6154 44.2514 63.6152 44.0439 63.4862 43.916L60.7389 41.193H69.5548C69.7371 41.193 69.8849 41.0462 69.8849 40.8652C69.8849 40.6841 69.7371 40.5374 69.5548 40.5374H60.7384L63.4863 37.8114C63.6152 37.6835 63.6153 37.4759 63.4865 37.3479C63.3577 37.2198 63.1487 37.2197 63.0198 37.3476L60.2711 40.0745V31.3278C60.2711 31.1468 60.1233 31 59.941 31Z" fill="#FBFBFB"/>
</g>
<defs>
<clipPath id="clip0_384_2">
<rect width="122" height="103" fill="white" transform="translate(2 17)"/>
</clipPath>
</defs>
</svg>
