<svg width="94" height="147" viewBox="0 0 94 147" fill="none" xmlns="http://www.w3.org/2000/svg">
<mask id="mask0_19_2539" style="mask-type:alpha" maskUnits="userSpaceOnUse" x="0" y="0" width="94" height="147">
<rect x="0.182251" width="93.393" height="146.757" rx="11.3765" fill="#F6DFCF"/>
</mask>
<g mask="url(#mask0_19_2539)">
<path d="M136.641 -30.9938H-2.40063V153.434H136.641V-30.9938Z" fill="#FDC4FC"/>
<mask id="mask1_19_2539" style="mask-type:luminance" maskUnits="userSpaceOnUse" x="-3" y="-31" width="140" height="185">
<path d="M136.641 -30.9938H-2.40063V153.434H136.641V-30.9938Z" fill="white"/>
</mask>
<g mask="url(#mask1_19_2539)">
<g opacity="0.4">
<path fill-rule="evenodd" clip-rule="evenodd" d="M-32.1212 -58.8521C-32.0303 -59.03 -31.8545 -59.0918 -31.7092 -58.997L136.785 50.955C136.896 51.0275 136.966 51.1776 136.966 51.3421V143.976C136.966 144.147 136.89 144.301 136.773 144.371C136.656 144.44 136.519 144.411 136.423 144.296L-32.0704 -58.2903C-32.1905 -58.4346 -32.2121 -58.6742 -32.1212 -58.8521ZM-29.9202 -56.8685L136.317 143.004V51.6107L-29.9202 -56.8685Z" fill="#E0E6FC"/>
<path fill-rule="evenodd" clip-rule="evenodd" d="M168.716 -84.8866C168.821 -84.7776 168.864 -84.5953 168.827 -84.4262L116.141 153.555C116.101 153.739 115.974 153.865 115.83 153.865H-2.40057C-2.57994 153.865 -2.72534 153.672 -2.72534 153.434V46.0527C-2.72534 45.8984 -2.66326 45.7558 -2.56255 45.6789L168.353 -84.9217C168.468 -85.0095 168.612 -84.9957 168.716 -84.8866ZM-2.0758 46.3021V153.003H115.587L167.975 -83.6376L-2.0758 46.3021Z" fill="#FBFBFB"/>
</g>
</g>
<path d="M1.31139 138.997H86.4412C87.3765 138.997 88.1348 139.749 88.1348 140.677V144.735C88.1348 145.663 87.3765 146.416 86.4412 146.416H1.31139C0.376083 146.416 -0.382141 145.663 -0.382141 144.735V140.677C-0.382141 139.749 0.376083 138.997 1.31139 138.997Z" fill="#0E246D"/>
<mask id="mask2_19_2539" style="mask-type:luminance" maskUnits="userSpaceOnUse" x="-1" y="138" width="90" height="9">
<path d="M1.31139 138.997H86.4412C87.3765 138.997 88.1348 139.749 88.1348 140.677V144.735C88.1348 145.663 87.3765 146.416 86.4412 146.416H1.31139C0.376083 146.416 -0.382141 145.663 -0.382141 144.735V140.677C-0.382141 139.749 0.376083 138.997 1.31139 138.997Z" fill="white"/>
</mask>
<g mask="url(#mask2_19_2539)">
<path fill-rule="evenodd" clip-rule="evenodd" d="M79.2781 150.016L90.1624 139.219L89.7167 138.776L78.8325 149.573L79.2781 150.016Z" fill="#8274FC"/>
<path fill-rule="evenodd" clip-rule="evenodd" d="M74.6789 149.985L84.7483 136.85L84.2466 136.471L74.1771 149.605L74.6789 149.985Z" fill="#8274FC"/>
<path fill-rule="evenodd" clip-rule="evenodd" d="M72.5627 149.817C72.9481 144.28 75.6389 139.81 79.291 135.741L78.8202 135.324C75.1198 139.448 72.3324 144.044 71.9336 149.773L72.5627 149.817Z" fill="#8274FC"/>
<path fill-rule="evenodd" clip-rule="evenodd" d="M68.4762 144.684C72.1902 143.107 73.5404 139.917 74.7238 136.77L74.133 136.551C72.9471 139.705 71.6721 142.645 68.2283 144.108L68.4762 144.684Z" fill="#8274FC"/>
<path fill-rule="evenodd" clip-rule="evenodd" d="M61.1629 135.379C60.1685 137.092 60.5604 139.265 62.094 140.529L62.094 140.529C63.6248 141.791 65.8512 141.776 67.3666 140.491L67.3679 140.49C68.6013 139.432 69.6654 138.204 70.5834 136.834L70.0584 136.487C69.169 137.815 68.1421 138.998 66.9564 140.015C65.6743 141.102 63.7911 141.114 62.4968 140.047C61.1995 138.978 60.8683 137.14 61.7092 135.692L61.1629 135.379Z" fill="#8274FC"/>
<path fill-rule="evenodd" clip-rule="evenodd" d="M50.9765 136.845L50.4664 136.476L49.5897 137.675C49.0703 138.386 48.3889 139.318 47.7409 140.207C47.3144 140.791 47.3414 141.588 47.811 142.14C48.2785 142.69 49.0628 142.86 49.717 142.542L49.7205 142.54C51.5195 141.64 53.2639 140.137 54.9525 137.981L54.4548 137.597C52.807 139.7 51.1316 141.132 49.4385 141.98C49.0474 142.169 48.5757 142.069 48.2928 141.736C48.0116 141.405 47.994 140.927 48.2516 140.574C48.8995 139.686 49.5807 138.754 50.1 138.043L50.9765 136.845Z" fill="#8274FC"/>
<path fill-rule="evenodd" clip-rule="evenodd" d="M11.4042 136.87C11.4042 136.87 11.4043 136.87 11.1697 136.661C10.9352 136.451 10.9352 136.451 10.9351 136.451L7.03613 140.76C4.92513 143.093 2.49119 145.783 1.19949 147.21L1.19727 147.213C1.01843 147.415 1.00454 147.717 1.17333 147.934C1.33904 148.147 1.6381 148.219 1.88588 148.089C4.05727 146.984 8.6149 144.664 11.393 143.25C10.9389 143.641 10.4316 144.079 9.90225 144.536C9.14915 145.186 8.35135 145.875 7.59822 146.524C7.36791 146.722 7.3364 147.063 7.52417 147.299C7.70732 147.529 8.04353 147.59 8.29619 147.415C8.29648 147.415 8.29676 147.414 8.29705 147.414L8.11636 147.158L8.29619 147.415C8.29623 147.415 8.29616 147.415 8.29619 147.415C10.0803 146.186 12.2851 144.666 14.4579 143.169C17.3659 141.165 20.2165 139.2 21.9238 138.024C22.0028 137.92 22.0786 137.819 22.151 137.724L22.1522 137.722C22.1361 137.743 22.1354 137.776 22.1553 137.799C22.1558 137.8 22.1563 137.8 22.1568 137.801C22.1574 137.802 22.158 137.802 22.1586 137.803C22.1801 137.822 22.2129 137.824 22.2364 137.809C22.137 137.877 22.0328 137.949 21.9238 138.024C19.9722 140.606 16.0862 145.746 14.2158 148.216C14.0485 148.438 14.0647 148.753 14.2672 148.954C14.4649 149.15 14.7816 149.178 15.0096 149.009C17.6988 147.023 23.4753 142.758 25.463 141.291C25.476 141.235 25.4886 141.181 25.5009 141.128L25.5017 141.125C25.5014 141.126 25.5011 141.127 25.5009 141.128C25.4951 141.157 25.5087 141.181 25.5268 141.193C25.5477 141.207 25.5777 141.206 25.5981 141.191C25.5552 141.223 25.5104 141.256 25.463 141.291C25.4379 141.399 25.4117 141.512 25.3854 141.626C25.3297 141.866 25.2732 142.111 25.2229 142.325C25.2232 142.324 25.2234 142.323 25.2236 142.322L25.53 142.396L25.2229 142.325C25.1665 142.56 25.2708 142.794 25.4589 142.92L25.4628 142.923C25.6608 143.052 25.9127 143.044 26.1016 142.917L26.1073 142.914C26.4886 142.645 27.0278 142.265 27.5867 141.87C27.9684 141.601 28.3592 141.325 28.715 141.074C28.7778 140.98 28.8381 140.889 28.8959 140.803L28.9413 140.832L28.8003 140.63L28.9474 140.836L29.159 140.975L28.9506 140.841L28.9827 140.886C28.8963 140.947 28.8068 141.01 28.715 141.074C28.1683 141.896 27.4435 142.987 26.7186 144.077C26.3134 144.687 25.9081 145.297 25.5338 145.859L25.7968 146.032L25.5347 145.858C25.3706 146.102 25.4237 146.426 25.6513 146.609L25.6521 146.61C25.8747 146.788 26.2061 146.778 26.4152 146.565L26.4167 146.563C28.3062 144.605 30.1467 142.975 31.9107 141.922C33.6347 140.894 35.2508 140.437 36.7527 140.722C36.7743 140.694 36.7949 140.667 36.8143 140.642L36.8683 140.683L36.9259 140.437L36.872 140.685L37.0649 140.832L36.8704 140.693L36.8594 140.743C36.8239 140.736 36.7883 140.729 36.7527 140.722C36.0932 141.58 34.4266 143.744 32.9032 145.723L29.9099 149.61C29.9099 149.61 29.9096 149.61 30.1601 149.8C30.4105 149.991 30.4106 149.991 30.4106 149.991L33.4041 146.103C34.9773 144.06 36.7036 141.818 37.3155 141.022L37.3208 141.015C37.4286 140.866 37.4616 140.675 37.3991 140.495C37.3383 140.32 37.1934 140.178 36.9974 140.132L36.9923 140.131C35.2402 139.756 33.4201 140.291 31.5859 141.385C29.9004 142.391 28.172 143.888 26.4264 145.654C26.3018 145.841 26.1794 146.025 26.0601 146.205C26.0784 146.176 26.0697 146.14 26.0482 146.122L26.008 146.172L26.189 146.346L26.0069 146.173L25.8498 146.366L26.0063 146.173L25.9614 146.13C26.1165 145.969 26.2715 145.81 26.4264 145.654C26.6927 145.253 26.9689 144.837 27.245 144.422C28.0531 143.206 28.8609 141.991 29.422 141.148L29.4234 141.146C29.5708 140.92 29.541 140.623 29.3439 140.432C29.3445 140.432 29.3451 140.433 29.3457 140.434L29.1228 140.655L29.3421 140.43C29.3427 140.431 29.3433 140.431 29.3439 140.432C29.1434 140.235 28.8377 140.223 28.6205 140.373L28.6178 140.375C28.1958 140.672 27.701 141.021 27.2209 141.36C26.7239 141.711 26.2425 142.05 25.8738 142.31C25.8612 142.364 25.8489 142.416 25.837 142.467L25.8363 142.47C25.8366 142.469 25.8368 142.468 25.837 142.467C25.8434 142.436 25.8284 142.412 25.8124 142.401L25.7812 142.447L25.9249 142.658L25.7778 142.452L25.6357 142.661L25.7755 142.449L25.7425 142.403C25.7844 142.373 25.8283 142.342 25.8738 142.31C25.9143 142.136 25.9578 141.949 26.0005 141.764C26.0402 141.592 26.0794 141.423 26.1149 141.271C26.1148 141.271 26.1146 141.272 26.1144 141.273L25.8081 141.199L26.1152 141.269C26.1151 141.27 26.115 141.27 26.1149 141.271C26.1715 141.036 26.0687 140.797 25.8725 140.669C25.6735 140.54 25.4155 140.546 25.2227 140.688C23.4501 141.996 17.8587 146.124 14.9784 148.251C14.8885 148.37 14.8022 148.484 14.7198 148.593L14.6692 148.555L14.4678 148.404L14.7198 148.593C14.7369 148.57 14.7375 148.536 14.7129 148.511C14.6933 148.492 14.6604 148.486 14.6328 148.506C14.743 148.425 14.8583 148.34 14.9784 148.251C17.012 145.564 20.8749 140.455 22.6565 138.098C22.823 137.878 22.8069 137.569 22.6129 137.368C22.6135 137.369 22.614 137.37 22.6145 137.37L22.3849 137.585L22.6112 137.367C22.6118 137.367 22.6123 137.368 22.6129 137.368C22.4189 137.165 22.1064 137.135 21.8765 137.295C21.8767 137.295 21.8763 137.295 21.8765 137.295L22.0567 137.552L21.8756 137.295C21.8759 137.295 21.8762 137.295 21.8765 137.295C20.2196 138.436 17.1902 140.524 14.0961 142.656C12.2879 143.902 10.4577 145.163 8.86635 146.26C8.57905 146.507 8.29274 146.754 8.0116 146.997C8.01142 146.997 8.01123 146.997 8.01104 146.997M12.1934 143.389C12.4113 143.203 12.4556 142.881 12.2919 142.644C12.131 142.41 11.8196 142.329 11.5628 142.459C8.96542 143.782 4.2938 146.16 1.89168 147.382C3.22686 145.907 5.51021 143.383 7.50517 141.179L11.4042 136.87M12.1934 143.389C11.6453 143.861 10.9983 144.42 10.3145 145.01C9.84252 145.417 9.35302 145.84 8.86635 146.26C8.54605 146.48 8.23544 146.694 7.93663 146.9C7.96674 146.88 8.00258 146.89 8.01892 146.911C8.03983 146.937 8.03614 146.975 8.0116 146.997M25.7789 142.444L25.7482 142.399C25.7646 142.388 25.7884 142.386 25.8085 142.399L25.7789 142.444ZM26.0074 146.171L25.9629 146.128C25.9884 146.102 26.0251 146.104 26.0475 146.122L26.0074 146.171ZM36.8666 140.69L36.8543 140.742C36.8414 140.739 36.8292 140.733 36.8197 140.724C36.8105 140.715 36.8054 140.706 36.803 140.699C36.8001 140.691 36.799 140.681 36.8006 140.671C36.8022 140.66 36.8059 140.653 36.8091 140.649L36.8666 140.69ZM28.9445 140.837L28.98 140.888C28.9631 140.899 28.9309 140.904 28.9036 140.88C28.9031 140.88 28.9026 140.879 28.9021 140.879C28.9014 140.878 28.9008 140.877 28.9001 140.877C28.8928 140.868 28.8873 140.856 28.8859 140.843C28.8842 140.828 28.888 140.815 28.8945 140.805L28.9445 140.837Z" fill="#8274FC"/>
<path fill-rule="evenodd" clip-rule="evenodd" d="M34.7374 158.93C40.4247 153.01 44.2933 145.348 45.9657 135.585L45.344 135.48C43.6905 145.133 39.8729 152.677 34.2811 158.498L34.7374 158.93Z" fill="#8274FC"/>
<path fill-rule="evenodd" clip-rule="evenodd" d="M48.0325 158.354C53.7198 152.433 57.5885 144.771 59.2609 135.008L58.6392 134.903C56.9857 144.556 53.1681 152.1 47.5763 157.921L48.0325 158.354Z" fill="#8274FC"/>
</g>
<path d="M-25.646 146.416H113.396V153.434H-25.646V146.416Z" fill="#FC38ED"/>
<path fill-rule="evenodd" clip-rule="evenodd" d="M17.5642 90.3331C17.5892 90.3662 17.6337 90.3745 17.6699 90.3524C17.7032 90.3331 17.7171 90.289 17.7004 90.2504C16.7299 88.1316 13.6182 81.3314 12.7255 79.3782C12.7088 79.3423 12.6671 79.323 12.6282 79.334C12.5893 79.3451 12.5642 79.3837 12.5726 79.4223C13.3262 83.8639 15.245 87.2737 17.5642 90.3304V90.3331Z" fill="#0E246D"/>
<path fill-rule="evenodd" clip-rule="evenodd" d="M26.4016 121.737C18.81 108.265 15.0441 90.6553 13.7995 69.7732L13.17 69.8102C14.4171 90.7339 18.1928 108.452 25.8513 122.043L26.4016 121.737Z" fill="#0E246D"/>
<path fill-rule="evenodd" clip-rule="evenodd" d="M13.8211 73.2897C13.8267 73.3311 13.8017 73.367 13.7627 73.378C13.7238 73.389 13.6821 73.3697 13.6654 73.3311C12.5781 70.6303 8.73775 61.0906 7.73665 58.6022C7.71996 58.5636 7.73665 58.5222 7.7728 58.5029C7.80895 58.4836 7.85345 58.4946 7.87848 58.5277C11.3545 63.3941 12.909 68.3323 13.8211 73.2925V73.2897Z" fill="#0E246D"/>
<path fill-rule="evenodd" clip-rule="evenodd" d="M14.3022 80.079C14.3328 80.1038 14.3773 80.101 14.4051 80.0735C14.4329 80.0459 14.4385 80.0017 14.4162 79.9714C13.3345 78.4072 9.54696 72.9283 8.43463 71.32C8.41238 71.2869 8.36789 71.2758 8.33174 71.2924C8.29559 71.3089 8.27889 71.3503 8.29002 71.389C9.72771 75.6815 11.8912 78.1837 14.2994 80.079H14.3022Z" fill="#0E246D"/>
<path fill-rule="evenodd" clip-rule="evenodd" d="M13.5707 88.3111C13.5401 88.336 13.4956 88.3332 13.4678 88.3056C13.44 88.278 13.4345 88.2339 13.4567 88.2036C14.5385 86.6394 18.326 81.1605 19.4383 79.5522C19.4605 79.5191 19.505 79.508 19.5412 79.5246C19.5773 79.5411 19.594 79.5825 19.5829 79.6211C18.1452 83.9137 15.9817 86.4159 13.5735 88.3111H13.5707Z" fill="#0E246D"/>
<path fill-rule="evenodd" clip-rule="evenodd" d="M12.1804 75.5987C12.2082 75.6263 12.2527 75.6291 12.2861 75.607C12.3166 75.5822 12.3278 75.5408 12.3083 75.5049C11.3183 73.7035 7.83116 67.3501 6.8384 65.5459C6.81894 65.51 6.77721 65.4962 6.73828 65.51C6.69935 65.5238 6.67988 65.5624 6.68823 65.6011C7.73938 70.2357 9.79164 73.1986 12.1804 75.5987Z" fill="#0E246D"/>
<path fill-rule="evenodd" clip-rule="evenodd" d="M15.6955 83.8336C15.6677 83.8612 15.6232 83.8639 15.5898 83.8419C15.5592 83.817 15.5481 83.7756 15.5676 83.7398C16.5575 81.9383 20.0447 75.585 21.0375 73.7808C21.0569 73.7449 21.0987 73.7311 21.1348 73.7449C21.1737 73.7587 21.1932 73.7973 21.1849 73.8359C20.1337 78.4706 18.0814 81.4335 15.6927 83.8336H15.6955Z" fill="#0E246D"/>
<path fill-rule="evenodd" clip-rule="evenodd" d="M13.9407 75.8002C13.9407 75.8416 13.9073 75.8747 13.8656 75.8747C13.8239 75.8775 13.7878 75.8499 13.7822 75.8085C13.3428 73.3229 11.9385 65.4108 11.5297 63.1128C11.5214 63.0742 11.5464 63.0356 11.5853 63.0218C11.6243 63.0107 11.666 63.0301 11.6827 63.0659C13.6293 67.5213 14.0464 71.7063 13.9407 75.7975V75.8002Z" fill="#0E246D"/>
<path fill-rule="evenodd" clip-rule="evenodd" d="M13.9351 84.035C13.9351 84.0764 13.9684 84.1095 14.0101 84.1122C14.0519 84.115 14.088 84.0874 14.0936 84.046C14.5357 81.5604 15.9373 73.6483 16.3461 71.3503C16.3544 71.3117 16.3294 71.2731 16.2904 71.2593C16.2515 71.2455 16.2098 71.2676 16.1931 71.3034C14.2465 75.7588 13.8294 79.9438 13.9351 84.035Z" fill="#0E246D"/>
<path fill-rule="evenodd" clip-rule="evenodd" d="M14.294 78.8762C14.3135 78.9121 14.358 78.9258 14.3969 78.9093C14.433 78.8927 14.4525 78.8514 14.4386 78.8127C13.6461 76.4154 11.1183 68.782 10.3842 66.564C10.3703 66.5253 10.3313 66.5033 10.2924 66.5088C10.2535 66.5143 10.2256 66.5529 10.2284 66.5943C10.6316 71.4331 12.2529 75.3174 14.294 78.8762Z" fill="#0E246D"/>
<path fill-rule="evenodd" clip-rule="evenodd" d="M13.582 87.1109C13.5598 87.1468 13.5181 87.1606 13.4791 87.144C13.443 87.1275 13.4235 87.0861 13.4346 87.0475C14.2272 84.6501 16.755 77.0167 17.4891 74.7987C17.5002 74.7601 17.5419 74.738 17.5809 74.7435C17.6198 74.749 17.6476 74.7877 17.6448 74.829C17.2416 79.6679 15.6204 83.5522 13.5792 87.1109H13.582Z" fill="#0E246D"/>
<path fill-rule="evenodd" clip-rule="evenodd" d="M13.7488 77.472C13.7266 77.5052 13.6821 77.5162 13.6459 77.4996C13.6098 77.4831 13.5931 77.4389 13.607 77.4031C14.4607 75.0057 17.464 66.5861 18.2705 64.3239C18.2844 64.2853 18.3233 64.2632 18.3622 64.2715C18.4012 64.2798 18.429 64.3156 18.4262 64.357C17.9618 69.731 16.0903 73.8167 13.7488 77.4748V77.472Z" fill="#0E246D"/>
<path fill-rule="evenodd" clip-rule="evenodd" d="M14.0576 84.5977C14.0882 84.6225 14.1327 84.6225 14.1632 84.5977C14.1938 84.5701 14.1966 84.526 14.1744 84.4929C12.6811 82.4293 7.42806 75.1738 6.01817 73.2234C5.99314 73.1903 5.95143 73.1793 5.91528 73.1986C5.87913 73.2179 5.86523 73.2593 5.87913 73.2979C7.83684 78.3298 10.7817 81.7369 14.0576 84.6004V84.5977Z" fill="#0E246D"/>
<path fill-rule="evenodd" clip-rule="evenodd" d="M12.7617 77.4113C12.7422 77.4471 12.7005 77.4637 12.6616 77.4471C12.6226 77.4333 12.6032 77.3919 12.6143 77.3533C13.1677 75.2567 14.8223 68.9668 15.3228 67.0715C15.334 67.0329 15.3701 67.0081 15.409 67.0108C15.448 67.0163 15.4786 67.0495 15.4786 67.0881C15.5147 71.0027 14.3467 74.3104 12.7617 77.4085V77.4113Z" fill="#0E246D"/>
<path fill-rule="evenodd" clip-rule="evenodd" d="M14.989 84.2667C15.0168 84.2943 15.0641 84.2998 15.0947 84.275C15.1253 84.2501 15.1364 84.206 15.1142 84.1701C13.9935 82.308 10.6342 76.7271 9.62199 75.0442C9.60252 75.0111 9.55803 74.9946 9.52188 75.0111C9.48573 75.0277 9.46627 75.0663 9.47461 75.1049C10.5425 78.8734 12.5947 81.7287 14.9862 84.2639L14.989 84.2667Z" fill="#0E246D"/>
<path fill-rule="evenodd" clip-rule="evenodd" d="M12.8868 83.7565C12.8618 83.7868 12.8173 83.7951 12.7811 83.773C12.7478 83.751 12.7339 83.7068 12.7506 83.671C13.6821 81.7095 16.4769 75.8306 17.3195 74.0595C17.3362 74.0237 17.3779 74.0044 17.4168 74.0181C17.4557 74.0292 17.478 74.0678 17.4724 74.1064C16.78 77.9604 15.0197 81.0005 12.8868 83.7537V83.7565Z" fill="#0E246D"/>
<path fill-rule="evenodd" clip-rule="evenodd" d="M16.652 90.3939C16.6854 90.4188 16.7299 90.4132 16.7577 90.3829C16.7855 90.3526 16.7855 90.3084 16.7577 90.2781C15.3117 88.6532 10.9736 83.7812 9.66657 82.3136C9.63876 82.2833 9.59426 82.2777 9.56089 82.2998C9.52752 82.3219 9.51639 82.366 9.53308 82.4019C11.2822 85.911 13.8267 88.3414 16.652 90.3967V90.3939Z" fill="#0E246D"/>
<path fill-rule="evenodd" clip-rule="evenodd" d="M12.0219 72.4013C12.0025 72.4372 11.9608 72.4537 11.9246 72.4399C11.8884 72.4262 11.8634 72.3875 11.8745 72.3462C12.414 69.9681 14.3078 61.6119 14.8 59.438C14.8083 59.3994 14.8445 59.3718 14.8834 59.3746C14.9223 59.3773 14.9557 59.4077 14.9585 59.4491C15.2783 64.4258 13.9296 68.5529 12.0219 72.3986V72.4013Z" fill="#0E246D"/>
<path fill-rule="evenodd" clip-rule="evenodd" d="M16.3128 91.4285C16.3156 91.4698 16.349 91.5002 16.3907 91.5029C16.4324 91.5029 16.4685 91.4753 16.4741 91.434C16.8412 88.6807 18.0175 79.8418 18.3512 77.3285C18.3567 77.2872 18.3317 77.2513 18.2928 77.2403C18.2538 77.2292 18.2121 77.2513 18.1982 77.2899C16.3601 82.2225 16.0736 86.8738 16.3156 91.4312L16.3128 91.4285Z" fill="#0E246D"/>
<path fill-rule="evenodd" clip-rule="evenodd" d="M17.3475 97.6797C17.3225 97.71 17.2808 97.7211 17.2446 97.7018C17.2085 97.6825 17.1945 97.6411 17.2085 97.6052C17.8008 95.9583 19.7279 90.5925 20.3508 88.8655C20.3647 88.8269 20.4036 88.8049 20.4426 88.8131C20.4815 88.8214 20.5093 88.8573 20.5065 88.8987C20.1839 92.9402 18.927 95.5555 17.3503 97.6797H17.3475Z" fill="#0E246D"/>
<path fill-rule="evenodd" clip-rule="evenodd" d="M19.5274 104.963C19.5635 104.982 19.6053 104.971 19.6275 104.938C19.6497 104.908 19.647 104.864 19.6192 104.836C18.3706 103.6 14.3105 99.5723 13.0036 98.2784C12.9757 98.2508 12.9312 98.2453 12.8979 98.2701C12.8645 98.295 12.8562 98.3391 12.8756 98.375C14.914 101.887 17.1804 103.716 19.5246 104.966L19.5274 104.963Z" fill="#0E246D"/>
<path fill-rule="evenodd" clip-rule="evenodd" d="M17.2112 94.3003C17.1918 94.3334 17.15 94.3499 17.1111 94.3334C17.075 94.3196 17.0527 94.2782 17.0638 94.2396C17.5282 92.383 19.0494 86.3303 19.5249 84.4405C19.5332 84.4019 19.5722 84.3743 19.6111 84.3799C19.65 84.3854 19.6806 84.4185 19.6834 84.4571C19.7418 88.7304 18.6712 91.7319 17.2112 94.2975V94.3003Z" fill="#0E246D"/>
<path fill-rule="evenodd" clip-rule="evenodd" d="M18.0201 102.29C18.0535 102.312 18.0979 102.306 18.1258 102.279C18.1536 102.251 18.1536 102.204 18.1285 102.174C16.905 100.695 12.9172 95.8728 11.6714 94.3665C11.6464 94.3361 11.6019 94.3279 11.5658 94.3472C11.5324 94.3692 11.5185 94.4106 11.5352 94.4493C13.3288 98.3336 15.5952 100.59 18.0201 102.29Z" fill="#0E246D"/>
<path fill-rule="evenodd" clip-rule="evenodd" d="M16.7021 93.7016C16.7132 93.7402 16.7522 93.765 16.7911 93.7595C16.8328 93.754 16.8606 93.7181 16.8578 93.6767C16.7105 91.2684 16.285 84.3163 16.1487 82.0928C16.1487 82.0514 16.1154 82.0183 16.0736 82.0183C16.0319 82.0183 15.9958 82.0459 15.9902 82.0845C15.32 86.3495 15.8067 90.1124 16.7021 93.7016Z" fill="#0E246D"/>
<path fill-rule="evenodd" clip-rule="evenodd" d="M18.39 101.092C18.3983 101.134 18.3733 101.172 18.3344 101.183C18.2954 101.194 18.2537 101.175 18.237 101.136C17.3305 98.8962 14.7082 92.4352 13.8711 90.3689C13.8544 90.3303 13.8711 90.2889 13.9073 90.2696C13.9434 90.2503 13.9879 90.2614 14.013 90.2945C16.4629 93.8643 17.6503 97.4699 18.39 101.092Z" fill="#0E246D"/>
<path fill-rule="evenodd" clip-rule="evenodd" d="M17.0998 96.5349C17.0886 96.5735 17.0497 96.5983 17.008 96.5928C16.9691 96.5845 16.9385 96.5486 16.9412 96.5073C17.1164 94.1292 17.6226 87.2076 17.7838 84.984C17.7838 84.9426 17.82 84.9123 17.8617 84.9095C17.9034 84.9095 17.9396 84.9371 17.9451 84.9785C18.568 89.3042 18.0369 93.0257 17.0998 96.5349Z" fill="#0E246D"/>
<path fill-rule="evenodd" clip-rule="evenodd" d="M19.2575 103.824C19.2853 103.854 19.3298 103.859 19.3632 103.837C19.3965 103.815 19.4076 103.768 19.3854 103.732C18.2008 101.658 14.7497 95.619 13.643 93.6824C13.6235 93.6465 13.579 93.6327 13.5401 93.6493C13.5011 93.6658 13.4845 93.7072 13.4956 93.7458C14.8026 97.9171 16.891 101.054 19.2547 103.826L19.2575 103.824Z" fill="#0E246D"/>
<path fill-rule="evenodd" clip-rule="evenodd" d="M17.1582 95.2161C17.186 95.2437 17.2333 95.2492 17.2639 95.2244C17.2973 95.1996 17.3056 95.1554 17.2834 95.1196C16.0431 93.0505 12.0443 86.3854 10.8568 84.4102C10.8374 84.3743 10.7929 84.3605 10.7567 84.3771C10.7178 84.3936 10.7011 84.435 10.7122 84.4736C12.1805 89.1193 14.5192 92.3995 17.1582 95.2134V95.2161Z" fill="#0E246D"/>
<path fill-rule="evenodd" clip-rule="evenodd" d="M18.4817 101.674C18.4595 101.707 18.415 101.718 18.3788 101.699C18.3427 101.68 18.326 101.638 18.3399 101.6C19.1825 99.4065 21.9272 92.2421 22.7364 90.1344C22.7503 90.0958 22.792 90.0765 22.8309 90.0848C22.8699 90.0931 22.8949 90.1317 22.8921 90.1731C22.2915 94.9733 20.5785 98.5348 18.4845 101.674H18.4817Z" fill="#0E246D"/>
<path fill-rule="evenodd" clip-rule="evenodd" d="M17.9646 94.9623C17.9896 94.9926 18.0369 95.0009 18.0702 94.9789C18.1036 94.9568 18.1175 94.9126 18.098 94.8768C17.1831 93.0395 14.6859 88.013 13.8517 86.333C13.835 86.2971 13.7905 86.2806 13.7544 86.2916C13.7182 86.3026 13.6932 86.344 13.7015 86.3826C14.469 89.8145 16.068 92.5181 17.9646 94.9595V94.9623Z" fill="#0E246D"/>
<path fill-rule="evenodd" clip-rule="evenodd" d="M17.6393 101.534C17.6198 101.57 17.5753 101.583 17.5392 101.57C17.503 101.556 17.4808 101.512 17.4919 101.473C18.0536 99.5474 19.6109 94.212 20.1282 92.4409C20.1393 92.4023 20.1782 92.3775 20.2171 92.383C20.2561 92.3885 20.2867 92.4243 20.2839 92.4657C20.156 95.9693 19.0659 98.8605 17.6365 101.534H17.6393Z" fill="#0E246D"/>
<path fill-rule="evenodd" clip-rule="evenodd" d="M19.1466 100.703C19.1772 100.731 19.2245 100.728 19.255 100.703C19.2856 100.676 19.2884 100.632 19.2662 100.598C18.0621 98.9653 14.7417 94.4686 13.6378 92.9706C13.6127 92.9375 13.5682 92.9292 13.5349 92.9485C13.4987 92.9678 13.4848 93.0119 13.4987 93.0478C14.8419 96.2976 16.8746 98.6591 19.1494 100.706L19.1466 100.703Z" fill="#0E246D"/>
<path fill-rule="evenodd" clip-rule="evenodd" d="M17.5197 107.363C17.4947 107.393 17.4474 107.402 17.414 107.379C17.3807 107.357 17.3667 107.313 17.3862 107.277C18.2705 105.512 20.7455 100.585 21.5603 98.9598C21.5769 98.9239 21.6214 98.9046 21.6576 98.9184C21.6937 98.9322 21.7188 98.9708 21.7104 99.0094C20.9791 102.414 19.3968 105.029 17.5169 107.363H17.5197Z" fill="#0E246D"/>
<path fill-rule="evenodd" clip-rule="evenodd" d="M39.5465 136.197C38.551 137.927 36.699 138.994 34.694 138.994C30.0861 139 21.5072 139 16.8994 139C14.8916 139 13.0368 137.932 12.0412 136.2C2.98683 120.481 5.32552 104.761 9.96952 89.0419C10.1225 88.5233 10.6036 88.1647 11.1514 88.1647H40.4447C40.9898 88.1647 41.4709 88.5205 41.6266 89.0419C46.2706 104.761 48.6093 120.478 39.5493 136.197H39.5465Z" fill="#FBF1E1"/>
<mask id="mask3_19_2539" style="mask-type:luminance" maskUnits="userSpaceOnUse" x="5" y="88" width="41" height="51">
<path d="M39.5465 136.197C38.551 137.927 36.699 138.994 34.694 138.994C30.0861 139 21.5072 139 16.8994 139C14.8916 139 13.0368 137.932 12.0412 136.2C2.98683 120.481 5.32552 104.761 9.96952 89.0419C10.1225 88.5233 10.6036 88.1647 11.1514 88.1647H40.4447C40.9898 88.1647 41.4709 88.5205 41.6266 89.0419C46.2706 104.761 48.6093 120.478 39.5493 136.197H39.5465Z" fill="white"/>
</mask>
<g mask="url(#mask3_19_2539)">
<path fill-rule="evenodd" clip-rule="evenodd" d="M13.5707 88.311C13.5401 88.3359 13.4956 88.3331 13.4678 88.3055C13.44 88.2779 13.4345 88.2338 13.4567 88.2034C14.5385 86.6392 18.326 81.1604 19.4383 79.552C19.4605 79.5189 19.505 79.5079 19.5412 79.5245C19.5773 79.541 19.594 79.5824 19.5829 79.621C18.1452 83.9136 15.9817 86.4158 13.5735 88.311H13.5707Z" fill="#8274FC"/>
<path fill-rule="evenodd" clip-rule="evenodd" d="M16.6518 90.3938C16.6852 90.4186 16.7297 90.4131 16.7575 90.3828C16.7853 90.3524 16.7853 90.3083 16.7575 90.2779C15.3114 88.653 10.9733 83.7811 9.66632 82.3135C9.63851 82.2831 9.59402 82.2776 9.56065 82.2997C9.52728 82.3217 9.51615 82.3659 9.53283 82.4018C11.282 85.9109 13.8265 88.3413 16.6518 90.3966V90.3938Z" fill="#8274FC"/>
<path fill-rule="evenodd" clip-rule="evenodd" d="M16.3128 91.4283C16.3156 91.4697 16.349 91.5001 16.3907 91.5028C16.4324 91.5028 16.4685 91.4752 16.4741 91.4338C16.8412 88.6806 18.0175 79.8416 18.3512 77.3284C18.3567 77.287 18.3317 77.2512 18.2928 77.2401C18.2538 77.2291 18.2121 77.2512 18.1982 77.2898C16.3601 82.2224 16.0736 86.8736 16.3156 91.4311L16.3128 91.4283Z" fill="#8274FC"/>
<path fill-rule="evenodd" clip-rule="evenodd" d="M17.3471 97.6796C17.3221 97.7099 17.2804 97.721 17.2442 97.7017C17.2081 97.6823 17.1942 97.641 17.2081 97.6051C17.8004 95.9581 19.7275 90.5924 20.3504 88.8654C20.3643 88.8268 20.4033 88.8047 20.4422 88.813C20.4811 88.8213 20.5089 88.8571 20.5062 88.8985C20.1836 92.9401 18.9266 95.5554 17.3499 97.6796H17.3471Z" fill="#8274FC"/>
<path fill-rule="evenodd" clip-rule="evenodd" d="M19.5274 104.963C19.5635 104.982 19.6053 104.971 19.6275 104.938C19.6497 104.908 19.647 104.863 19.6192 104.836C18.3706 103.6 14.3105 99.5721 13.0036 98.2783C12.9757 98.2507 12.9312 98.2452 12.8979 98.27C12.8645 98.2948 12.8562 98.339 12.8756 98.3748C14.914 101.887 17.1804 103.716 19.5246 104.965L19.5274 104.963Z" fill="#8274FC"/>
<path fill-rule="evenodd" clip-rule="evenodd" d="M17.2107 94.3C17.1913 94.3331 17.1496 94.3497 17.1106 94.3331C17.0745 94.3193 17.0522 94.278 17.0633 94.2393C17.5277 92.3827 19.0489 86.33 19.5244 84.4403C19.5327 84.4017 19.5717 84.3741 19.6106 84.3796C19.6495 84.3851 19.6801 84.4182 19.6829 84.4569C19.7413 88.7301 18.6707 91.7316 17.2107 94.2973V94.3Z" fill="#8274FC"/>
<path fill-rule="evenodd" clip-rule="evenodd" d="M18.0201 102.289C18.0535 102.312 18.0979 102.306 18.1258 102.278C18.1536 102.251 18.1536 102.204 18.1285 102.174C16.905 100.695 12.9172 95.8726 11.6714 94.3664C11.6464 94.336 11.6019 94.3277 11.5658 94.3471C11.5324 94.3691 11.5185 94.4105 11.5352 94.4491C13.3288 98.3334 15.5952 100.59 18.0201 102.289Z" fill="#8274FC"/>
<path fill-rule="evenodd" clip-rule="evenodd" d="M16.7019 93.7016C16.713 93.7402 16.7519 93.765 16.7909 93.7595C16.8326 93.754 16.8604 93.7181 16.8576 93.6767C16.7102 91.2684 16.2847 84.3163 16.1485 82.0928C16.1485 82.0514 16.1151 82.0183 16.0734 82.0183C16.0317 82.0183 15.9955 82.0459 15.99 82.0845C15.3198 86.3495 15.8064 90.1124 16.7019 93.7016Z" fill="#8274FC"/>
<path fill-rule="evenodd" clip-rule="evenodd" d="M18.39 101.092C18.3983 101.134 18.3733 101.172 18.3344 101.183C18.2954 101.194 18.2537 101.175 18.237 101.136C17.3305 98.8962 14.7082 92.4352 13.8711 90.3689C13.8544 90.3303 13.8711 90.2889 13.9073 90.2696C13.9434 90.2503 13.9879 90.2614 14.013 90.2945C16.4629 93.8643 17.6503 97.4699 18.39 101.092Z" fill="#8274FC"/>
<path fill-rule="evenodd" clip-rule="evenodd" d="M17.0994 96.5347C17.0883 96.5734 17.0493 96.5982 17.0076 96.5927C16.9687 96.5844 16.9381 96.5485 16.9409 96.5071C17.1161 94.1291 17.6222 87.2074 17.7835 84.9839C17.7835 84.9425 17.8196 84.9122 17.8613 84.9094C17.9031 84.9094 17.9392 84.937 17.9448 84.9784C18.5677 89.3041 18.0365 93.0256 17.0994 96.5347Z" fill="#8274FC"/>
<path fill-rule="evenodd" clip-rule="evenodd" d="M19.2575 103.823C19.2853 103.854 19.3298 103.859 19.3632 103.837C19.3965 103.815 19.4076 103.768 19.3854 103.732C18.2008 101.658 14.7497 95.6189 13.643 93.6823C13.6235 93.6464 13.579 93.6326 13.5401 93.6492C13.5011 93.6657 13.4845 93.7071 13.4956 93.7457C14.8026 97.9169 16.891 101.054 19.2547 103.826L19.2575 103.823Z" fill="#8274FC"/>
<path fill-rule="evenodd" clip-rule="evenodd" d="M17.1579 95.216C17.1857 95.2436 17.2329 95.2491 17.2635 95.2243C17.2969 95.1995 17.3052 95.1553 17.283 95.1195C16.0427 93.0504 12.0439 86.3853 10.8565 84.41C10.837 84.3742 10.7925 84.3604 10.7564 84.3769C10.7174 84.3935 10.7008 84.4349 10.7119 84.4735C12.1802 89.1192 14.5188 92.3993 17.1579 95.2133V95.216Z" fill="#8274FC"/>
<path fill-rule="evenodd" clip-rule="evenodd" d="M18.4817 101.674C18.4595 101.707 18.415 101.718 18.3788 101.699C18.3427 101.68 18.326 101.638 18.3399 101.6C19.1825 99.4065 21.9272 92.2421 22.7364 90.1344C22.7503 90.0958 22.792 90.0765 22.8309 90.0848C22.8699 90.0931 22.8949 90.1317 22.8921 90.1731C22.2915 94.9733 20.5785 98.5348 18.4845 101.674H18.4817Z" fill="#8274FC"/>
<path fill-rule="evenodd" clip-rule="evenodd" d="M17.9642 94.9622C17.9892 94.9925 18.0365 95.0008 18.0699 94.9787C18.1032 94.9567 18.1171 94.9125 18.0977 94.8767C17.1828 93.0393 14.6856 88.0129 13.8513 86.3329C13.8346 86.297 13.7901 86.2804 13.754 86.2915C13.7178 86.3025 13.6928 86.3439 13.7012 86.3825C14.4687 89.8144 16.0677 92.5179 17.9642 94.9594V94.9622Z" fill="#8274FC"/>
<path fill-rule="evenodd" clip-rule="evenodd" d="M17.6393 101.534C17.6198 101.569 17.5753 101.583 17.5392 101.569C17.503 101.556 17.4808 101.511 17.4919 101.473C18.0536 99.5473 19.6109 94.2119 20.1282 92.4408C20.1393 92.4022 20.1782 92.3773 20.2171 92.3828C20.2561 92.3884 20.2867 92.4242 20.2839 92.4656C20.156 95.9692 19.0659 98.8604 17.6365 101.534H17.6393Z" fill="#8274FC"/>
<path fill-rule="evenodd" clip-rule="evenodd" d="M19.1462 100.703C19.1768 100.731 19.2241 100.728 19.2547 100.703C19.2853 100.676 19.288 100.631 19.2658 100.598C18.0617 98.9652 14.7414 94.4684 13.6374 92.9704C13.6124 92.9373 13.5679 92.9291 13.5345 92.9484C13.4983 92.9677 13.4844 93.0118 13.4983 93.0477C14.8415 96.2975 16.8743 98.6589 19.149 100.706L19.1462 100.703Z" fill="#8274FC"/>
<path fill-rule="evenodd" clip-rule="evenodd" d="M17.5197 107.363C17.4947 107.393 17.4474 107.401 17.414 107.379C17.3807 107.357 17.3667 107.313 17.3862 107.277C18.2705 105.512 20.7455 100.585 21.5603 98.9597C21.5769 98.9238 21.6214 98.9045 21.6576 98.9183C21.6937 98.9321 21.7188 98.9707 21.7104 99.0093C20.9791 102.414 19.3968 105.029 17.5169 107.363H17.5197Z" fill="#8274FC"/>
<path fill-rule="evenodd" clip-rule="evenodd" d="M17.5642 90.333C17.5892 90.3661 17.6337 90.3744 17.6699 90.3523C17.7032 90.333 17.7171 90.2889 17.7004 90.2502C16.7299 88.1315 13.6182 81.3312 12.7255 79.378C12.7088 79.3422 12.6671 79.3229 12.6282 79.3339C12.5893 79.3449 12.5642 79.3836 12.5726 79.4222C13.3262 83.8638 15.245 87.2736 17.5642 90.3302V90.333Z" fill="#8274FC"/>
<path fill-rule="evenodd" clip-rule="evenodd" d="M13.6236 69.7804L13.3455 69.7969C14.5913 90.7247 18.3705 108.408 26.0039 121.954L26.2458 121.818C18.6291 108.303 14.8667 90.6585 13.6236 69.7804Z" fill="#8274FC"/>
</g>
<path fill-rule="evenodd" clip-rule="evenodd" d="M15.2087 136.543H36.3848V135.917H15.2087V136.543Z" fill="#7C0194"/>
<path fill-rule="evenodd" clip-rule="evenodd" d="M14.2883 133.48C14.6554 134.078 15.3089 134.443 16.0152 134.443C19.9779 134.443 31.6185 134.443 35.5784 134.443C36.2847 134.443 36.941 134.076 37.3053 133.477C42.6723 124.66 44.1517 116.514 43.565 108.246C43.5261 107.71 42.9671 106.977 42.5361 107.297C38.3036 110.455 19.8361 103.545 9.05477 107.297C8.53197 107.159 8.06479 107.71 8.02585 108.246C7.43909 116.514 8.9185 124.66 14.2855 133.477L14.2883 133.48Z" fill="#FD4177"/>
<path fill-rule="evenodd" clip-rule="evenodd" d="M38.0005 113.808C37.6402 112.925 36.6275 112.501 35.7381 112.858C34.6814 113.283 33.1404 113.901 31.698 114.48C30.7454 114.863 29.8357 115.228 29.1364 115.509C28.2462 115.866 27.818 116.871 28.1781 117.754C28.6067 118.802 29.2298 120.33 29.8131 121.76C30.1987 122.706 30.5671 123.609 30.8505 124.303M38.0005 113.808C38.2839 114.502 38.6523 115.405 39.0379 116.351C39.6212 117.782 40.2443 119.309 40.6728 120.357C41.033 121.24 40.6049 122.245 39.7148 122.603M35.9746 113.438C36.5423 113.21 37.1869 113.481 37.4161 114.043C37.6992 114.737 38.0675 115.64 38.4531 116.585C39.0366 118.016 39.6599 119.545 40.0885 120.593C40.3178 121.155 40.0453 121.795 39.4784 122.022C38.7792 122.303 37.8688 122.668 36.9156 123.051C35.4733 123.63 33.9328 124.248 32.8764 124.673C32.3087 124.901 31.6642 124.63 31.435 124.068C31.1518 123.374 30.7835 122.471 30.3979 121.526C29.8144 120.095 29.1911 118.567 28.7625 117.519C28.5333 116.956 28.8059 116.317 29.3727 116.089C30.0714 115.809 30.981 115.444 31.9335 115.061C33.3762 114.482 34.9177 113.864 35.9746 113.438ZM39.7148 122.603C39.0152 122.884 38.1047 123.249 37.1516 123.632L39.7148 122.603ZM37.1516 123.632C35.7096 124.211 34.1696 124.829 33.1132 125.254L37.1516 123.632ZM33.1132 125.254C32.2239 125.611 31.2109 125.187 30.8505 124.303L33.1132 125.254Z" fill="#FDC4FC"/>
<path fill-rule="evenodd" clip-rule="evenodd" d="M21.7169 117.451C21.3928 117.127 20.9478 116.945 20.4896 116.945C20.0302 116.945 19.5887 117.128 19.2629 117.451L12.8141 123.848C12.4881 124.172 12.3045 124.61 12.3045 125.068C12.3045 125.527 12.4881 125.965 12.8141 126.289L19.2617 132.685C19.2619 132.685 19.2622 132.685 19.2624 132.686C19.5865 133.01 20.0314 133.192 20.4896 133.192C20.949 133.192 21.3905 133.009 21.7163 132.686L28.1651 126.289C28.4911 125.965 28.6747 125.527 28.6747 125.068C28.6747 124.61 28.4911 124.172 28.1651 123.848L21.7175 117.452C21.7173 117.452 21.7171 117.451 21.7169 117.451ZM20.4896 117.572C20.782 117.572 21.0653 117.688 21.2695 117.893L21.2706 117.894L27.7194 124.291C27.9273 124.498 28.0441 124.777 28.0441 125.068C28.0441 125.36 27.9273 125.639 27.7194 125.846L21.2706 132.243C21.0625 132.45 20.781 132.565 20.4896 132.565C20.1972 132.565 19.9139 132.449 19.7097 132.244L19.7085 132.243L13.2598 125.846C13.0519 125.639 12.9351 125.36 12.9351 125.068C12.9351 124.777 13.0519 124.498 13.2598 124.291L19.7085 117.894C19.9167 117.687 20.1982 117.572 20.4896 117.572Z" fill="#FDC4FC"/>
<path d="M24.4742 113.584C24.0703 113.584 23.7429 113.259 23.7429 112.858C23.7429 112.458 24.0703 112.133 24.4742 112.133C24.8781 112.133 25.2056 112.458 25.2056 112.858C25.2056 113.259 24.8781 113.584 24.4742 113.584Z" fill="#FDC4FC"/>
<path fill-rule="evenodd" clip-rule="evenodd" d="M35.8286 127.041C35.4254 127.041 35.0972 127.366 35.0972 127.766C35.0972 128.166 35.4254 128.492 35.8286 128.492C36.2318 128.492 36.5599 128.166 36.5599 127.766C36.5599 127.366 36.2318 127.041 35.8286 127.041Z" fill="#FDC4FC"/>
<path fill-rule="evenodd" clip-rule="evenodd" d="M30.9008 127.408C30.7034 127.408 30.5421 127.568 30.5421 127.764C30.5421 127.959 30.7034 128.119 30.9008 128.119C31.0983 128.119 31.2623 127.959 31.2623 127.764C31.2623 127.568 31.101 127.408 30.9008 127.408Z" fill="#FDC4FC"/>
<path d="M34.8802 132.489C34.682 132.489 34.5214 132.33 34.5214 132.134C34.5214 131.937 34.682 131.778 34.8802 131.778C35.0783 131.778 35.2389 131.937 35.2389 132.134C35.2389 132.33 35.0783 132.489 34.8802 132.489Z" fill="#FDC4FC"/>
<path d="M40.8479 115.038C40.6498 115.038 40.4892 114.878 40.4892 114.682C40.4892 114.485 40.6498 114.326 40.8479 114.326C41.0461 114.326 41.2067 114.485 41.2067 114.682C41.2067 114.878 41.0461 115.038 40.8479 115.038Z" fill="#FDC4FC"/>
<path d="M36.4932 109.893C36.2951 109.893 36.1345 109.733 36.1345 109.537C36.1345 109.34 36.2951 109.181 36.4932 109.181C36.6913 109.181 36.8519 109.34 36.8519 109.537C36.8519 109.733 36.6913 109.893 36.4932 109.893Z" fill="#FDC4FC"/>
<path fill-rule="evenodd" clip-rule="evenodd" d="M30.0247 111.76C29.8273 111.76 29.666 111.92 29.666 112.119C29.666 112.317 29.8273 112.475 30.0247 112.475C30.2221 112.475 30.3834 112.315 30.3834 112.119C30.3834 111.923 30.2221 111.76 30.0247 111.76Z" fill="#FDC4FC"/>
<path fill-rule="evenodd" clip-rule="evenodd" d="M27.3858 120.511C27.1884 120.511 27.0271 120.671 27.0271 120.867C27.0271 121.063 27.1884 121.223 27.3858 121.223C27.5832 121.223 27.7473 121.063 27.7473 120.867C27.7473 120.671 27.586 120.511 27.3858 120.511Z" fill="#FDC4FC"/>
<path d="M16.068 109.741C15.8699 109.741 15.7093 109.581 15.7093 109.385C15.7093 109.188 15.8699 109.029 16.068 109.029C16.2661 109.029 16.4268 109.188 16.4268 109.385C16.4268 109.581 16.2661 109.741 16.068 109.741Z" fill="#FDC4FC"/>
<path fill-rule="evenodd" clip-rule="evenodd" d="M18.4483 113.418C18.2508 113.418 18.0895 113.578 18.0895 113.774C18.0895 113.97 18.2508 114.133 18.4483 114.133C18.6457 114.133 18.807 113.973 18.807 113.774C18.807 113.575 18.6457 113.418 18.4483 113.418Z" fill="#FDC4FC"/>
<path fill-rule="evenodd" clip-rule="evenodd" d="M13.2787 119.267C13.0785 119.267 12.92 119.427 12.92 119.623C12.92 119.818 13.0813 119.981 13.2787 119.981C13.4762 119.981 13.6375 119.821 13.6375 119.623C13.6375 119.424 13.4762 119.267 13.2787 119.267Z" fill="#FDC4FC"/>
<path d="M11.5964 115.344C11.1925 115.344 10.865 115.019 10.865 114.618C10.865 114.218 11.1925 113.893 11.5964 113.893C12.0003 113.893 12.3278 114.218 12.3278 114.618C12.3278 115.019 12.0003 115.344 11.5964 115.344Z" fill="#FDC4FC"/>
<path d="M29.4382 132.351C29.0343 132.351 28.7068 132.027 28.7068 131.626C28.7068 131.225 29.0343 130.9 29.4382 130.9C29.8421 130.9 30.1696 131.225 30.1696 131.626C30.1696 132.027 29.8421 132.351 29.4382 132.351Z" fill="#FDC4FC"/>
<path fill-rule="evenodd" clip-rule="evenodd" d="M6.88566 76.6637C6.88566 87.0172 15.3589 95.4231 25.7954 95.4231C36.2319 95.4231 44.7051 87.0172 44.7051 76.6637H6.88566Z" fill="#FEC418"/>
<path fill-rule="evenodd" clip-rule="evenodd" d="M8.03696 76.6637C8.03696 86.3855 15.9929 94.281 25.7954 94.281C35.5979 94.281 43.5538 86.3882 43.5538 76.6637H8.03696Z" fill="#FBF1E1"/>
<path fill-rule="evenodd" clip-rule="evenodd" d="M10.2755 76.6637C10.2755 85.1606 17.2303 92.0602 25.7953 92.0602C34.3603 92.0602 41.3152 85.1606 41.3152 76.6637H10.2755Z" fill="#FEC418"/>
<mask id="mask4_19_2539" style="mask-type:luminance" maskUnits="userSpaceOnUse" x="10" y="76" width="32" height="17">
<path d="M10.2755 76.6637C10.2755 85.1606 17.2303 92.0602 25.7953 92.0602C34.3603 92.0602 41.3152 85.1606 41.3152 76.6637H10.2755Z" fill="white"/>
</mask>
<g mask="url(#mask4_19_2539)">
<path fill-rule="evenodd" clip-rule="evenodd" d="M26.1108 74.186V62.9307H25.4802V74.186L22.6582 63.2831L22.0475 63.439L24.8715 74.3498L19.4005 64.479L18.8481 64.7811L24.3179 74.6497L16.5454 66.4404L16.0859 66.8695L23.853 75.073L14.2737 69.0416L13.9361 69.5706L23.519 75.6043L12.7228 72.1256L12.5282 72.7213L23.3245 76.2001L11.9945 75.4931L11.955 76.1182L23.2845 76.8251L12.1327 78.9354L12.2507 79.5507L23.3964 77.4416L13.1309 82.2343L13.3992 82.8011L23.6702 78.0058L14.9246 85.184L15.3263 85.6668L24.0681 78.4917L17.3983 87.5971L17.9082 87.9656L24.5799 78.8577L20.4023 89.324L20.9886 89.5548L25.1705 79.0775L23.7475 90.2553L24.3731 90.3339L25.7955 79.161L27.218 90.3339L27.8436 90.2553L26.4219 79.0877L30.5997 89.5548L31.1859 89.324L27.0084 78.8577L33.6801 87.9656L34.19 87.5971L27.5201 78.4917L36.262 85.6668L36.6637 85.184L27.9181 78.0058L38.1891 82.8011L38.4574 82.2343L28.1919 77.4416L39.3376 79.5507L39.4556 78.9354L28.3038 76.8251L39.6333 76.1182L39.5938 75.4931L28.2638 76.2001L39.0601 72.7213L38.8655 72.1256L28.0693 75.6043L37.6522 69.5706L37.3146 69.0416L27.7353 75.073L35.5023 66.8695L35.0429 66.4404L27.2704 74.6497L32.7402 64.7811L32.1878 64.479L26.722 74.3404L29.5436 63.439L28.9328 63.2831L26.1108 74.186ZM27.2896 75.3536L27.3249 75.4089L27.3244 75.4081M27.3623 75.4666L27.3266 75.4105L27.3739 75.4547C27.3701 75.4587 27.3662 75.4627 27.3623 75.4666ZM27.3623 75.4666C27.2801 75.5484 27.1762 75.6012 27.0669 75.6218C27.034 75.7055 27.0215 75.7965 27.0312 75.8867C27.1099 75.9346 27.1989 75.9622 27.2896 75.9681C27.2898 75.9681 27.2895 75.9681 27.2896 75.9681C27.2897 75.968 27.2903 75.9679 27.2904 75.9677C27.3553 75.8793 27.4464 75.8093 27.5551 75.7703L27.4585 75.6181L27.3623 75.4666ZM27.5945 75.8323L27.5551 75.7703C27.5553 75.7702 27.555 75.7703 27.5551 75.7703C27.5607 75.7683 27.5667 75.7663 27.5723 75.7644L27.5945 75.8323ZM27.6137 75.8909C27.513 75.9503 27.3997 75.9752 27.2896 75.9681C27.2359 76.0415 27.2007 76.1275 27.1879 76.219C27.2525 76.2848 27.332 76.3328 27.4183 76.3605L27.4207 76.36C27.5053 76.2906 27.6105 76.2452 27.7259 76.234L27.6696 76.0615L27.6137 75.8909ZM27.6267 75.883L27.5945 75.8323L27.6137 75.8909C27.6137 75.8908 27.6137 75.8909 27.6137 75.8909C27.618 75.8883 27.6224 75.8856 27.6267 75.883ZM27.7259 76.234C27.7317 76.2334 27.7376 76.2329 27.7434 76.2326L27.748 76.301L27.7259 76.234ZM27.7671 76.3601L27.7481 76.3018L27.7671 76.3601ZM27.4196 76.3609C27.4198 76.3608 27.4195 76.361 27.4196 76.3609C27.5251 76.3944 27.6409 76.3973 27.7523 76.3647L27.7481 76.3018M27.2361 76.941C27.2203 76.8841 27.2131 76.8242 27.2158 76.7631L27.2162 76.7559C27.2204 76.6927 27.2351 76.6324 27.2586 76.5767C27.2286 76.5248 27.2065 76.4676 27.1941 76.4065M27.4196 76.3609C27.4194 76.3608 27.4186 76.3605 27.4183 76.3605L27.4196 76.3609ZM27.4196 76.3609C27.4198 76.3608 27.4195 76.361 27.4196 76.3609V76.3609ZM27.1226 77.2873C27.1216 77.2265 27.1306 77.1648 27.1503 77.1046C27.1701 77.0444 27.1994 76.9894 27.2361 76.941M25.067 78.4872L24.9001 78.42C24.8998 78.4204 24.8995 78.4208 24.8993 78.4212C24.8956 78.4265 24.8919 78.4318 24.888 78.4371C24.8881 78.437 24.8879 78.4372 24.888 78.4371L24.8853 78.4407L24.8141 78.3876M24.7747 78.3696C24.7759 78.3667 24.7771 78.3638 24.7783 78.3609L24.7747 78.3696ZM24.7783 78.3609L24.4893 78.1454C24.4887 78.146 24.4881 78.1465 24.4875 78.147C24.4876 78.147 24.4874 78.1471 24.4875 78.147C24.4848 78.1495 24.4817 78.1521 24.4789 78.1545L24.4388 78.1078L24.381 78.0647C24.3837 78.0611 24.3864 78.0576 24.3892 78.0541C24.3892 78.054 24.3892 78.0541 24.3892 78.0541C24.3897 78.0534 24.3904 78.0526 24.3909 78.0519L24.2744 77.9161L24.1564 77.7786C24.1514 77.7811 24.1463 77.7835 24.1412 77.7859C24.1407 77.7861 24.1403 77.7863 24.1399 77.7865M24.3532 76.9423C24.3696 76.8833 24.3765 76.8206 24.3721 76.7559C24.3679 76.6931 24.3533 76.6331 24.3301 76.5776C24.3606 76.5251 24.3829 76.4665 24.3949 76.4031C24.4074 76.3407 24.4087 76.2787 24.4004 76.219C24.4436 76.1751 24.4801 76.1233 24.5076 76.0644C24.5344 76.0071 24.5507 75.9471 24.5571 75.8867C24.6093 75.8551 24.657 75.8146 24.6979 75.7656L24.6985 75.7649C24.7384 75.7167 24.7691 75.6633 24.7904 75.6071C24.849 75.5892 24.9056 75.5614 24.9579 75.5236C25.0098 75.486 25.0536 75.4412 25.0888 75.3915C25.1499 75.3887 25.2115 75.3759 25.2712 75.3523C25.3305 75.3295 25.3836 75.2978 25.4296 75.2593C25.4907 75.2722 25.5549 75.2751 25.6203 75.2664L25.6212 75.2663C25.6827 75.258 25.7412 75.2398 25.7949 75.2134C25.8489 75.2399 25.908 75.2581 25.9708 75.2664L25.9777 75.2673C26.0402 75.2742 26.1023 75.2707 26.1617 75.2579C26.2069 75.296 26.2586 75.3276 26.3157 75.3507C26.3763 75.3754 26.4389 75.3888 26.5009 75.3916C26.5353 75.4405 26.5777 75.4844 26.6271 75.5211C26.68 75.5605 26.7375 75.5891 26.7972 75.6073M24.5682 75.1014C24.5682 75.1014 24.5681 75.1013 24.5682 75.1014V75.1014ZM24.0158 75.7644C24.0159 75.7644 24.0157 75.7643 24.0158 75.7644V75.7644ZM24.2142 75.4546C24.2143 75.4546 24.2142 75.4545 24.2142 75.4546V75.4546ZM24.2986 75.3536C24.3034 75.3566 24.3081 75.3597 24.3127 75.3628C24.3127 75.3628 24.3127 75.3628 24.3127 75.3628L24.444 75.2401M23.8337 76.3218L23.8212 76.3601L23.8337 76.3218ZM23.8402 76.3018L23.8391 76.3053L23.8402 76.3018ZM23.8622 76.234L23.8403 76.3011L23.8449 76.2326C23.8507 76.2329 23.8565 76.2334 23.8622 76.234ZM23.8622 76.234C23.9765 76.245 24.081 76.2898 24.1652 76.3581L23.8622 76.234ZM23.9185 76.0622L23.8622 76.234L23.9185 76.0622ZM23.8212 76.3601L23.8337 76.3211L23.8212 76.3601ZM23.8337 76.3211L23.8376 76.2322C23.8173 76.2313 23.7863 76.2455 23.7766 76.2809L23.775 76.2875M23.8337 76.3211L23.8391 76.3046L23.8337 76.3211ZM24.3532 76.9423C24.3892 76.9899 24.4182 77.0443 24.4379 77.1046C24.4577 77.1648 24.4667 77.2265 24.4657 77.2873C24.5138 77.3252 24.5563 77.3716 24.591 77.426C24.6252 77.4797 24.649 77.537 24.6631 77.5957C24.719 77.6208 24.7715 77.6552 24.8183 77.6988C24.8648 77.7422 24.9025 77.7917 24.9311 77.845C24.991 77.8552 25.0505 77.8754 25.1075 77.9065C25.1631 77.9368 25.2118 77.9752 25.2528 78.0194C25.3135 78.0143 25.376 78.019 25.4381 78.0344C25.5023 78.0503 25.5607 78.0763 25.6124 78.1103C25.6701 78.0908 25.7317 78.0802 25.7955 78.0802C25.8592 78.0802 25.9204 78.0908 25.9776 78.1102C26.0288 78.0764 26.0863 78.0506 26.1485 78.0348C26.2105 78.0191 26.2732 78.0143 26.3343 78.0194C26.3758 77.9744 26.4257 77.9355 26.4833 77.9051C26.5393 77.8749 26.5981 77.855 26.6577 77.8448C26.6859 77.7917 26.7233 77.7423 26.77 77.6988C26.8164 77.6555 26.8683 77.6216 26.9234 77.5969C26.938 77.537 26.9629 77.4784 26.9989 77.4236C27.0332 77.3702 27.0752 77.3246 27.1226 77.2873M27.2896 75.3536C27.2898 75.3535 27.2901 75.3533 27.2902 75.3532L27.2896 75.3536ZM24.3785 78.068C24.3787 78.0678 24.3784 78.0681 24.3785 78.068V78.068Z" fill="#FBF1E1"/>
</g>
<mask id="mask5_19_2539" style="mask-type:luminance" maskUnits="userSpaceOnUse" x="10" y="88" width="36" height="45">
<path d="M40.2944 130.386C39.4193 131.906 37.7913 132.845 36.029 132.845C31.9786 132.849 24.4378 132.849 20.3874 132.849C18.6226 132.849 16.9922 131.911 16.1171 130.388C8.00917 116.314 10.2922 102.239 14.5258 88.1675H41.8905C46.1242 102.239 48.4072 116.314 40.2944 130.386Z" fill="white"/>
</mask>
<g mask="url(#mask5_19_2539)">
<path fill-rule="evenodd" clip-rule="evenodd" d="M6.88554 76.6635C6.88554 87.017 15.3588 95.4229 25.7952 95.4229C36.2317 95.4229 44.705 87.017 44.705 76.6635H6.88554Z" fill="#FB99B7"/>
<path fill-rule="evenodd" clip-rule="evenodd" d="M8.03708 76.6635C8.03708 86.3852 15.9931 94.2807 25.7955 94.2807C35.598 94.2807 43.554 86.388 43.554 76.6635H8.03708Z" fill="#FDC4FC"/>
<path fill-rule="evenodd" clip-rule="evenodd" d="M10.2757 76.6635C10.2757 85.1604 17.2306 92.06 25.7956 92.06C34.3606 92.06 41.3154 85.1604 41.3154 76.6635H10.2757Z" fill="#FB99B7"/>
<mask id="mask6_19_2539" style="mask-type:luminance" maskUnits="userSpaceOnUse" x="10" y="76" width="32" height="17">
<path d="M10.2757 76.6635C10.2757 85.1604 17.2306 92.06 25.7956 92.06C34.3606 92.06 41.3154 85.1604 41.3154 76.6635H10.2757Z" fill="white"/>
</mask>
<g mask="url(#mask6_19_2539)">
<path fill-rule="evenodd" clip-rule="evenodd" d="M26.1108 74.1859V62.9305H25.4802V74.1859L22.6582 63.2829L22.0475 63.4389L24.8715 74.3497L19.4005 64.4789L18.8481 64.7809L24.3179 74.6496L16.5454 66.4403L16.0859 66.8694L23.853 75.0729L14.2737 69.0415L13.9361 69.5705L23.519 75.6042L12.7228 72.1255L12.5282 72.7212L23.3245 76.2L11.9945 75.493L11.955 76.1181L23.2845 76.825L12.1327 78.9353L12.2507 79.5506L23.3964 77.4414L13.1309 82.2342L13.3992 82.801L23.6702 78.0057L14.9246 85.1839L15.3263 85.6667L24.0681 78.4916L17.3983 87.597L17.9082 87.9655L24.5799 78.8576L20.4023 89.3238L20.9886 89.5546L25.1705 79.0774L23.7475 90.2552L24.3731 90.3337L25.7955 79.1608L27.218 90.3337L27.8436 90.2552L26.4219 79.0876L30.5997 89.5546L31.1859 89.3238L27.0084 78.8576L33.6801 87.9655L34.19 87.597L27.5201 78.4915L36.262 85.6667L36.6637 85.1839L27.9181 78.0057L38.1891 82.801L38.4574 82.2342L28.1919 77.4414L39.3376 79.5506L39.4556 78.9353L28.3038 76.825L39.6333 76.1181L39.5938 75.493L28.2638 76.2L39.0601 72.7212L38.8655 72.1255L28.0693 75.6042L37.6522 69.5705L37.3146 69.0415L27.7353 75.0729L35.5023 66.8694L35.0429 66.4403L27.2704 74.6496L32.7402 64.7809L32.1878 64.4789L26.722 74.3403L29.5436 63.4389L28.9328 63.2829L26.1108 74.1859ZM27.2896 75.3535L27.3249 75.4088L27.3244 75.408M27.3623 75.4665L27.3266 75.4103L27.3739 75.4546C27.3701 75.4586 27.3662 75.4626 27.3623 75.4665ZM27.3623 75.4665C27.2801 75.5482 27.1762 75.6011 27.0669 75.6217C27.034 75.7053 27.0215 75.7963 27.0312 75.8866C27.1099 75.9345 27.1989 75.9621 27.2896 75.968C27.2898 75.968 27.2895 75.968 27.2896 75.968C27.2897 75.9679 27.2903 75.9678 27.2904 75.9676C27.3553 75.8792 27.4464 75.8092 27.5551 75.7702L27.4585 75.618L27.3623 75.4665ZM27.5945 75.8321L27.5551 75.7702C27.5553 75.7701 27.555 75.7702 27.5551 75.7702C27.5607 75.7682 27.5667 75.7661 27.5723 75.7643L27.5945 75.8321ZM27.6137 75.8907C27.513 75.9502 27.3997 75.975 27.2896 75.968C27.2359 76.0414 27.2007 76.1274 27.1879 76.2189C27.2525 76.2846 27.332 76.3327 27.4183 76.3603L27.4207 76.3599C27.5053 76.2905 27.6105 76.245 27.7259 76.2339L27.6696 76.0614L27.6137 75.8907ZM27.6267 75.8828L27.5945 75.8321L27.6137 75.8907C27.6137 75.8907 27.6137 75.8908 27.6137 75.8907C27.618 75.8882 27.6224 75.8855 27.6267 75.8828ZM27.7259 76.2339C27.7317 76.2333 27.7376 76.2328 27.7434 76.2324L27.748 76.3009L27.7259 76.2339ZM27.7671 76.36L27.7481 76.3016L27.7671 76.36ZM27.4196 76.3608C27.4198 76.3606 27.4195 76.3609 27.4196 76.3608C27.5251 76.3942 27.6409 76.3972 27.7523 76.3646L27.7481 76.3016M27.2361 76.9409C27.2203 76.884 27.2131 76.824 27.2158 76.763L27.2162 76.7558C27.2204 76.6926 27.2351 76.6323 27.2586 76.5766C27.2286 76.5247 27.2065 76.4675 27.1941 76.4063M27.4196 76.3608C27.4194 76.3607 27.4186 76.3604 27.4183 76.3603L27.4196 76.3608ZM27.4196 76.3608C27.4198 76.3606 27.4195 76.3609 27.4196 76.3608V76.3608ZM27.1226 77.2872C27.1216 77.2264 27.1306 77.1647 27.1503 77.1044C27.1701 77.0443 27.1994 76.9893 27.2361 76.9409M25.067 78.4871L24.9001 78.4199C24.8998 78.4203 24.8995 78.4207 24.8993 78.421C24.8956 78.4264 24.8919 78.4317 24.888 78.437C24.8881 78.4368 24.8879 78.4371 24.888 78.437L24.8853 78.4406L24.8141 78.3875M24.7747 78.3694C24.7759 78.3666 24.7771 78.3637 24.7783 78.3608L24.7747 78.3694ZM24.7783 78.3608L24.4893 78.1453C24.4887 78.1459 24.4881 78.1464 24.4875 78.1469C24.4876 78.1468 24.4874 78.147 24.4875 78.1469C24.4848 78.1493 24.4817 78.152 24.4789 78.1544L24.4388 78.1077L24.381 78.0645C24.3837 78.061 24.3864 78.0574 24.3892 78.0539C24.3892 78.0539 24.3892 78.054 24.3892 78.0539C24.3897 78.0533 24.3904 78.0525 24.3909 78.0518L24.2744 77.916L24.1564 77.7785C24.1514 77.781 24.1463 77.7834 24.1412 77.7858C24.1407 77.786 24.1403 77.7862 24.1399 77.7864M24.3532 76.9422C24.3696 76.8832 24.3765 76.8204 24.3721 76.7558C24.3679 76.6929 24.3533 76.633 24.3301 76.5775C24.3606 76.525 24.3829 76.4664 24.3949 76.403C24.4074 76.3406 24.4087 76.2786 24.4004 76.2189C24.4436 76.175 24.4801 76.1231 24.5076 76.0643C24.5344 76.007 24.5507 75.9469 24.5571 75.8866C24.6093 75.855 24.657 75.8144 24.6979 75.7655L24.6985 75.7648C24.7384 75.7166 24.7691 75.6632 24.7904 75.6069C24.849 75.589 24.9056 75.5613 24.9579 75.5234C25.0098 75.4858 25.0536 75.4411 25.0888 75.3914C25.1499 75.3886 25.2115 75.3758 25.2712 75.3522C25.3305 75.3294 25.3836 75.2977 25.4296 75.2592C25.4907 75.2721 25.5549 75.2749 25.6203 75.2663L25.6212 75.2662C25.6827 75.2578 25.7412 75.2397 25.7949 75.2133C25.8489 75.2397 25.908 75.258 25.9708 75.2663L25.9777 75.2672C26.0402 75.2741 26.1023 75.2705 26.1617 75.2578C26.2069 75.2959 26.2586 75.3274 26.3157 75.3505C26.3763 75.3753 26.4389 75.3886 26.5009 75.3915C26.5353 75.4404 26.5777 75.4843 26.6271 75.521C26.68 75.5604 26.7375 75.5889 26.7972 75.6072M24.5682 75.1012C24.5682 75.1013 24.5681 75.1012 24.5682 75.1012V75.1012ZM24.0158 75.7643C24.0159 75.7643 24.0157 75.7642 24.0158 75.7643V75.7643ZM24.2142 75.4544C24.2143 75.4545 24.2142 75.4544 24.2142 75.4544V75.4544ZM24.2986 75.3535C24.3034 75.3565 24.3081 75.3595 24.3127 75.3626C24.3127 75.3626 24.3127 75.3626 24.3127 75.3626L24.444 75.24M23.8337 76.3217L23.8212 76.36L23.8337 76.3217ZM23.8402 76.3017L23.8391 76.3052L23.8402 76.3017ZM23.8622 76.2339L23.8403 76.3009L23.8449 76.2324C23.8507 76.2328 23.8565 76.2333 23.8622 76.2339ZM23.8622 76.2339C23.9765 76.2449 24.081 76.2896 24.1652 76.358L23.8622 76.2339ZM23.9185 76.0621L23.8622 76.2339L23.9185 76.0621ZM23.8212 76.36L23.8337 76.321L23.8212 76.36ZM23.8337 76.321L23.8376 76.232C23.8173 76.2312 23.7863 76.2454 23.7766 76.2807L23.775 76.2874M23.8337 76.321L23.8391 76.3044L23.8337 76.321ZM24.3532 76.9422C24.3892 76.9898 24.4182 77.0442 24.4379 77.1044C24.4577 77.1647 24.4667 77.2264 24.4657 77.2872C24.5138 77.3251 24.5563 77.3715 24.591 77.4259C24.6252 77.4796 24.649 77.5369 24.6631 77.5956C24.719 77.6207 24.7715 77.6551 24.8183 77.6987C24.8648 77.742 24.9025 77.7916 24.9311 77.8449C24.991 77.8551 25.0505 77.8753 25.1075 77.9064C25.1631 77.9367 25.2118 77.9751 25.2528 78.0193C25.3135 78.0142 25.376 78.0188 25.4381 78.0343C25.5023 78.0502 25.5607 78.0762 25.6124 78.1102C25.6701 78.0906 25.7317 78.0801 25.7955 78.0801C25.8592 78.0801 25.9204 78.0906 25.9776 78.1101C26.0288 78.0763 26.0863 78.0504 26.1485 78.0347C26.2105 78.0189 26.2732 78.0142 26.3343 78.0193C26.3758 77.9743 26.4257 77.9354 26.4833 77.905C26.5393 77.8748 26.5981 77.8549 26.6577 77.8447C26.6859 77.7916 26.7233 77.7421 26.77 77.6987C26.8164 77.6554 26.8683 77.6215 26.9234 77.5968C26.938 77.5368 26.9629 77.4783 26.9989 77.4234C27.0332 77.3701 27.0752 77.3245 27.1226 77.2872M27.2896 75.3535C27.2898 75.3534 27.2901 75.3532 27.2902 75.3531L27.2896 75.3535ZM24.3785 78.0678C24.3787 78.0677 24.3784 78.068 24.3785 78.0678V78.0678Z" fill="#FBF1E1"/>
</g>
</g>
<path d="M14.7906 127.417V124.567L50.415 82.0425C55.9903 75.3934 60.3348 69.8403 63.4483 65.3832C66.5618 60.8896 68.7521 56.9075 70.0192 53.4368C71.2864 49.9296 71.9199 46.3128 71.9199 42.5864C71.9199 37.6909 70.7976 33.3251 68.553 29.4891C66.3446 25.6531 63.3035 22.6391 59.4297 20.4471C55.5921 18.2551 51.2115 17.1591 46.2878 17.1591C41.1469 17.1591 36.6214 18.3464 32.7114 20.7211C28.8014 23.0592 25.7422 26.2011 23.5338 30.1467C21.3254 34.0923 20.2212 38.4581 20.2212 43.244H16.7456C16.7456 37.8005 17.9947 32.8502 20.4927 28.3931C23.027 23.8995 26.5025 20.3192 30.9194 17.6523C35.3724 14.9853 40.4952 13.6519 46.2878 13.6519C51.8631 13.6519 56.8411 14.9123 61.2218 17.4331C65.6024 19.9173 69.0598 23.3515 71.5941 27.7355C74.1284 32.083 75.3955 37.0333 75.3955 42.5864C75.3955 46.7146 74.7076 50.6603 73.3319 54.4232C71.9923 58.1861 69.6934 62.3875 66.4351 67.0272C63.213 71.667 58.7418 77.4028 53.0217 84.2345L20.2212 123.471V123.91H81.9121V127.417H14.7906Z" fill="black"/>
<path fill-rule="evenodd" clip-rule="evenodd" d="M8.23861 24.1182C8.05925 24.1182 7.91384 24.2626 7.91384 24.4407V33.0474L5.21188 30.3646C5.08503 30.2386 4.8794 30.2387 4.75258 30.3646C4.62577 30.4906 4.6258 30.6949 4.75264 30.8208L7.4544 33.5034H-1.21902C-1.39839 33.5034 -1.54379 33.6478 -1.54379 33.8259C-1.54379 34.0041 -1.39839 34.1485 -1.21902 34.1485H7.45392L4.75274 36.8282C4.62584 36.9541 4.62572 37.1583 4.75248 37.2844C4.87924 37.4104 5.08488 37.4105 5.21178 37.2846L7.91384 34.604V43.2084C7.91384 43.3865 8.05925 43.531 8.23861 43.531C8.41798 43.531 8.56338 43.3865 8.56338 43.2084V34.6036L11.2683 37.2847C11.3953 37.4106 11.6009 37.4104 11.7276 37.2843C11.8543 37.1582 11.8541 36.9539 11.7272 36.8281L9.02378 34.1485H17.699C17.8784 34.1485 18.0238 34.0041 18.0238 33.8259C18.0238 33.6478 17.8784 33.5034 17.699 33.5034H9.02331L11.7273 30.8209C11.8542 30.695 11.8543 30.4908 11.7275 30.3647C11.6008 30.2387 11.3952 30.2386 11.2682 30.3645L8.56338 33.0478V24.4407C8.56338 24.2626 8.41798 24.1182 8.23861 24.1182Z" fill="#FBFBFB"/>
<path fill-rule="evenodd" clip-rule="evenodd" d="M5.46371 85.2332C5.28434 85.2332 5.13894 85.3776 5.13894 85.5557V94.1624L2.43697 91.4796C2.31013 91.3536 2.10449 91.3537 1.97768 91.4796C1.85087 91.6056 1.85089 91.8099 1.97774 91.9358L4.67949 94.6184H-3.99393C-4.17329 94.6184 -4.3187 94.7628 -4.3187 94.9409C-4.3187 95.1191 -4.17329 95.2635 -3.99393 95.2635H4.67902L1.97784 97.9432C1.85094 98.0691 1.85082 98.2733 1.97758 98.3994C2.10434 98.5254 2.30997 98.5255 2.43688 98.3996L5.13894 95.719V104.326C5.13894 104.504 5.28434 104.649 5.46371 104.649C5.64307 104.649 5.78848 104.504 5.78848 104.326V95.7186L8.49344 98.3997C8.6204 98.5256 8.82603 98.5254 8.95274 98.3993C9.07944 98.2732 9.07924 98.0689 8.95228 97.9431L6.24888 95.2635H14.9241C15.1035 95.2635 15.2489 95.1191 15.2489 94.9409C15.2489 94.7628 15.1035 94.6184 14.9241 94.6184H6.2484L8.95238 91.9359C9.07928 91.81 9.0794 91.6058 8.95264 91.4797C8.82588 91.3537 8.62025 91.3536 8.49334 91.4795L5.78848 94.1628V85.5557C5.78848 85.3776 5.64307 85.2332 5.46371 85.2332Z" fill="#FBFBFB"/>
<path fill-rule="evenodd" clip-rule="evenodd" d="M92.4091 84.1427C92.2297 84.1427 92.0843 84.2871 92.0843 84.4653V87.8115L91.2065 86.9406C91.0796 86.8147 90.874 86.8148 90.7472 86.9409C90.6204 87.0669 90.6206 87.2711 90.7475 87.397L91.6244 88.267H88.2518C88.0724 88.267 87.927 88.4114 87.927 88.5896C87.927 88.7677 88.0724 88.9121 88.2518 88.9121H91.6244L90.7475 89.7821C90.6206 89.908 90.6204 90.1122 90.7472 90.2383C90.874 90.3643 91.0796 90.3644 91.2065 90.2385L92.0843 89.3677V92.7139C92.0843 92.892 92.2297 93.0364 92.4091 93.0364C92.5885 93.0364 92.7339 92.892 92.7339 92.7139V89.3677L93.6117 90.2385C93.7386 90.3644 93.9443 90.3643 94.071 90.2383C94.1978 90.1122 94.1977 89.908 94.0708 89.7821L93.1938 88.9121H96.5665C96.7458 88.9121 96.8912 88.7677 96.8912 88.5896C96.8912 88.4114 96.7458 88.267 96.5665 88.267H93.1938L94.0708 87.397C94.1977 87.2711 94.1978 87.0669 94.071 86.9409C93.9443 86.8148 93.7386 86.8147 93.6117 86.9406L92.7339 87.8115V84.4653C92.7339 84.2871 92.5885 84.1427 92.4091 84.1427Z" fill="#FBFBFB"/>
<path fill-rule="evenodd" clip-rule="evenodd" d="M75.9994 60.3542C75.8201 60.3542 75.6747 60.4987 75.6747 60.6768V64.023L74.7968 63.1522C74.6699 63.0263 74.4643 63.0264 74.3375 63.1524C74.2108 63.2784 74.2109 63.4827 74.3378 63.6086L75.2147 64.4786H71.8421C71.6627 64.4786 71.5173 64.623 71.5173 64.8011C71.5173 64.9792 71.6627 65.1237 71.8421 65.1237H75.2147L74.3378 65.9936C74.2109 66.1195 74.2108 66.3238 74.3375 66.4498C74.4643 66.5758 74.6699 66.576 74.7968 66.4501L75.6747 65.5792V68.9254C75.6747 69.1036 75.8201 69.248 75.9994 69.248C76.1788 69.248 76.3242 69.1036 76.3242 68.9254V65.5803L77.199 66.4498C77.3258 66.5759 77.5315 66.5759 77.6583 66.45C77.7852 66.3241 77.7853 66.1199 77.6585 65.9939L76.7831 65.1237H80.1568C80.3362 65.1237 80.4816 64.9792 80.4816 64.8011C80.4816 64.623 80.3362 64.4786 80.1568 64.4786H76.7831L77.6585 63.6083C77.7853 63.4823 77.7852 63.2781 77.6583 63.1522C77.5315 63.0263 77.3258 63.0264 77.199 63.1524L76.3242 64.0219V60.6768C76.3242 60.4987 76.1788 60.3542 75.9994 60.3542Z" fill="#FBFBFB"/>
<mask id="mask7_19_2539" style="mask-type:luminance" maskUnits="userSpaceOnUse" x="14" y="18" width="82" height="92">
<path d="M14.188 18.2556H95.3162V109.537H14.188V18.2556Z" fill="white"/>
</mask>
<g mask="url(#mask7_19_2539)">
<path fill-rule="evenodd" clip-rule="evenodd" d="M30.8701 37.6028V49.9868H43.0752C43.356 49.9868 43.6286 49.893 43.851 49.7219C44.1124 49.5178 44.4739 49.2364 44.7353 49.0322C44.9578 48.8612 45.2303 48.7674 45.5112 48.7674H68.1861C70.7835 48.7674 73.3446 49.3523 75.6777 50.4778C79.2594 52.2075 84.7655 54.8614 88.3472 56.5884C90.6831 57.714 93.2443 58.2988 95.8388 58.2988H149.784C151.656 58.2988 153.171 56.7953 153.171 54.9387V32.6481C153.171 30.7915 151.656 29.288 149.784 29.288H95.8388C93.2443 29.288 90.6804 29.8728 88.3472 30.9984C84.7655 32.7281 79.2594 35.382 75.6777 37.109C73.3418 38.2345 70.7807 38.8194 68.1861 38.8194H45.5112C45.2303 38.8194 44.9578 38.7256 44.7353 38.5546C44.4739 38.3504 44.1124 38.0718 43.851 37.8676C43.6286 37.6966 43.356 37.6028 43.0752 37.6028H30.8701Z" fill="#FBF1E1"/>
<path d="M29.1015 36.5709C29.1015 36.0864 29.4974 35.6936 29.9858 35.6936C30.4742 35.6936 30.8701 36.0864 30.8701 36.5709V51.0708C30.8701 51.5553 30.4742 51.9481 29.9858 51.9481C29.4974 51.9481 29.1015 51.5553 29.1015 51.0708V36.5709Z" fill="#FBF1E1"/>
<path fill-rule="evenodd" clip-rule="evenodd" d="M29.1014 49.2198L33.0141 47.8597H42.7665L43.4089 47.3604C44.0067 46.8942 44.7464 46.6404 45.5084 46.6404H68.1834C71.1032 46.6404 73.987 47.2997 76.6149 48.5659L89.2844 54.6765C91.3255 55.6614 93.5669 56.1745 95.8388 56.1745H149.784C150.471 56.1745 151.027 55.6228 151.027 54.9414V43.8209H32.4384C31.8155 43.8209 31.2093 44.014 30.7004 44.3699C29.9246 44.9161 28.8484 45.6748 28.8484 45.6748H28.7121C26.0314 45.6748 23.829 47.7742 23.7261 50.4336C23.6232 53.0765 23.5008 56.169 23.4313 57.9043C23.3952 58.7926 23.6121 59.6726 24.057 60.4423C24.1237 60.5609 24.1877 60.6658 24.235 60.7513C24.3073 60.8754 24.3406 61.0189 24.3295 61.1623C24.2906 61.6644 24.196 62.9197 24.1265 63.8383C24.0737 64.5225 24.2628 65.2039 24.6577 65.7639C24.6799 65.7943 24.6966 65.8191 24.7105 65.8384C24.73 65.866 24.7383 65.8991 24.7355 65.9322C24.7049 66.2825 24.5297 68.3709 24.4102 69.7668C24.3379 70.6027 24.057 71.4083 23.5898 72.109C23.562 72.1531 23.5314 72.1973 23.5036 72.2387C23.2283 72.6525 23.0865 73.1408 23.1004 73.6346C23.1393 75.0029 23.2172 110.969 23.2617 112.552C23.2811 113.278 23.1421 113.995 22.8557 114.663C22.8001 114.792 22.7417 114.925 22.686 115.054C22.408 115.7 22.3941 116.428 22.6471 117.085C22.7444 117.336 22.8195 117.532 22.8195 117.532C22.8195 117.532 22.8223 117.601 22.8306 117.722C22.864 118.301 23.2505 118.801 23.8067 118.983C24.3629 119.165 24.9747 118.991 25.3473 118.544C25.5781 118.271 25.7895 118.017 25.9591 117.813C26.24 117.479 26.3901 117.06 26.3901 116.627C26.3846 114.389 26.3651 74.2029 26.3623 73.3753C26.3623 73.3228 26.3623 73.2704 26.3623 73.218C26.3818 72.5118 26.5347 67.2371 26.5876 65.4494C26.5987 65.0549 26.6571 64.6659 26.76 64.2852C27.2188 62.5996 28.5703 57.6477 29.1348 55.5869C29.2989 54.9828 29.3489 54.351 29.2794 53.7303C29.1543 52.602 28.9596 50.8612 28.9596 50.8612L29.0959 49.2198H29.1014Z" fill="#FD4177"/>
<path d="M44.3935 39.7656H44.6716V47.8239H44.3935V39.7656Z" fill="#0E246D"/>
<path d="M42.6693 38.0771H42.9474V49.5149H42.6693V38.0771Z" fill="#0E246D"/>
<path fill-rule="evenodd" clip-rule="evenodd" d="M51.2815 35.1198C50.9728 35.9475 51.0924 36.8744 51.6013 37.5999C52.1102 38.3255 52.9444 38.7558 53.8343 38.7558H62.5745C63.4643 38.7558 64.2986 38.3227 64.8075 37.5999C65.3164 36.8744 65.436 35.9502 65.1273 35.1198C64.496 33.4315 63.8843 31.79 63.8843 31.79H52.5245C52.5245 31.79 51.9127 33.4315 51.2815 35.1198Z" fill="#FB99B7"/>
<path fill-rule="evenodd" clip-rule="evenodd" d="M54.0569 30.0934H62.3466C62.3466 30.0934 61.9406 29.0009 61.5818 28.0409C61.2592 27.1801 60.4306 26.6063 59.5045 26.6063H56.8989C55.9729 26.6063 55.1442 27.1774 54.8216 28.0409C54.4629 29.0037 54.0541 30.0934 54.0541 30.0934H54.0569Z" fill="#FB99B7"/>
<path fill-rule="evenodd" clip-rule="evenodd" d="M64.624 31.3983C64.7214 31.3459 64.7742 31.2328 64.7464 31.1252C64.7186 31.0176 64.6213 30.9431 64.51 30.9431H51.8934C51.7821 30.9431 51.6848 31.0176 51.657 31.1252C51.6292 31.2328 51.6792 31.3459 51.7793 31.3983C52.1603 31.5997 52.5218 31.79 52.5218 31.79H63.8816C63.8816 31.79 64.2431 31.5969 64.624 31.3983Z" fill="#FD4177"/>
<path fill-rule="evenodd" clip-rule="evenodd" d="M51.7794 30.4852C51.6793 30.5377 51.632 30.6508 51.657 30.7584C51.6848 30.866 51.7821 30.9404 51.8934 30.9404H64.51C64.6213 30.9404 64.7186 30.866 64.7464 30.7584C64.7742 30.6508 64.7242 30.5377 64.6241 30.4852C64.2431 30.2839 63.8816 30.0935 63.8816 30.0935H52.5218C52.5218 30.0935 52.1603 30.2839 51.7794 30.4852Z" fill="#FD4177"/>
<path d="M58.2028 36.5379C58.9064 36.5379 59.4764 35.9696 59.4764 35.2744C59.4764 34.5792 58.9036 34.0109 58.2028 34.0109C57.502 34.0109 56.9292 34.5792 56.9292 35.2744C56.9292 35.9696 57.502 36.5379 58.2028 36.5379ZM58.2028 34.2867C58.7506 34.2867 59.1984 34.7309 59.1984 35.2744C59.1984 35.8178 58.7506 36.262 58.2028 36.262C57.655 36.262 57.2073 35.8178 57.2073 35.2744C57.2073 34.7309 57.655 34.2867 58.2028 34.2867Z" fill="#0E246D"/>
<path d="M40.2194 45.0845C40.923 45.0845 41.493 44.5162 41.493 43.821C41.493 43.1258 40.9202 42.5575 40.2194 42.5575C39.5186 42.5575 38.9458 43.1258 38.9458 43.821C38.9458 44.5162 39.5186 45.0845 40.2194 45.0845ZM40.2194 42.8334C40.7672 42.8334 41.215 43.2775 41.215 43.821C41.215 44.3645 40.7672 44.8086 40.2194 44.8086C39.6716 44.8086 39.2239 44.3645 39.2239 43.821C39.2239 43.2775 39.6716 42.8334 40.2194 42.8334Z" fill="#0E246D"/>
<path d="M48.2978 46.2265C48.4452 46.2265 48.5926 46.1686 48.7038 46.0527L58.6064 35.6523C58.8177 35.4316 58.8066 35.0812 58.5841 34.8715C58.3617 34.6619 58.0085 34.6729 57.7972 34.8936L47.8946 45.294C47.6833 45.5147 47.6944 45.8651 47.9168 46.0748C48.0253 46.1768 48.1616 46.2265 48.2978 46.2265Z" fill="#0E246D"/>
<path d="M48.576 47.9756C49.1099 47.9756 49.6299 47.7273 49.9553 47.2831C49.9553 47.2804 49.9608 47.2776 49.9608 47.2749C50.4947 46.541 50.5754 45.5838 50.1694 44.7727C49.7634 43.9589 48.9403 43.4402 48.0226 43.4237H47.9836L50.0832 37.6717C50.1889 37.3848 50.0387 37.0675 49.7495 36.9655C49.4603 36.8606 49.1405 37.0096 49.0376 37.2965L46.8101 43.4016L40.2279 43.2719C39.9303 43.2719 39.6662 43.5092 39.6606 43.8126C39.655 44.1189 39.8997 44.3699 40.2056 44.3754L46.4097 44.4968L46.3541 44.6458C45.8869 45.9231 46.5543 47.3466 47.8363 47.8183L47.9864 47.8735C48.1783 47.9452 48.3757 47.9783 48.5732 47.9783L48.576 47.9756ZM49.0515 46.6376C48.8958 46.8445 48.6177 46.9245 48.373 46.8362L48.2284 46.7838C47.5137 46.5217 47.1438 45.73 47.4024 45.021L47.586 44.5189L48.0031 44.5272C48.5037 44.5382 48.9514 44.8196 49.1738 45.2637C49.3963 45.7079 49.3518 46.2321 49.0571 46.6348C49.0571 46.6348 49.0543 46.6376 49.0515 46.6404V46.6376Z" fill="#0E246D"/>
</g>
</g>
</svg>
