<svg width="94" height="148" viewBox="0 0 94 148" fill="none" xmlns="http://www.w3.org/2000/svg">
<mask id="mask0_21_3706" style="mask-type:alpha" maskUnits="userSpaceOnUse" x="0" y="0" width="94" height="148">
<rect x="0.315796" y="0.33606" width="93.393" height="146.757" rx="11.3765" fill="#F6DFCF"/>
</mask>
<g mask="url(#mask0_21_3706)">
<g clip-path="url(#clip0_21_3706)">
<path d="M182.879 135.954C180.633 140.533 178.074 145.168 175.187 149.852C174.212 151.434 172.774 152.675 171.473 154.001C171.299 154.18 171.123 154.358 170.945 154.534C170.305 155.172 169.651 155.794 168.983 156.402C168.174 157.139 167.346 157.854 166.498 158.546C165.842 159.084 165.171 159.607 164.491 160.116C164.024 160.467 163.551 160.812 163.07 161.148C161.664 162.14 160.212 163.074 158.719 163.945C158.55 164.045 158.38 164.143 158.21 164.239C156.812 165.037 155.38 165.782 153.914 166.468C153.285 166.764 152.65 167.048 152.009 167.321C150.715 167.873 149.396 168.383 148.055 168.844C142.104 170.898 135.72 172.049 129.055 172.122L108.169 172.03L86.9073 171.935L80.6562 171.908L79.6892 171.903L69.7999 171.859L68.869 171.855L65.3902 171.84L64.4158 171.836L61.2982 171.822L57.4687 171.805L56.8598 171.803L53.7539 171.789L-1.37025 171.545C-10.2013 171.505 -18.6562 169.547 -26.2961 166.025C-26.5065 165.93 -26.7169 165.831 -26.9262 165.732C-32.1562 163.248 -36.993 160.029 -41.2933 156.19C-41.4569 156.044 -41.6184 155.898 -41.7799 155.751C-48.4539 149.663 -53.7955 142.067 -57.2542 133.41C-58.542 130.188 -59.5685 126.817 -60.3059 123.322C-61.395 118.153 -61.9901 113.25 -62.1834 108.59C-62.5224 100.436 -61.6352 93.0255 -60.0307 86.2302C-59.6333 84.5453 -59.1912 82.8978 -58.7141 81.2867C-57.7143 77.9136 -56.5561 74.6979 -55.3086 71.6211C-52.3068 64.2107 -48.7982 57.609 -45.7794 51.5647C-29.1534 18.2771 -12.8917 -5.45405 23.698 -15.3336C66.7662 -26.9611 99.4765 -8.25369 138.315 3.16953C157.88 8.92393 175.001 22.4311 185.4 41.2904C198.829 65.6399 201.055 98.9136 182.879 135.953V135.954Z" fill="url(#paint0_linear_21_3706)"/>
<path d="M111.406 81.9297C110.818 89.0171 108.637 95.9211 108.356 103.027C108.289 104.73 108.329 106.454 107.934 108.111C107.46 110.101 106.387 111.882 105.481 113.713C104.179 116.339 103.195 119.14 102.741 122.038C102.505 123.553 102.411 125.101 101.982 126.575C101.449 128.412 100.419 130.055 99.4544 131.706C98.9802 132.518 98.5184 133.336 98.0708 134.163C97.6242 134.985 97.1928 135.814 96.7737 136.649L95.9413 136.645L92.8302 136.632L91.9589 136.628C92.4444 133.293 92.281 130.246 93.9116 127.04C93.9487 126.963 93.9886 126.889 94.0294 126.812C94.6632 125.626 95.4358 124.497 95.8263 123.21C96.1561 122.122 96.1969 120.97 96.367 119.846C96.6844 117.739 97.4522 115.731 98.2143 113.743C99.6007 110.128 100.986 106.514 102.372 102.899C104.527 97.2794 106.686 91.6448 108.158 85.8087C108.566 84.1877 108.999 82.4264 110.295 81.3805C110.568 81.1598 110.986 80.986 111.245 81.2229C111.429 81.3919 111.425 81.6804 111.404 81.9306L111.406 81.9297Z" fill="#2672B2"/>
<path d="M95.6392 103.459C94.5645 105.235 94.1217 107.39 94.4105 109.448C94.688 111.425 95.6088 113.284 95.7494 115.277C95.9224 117.72 94.9104 120.07 94.4077 122.467C94.0941 123.965 93.9772 125.499 93.9126 127.039C93.7758 130.294 93.8718 133.581 92.8312 136.631L91.9599 136.627L89.1719 136.614L85.7472 136.599L85.2027 136.597C84.9281 133.801 85.8764 130.218 86.0722 128.378C86.2081 127.103 86.3468 125.811 86.7934 124.61C87.0034 124.042 87.2799 123.502 87.5603 122.964C87.9404 122.236 88.329 121.512 88.5742 120.73C89.1224 118.982 88.9143 117.085 89.2536 115.283C89.4987 113.983 90.0242 112.755 90.4195 111.492C91.5475 107.881 91.6558 103.836 93.8128 100.732C94.2822 100.057 95.0424 99.3807 95.8235 99.63C96.5315 99.8545 96.8165 100.757 96.6569 101.485C96.4973 102.213 96.024 102.823 95.6392 103.46V103.459Z" fill="#6AA2E5"/>
<path d="M88.5961 127.704C88.4459 129.186 88.2093 130.661 87.8881 132.117C87.7598 132.699 87.5555 133.356 87.0111 133.593C86.7383 133.713 86.4048 133.709 86.1834 133.909C85.982 134.091 85.9344 134.386 85.9088 134.656C85.848 135.289 85.8252 135.956 85.7463 136.599L85.2018 136.597L82.4243 136.585C82.0118 134.812 82.1097 132.786 81.6441 130.99C81.4427 130.213 81.1253 129.454 81.092 128.651C81.0407 127.396 81.6821 126.235 82.0575 125.037C83.0799 121.784 82.143 118.389 82.3482 115.069C82.4318 113.714 82.7796 112.76 82.5326 111.418C82.4452 110.948 81.6679 107.009 82.2779 106.851C83.135 106.63 84.0083 107.324 84.3342 108.152C84.6592 108.98 84.587 109.904 84.5604 110.793C84.4388 114.904 85.4261 119.042 87.3883 122.651C87.4453 122.755 87.5014 122.858 87.5584 122.962C87.9546 123.674 88.3585 124.388 88.5438 125.179C88.7367 126.002 88.6797 126.862 88.5951 127.704H88.5961Z" fill="#2672B2"/>
<path d="M83.4728 121.649L90.6571 151.414C90.6571 151.414 83.3457 154.267 83.2153 154.004C83.1043 153.777 73.749 131.419 71.0823 125.045C70.6525 124.017 71.0291 122.828 71.9722 122.243C73.9759 120.997 77.6453 119.248 81.6591 119.95C82.5458 120.106 83.2604 120.771 83.4728 121.651V121.649Z" fill="#F7597F"/>
<g style="mix-blend-mode:multiply" opacity="0.5">
<path d="M72.3923 123.982C72.587 124.695 74.8885 124.684 77.5343 123.954C80.1785 123.225 82.1661 122.055 81.9713 121.342C81.7766 120.628 79.4752 120.64 76.8294 121.369C74.1852 122.099 72.1976 123.268 72.3923 123.982Z" fill="#F7597F"/>
</g>
<path d="M68.6922 130.634L81.7555 154.701C81.7555 154.701 76.0905 158.87 75.9167 158.671C75.7686 158.501 62.5315 141.342 58.7591 136.451C58.1508 135.664 58.2039 134.547 58.883 133.821C60.3299 132.278 63.0996 129.912 66.732 129.586C67.535 129.513 68.3059 129.922 68.6922 130.634Z" fill="#F7597F"/>
<g style="mix-blend-mode:multiply" opacity="0.5">
<path d="M59.6459 135.23C59.979 135.801 61.9666 135.256 64.0861 134.01C66.2057 132.765 67.6541 131.291 67.321 130.72C66.9878 130.147 65.0003 130.694 62.8807 131.94C60.7612 133.185 59.3127 134.659 59.6459 135.23Z" fill="#F7597F"/>
</g>
<path d="M78.7141 132.52L86.4182 153.358C86.4182 153.358 81.3905 156.042 81.2746 155.863C81.1749 155.709 72.5341 140.394 70.0718 136.029C69.6743 135.326 69.8449 134.436 70.4757 133.933C71.8147 132.863 74.3109 131.288 77.2641 131.449C77.9175 131.485 78.4872 131.902 78.7157 132.519L78.7141 132.52Z" fill="#F27095"/>
<g style="mix-blend-mode:multiply" opacity="0.5">
<path d="M70.9247 135.152C71.1258 135.651 72.7835 135.444 74.6278 134.691C76.4722 133.939 77.8047 132.926 77.6036 132.428C77.4024 131.93 75.7447 132.137 73.9004 132.889C72.056 133.641 70.7235 134.654 70.9247 135.152Z" fill="#F7597F"/>
</g>
<path d="M93.1533 131.15L94.8962 150.94C94.8962 150.94 89.9313 152.059 89.8734 151.878C89.8235 151.721 85.9755 136.471 84.8779 132.124C84.7008 131.423 85.0565 130.697 85.718 130.412C87.1229 129.807 89.6448 129.044 92.1523 129.885C92.7059 130.071 93.1002 130.566 93.1517 131.152L93.1533 131.15Z" fill="#F27095"/>
<g style="mix-blend-mode:multiply" opacity="0.5">
<path d="M85.8209 131.569C85.8772 132.046 87.3547 132.261 89.1218 132.051C90.8888 131.841 92.2745 131.284 92.2182 130.807C92.1619 130.33 90.6845 130.115 88.9174 130.325C87.1503 130.535 85.7646 131.092 85.8209 131.569Z" fill="#F7597F"/>
</g>
<path d="M24.0383 117.92C22.7831 117.299 22.2652 115.767 22.8838 114.505C23.5014 113.243 25.0256 112.723 26.2809 113.345C27.5362 113.965 28.054 115.498 27.4354 116.759C26.8178 118.021 25.2936 118.542 24.0393 117.92H24.0383ZM26.1735 113.563C25.038 113.002 23.6601 113.473 23.1014 114.613C22.5426 115.755 23.0111 117.14 24.1457 117.701C25.2803 118.263 26.6591 117.792 27.2178 116.651C27.7766 115.51 27.3081 114.125 26.1735 113.563Z" fill="white"/>
<path d="M45.162 127.648C43.9067 127.027 43.3888 125.495 44.0074 124.235C44.6251 122.973 46.1493 122.452 47.4045 123.074C48.6598 123.695 49.1777 125.227 48.5591 126.488C47.9414 127.75 46.4172 128.27 45.1629 127.648H45.162ZM47.2972 123.292C46.1616 122.73 44.7838 123.201 44.225 124.341C43.6663 125.483 44.1348 126.868 45.2694 127.43C46.4049 127.991 47.7827 127.52 48.3415 126.38C48.9002 125.238 48.4318 123.853 47.2972 123.292Z" fill="white"/>
<path d="M46.2036 119.752C45.4064 119.357 45.0766 118.384 45.47 117.582C45.8625 116.78 46.8308 116.449 47.629 116.844C48.4262 117.239 48.756 118.212 48.3626 119.014C47.9701 119.816 47.0018 120.147 46.2036 119.752ZM47.5606 116.983C46.8393 116.626 45.9632 116.925 45.6078 117.65C45.2524 118.375 45.5498 119.256 46.272 119.613C46.9933 119.971 47.8694 119.672 48.2248 118.946C48.5802 118.22 48.2827 117.34 47.5606 116.983Z" fill="white"/>
<path d="M40.8338 128.82C40.332 128.572 40.1249 127.959 40.372 127.454C40.619 126.95 41.2291 126.742 41.7308 126.99C42.2325 127.239 42.4397 127.851 42.1926 128.356C41.9455 128.86 41.3364 129.069 40.8338 128.82ZM41.688 127.078C41.2338 126.854 40.6827 127.042 40.4594 127.498C40.2361 127.955 40.4233 128.509 40.8775 128.733C41.3317 128.958 41.8828 128.77 42.1061 128.313C42.3294 127.857 42.1422 127.303 41.688 127.078Z" fill="white"/>
<path d="M41.6737 123.37C41.248 123.159 41.0722 122.639 41.2822 122.211C41.4922 121.784 42.0091 121.607 42.4348 121.818C42.8605 122.029 43.0363 122.549 42.8263 122.977C42.6163 123.404 42.0994 123.581 41.6737 123.37ZM42.3978 121.891C42.0129 121.7 41.5454 121.861 41.3553 122.248C41.1653 122.635 41.3249 123.105 41.7098 123.296C42.0946 123.487 42.5621 123.326 42.7522 122.939C42.9422 122.552 42.7826 122.082 42.3978 121.891Z" fill="white"/>
<path d="M61.7068 159.675C60.4315 149.331 53.127 144.911 44.6167 142.552C33.4352 139.452 20.1737 139.909 15.7693 135.156C6.16811 124.795 1.53759 119.022 -4.14579 114.902C-9.47093 111.043 -15.7207 108.633 -27.8495 105.256C-33.2887 103.742 -41.6394 104.27 -48.5353 105.156C-48.3623 109.317 -47.8312 113.694 -46.8562 118.31C-46.1967 121.43 -45.2788 124.439 -44.1271 127.317C-44.0682 127.464 -44.0083 127.611 -43.9485 127.757C-35.7546 147.726 -16.2708 161.269 5.84693 161.367L32.7159 161.486L61.8902 161.615C61.8493 160.977 61.7875 160.33 61.7077 159.675H61.7068Z" fill="#387FC6"/>
<g style="mix-blend-mode:multiply" opacity="0.1">
<path d="M8.50091 144.735C11.1806 153.308 40.9582 153.643 32.7681 161.502L5.89915 161.382C-16.2186 161.284 -35.7023 147.742 -43.8962 127.772C-40.8963 127.862 -37.8708 127.687 -34.9706 127.119C-19.6195 124.115 -24.3745 116.997 -13.7784 119.122C-4.81099 120.921 -11.2166 114.234 -4.09261 114.917C1.59077 119.037 6.22129 124.809 15.8225 135.17C20.2259 139.922 33.4884 139.467 44.6689 142.566C33.7678 144.188 5.51146 135.176 8.50091 144.734V144.735Z" fill="#387FC6"/>
</g>
<path d="M5.64021 40.2277C5.13879 41.2797 4.69526 42.2838 4.2977 43.2458C5.16221 42.4828 6.58182 41.78 8.75493 42.1545C8.75493 42.1545 6.96745 45.1675 3.68746 44.7923C2.05178 49.1366 1.46327 52.5002 1.33944 55.0348C1.74944 53.9248 2.72926 52.4987 5.07278 51.8874C5.07278 51.8874 4.66528 55.5472 1.31506 56.4579C1.34613 58.2874 1.61324 59.5689 1.78497 60.3869C1.83882 60.6428 1.8808 60.8448 1.90451 61.0101C1.93583 61.2291 2.12907 61.6888 2.37285 62.2695C3.73996 65.5226 7.37033 74.1648 1.46603 86.1593C-0.344019 89.8362 -1.24013 93.2427 -1.60759 96.2182C-1.17978 95.1889 0.0113358 93.3294 3.06283 93.1782C3.06283 93.1782 1.89051 96.7656 -1.6825 96.8878C-1.93738 99.4555 -1.80321 101.676 -1.53897 103.437C-1.35435 104.668 -1.09773 105.757 -0.824835 106.685C-1.03116 106.693 -1.23876 106.697 -1.44594 106.701C-1.69547 105.825 -1.92959 104.811 -2.10662 103.672C-5.47022 103.633 -6.86326 100.336 -6.86326 100.336C-4.29677 100.263 -2.93805 101.496 -2.26447 102.48C-2.69774 98.4712 -2.38317 92.6201 0.928516 85.893C1.32682 85.0841 1.67917 84.2917 1.99323 83.514C-0.842729 81.4008 0.147098 77.807 0.147098 77.807C2.2207 79.3613 2.51637 81.1832 2.42962 82.3716C5.82398 72.9544 3.30313 66.0744 2.01334 62.962C-1.31634 63.0893 -2.8843 59.9039 -2.8843 59.9039C-0.807802 59.7249 0.522769 60.4516 1.3407 61.2356C1.32839 61.1852 1.31779 61.1361 1.31144 61.0934C1.29069 60.9469 1.24999 60.7539 1.19954 60.5091C0.846765 58.8286 0.0962781 55.2384 1.69238 49.0624C-1.59915 47.5252 -1.25833 43.7161 -1.25833 43.7161C1.64742 45.1687 1.8772 47.5373 1.82288 48.5774C2.50098 46.0886 3.55414 43.197 5.15296 39.8575C4.25411 36.7461 6.8085 34.4657 6.8085 34.4657C8.01526 37.6865 6.33361 39.605 5.63893 40.2273L5.64021 40.2277Z" fill="#6AA2E5"/>
<path d="M0.194782 100.107C-0.590117 100.722 -1.31135 101.323 -1.98127 101.909C-1.02913 101.653 0.325916 101.655 1.84725 102.768C1.84725 102.768 -0.668037 104.397 -3.03794 102.862C-5.94282 105.568 -7.6732 107.92 -8.73177 109.814C-7.99628 109.119 -6.70301 108.4 -4.6752 108.823C-4.6752 108.823 -6.37993 111.472 -9.29336 110.896C-9.96518 112.309 -10.2474 113.392 -10.427 114.084C-10.484 114.3 -10.5277 114.471 -10.5733 114.606C-10.6332 114.787 -10.6598 115.212 -10.694 115.75C-10.8841 118.761 -11.3905 126.763 -20.4758 133.705C-23.2609 135.833 -25.2431 138.102 -26.6561 140.241C-25.9359 139.616 -24.3166 138.644 -21.922 139.69C-21.922 139.69 -24.1836 141.991 -26.9678 140.727C-28.1395 142.596 -28.8816 144.349 -29.3491 145.799C-29.561 146.456 -29.7264 147.079 -29.8565 147.657C-30.0029 147.527 -30.1473 147.397 -30.2918 147.265C-30.1777 146.79 -30.0399 146.287 -29.8737 145.761C-32.4355 144.452 -32.2483 141.396 -32.2483 141.396C-30.2547 142.318 -29.6827 143.778 -29.5411 144.789C-28.3485 141.553 -25.8817 137.19 -20.7865 133.297C-20.1736 132.828 -19.6025 132.355 -19.0666 131.879C-20.4349 129.181 -18.3092 126.805 -18.3092 126.805C-17.3124 128.784 -17.779 130.292 -18.2969 131.17C-12.1137 125.247 -11.4286 119.017 -11.2318 116.142C-13.8317 114.973 -13.8213 111.938 -13.8213 111.938C-12.1621 112.591 -11.4191 113.652 -11.0912 114.564C-11.0817 114.52 -11.0713 114.48 -11.0589 114.444C-11.0199 114.325 -10.9772 114.16 -10.923 113.954C-10.5534 112.532 -9.76278 109.496 -6.19083 105.374C-8.12837 102.944 -6.41793 100.156 -6.41793 100.156C-4.74551 102.373 -5.47055 104.276 -5.90671 105.053C-4.44144 103.404 -2.53431 101.589 -0.0399284 99.6388C0.454197 96.9146 3.27925 96.139 3.27925 96.139C2.97898 99.0647 0.96067 99.8948 0.191929 100.107H0.194782Z" fill="#6AA2E5"/>
<path d="M90.3625 54.4167C90.3568 54.7367 90.0584 55.1149 89.6223 55.3862C89.4645 55.4846 89.2897 55.5686 89.1034 55.6307C88.8697 55.7091 88.6188 55.753 88.3651 55.7482C87.8786 55.7377 87.2448 55.6881 86.648 55.5925C86.4247 55.5572 86.2071 55.5152 86.0037 55.4664C85.6179 55.3738 85.2863 55.2573 85.0744 55.115C84.7285 54.8809 84.5119 54.7873 84.3769 54.7587C84.2705 54.7357 84.2154 54.7529 84.1869 54.7711C84.1451 54.7997 83.8439 55.0977 83.4124 55.2353C83.1958 55.305 82.9459 55.3337 82.6798 55.2659C82.6655 55.262 82.6513 55.2582 82.638 55.2544C81.8265 55.0185 82.2427 54.1913 82.3919 53.9334C82.4765 53.7882 82.6627 53.6602 82.9326 53.6545C83.1065 53.6507 83.3146 53.6984 83.554 53.8236C83.6034 53.8493 83.6538 53.8789 83.7061 53.9114C83.7061 53.9114 83.9607 53.9573 84.5375 53.6936C84.5508 53.6879 84.5641 53.6812 84.5784 53.6745C84.6135 53.6583 84.6506 53.6402 84.6886 53.6211C85.0678 53.43 85.655 53.2036 86.3002 53.0795C86.4808 53.0451 86.6661 53.0183 86.8533 53.0021C87.202 52.9734 87.5555 52.983 87.8928 53.0518C88.2577 53.1263 88.6378 53.2304 88.9865 53.3574C89.2621 53.4577 89.5187 53.5714 89.7334 53.6946C90.1145 53.9133 90.3653 54.1617 90.3606 54.4158L90.3625 54.4167Z" fill="#EA5634"/>
<path d="M88.3651 53.2571L87.0157 53.5093L86.3572 53.6325L84.8074 53.9229L84.5081 53.5361C84.5081 53.5361 84.4482 53.41 84.4425 53.2438C84.5375 53.0747 84.6962 52.8961 84.9528 52.8378C85.4868 52.7165 85.9857 53.1674 86.4979 53.0527C87.011 52.9381 87.203 52.4663 87.5089 52.4156C87.7531 52.3755 87.9755 52.365 88.2653 52.4834C88.3955 52.8187 88.3632 53.2571 88.3632 53.2571H88.3651Z" fill="#EA5634"/>
<path d="M84.4975 54.6096C84.4975 54.6096 84.1193 54.985 84.4423 55.2964C84.7645 55.6078 85.1816 55.7902 86.0996 55.3928C87.0184 54.9955 84.4975 54.6086 84.4975 54.6086V54.6096Z" fill="#EA5634"/>
<path d="M88.022 55.7349C87.9669 55.8008 87.9108 55.8581 87.8538 55.9088C87.1326 56.1991 86.7753 55.8973 86.6479 55.7406C86.7021 55.5324 86.8161 55.329 86.8161 55.329C86.8161 55.329 88.461 55.2105 88.022 55.7349Z" fill="#EA5634"/>
<path d="M89.6213 55.3862C89.4636 55.4846 89.2887 55.5687 89.1025 55.6308C88.2568 54.4492 88.8345 53.558 88.9875 53.3584C89.2631 53.4587 89.5196 53.5723 89.7344 53.6956C89.0702 54.3212 89.4265 55.0777 89.6213 55.3872V55.3862Z" fill="#FDEFE6"/>
<path d="M84.3777 54.7577C84.2713 54.7347 84.2162 54.7519 84.1876 54.7701C84.1458 54.7987 83.8446 55.0968 83.4132 55.2343C83.4655 55.1139 83.741 54.4616 83.6508 54.2209C83.5919 54.0652 83.5662 53.9181 83.5557 53.8235C83.6052 53.8493 83.6555 53.8789 83.7078 53.9114C83.7078 53.9114 83.9624 53.9572 84.5392 53.6936C84.6694 54.1444 84.3891 54.7347 84.3786 54.7567L84.3777 54.7577Z" fill="#FDEFE6"/>
<path d="M87.8538 55.9097C87.4538 56.2659 87.0119 56.2784 86.7411 56.1561C86.6005 56.0921 86.6033 55.9154 86.648 55.7406C86.7753 55.8972 87.1326 56.2 87.8538 55.9097Z" fill="#223749"/>
<path d="M88.2661 52.4835C87.9763 52.365 87.754 52.3755 87.5097 52.4157C87.2038 52.4663 87.0109 52.9381 86.4987 53.0527C85.9856 53.1674 85.4876 52.7165 84.9536 52.8378C84.6961 52.8961 84.5383 53.0747 84.4433 53.2438C84.4376 53.0814 84.4842 52.8789 84.6904 52.7194C85.1066 52.3975 85.7052 52.6439 85.7052 52.6439C85.7052 52.6439 86.0188 52.8197 86.264 52.8359C86.3219 52.8397 86.3752 52.834 86.4208 52.8159C86.4208 52.8159 86.6393 52.7595 86.8465 52.599C86.9111 52.5494 86.9738 52.4901 87.0289 52.4185C87.2636 52.1176 87.5953 51.9352 88.0115 52.1606C88.1321 52.2265 88.2129 52.3459 88.2661 52.4825V52.4835Z" fill="#223749"/>
<path d="M87.3587 53.9601L86.9653 54.4645C86.7163 54.8236 86.6954 55.3203 86.6479 55.5925C86.4246 55.5572 86.207 55.5152 86.0037 55.4665C86.3467 54.9936 86.3933 54.2467 86.3572 53.6325C86.3448 53.4291 86.3239 53.2399 86.302 53.0804C86.2897 52.9878 86.2764 52.9056 86.264 52.8369C86.322 52.8407 86.3752 52.835 86.4208 52.8168C86.4208 52.8168 86.6394 52.7604 86.8465 52.6C86.8323 52.7461 86.837 52.8818 86.8551 53.004C86.8845 53.2113 86.9501 53.3813 87.0157 53.5103C87.104 53.6841 87.3587 53.9611 87.3587 53.9611V53.9601Z" fill="#FDEFE6"/>
<path d="M87.104 55.2219C87.104 55.2219 86.6983 54.0404 87.6808 53.9658C87.6808 53.9658 87.3283 53.6755 86.9225 53.9658C86.5168 54.2562 86.7306 55.0395 87.104 55.2219Z" fill="#223749"/>
<path d="M82.484 54.3307C82.426 54.8006 82.4279 55.0194 82.6807 55.2658C82.6664 55.262 82.6522 55.2582 82.6389 55.2543C81.8274 55.0184 82.2435 54.1912 82.3927 53.9333C82.4773 53.7881 82.6636 53.6601 82.9334 53.6544C82.7443 53.7901 82.522 54.0145 82.483 54.3307H82.484Z" fill="#223749"/>
<path d="M83.0048 28.4398C83.0095 28.7024 83.2547 29.0138 83.6139 29.2373C83.7431 29.3176 83.8875 29.3873 84.0405 29.4379C84.2325 29.5029 84.4387 29.5392 84.6468 29.5344C85.0468 29.5258 85.5676 29.4847 86.0579 29.4064C86.2413 29.3768 86.4209 29.3424 86.5872 29.3023C86.9045 29.2268 87.1773 29.1304 87.3512 29.0129C87.6362 28.8209 87.8139 28.7435 87.9242 28.7196C88.0116 28.7005 88.0572 28.7149 88.08 28.7301C88.1142 28.7531 88.3622 28.9985 88.7166 29.1113C88.8953 29.1686 89.1005 29.1915 89.3191 29.1361C89.3305 29.1332 89.3419 29.1304 89.3533 29.1265C90.0204 28.9326 89.6783 28.2526 89.5548 28.0415C89.4854 27.9221 89.3324 27.817 89.11 27.8122C88.9675 27.8094 88.7955 27.8485 88.5998 27.9517C88.5589 27.9727 88.518 27.9966 88.4753 28.0243C88.4753 28.0243 88.2662 28.0615 87.7921 27.8456C87.7807 27.8409 87.7702 27.8351 87.7588 27.8304C87.7294 27.817 87.6989 27.8017 87.6676 27.7864C87.3559 27.6298 86.8732 27.4435 86.343 27.3413C86.1947 27.3127 86.0417 27.2907 85.8887 27.2783C85.6027 27.2544 85.3119 27.263 85.0345 27.3184C84.7342 27.3795 84.4225 27.4655 84.1355 27.5696C83.9094 27.6518 83.6984 27.7454 83.5217 27.8466C83.2081 28.0262 83.0029 28.2306 83.0067 28.4398H83.0048Z" fill="#EA5634"/>
<path d="M84.6467 27.4864L85.7556 27.6936L86.2963 27.7949L87.5706 28.0327L87.8167 27.7146C87.8167 27.7146 87.8661 27.6115 87.8709 27.4749C87.793 27.3354 87.6628 27.1893 87.4509 27.1415C87.0119 27.0412 86.6023 27.4119 86.1804 27.3183C85.7595 27.2237 85.6008 26.8359 85.3489 26.7948C85.1475 26.7623 84.965 26.7528 84.7275 26.8502C84.6201 27.1253 84.6467 27.4864 84.6467 27.4864Z" fill="#EA5634"/>
<path d="M87.8262 28.5984C87.8262 28.5984 88.137 28.9069 87.8719 29.1629C87.6067 29.4189 87.2647 29.5688 86.5092 29.2422C85.7538 28.9155 87.8262 28.5974 87.8262 28.5974V28.5984Z" fill="#EA5634"/>
<path d="M84.929 29.523C84.9736 29.5765 85.0202 29.6242 85.0668 29.6663C85.6597 29.9051 85.9533 29.6567 86.0579 29.5278C86.0132 29.3568 85.9201 29.1896 85.9201 29.1896C85.9201 29.1896 84.5679 29.0922 84.929 29.523Z" fill="#EA5634"/>
<path d="M83.6138 29.2365C83.743 29.3167 83.8874 29.3864 84.0404 29.437C84.736 28.4666 84.2609 27.734 84.1345 27.5687C83.9083 27.6509 83.6974 27.7445 83.5206 27.8457C84.067 28.3606 83.7734 28.9824 83.6138 29.2355V29.2365Z" fill="#FDEFE6"/>
<path d="M87.9242 28.7207C88.0116 28.7016 88.0572 28.7159 88.08 28.7312C88.1142 28.7541 88.3623 28.9996 88.7167 29.1123C88.6739 29.0139 88.4478 28.4771 88.5219 28.2794C88.5704 28.1514 88.5913 28.0301 88.6008 27.9527C88.5599 27.9737 88.519 27.9976 88.4763 28.0253C88.4763 28.0253 88.2672 28.0625 87.7931 27.8467C87.6857 28.2173 87.9166 28.7025 87.9251 28.7207H87.9242Z" fill="#FDEFE6"/>
<path d="M85.0677 29.6672C85.3965 29.9595 85.7595 29.97 85.9819 29.8697C86.0978 29.8172 86.0959 29.672 86.0579 29.5287C85.9534 29.6576 85.6597 29.906 85.0668 29.6672H85.0677Z" fill="#223749"/>
<path d="M84.7276 26.8504C84.9661 26.753 85.1486 26.7615 85.3491 26.795C85.6009 26.836 85.7586 27.2248 86.1806 27.3184C86.6025 27.413 87.012 27.0424 87.451 27.1417C87.6629 27.1904 87.7922 27.3366 87.871 27.4751C87.8758 27.3413 87.8378 27.1751 87.6677 27.0443C87.3256 26.7797 86.8334 26.9822 86.8334 26.9822C86.8334 26.9822 86.5758 27.1274 86.3734 27.1398C86.3259 27.1427 86.2822 27.1388 86.2442 27.1236C86.2442 27.1236 86.0646 27.0768 85.8936 26.9449C85.8404 26.9039 85.789 26.8551 85.7434 26.7969C85.5505 26.5495 85.2778 26.3995 84.9357 26.5848C84.836 26.6383 84.7704 26.7367 84.7267 26.8494L84.7276 26.8504Z" fill="#223749"/>
<path d="M85.4745 28.0644L85.7975 28.479C86.0018 28.7741 86.019 29.182 86.0589 29.4065C86.2423 29.3768 86.4218 29.3425 86.5881 29.3023C86.3059 28.9136 86.2679 28.2994 86.2974 27.7951C86.3069 27.6279 86.324 27.4722 86.343 27.3414C86.3534 27.2659 86.3639 27.1981 86.3743 27.1408C86.3268 27.1436 86.2831 27.1398 86.2451 27.1245C86.2451 27.1245 86.0655 27.0777 85.8945 26.9459C85.9068 27.0663 85.9021 27.1771 85.8878 27.2783C85.8631 27.4483 85.8099 27.5888 85.7557 27.6938C85.6835 27.8371 85.4735 28.0644 85.4735 28.0644H85.4745Z" fill="#FDEFE6"/>
<path d="M85.6835 29.1017C85.6835 29.1017 86.0171 28.1313 85.2094 28.0692C85.2094 28.0692 85.4992 27.8314 85.8327 28.0692C86.1662 28.307 85.9904 28.9518 85.6835 29.1017Z" fill="#223749"/>
<path d="M89.4807 28.369C89.5292 28.7549 89.5273 28.9355 89.3192 29.138C89.3306 29.1351 89.342 29.1322 89.3534 29.1284C90.0204 28.9345 89.6783 28.2544 89.5548 28.0433C89.4854 27.9239 89.3325 27.8189 89.1101 27.8141C89.2659 27.9258 89.4484 28.1102 89.4798 28.37L89.4807 28.369Z" fill="#223749"/>
<path d="M68.0775 41.5182C68.0699 41.8974 67.7164 42.3463 67.1985 42.6691C67.0113 42.7857 66.8041 42.885 66.5827 42.9586C66.3053 43.0522 66.0078 43.1037 65.7066 43.098C65.1289 43.0856 64.3772 43.0264 63.6693 42.9137C63.4042 42.8716 63.1457 42.822 62.9053 42.7637C62.4473 42.6539 62.0539 42.5154 61.803 42.3463C61.3925 42.0683 61.136 41.9575 60.9763 41.9231C60.8499 41.8954 60.7844 41.9155 60.7511 41.9384C60.7017 41.9719 60.3435 42.3253 59.8322 42.4886C59.5747 42.5708 59.2782 42.6051 58.9628 42.5249C58.9466 42.5201 58.9295 42.5163 58.9124 42.5115C57.9498 42.2317 58.4439 41.2507 58.6207 40.945C58.7205 40.7731 58.9419 40.6203 59.2621 40.6146C59.4683 40.6098 59.7154 40.6661 59.9995 40.8151C60.0584 40.8457 60.1183 40.8801 60.1791 40.9193C60.1791 40.9193 60.4812 40.9737 61.1654 40.6614C61.1816 40.6547 61.1977 40.647 61.2139 40.6394C61.2557 40.6193 61.3004 40.5983 61.345 40.5754C61.7954 40.349 62.491 40.0797 63.2578 39.9326C63.4726 39.8915 63.6921 39.86 63.9145 39.8409C64.3278 39.8065 64.7478 39.8179 65.1479 39.8991C65.5812 39.987 66.0316 40.1112 66.445 40.2611C66.7718 40.3796 67.0759 40.5152 67.3315 40.6614C67.7838 40.9212 68.0813 41.2154 68.0756 41.5172L68.0775 41.5182Z" fill="#EA5634"/>
<path d="M65.7076 40.1426L64.1065 40.4425L63.3254 40.5887L61.4867 40.9325L61.1313 40.474C61.1313 40.474 61.06 40.325 61.0533 40.1273C61.1664 39.9267 61.3536 39.7147 61.6596 39.6459C62.2934 39.5017 62.8845 40.0366 63.4936 39.9009C64.1017 39.7653 64.3298 39.2046 64.6928 39.1454C64.9826 39.0976 65.2458 39.0852 65.5907 39.2256C65.7456 39.623 65.7067 40.1435 65.7067 40.1435L65.7076 40.1426Z" fill="#EA5634"/>
<path d="M61.1198 41.7472C61.1198 41.7472 60.6713 42.1933 61.0543 42.5629C61.4372 42.9326 61.9313 43.1494 63.0213 42.6775C64.1112 42.2066 61.1198 41.7472 61.1198 41.7472Z" fill="#EA5634"/>
<path d="M65.3009 43.0828C65.2363 43.1601 65.1688 43.2289 65.1014 43.2891C64.2452 43.6339 63.8224 43.2757 63.6713 43.0895C63.7349 42.8421 63.8699 42.6014 63.8699 42.6014C63.8699 42.6014 65.8217 42.4609 65.3009 43.0828Z" fill="#EA5634"/>
<path d="M67.1994 42.669C67.0122 42.7855 66.8051 42.8849 66.5837 42.9584C65.5802 41.5572 66.2654 40.4998 66.4478 40.262C66.7747 40.3804 67.0788 40.516 67.3344 40.6622C66.5457 41.4053 66.9695 42.3022 67.1994 42.669Z" fill="#FDEFE6"/>
<path d="M60.9772 41.9229C60.8508 41.8952 60.7853 41.9153 60.752 41.9382C60.7026 41.9716 60.3444 42.325 59.8331 42.4884C59.8949 42.346 60.2218 41.5714 60.1144 41.2858C60.045 41.1015 60.0146 40.9266 60.0013 40.8139C60.0602 40.8445 60.1201 40.8789 60.1809 40.9181C60.1809 40.9181 60.4831 40.9725 61.1673 40.6602C61.3222 41.1951 60.9886 41.8952 60.9763 41.9219L60.9772 41.9229Z" fill="#FDEFE6"/>
<path d="M65.1012 43.2898C64.6261 43.712 64.1025 43.7273 63.7813 43.5821C63.6141 43.5066 63.6169 43.2965 63.6711 43.0892C63.8222 43.2755 64.246 43.6337 65.1012 43.2889V43.2898Z" fill="#223749"/>
<path d="M65.5916 39.2245C65.2476 39.0832 64.9844 39.0966 64.6936 39.1443C64.3307 39.2035 64.1026 39.7642 63.4944 39.8999C62.8863 40.0355 62.2943 39.5006 61.6605 39.6448C61.3555 39.7146 61.1673 39.9257 61.0542 40.1262C61.0476 39.9333 61.1027 39.6935 61.3479 39.5044C61.842 39.1223 62.5518 39.4146 62.5518 39.4146C62.5518 39.4146 62.9243 39.6238 63.2151 39.642C63.2835 39.6467 63.3472 39.64 63.4013 39.6181C63.4013 39.6181 63.6598 39.5512 63.9069 39.3602C63.9829 39.301 64.0579 39.2303 64.1235 39.1462C64.4019 38.7899 64.7953 38.5731 65.2894 38.8406C65.4329 38.9179 65.528 39.0603 65.5916 39.2226V39.2245Z" fill="#223749"/>
<path d="M64.5142 40.9764L64.0476 41.5753C63.753 42.0013 63.7283 42.5906 63.6704 42.9135C63.4052 42.8715 63.1468 42.8218 62.9064 42.7635C63.314 42.2019 63.3691 41.3164 63.3264 40.5876C63.3121 40.346 63.2874 40.1215 63.2608 39.9324C63.2456 39.8226 63.2304 39.7251 63.2152 39.643C63.2836 39.6478 63.3473 39.6411 63.4014 39.6191C63.4014 39.6191 63.6599 39.5522 63.907 39.3612C63.8899 39.535 63.8956 39.6955 63.9174 39.8407C63.9526 40.0862 64.0305 40.2887 64.1075 40.4406C64.212 40.6469 64.5142 40.9755 64.5142 40.9755V40.9764Z" fill="#FDEFE6"/>
<path d="M64.2118 42.4732C64.2118 42.4732 63.7301 41.072 64.896 40.9832C64.896 40.9832 64.4779 40.6393 63.9961 40.9832C63.5144 41.327 63.7681 42.2574 64.2118 42.4732Z" fill="#223749"/>
<path d="M58.731 41.4159C58.6616 41.9728 58.6644 42.2326 58.9647 42.5249C58.9486 42.5201 58.9315 42.5163 58.9144 42.5115C57.9518 42.2316 58.4459 41.2506 58.6226 40.945C58.7224 40.7731 58.9438 40.6202 59.264 40.6145C59.0398 40.7759 58.7766 41.0424 58.73 41.4169L58.731 41.4159Z" fill="#223749"/>
<path d="M17.2622 21.7604C16.0326 21.152 15.5251 19.6514 16.1304 18.4154C16.7357 17.1794 18.2286 16.6693 19.4582 17.2787C20.6878 17.8872 21.1952 19.3878 20.589 20.6238C19.9837 21.8598 18.4908 22.3698 17.2612 21.7604H17.2622ZM19.3536 17.4927C18.2419 16.9425 16.8916 17.4039 16.3433 18.5214C15.796 19.639 16.2549 20.9963 17.3667 21.5474C18.4785 22.0976 19.8288 21.6362 20.3761 20.5187C20.9234 19.4011 20.4645 18.0438 19.3527 17.4936L19.3536 17.4927Z" fill="white"/>
<path d="M26.1116 9.35353C25.3381 8.9705 25.0188 8.02583 25.3999 7.24832C25.7809 6.47081 26.7207 6.14987 27.4942 6.5329C28.2677 6.91592 28.587 7.86059 28.2059 8.6381C27.8249 9.41561 26.8851 9.73655 26.1116 9.35353ZM27.4277 6.66758C26.7283 6.32085 25.8778 6.61122 25.5329 7.31518C25.188 8.01819 25.4768 8.87307 26.1772 9.2198C26.8765 9.56653 27.727 9.27616 28.0719 8.57219C28.4169 7.86918 28.128 7.0143 27.4277 6.66758Z" fill="white"/>
<path d="M8.98439 35.7404C8.21089 35.3573 7.89161 34.4127 8.27266 33.6352C8.65371 32.8576 9.59349 32.5367 10.367 32.9197C11.1405 33.3028 11.4598 34.2474 11.0787 35.0249C10.6977 35.8025 9.75788 36.1234 8.98439 35.7404ZM10.3005 33.0544C9.60109 32.7077 8.75063 32.9981 8.40569 33.702C8.06075 34.405 8.34963 35.2599 9.04996 35.6066C9.74933 35.9534 10.5998 35.663 10.9447 34.959C11.2897 34.256 11.0008 33.4011 10.3005 33.0544Z" fill="white"/>
<path d="M10.2796 27.3386C9.62301 27.0138 9.3522 26.2124 9.67528 25.5524C9.99836 24.8924 10.7956 24.6201 11.4522 24.9449C12.1088 25.2697 12.3797 26.0711 12.0566 26.7311C11.7335 27.3911 10.9362 27.6633 10.2796 27.3386ZM11.3962 25.0595C10.8023 24.7653 10.081 25.0118 9.7893 25.6088C9.49758 26.2057 9.74179 26.9307 10.3357 27.224C10.9296 27.5181 11.6508 27.2717 11.9425 26.6747C12.2352 26.0777 11.9901 25.3528 11.3962 25.0595Z" fill="white"/>
<path d="M45.6489 127.389C40.3234 127.389 35.6175 126.233 31.5313 123.922C27.445 121.611 24.2464 118.413 21.9353 114.326C19.6242 110.24 18.4854 105.551 18.5189 100.259L21.7343 100.259C21.7008 107.293 23.8779 113.037 28.2656 117.491C32.6868 121.946 38.4812 124.173 45.6489 124.173C51.0414 124.173 55.7976 122.851 59.9173 120.204C64.037 117.558 67.2524 113.958 69.5635 109.403C71.8746 104.848 73.0134 99.723 72.9799 94.0291C72.9464 87.9332 71.6569 82.6579 69.1113 78.2032C66.5993 73.7485 63.2499 70.3154 59.0632 67.9039C54.91 65.4923 50.3715 64.2865 45.448 64.2865C41.3952 64.2865 37.7276 65.0569 34.4452 66.5976C31.1628 68.1383 28.3326 70.1145 25.9545 72.526L21.1314 71.7222L27.1603 23.0891L72.7789 23.0891L72.7789 26.3045L29.9738 26.3045L24.7488 68.9087L25.1507 68.9087C27.7297 66.5306 30.7274 64.6382 34.1438 63.2315C37.5602 61.7912 41.3282 61.0711 45.448 61.0711C50.9744 61.0711 56.0655 62.4444 60.7211 65.1909C65.4103 67.9039 69.1616 71.7389 71.9751 76.696C74.8221 81.6196 76.2288 87.3973 76.1953 94.0291C76.1618 100.393 74.8388 106.087 72.2263 111.111C69.6138 116.135 66.0132 120.104 61.4245 123.018C56.8359 125.932 51.5773 127.389 45.6489 127.389Z" fill="black"/>
<g clip-path="url(#clip1_21_3706)">
<path d="M63.9108 87.0613C63.9108 87.0613 63.4702 95.4227 53.48 96.8087C53.48 96.8087 56.5101 92.0408 55.8611 88.9071C55.8611 88.9071 61.2004 87.119 63.9108 87.0613Z" fill="#245B84"/>
<path d="M77.2734 86.6185C77.4974 85.0467 75.9325 81.0641 74.8417 80.0978C68.5139 73.5864 60.4157 73.1087 55.0281 72.9482C54.3876 71.3177 50.2318 65.4428 42.5382 68.4073C42.5382 68.4073 47.7172 70.4389 45.8331 74.3404C14.8437 83.7547 22.5314 117.557 22.5314 117.557C14.7248 120.087 16.3222 130.106 16.3222 130.106C16.3222 130.106 17.3157 128.227 20.1694 127.006C23.0239 125.788 24.0339 123.262 24.0339 123.262C24.5716 125.565 28.3237 126.707 29.573 127.173C30.8223 127.639 31.2433 128.729 31.2433 128.729C32.0368 120.259 26.2495 117.103 26.2495 117.103C27.5742 101.889 37.5995 95.0593 45.7028 91.8832C47.3691 91.2315 49.0294 90.6851 50.6359 90.2319C50.3368 94.1564 48.162 97.1996 48.162 97.1996C55.9606 95.8031 58.0389 91.4403 58.5549 88.6419C61.0885 88.3552 63.8787 88.4707 63.8787 88.4707C63.8787 88.4707 69.1916 90.1423 71.1631 90.1083C73.6868 90.297 77.715 92.2695 79.3563 92.3607C80.9977 92.4519 80.8214 91.2277 80.8214 91.2277C81.7633 89.7746 77.2761 86.6176 77.2761 86.6176L77.2734 86.6185Z" fill="url(#paint1_linear_21_3706)"/>
<g opacity="0.9">
<path d="M80.733 90.9597C79.7385 90.814 78.7544 90.6062 77.7766 90.352C77.2891 90.2245 76.8066 90.0749 76.3252 89.91C75.8474 89.7471 75.3665 89.526 74.9223 89.2996C74.0259 88.8403 73.1359 88.3348 72.3418 87.6905C71.9444 87.367 71.5654 87.0171 71.2475 86.6071C70.9313 86.2025 70.6664 85.7349 70.5852 85.2314C70.7949 85.6924 71.1126 86.0729 71.4623 86.4141C71.8148 86.7544 72.2048 87.0536 72.6068 87.3344C73.4162 87.8942 74.2761 88.3884 75.1507 88.8632C75.5881 89.1153 76.0149 89.3235 76.4789 89.5085C76.9355 89.6986 77.4034 89.8675 77.875 90.0295C78.819 90.356 79.7752 90.6551 80.733 90.9597Z" fill="#245B84"/>
<g clip-path="url(#clip2_21_3706)">
<path d="M68.714 81.9563C68.4117 82.5626 68.6159 83.1846 69.1674 83.3471C69.7188 83.5065 70.4092 83.144 70.7115 82.5376C71.0138 81.9313 70.8095 81.3093 70.2581 81.1468C69.7066 80.9874 69.0162 81.35 68.714 81.9563Z" fill="#245B84"/>
<path opacity="0.9" d="M70.1806 81.5876C70.152 81.6376 70.1275 81.6845 70.1112 81.7376C70.0948 81.7907 70.0867 81.8438 70.0826 81.897L70.0907 81.9501L70.1152 81.997C70.1438 82.0345 70.1847 82.0595 70.2378 82.0783C70.2582 82.0876 70.2786 82.0908 70.3032 82.0908C70.3277 82.0939 70.3481 82.0939 70.3726 82.0908C70.4216 82.0845 70.487 82.0689 70.5197 82.0376C70.5442 82.0157 70.5687 81.9939 70.585 81.9689C70.6014 81.9439 70.6177 81.9157 70.6299 81.8907C70.6504 81.8532 70.6545 81.8126 70.6626 81.7688C70.6749 81.6845 70.6463 81.6032 70.5973 81.5282C70.5728 81.5001 70.5442 81.475 70.5074 81.4594C70.4788 81.4438 70.4461 81.4375 70.4134 81.4375C70.3808 81.4313 70.344 81.4344 70.3113 81.4407C70.2664 81.45 70.2296 81.4657 70.1969 81.4907C70.0867 81.5844 70.005 81.7032 69.9927 81.8282C69.9886 81.8751 70.005 81.9282 70.0376 81.9689C70.103 82.0533 70.2337 82.0939 70.3603 82.0658C70.487 82.0376 70.5564 81.9501 70.5973 81.8626C70.6054 81.847 70.6095 81.8313 70.6136 81.8157C70.6218 81.7813 70.6299 81.7501 70.6259 81.7157C70.6177 81.6501 70.6014 81.5907 70.5564 81.5344C70.536 81.5094 70.5115 81.4844 70.4829 81.4625C70.4134 81.4032 70.3032 81.375 70.1969 81.3969C70.0907 81.4188 70.0172 81.4876 69.9723 81.5626C69.9519 81.5938 69.9355 81.6251 69.9233 81.6594C69.911 81.697 69.9069 81.7345 69.9028 81.7688C69.9028 81.7876 69.9028 81.8063 69.9028 81.8251C69.911 81.8782 69.9192 81.9126 69.9519 81.9626C70.0009 82.0439 70.1193 82.1033 70.2378 82.1033C70.3685 82.1033 70.4788 82.0439 70.5483 81.9595C70.5973 81.897 70.6177 81.8282 70.6299 81.7563C70.6299 81.7376 70.6299 81.7157 70.6299 81.697C70.6218 81.6438 70.6136 81.5969 70.5809 81.5501C70.5319 81.4813 70.4339 81.4375 70.3317 81.4375C70.2664 81.4375 70.201 81.4563 70.1479 81.4844C70.0744 81.5251 70.0131 81.5688 69.9682 81.6282C69.9519 81.6501 69.9396 81.6751 69.9273 81.7001C69.9233 81.7095 69.9192 81.7188 69.9151 81.7313C69.8987 81.7907 69.9028 81.8282 69.9151 81.8876C69.9233 81.922 69.9396 81.9564 69.9641 81.9876C69.9927 82.0314 70.0417 82.0689 70.0989 82.0939C70.1929 82.1345 70.3154 82.1314 70.4053 82.0845C70.4461 82.0658 70.4829 82.0439 70.5156 82.0157C70.5483 81.9876 70.5768 81.9595 70.6014 81.9314C70.6259 81.9032 70.6463 81.8657 70.6626 81.8313C70.6749 81.8063 70.6749 81.7782 70.6667 81.7532C70.6667 81.7282 70.6545 81.7032 70.6381 81.6813C70.6054 81.6407 70.5483 81.6032 70.487 81.5907C70.4216 81.5782 70.3481 81.5813 70.2909 81.6094L70.2378 81.6407C70.2051 81.6657 70.1847 81.6938 70.1724 81.7282C70.1724 81.7313 70.1724 81.7345 70.1684 81.7376L70.1929 81.6907C70.1806 81.7126 70.1643 81.7345 70.1438 81.7532L70.1847 81.7126C70.1643 81.7313 70.1438 81.747 70.1193 81.7626L70.1724 81.7313C70.1724 81.7313 70.1438 81.747 70.1275 81.7532L70.1888 81.7345H70.1847C70.2092 81.7345 70.2296 81.7313 70.2541 81.7282C70.2501 81.7282 70.246 81.7282 70.2419 81.7282L70.3113 81.7345H70.3072C70.3072 81.7345 70.3481 81.747 70.3685 81.7532C70.3685 81.7532 70.3603 81.7532 70.3563 81.747L70.4094 81.7782C70.4094 81.7782 70.4012 81.772 70.3971 81.7688L70.438 81.8095C70.438 81.8095 70.4216 81.7907 70.4134 81.7782L70.438 81.8251C70.438 81.8251 70.4257 81.797 70.4216 81.7813L70.4298 81.8345C70.4298 81.8345 70.4298 81.8063 70.4298 81.7938L70.4216 81.847C70.4216 81.8313 70.4298 81.8157 70.438 81.8001L70.4134 81.847C70.4216 81.8313 70.4339 81.8157 70.4502 81.8001L70.4094 81.8407C70.4257 81.8251 70.4461 81.8095 70.4706 81.797L70.4175 81.8282C70.4175 81.8282 70.442 81.8126 70.4584 81.8095L70.3971 81.8282C70.3971 81.8282 70.4053 81.8282 70.4094 81.8282L70.3399 81.8345C70.3399 81.8345 70.3481 81.8345 70.3522 81.8345L70.2827 81.8282H70.2868C70.2868 81.8282 70.246 81.8157 70.2255 81.8095H70.2296C70.2296 81.8095 70.1969 81.7907 70.1765 81.7813H70.1806C70.1806 81.7813 70.152 81.7595 70.1398 81.7438C70.1398 81.7438 70.1438 81.7501 70.1479 81.7532L70.1234 81.7063C70.1234 81.7063 70.1316 81.7313 70.1357 81.7438L70.1275 81.6907C70.1316 81.7157 70.1316 81.7407 70.1275 81.7657L70.1357 81.7126C70.1316 81.7376 70.1234 81.7595 70.1112 81.7845L70.1357 81.7376C70.1275 81.7532 70.1152 81.772 70.0989 81.7845L70.1398 81.7438C70.1398 81.7438 70.1234 81.7563 70.1152 81.7626L70.1684 81.7313C70.1684 81.7313 70.1561 81.7376 70.152 81.7376L70.2133 81.7188C70.2133 81.7188 70.201 81.722 70.1929 81.722L70.2623 81.7157C70.2623 81.7157 70.2501 81.7157 70.2419 81.7157L70.3113 81.722C70.3113 81.722 70.3032 81.722 70.295 81.7188L70.3563 81.7376C70.3563 81.7376 70.3481 81.7345 70.344 81.7313L70.3971 81.7626C70.3971 81.7626 70.3849 81.7563 70.3808 81.7501L70.4216 81.7907C70.4216 81.7907 70.4094 81.7751 70.4053 81.7688L70.4298 81.8157C70.4298 81.8157 70.4216 81.7938 70.4175 81.7813L70.4257 81.8345C70.4257 81.8095 70.4257 81.7845 70.4257 81.7563L70.4175 81.8095C70.4216 81.7782 70.4339 81.7501 70.4461 81.722L70.4216 81.7688C70.4339 81.7438 70.4502 81.722 70.4706 81.7001L70.4298 81.7407C70.4298 81.7407 70.4339 81.7345 70.438 81.7345L70.3849 81.7657C70.3849 81.7657 70.393 81.7626 70.3971 81.7595L70.3358 81.7782H70.3399C70.3154 81.7782 70.295 81.7813 70.2705 81.7845H70.2746C70.2501 81.7845 70.2296 81.7813 70.2051 81.7782H70.2092C70.2092 81.7782 70.1684 81.7657 70.1479 81.7595H70.152C70.152 81.7595 70.1193 81.7407 70.0989 81.7313C70.1112 81.7376 70.1193 81.747 70.1275 81.7563L70.0867 81.7157C70.0867 81.7157 70.1112 81.7438 70.1193 81.7595L70.0948 81.7126C70.103 81.7313 70.1112 81.747 70.1152 81.7657L70.1071 81.7126C70.1071 81.7313 70.1071 81.7501 70.1071 81.7688L70.1152 81.7157C70.1152 81.7345 70.1071 81.7532 70.0989 81.7688L70.1234 81.722C70.1152 81.7376 70.103 81.7532 70.0907 81.7657L70.1316 81.7251C70.1316 81.7251 70.1193 81.7345 70.1112 81.7407L70.1643 81.7095H70.1602C70.1602 81.7095 70.201 81.7001 70.2215 81.6938C70.2215 81.6938 70.2133 81.6938 70.2092 81.6938H70.344H70.3358C70.3358 81.6938 70.3767 81.7063 70.3971 81.7126H70.393C70.393 81.7126 70.4257 81.7313 70.4461 81.7407H70.442C70.442 81.7407 70.4706 81.7626 70.4829 81.7782C70.4829 81.7782 70.4788 81.772 70.4747 81.7688L70.4992 81.8157C70.4992 81.8157 70.4951 81.8063 70.4951 81.8001L70.5033 81.8532C70.5033 81.8532 70.5033 81.8345 70.5033 81.8251L70.4951 81.8782C70.4992 81.8532 70.5115 81.8251 70.5237 81.8032L70.4992 81.8501C70.5156 81.8188 70.5401 81.7876 70.5646 81.7626L70.5237 81.8032C70.5237 81.8032 70.5442 81.7813 70.5564 81.772L70.1561 81.7313C70.1561 81.7313 70.1602 81.7407 70.1643 81.7438L70.1398 81.697C70.152 81.7188 70.1561 81.7376 70.1602 81.7595L70.152 81.7063C70.152 81.7313 70.152 81.7532 70.152 81.7782L70.1602 81.7251C70.1561 81.747 70.1479 81.7688 70.1357 81.7876L70.1602 81.7407C70.1479 81.7626 70.1357 81.7813 70.1152 81.797L70.1561 81.7563H70.152C70.2991 81.8063 70.442 81.8532 70.5891 81.897C70.5891 81.8814 70.5891 81.8626 70.5932 81.847L70.585 81.9001C70.5932 81.847 70.6136 81.7938 70.6422 81.7438L70.6177 81.7907V81.7845C70.6381 81.7626 70.6504 81.7376 70.6504 81.7126C70.6585 81.6876 70.6545 81.6594 70.6463 81.6344C70.6299 81.5907 70.585 81.5407 70.5278 81.5188C70.4666 81.4938 70.3971 81.4813 70.3317 81.5001C70.2746 81.5157 70.2051 81.5438 70.1806 81.5907V81.5876Z" fill="white"/>
<path opacity="0.9" d="M69.8269 82.4745C69.9772 82.4745 69.979 82.2469 69.8269 82.2469C69.6747 82.2469 69.6747 82.4745 69.8269 82.4745Z" fill="white"/>
</g>
</g>
<path d="M6.54984 125.263C6.04259 125.57 5.57249 126.007 5.41769 126.577C5.16168 127.518 5.88791 128.517 6.80516 128.843C7.72242 129.168 8.74724 128.962 9.65075 128.602C10.5543 128.241 11.3978 127.733 12.3206 127.425C13.2434 127.118 14.6972 126.753 15.5459 127.23C14.2748 126.195 12.8773 125.267 11.304 124.812C9.72988 124.355 7.95223 124.415 6.54984 125.263Z" fill="#0082B6"/>
<path d="M0.918844 112.219C-0.269734 112.88 -0.983714 114.508 -0.270069 115.667C0.209637 116.45 1.15405 116.797 2.04535 117.01C4.205 117.52 6.4544 117.536 8.63204 117.961C10.8097 118.386 13.8279 119.76 15.0581 121.611C13.7006 116.903 9.66306 113.07 4.89461 111.961C3.5703 111.654 2.10825 111.56 0.921538 112.218L0.918844 112.219Z" fill="#0082B6"/>
<path d="M35.6227 102.55C34.628 102.959 33.9235 103.861 33.3779 104.791C31.8208 107.455 31.231 110.675 31.7473 113.722C33.7781 109.876 35.7282 109.217 37.4925 106.89C37.885 106.374 38.2788 105.842 38.5049 105.235C38.7301 104.626 38.7686 103.917 38.4598 103.345C37.9473 102.398 36.6182 102.143 35.6235 102.553L35.6227 102.55Z" fill="#0082B6"/>
<path d="M46.926 121.605C45.91 121.15 44.7347 121.269 43.6487 121.497C40.0792 122.242 36.7428 124.06 34.1788 126.653C37.2392 125.634 40.8609 125.222 44.0723 125.557C44.8587 125.639 45.6567 125.76 46.4355 125.626C47.2144 125.493 47.9941 125.046 48.2829 124.308C48.69 123.273 47.9419 122.06 46.926 121.605Z" fill="#0082B6"/>
<path d="M16.1593 105.765C15.5366 105.112 14.621 104.677 13.7311 104.833C12.8411 104.988 12.0732 105.857 12.2151 106.749C12.3211 107.419 12.8624 107.923 13.372 108.371C15.0757 109.872 16.917 111.36 18.6198 112.859C18.416 111.238 18.0289 109.645 17.4682 108.111C17.1568 107.262 16.7811 106.415 16.1576 105.76L16.1593 105.765Z" fill="#0082B6"/>
<path d="M38.7291 113.457C39.5441 113.068 40.5518 112.988 41.3278 113.449C42.1037 113.91 42.5149 114.997 42.0655 115.779C41.7275 116.367 41.0434 116.645 40.4093 116.885C38.2867 117.683 36.0388 118.419 33.9153 119.214C34.6785 117.775 35.6065 116.42 36.6717 115.186C37.2607 114.503 37.9133 113.844 38.7283 113.455L38.7291 113.457Z" fill="#0082B6"/>
<path d="M50.5832 87.5022C50.5832 87.5022 50.9696 89.639 50.6324 90.2299C50.3389 90.7425 28.9609 97.0803 26.246 117.101C26.1947 117.472 25.7988 110.676 27.323 106.486C29.5122 100.471 36.6537 90.0121 50.5824 87.4995L50.5832 87.5022Z" fill="white"/>
<path d="M58.7127 86.7302L58.5487 88.6408C60.2431 88.7127 64.9618 89.3448 68.9985 90.0127C69.7598 90.1386 70.7322 90.0017 72.1309 90.3299C73.2716 90.5959 74.645 90.9379 76.3854 91.5331C76.8535 91.6931 77.2063 91.8237 77.5778 91.9574C78.4092 92.2536 80.3655 93.1956 80.7659 91.6699C81.174 90.1212 73.1551 90.5432 68.5758 88.6872C63.9973 86.8339 58.7127 86.7302 58.7127 86.7302Z" fill="white"/>
<path d="M50.5831 87.5023C50.5831 87.5023 52.4783 87.4504 52.3429 89.9811C52.0833 94.8677 48.7385 96.6678 48.2818 97.1007C48.2682 97.1137 48.2462 97.0998 48.2485 97.0785C48.2485 97.0785 49.9389 93.0653 50.2735 91.6898C50.5224 90.6684 50.585 87.4988 50.585 87.4988L50.5831 87.5023Z" fill="#F7F7F7"/>
</g>
<circle cx="18.5182" cy="28.7773" r="3.41296" fill="white"/>
<circle cx="15.1053" cy="10.5749" r="1.13765" fill="white"/>
</g>
</g>
<defs>
<linearGradient id="paint0_linear_21_3706" x1="66.8684" y1="-19.004" x2="66.8684" y2="172.122" gradientUnits="userSpaceOnUse">
<stop stop-color="#D3E3F8"/>
<stop offset="1" stop-color="#D2E4FD"/>
</linearGradient>
<linearGradient id="paint1_linear_21_3706" x1="36.3066" y1="70.2901" x2="52.2988" y2="122.248" gradientUnits="userSpaceOnUse">
<stop stop-color="#6EC8E2"/>
<stop offset="1" stop-color="#0082B6"/>
</linearGradient>
<clipPath id="clip0_21_3706">
<rect width="230.943" height="170.648" fill="white" transform="translate(-34.9514 -19.004)"/>
</clipPath>
<clipPath id="clip1_21_3706">
<rect width="85.0592" height="55.896" fill="white" transform="translate(-9.92297 84.5159) rotate(-17.1078)"/>
</clipPath>
<clipPath id="clip2_21_3706">
<rect width="2.2753" height="2.2753" fill="white" transform="translate(68.575 81.1093)"/>
</clipPath>
</defs>
</svg>
