<svg width="94" height="148" viewBox="0 0 94 148" fill="none" xmlns="http://www.w3.org/2000/svg">
<mask id="mask0_19_25512" style="mask-type:alpha" maskUnits="userSpaceOnUse" x="0" y="0" width="94" height="148">
<rect x="0.315796" y="0.708496" width="93.393" height="146.757" rx="11.3765" fill="#F6DFCF"/>
</mask>
<g mask="url(#mask0_19_25512)">
<g clip-path="url(#clip0_19_25512)">
<rect width="252.525" height="168.35" transform="matrix(-1 0 0 1 219.849 -9.53027)" fill="#709EE4"/>
</g>
<g clip-path="url(#clip1_19_25512)">
<path d="M-39.5021 76.1935C-39.5021 106.543 -31.3677 134.219 -17.9835 155.211C-11.1545 165.95 5.24417 143.332 14.4489 150.006C35.0025 165.449 50.3659 186.121 72.2039 175.004C77.0677 172.527 83.3738 181.752 88.0236 178.69C88.1639 178.596 88.2938 178.483 88.4341 178.356C88.5745 178.252 88.7149 178.139 88.8517 178.012C91.3012 175.952 93.6664 173.721 95.9509 171.337C100.843 166.235 97.674 145.15 101.667 138.687C105.215 132.951 116.031 141.965 118.736 135.394C123.674 123.402 127.159 110.087 128.843 95.9221C128.892 95.4847 128.948 95.0374 128.99 94.6C129.664 88.6037 130.008 82.46 130.008 76.1984C130.008 63.1836 128.513 50.6603 125.744 38.948C125.702 38.7416 125.653 38.5351 125.604 38.3385C117.438 4.32217 98.5828 -22.8034 74.6218 -35.1989C74.4919 -35.2678 74.3656 -35.3366 74.2358 -35.3955C67.0032 -39.0916 59.3145 -41.4262 51.3099 -42.2224C51.138 -42.247 50.9555 -42.2568 50.7835 -42.2666C48.9587 -42.4387 47.1094 -42.5222 45.253 -42.5222C41.5227 -42.5222 37.859 -42.188 34.2515 -41.5343C34.1041 -41.4999 33.9462 -41.4753 33.7918 -41.4409C23.5448 -39.5094 13.8839 -34.9974 5.13889 -28.4016C4.99853 -28.2984 4.85815 -28.1951 4.72831 -28.0919C-4.03075 -21.4076 -11.8528 -12.6147 -18.3765 -2.2098C-18.4818 -2.06235 -18.5835 -1.90016 -18.6713 -1.7478C-31.6449 19.1063 -39.5021 46.3696 -39.5021 76.1886V76.1935Z" fill="url(#paint0_linear_19_25512)"/>
<g clip-path="url(#clip2_19_25512)">
<path d="M94.963 172.599C106.959 160.603 106.959 141.154 94.963 129.159C82.9674 117.163 63.5187 117.163 51.5231 129.159C39.5276 141.154 39.5276 160.603 51.5231 172.599C63.5187 184.594 82.9674 184.594 94.963 172.599Z" fill="white"/>
<path d="M63.08 145.904C63.3545 141.589 60.0789 137.868 55.7637 137.593C51.4484 137.319 47.7277 140.594 47.4532 144.91C47.1787 149.225 50.4543 152.946 54.7695 153.22C59.0847 153.495 62.8055 150.219 63.08 145.904Z" fill="#EBEBEB"/>
<path d="M48.0331 146.135C48.0331 141.81 51.537 138.306 55.8623 138.306C58.1303 138.306 60.1662 139.278 61.5984 140.817C60.1769 138.856 57.8731 137.578 55.2658 137.578C50.9405 137.578 47.4366 141.081 47.4366 145.407C47.4366 147.461 48.2367 149.325 49.5297 150.725C48.5939 149.436 48.0331 147.853 48.0331 146.135Z" fill="#DFDFDF"/>
<path d="M89.2363 137.856C91.0748 137.856 92.5651 136.366 92.5651 134.527C92.5651 132.689 91.0748 131.199 89.2363 131.199C87.3978 131.199 85.9075 132.689 85.9075 134.527C85.9075 136.366 87.3978 137.856 89.2363 137.856Z" fill="#EBEBEB"/>
<path d="M86.1611 134.835C86.1611 132.995 87.6505 131.506 89.4899 131.506C90.4542 131.506 91.3222 131.92 91.9294 132.574C91.3257 131.742 90.3435 131.195 89.2363 131.195C87.3969 131.195 85.9075 132.684 85.9075 134.524C85.9075 135.399 86.2468 136.192 86.7968 136.785C86.4004 136.235 86.1611 135.563 86.1611 134.835Z" fill="#DFDFDF"/>
<path d="M74.0665 129.147C74.594 126.925 73.2198 124.695 70.9973 124.168C68.7747 123.64 66.5454 125.015 66.018 127.237C65.4906 129.46 66.8647 131.689 69.0873 132.216C71.3098 132.744 73.5391 131.37 74.0665 129.147Z" fill="#EBEBEB"/>
<path d="M66.2201 128.577C66.2201 126.291 68.0738 124.441 70.3561 124.441C71.5562 124.441 72.6313 124.955 73.3885 125.77C72.6348 124.734 71.4205 124.059 70.0418 124.059C67.7559 124.059 65.9058 125.913 65.9058 128.195C65.9058 129.281 66.3272 130.266 67.013 131.006C66.5165 130.324 66.2236 129.488 66.2236 128.581L66.2201 128.577Z" fill="#DFDFDF"/>
<path d="M76.1137 127.03C75.0458 127.03 74.1779 126.162 74.1779 125.095C74.1779 124.027 75.0458 123.159 76.1137 123.159C77.1817 123.159 78.0496 124.027 78.0496 125.095C78.0496 126.162 77.1817 127.03 76.1137 127.03Z" fill="#EBEBEB"/>
<path d="M74.328 125.277C74.328 124.209 75.1959 123.341 76.2638 123.341C76.8246 123.341 77.3282 123.58 77.6818 123.963C77.3318 123.477 76.7603 123.162 76.1174 123.162C75.0494 123.162 74.1815 124.03 74.1815 125.098C74.1815 125.606 74.378 126.066 74.6994 126.413C74.4673 126.095 74.3315 125.702 74.3315 125.28L74.328 125.277Z" fill="#DFDFDF"/>
<path d="M56.2658 136.788C55.73 136.788 55.2979 136.356 55.2979 135.82C55.2979 135.285 55.73 134.852 56.2658 134.852C56.8015 134.852 57.2337 135.285 57.2337 135.82C57.2337 136.356 56.8015 136.788 56.2658 136.788Z" fill="#EBEBEB"/>
<path d="M55.3729 135.91C55.3729 135.374 55.805 134.942 56.3408 134.942C56.6194 134.942 56.873 135.063 57.048 135.252C56.873 135.01 56.5872 134.852 56.2658 134.852C55.73 134.852 55.2979 135.285 55.2979 135.82C55.2979 136.074 55.3979 136.306 55.555 136.478C55.4407 136.317 55.3693 136.124 55.3693 135.91H55.3729Z" fill="#DFDFDF"/>
<path d="M88.9184 140.196C88.3826 140.196 87.9504 139.763 87.9504 139.228C87.9504 138.692 88.3826 138.26 88.9184 138.26C89.4541 138.26 89.8863 138.692 89.8863 139.228C89.8863 139.763 89.4541 140.196 88.9184 140.196Z" fill="#EBEBEB"/>
<path d="M88.0254 139.32C88.0254 138.785 88.4576 138.352 88.9934 138.352C89.272 138.352 89.5256 138.474 89.7006 138.663C89.5256 138.42 89.2398 138.263 88.9184 138.263C88.3826 138.263 87.9504 138.695 87.9504 139.231C87.9504 139.485 88.0504 139.717 88.2076 139.888C88.0933 139.728 88.0219 139.535 88.0219 139.32H88.0254Z" fill="#DFDFDF"/>
<path opacity="0.2" d="M66.4632 169.762C58.4411 169.727 51.0192 167.166 44.9473 162.84C49.5905 173.813 60.4341 181.538 73.103 181.595C90.0685 181.674 103.884 167.984 103.959 151.018C103.973 147.978 103.537 145.043 102.73 142.267C98.3584 158.179 83.7538 169.837 66.4632 169.759V169.762Z" fill="#B8B8B8"/>
</g>
<path d="M-19.4371 88.1427C-15.6451 92.3109 -10.984 95.6574 -6.48049 98.9094C-5.26438 99.7871 -4.00972 100.686 -2.7866 101.595C5.56846 107.819 11.4002 113.624 15.5707 119.862C20.7891 127.681 23.2599 136.367 22.5379 144.336C22.219 147.809 21.2482 151.155 19.7552 154.169C19.8849 154.218 20.0181 154.26 20.1478 154.292C21.6477 151.246 22.6255 147.864 22.9445 144.368C23.6734 136.318 21.1816 127.534 15.9107 119.642C11.7156 113.355 5.84883 107.515 -2.55179 101.27C-3.7679 100.361 -5.02956 99.4514 -6.24567 98.5772C-10.7351 95.3426 -15.3718 92.0032 -19.1357 87.877C-24.5749 81.908 -27.235 74.9074 -26.4464 68.6761C-25.8226 63.7876 -23.1976 59.4481 -20.6533 55.2484C-18.7993 52.1783 -16.8788 49.0102 -15.7047 45.6043C-13.9664 40.5514 -13.7281 34.5999 -15.0143 27.9105C-15.7783 23.9486 -16.9594 20.5568 -18.5505 17.7733C-18.6556 17.8782 -18.7572 17.9936 -18.8449 18.102C-17.3028 20.819 -16.1603 24.127 -15.4138 27.9944C-14.1416 34.6104 -14.3729 40.4885 -16.0867 45.4749C-17.2432 48.8318 -19.1568 51.9824 -21.0037 55.0386C-23.5656 59.2732 -26.2221 63.6617 -26.8459 68.6307C-27.659 74.9843 -24.9499 82.1003 -19.4371 88.1497V88.1427Z" fill="#FFDFDF"/>
<path d="M7.80543 84.4322C11.6088 87.8787 16.0812 90.5699 20.3924 93.1698C22.049 94.164 23.7616 95.1934 25.4111 96.2474C35.6691 102.828 44.5928 111.105 51.9404 120.844C59.6909 131.128 64.2753 141.425 65.5711 151.48C65.7357 152.805 65.8513 154.122 65.8898 155.429C66.0299 155.398 66.1595 155.362 66.2996 155.324C66.2575 154.031 66.1525 152.731 65.9809 151.435C64.678 141.309 60.0586 130.934 52.2697 120.602C44.8905 110.821 35.9248 102.512 25.6247 95.9066C23.9752 94.8456 22.2626 93.8162 20.606 92.822C16.3018 90.2291 11.8575 87.5485 8.0856 84.1335C5.11572 81.4529 1.63101 77.2158 1.87617 72.3042C2.15634 66.6267 6.94388 62.7374 11.5843 58.9782C12.5124 58.2228 13.479 57.4394 14.3721 56.6664C26.017 46.5973 30.3878 29.765 24.5496 17.5176C20.5325 9.0856 12.7506 3.58023 4.95112 -1.56677C4.81103 -1.49299 4.67094 -1.41921 4.54135 -1.34543C12.3548 3.81211 20.1788 9.30694 24.1818 17.7002C29.9465 29.7861 25.6072 46.404 14.1024 56.3573C13.2164 57.1302 12.2568 57.9031 11.3217 58.662C6.61467 62.4774 1.75008 66.4264 1.4664 72.2936C1.21074 77.3598 4.7725 81.7058 7.80543 84.4427V84.4322Z" fill="#FFDFDF"/>
<path d="M43.5542 5.07589C43.3745 11.6184 46.3663 18.6028 51.7789 24.2405C57.1423 29.8225 64.0737 33.5149 69.511 36.1144C73.1899 37.8649 77.0098 39.4866 80.7063 41.0596C89.0473 44.6127 97.6702 48.2877 105.123 53.6156C115.948 61.3552 124.117 72.568 128.12 85.1657C128.335 85.8339 128.532 86.5021 128.722 87.1702C128.772 86.8605 128.828 86.5438 128.87 86.2341C128.754 85.8339 128.631 85.4372 128.508 85.0439C124.48 72.3557 116.262 61.0803 105.363 53.2815C97.8781 47.9292 89.2306 44.2438 80.8719 40.6907C77.1754 39.1177 73.3555 37.4891 69.6907 35.7456C64.2781 33.1634 57.3889 29.4954 52.0749 23.9552C46.7433 18.3975 43.7833 11.5209 43.963 5.08285C44.1216 -0.506104 46.613 -6.16118 50.8627 -10.6365C50.6901 -10.6539 50.5068 -10.6609 50.3342 -10.6678C46.1584 -6.16118 43.6987 -0.506104 43.5507 5.07589H43.5542Z" fill="#FFDFDF"/>
<path d="M33.2168 22.5189C35.6489 33.1809 38.9838 41.8534 43.4105 49.033C51.4661 62.0858 63.9274 71.5401 75.9793 80.6915C84.2379 86.9662 92.7834 93.4556 99.9151 101.072C104.562 106.044 107.838 110.751 109.92 115.452C111.208 118.371 112.107 121.487 112.607 124.713C112.723 124.565 112.828 124.417 112.943 124.259C112.425 121.135 111.544 118.118 110.287 115.287C108.191 110.537 104.895 105.797 100.209 100.794C93.0633 93.1423 84.5003 86.6458 76.2243 80.3641C64.1969 71.2373 51.767 61.7971 43.7604 48.8182C39.3512 41.6773 36.0338 33.047 33.6157 22.4273C30.5852 9.12797 30.7322 -1.96008 34.0251 -10.6678C33.8782 -10.6432 33.7207 -10.6256 33.5667 -10.6009C30.3123 -1.84388 30.1898 9.25121 33.2133 22.5189H33.2168Z" fill="#FFDFDF"/>
<path d="M79.2356 21.8726C81.041 24.5065 83.3898 27.105 86.4187 29.8273C97.2617 39.6204 111.242 45.7367 125.458 47.3523C125.415 47.2038 125.366 47.0554 125.317 46.914C111.249 45.2912 97.4264 39.2138 86.6886 29.5197C83.6913 26.8116 81.3601 24.2378 79.5722 21.6322C74.8606 14.7947 72.7607 5.99503 73.7949 -2.51472C73.9351 -3.67434 74.1314 -4.83395 74.3873 -5.97589C74.2576 -6.02539 74.1314 -6.07488 74.0017 -6.11731C73.7388 -4.94355 73.5355 -3.75919 73.3847 -2.56421C72.3436 6.04453 74.468 14.9538 79.2356 21.8726Z" fill="#FFDFDF"/>
<path d="M9.41699 113.336V111.227L36.2158 79.759C40.4099 74.8386 43.6781 70.7294 46.0202 67.4311C48.3624 64.1059 50.0101 61.1591 50.9633 58.5908C51.9165 55.9954 52.3931 53.319 52.3931 50.5614C52.3931 46.9388 51.5488 43.7081 49.8603 40.8695C48.199 38.0308 45.9113 35.8005 42.9972 34.1784C40.1103 32.5563 36.815 31.7452 33.1111 31.7452C29.2437 31.7452 25.8394 32.6239 22.8981 34.3811C19.9568 36.1114 17.6554 38.4363 15.9941 41.3561C14.3328 44.2759 13.5022 47.5065 13.5022 51.0481H10.8877C10.8877 47.0199 11.8273 43.3567 13.7064 40.0584C15.6129 36.7332 18.2274 34.0837 21.55 32.1102C24.8998 30.1367 28.7535 29.1499 33.1111 29.1499C37.3052 29.1499 41.0499 30.0826 44.3453 31.948C47.6407 33.7864 50.2416 36.3276 52.148 39.5718C54.0544 42.7889 55.0076 46.4522 55.0076 50.5614C55.0076 53.6164 54.4902 56.5361 53.4553 59.3207C52.4476 62.1053 50.7182 65.2143 48.2671 68.6477C45.8432 72.0811 42.4797 76.3256 38.1767 81.3811L13.5022 110.416V110.741H59.9098V113.336H9.41699Z" fill="black"/>
<path d="M81.0891 30.2854V113.336H78.4746V33.0429H77.9843L60.0095 44.8841V41.8022L77.4941 30.2854H81.0891Z" fill="black"/>
<path d="M47.9515 98.6383L43.6027 88.9565L43.9862 100.157L36.8802 102.354L42.5854 104.826L41.1023 113.872L47.7836 104.777L56.4567 110.407L51.5613 102.507L56.8123 96.9591L47.9515 98.6383Z" fill="#FFC063"/>
<path d="M88.3441 129.651C88.0842 129.806 87.8152 129.989 87.5408 130.189L88.3713 130.482L88.3441 129.651Z" fill="#302945"/>
<path opacity="0.1" d="M42.4672 149.36C42.4672 150.714 42.5593 152.052 42.7413 153.358L51.6263 151.914C53.6703 151.582 55.4851 150.449 56.65 148.776L64.9561 136.856L80.7387 132.054L98.9414 132.822C93.5632 124.866 83.0426 119.987 72.5508 119.987C55.9364 119.987 42.4696 133.137 42.4696 149.36H42.4672Z" fill="#302945"/>
<path d="M68.4409 125.415L77.604 126.5L80.7302 126.871L80.9373 126.896L83.0277 127.145C84.1882 127.282 85.2308 126.438 85.3437 125.279L88.3621 93.4521C88.4615 92.3926 87.7507 91.4325 86.7114 91.2202L83.9962 90.6627L83.789 90.6206L78.842 89.6066L71.6244 88.126L68.4393 125.415H68.4409Z" fill="#D0CFFF"/>
<path d="M68.441 125.249L77.951 126.329C78.6974 114.799 79.2446 103.258 79.2149 91.706C79.2149 91.0068 79.2114 90.3025 79.2358 89.5999L71.745 88.126L68.4393 125.248L68.441 125.249Z" fill="#302945"/>
<path d="M45.6531 128.879L47.0891 128.205L44.2561 138.621L41.5486 142.109L53.9249 139.835L61.7746 129.103C61.7746 129.103 67.8628 130.37 72.5115 126.882C77.1603 123.39 75.2903 115.62 75.2903 115.62C78.1725 113.504 78.7625 110.596 78.2284 103.455C77.6927 96.3191 76.0397 97.1129 76.0397 97.1129C76.7348 94.3087 74.2239 93.9395 74.2239 93.9395L59.691 97.4267L53.2298 115.19L47.6181 115.244C47.6181 115.244 43.7102 116.942 40.2041 118.525C40.1329 118.559 40.0617 118.592 39.9956 118.621C39.5395 118.827 39.092 119.035 38.6613 119.233C38.641 119.242 38.6156 119.253 38.5952 119.262C38.5494 119.282 38.5037 119.304 38.4579 119.327C38.0052 119.542 37.5034 119.832 36.9592 120.176C36.8913 120.218 36.8286 120.259 36.7625 120.306C34.9806 121.448 32.8376 123.127 30.988 124.65C30.9337 124.696 30.8795 124.741 30.8252 124.783C30.1894 125.313 29.591 125.822 29.0552 126.278C29.001 126.324 28.9501 126.369 28.8959 126.414C28.6076 126.663 28.3347 126.899 28.0922 127.111C28.038 127.161 27.9837 127.206 27.9295 127.252C27.3361 127.77 26.9207 128.146 26.758 128.287C26.7071 128.332 26.6834 128.358 26.6834 128.358L26.5833 128.383L21.9312 129.468L30.1572 136.186L44.3968 129.472L44.585 129.381L45.409 128.995L45.6565 128.874L45.6531 128.879Z" fill="#D0CFFF"/>
<path d="M57.7152 91.132C57.9399 95.0572 58.5025 96.8789 60.2715 97.7561C60.5418 97.8887 60.9591 97.9843 61.4845 98.0379C63.0355 98.1956 65.5293 98.0094 67.9774 97.4542C68.1987 97.4039 68.4201 97.3502 68.6397 97.2965C71.0422 96.6843 73.3062 95.7147 74.4652 94.3745C74.4652 94.3745 76.0297 91.9808 74.1814 87.7872C72.7588 84.5465 70.7989 82.7399 68.5096 81.9917C68.3592 81.9381 68.2055 81.8928 68.0517 81.8508C68.0399 81.8508 68.0264 81.8475 68.0146 81.8425C67.2594 81.6059 66.4585 81.4818 65.629 81.4818C64.1979 81.4818 62.8514 81.8425 61.6839 82.4799H61.6805C61.5808 82.5336 61.4812 82.5923 61.3798 82.6543C60.312 83.2968 59.4115 84.1774 58.7661 85.2292C58.0531 86.3799 57.6442 87.7302 57.6442 89.1946C57.6442 89.6961 57.6273 90.6607 57.7152 91.132Z" fill="#D0CFFF"/>
<path d="M57.7139 91.0317C57.9356 95.0445 58.4905 96.9069 60.2353 97.8038C60.502 97.9393 60.9136 98.037 61.4319 98.0919C62.9367 97.9015 64.4049 97.4317 65.7464 96.708C66.0463 96.5468 66.3463 96.365 66.6313 96.1626C67.5112 95.5281 68.2428 94.6861 68.4044 93.6195C68.4861 93.0861 68.4127 92.5408 68.3011 92.0109C67.8645 89.9204 66.7796 87.9569 65.1664 86.6107C63.55 85.2611 61.4035 84.57 59.3471 84.8752C59.1454 84.9044 58.9488 84.9421 58.7505 84.9987C58.7222 85.0502 58.6888 85.0999 58.6638 85.1548C58.0139 86.2969 57.644 87.6173 57.644 89.0527C57.644 89.5655 57.6273 90.5515 57.7139 91.0334V91.0317Z" fill="#302945"/>
<path d="M67.6088 97.2615C67.817 97.2104 68.0252 97.156 68.2318 97.1015C69.2475 96.4006 69.9771 95.5891 70.4094 94.6874C70.7544 93.9644 70.899 93.2141 70.9228 92.4877C70.926 92.4162 70.9308 92.3499 70.9308 92.2784C70.864 92.2869 70.802 92.2869 70.7353 92.2869C70.7353 92.3584 70.7321 92.4299 70.7273 92.4962C70.7003 93.1886 70.5588 93.9066 70.233 94.5922C69.7975 95.5126 69.0329 96.3343 67.9585 97.0437C67.844 97.1186 67.7264 97.19 67.6088 97.2615Z" fill="#302945"/>
<path d="M60.9647 82.5092C61.105 82.5187 61.2541 82.5376 61.4067 82.5604C64.3372 82.977 67.0848 84.6873 68.9592 87.1135C69.0071 87.1741 69.055 87.2347 69.0994 87.2953C69.1526 87.2441 69.2094 87.1968 69.2698 87.1551C69.2254 87.0945 69.1828 87.0339 69.1331 86.9733C67.2179 84.4998 64.4188 82.7573 61.4369 82.3312C61.3836 82.3217 61.3322 82.3179 61.2842 82.3123H61.2807C61.176 82.3729 61.0712 82.4392 60.9647 82.5092Z" fill="#302945"/>
<path d="M68.5513 86.9354C68.6098 86.889 68.6683 86.8461 68.7323 86.8083C68.8402 86.7361 68.9572 86.676 69.0833 86.6262C69.5203 86.4475 70.0084 86.4183 70.5002 86.5334C70.5807 86.5506 70.6629 86.5712 70.7434 86.6021C70.9335 86.6622 71.1218 86.7413 71.3083 86.8444C72.0488 87.2516 72.6667 87.9337 73.0452 88.7739C73.835 90.5161 73.3432 92.3872 71.9482 92.9474C71.7325 93.0367 71.5021 93.0865 71.2663 93.1003C71.2114 93.1089 71.1584 93.1089 71.1036 93.1089H71.0396C70.6063 93.0968 70.1602 92.9697 69.7269 92.7309C68.9864 92.3237 68.3685 91.6415 67.9845 90.8014C67.3081 89.3048 67.5732 87.7103 68.5495 86.9389L68.5513 86.9354ZM68.1948 90.7137C68.5604 91.511 69.1418 92.1639 69.8421 92.5453C70.2443 92.7652 70.6593 92.8804 71.0505 92.8924C71.1273 92.8924 71.1986 92.8924 71.2754 92.8838C71.4784 92.8718 71.6721 92.8237 71.8623 92.7481C73.1384 92.2343 73.5772 90.4886 72.8367 88.8546C72.4766 88.0574 71.8897 87.4045 71.1895 87.0231C70.769 86.7945 70.3412 86.676 69.9262 86.676C69.6647 86.676 69.4124 86.7224 69.1729 86.8203C69.065 86.8633 68.9645 86.9131 68.8713 86.9732C68.8073 87.011 68.7488 87.054 68.6957 87.1004C68.1399 87.5368 67.8346 88.2791 67.8346 89.1107C67.8346 89.6244 67.9516 90.1742 68.1948 90.7137Z" fill="#302945"/>
<path d="M67.6088 81.4836C69.1171 82.7357 70.2049 84.4356 70.6668 86.2957C70.68 86.3497 70.6951 86.4073 70.7083 86.4648L70.9308 86.4199C70.927 86.4019 70.9214 86.3839 70.9176 86.3659C70.5028 84.567 69.5073 82.903 68.1216 81.6329C67.9538 81.5754 67.7822 81.5268 67.6107 81.4818L67.6088 81.4836Z" fill="#302945"/>
<path opacity="0.27" d="M60.414 93.433C60.9583 94.4169 61.6535 95.3696 62.6403 95.8823C63.2135 96.182 63.8629 96.3136 64.5072 96.3829C65.177 96.4557 65.8637 96.4591 66.52 96.298C66.5454 96.2894 66.5742 96.2859 66.5996 96.2772C67.4949 95.6363 68.2393 94.7858 68.4038 93.7084C68.4869 93.1697 68.4123 92.6188 68.2987 92.0836C67.8544 89.9721 66.7506 87.9887 65.1092 86.6289C63.4644 85.2657 61.2804 84.5676 59.188 84.876C58.9829 84.9054 58.7828 84.9435 58.581 85.0007C58.5522 85.0526 58.5183 85.1029 58.4928 85.1583C58.347 88.0268 59.0151 90.9386 60.414 93.4347V93.433Z" fill="white"/>
<path d="M59.4145 87.6506C60.1827 88.3334 60.3111 89.2996 59.9181 90.122C59.8272 90.3136 59.685 90.5162 59.4145 90.5901C59.1933 90.6503 58.9326 90.6051 58.7371 90.5093C58.5416 90.4135 58.4054 90.2712 58.2869 90.1275C57.8544 89.6006 57.6332 88.9917 57.6431 88.3854C57.649 87.9817 57.6372 87.511 58.2573 87.3386C58.7332 87.2072 59.1242 87.3933 59.4145 87.6506Z" fill="#FFDFDF"/>
<path d="M59.99 91.7366C60.0841 91.9165 60.1394 92.1522 60.1339 92.3878C60.1284 92.6235 60.0575 92.8573 59.9402 92.9958C59.8715 93.0768 59.7841 93.1253 59.6999 93.1038C59.3922 93.0264 59.2516 92.2493 59.3213 91.823C59.4088 91.2869 59.8095 91.3876 59.9911 91.7366H59.99Z" fill="#FFDFDF"/>
<path fill-rule="evenodd" clip-rule="evenodd" d="M74.0729 93.9743C74.1101 93.932 74.1749 93.9276 74.2176 93.9644C74.2603 94.0013 74.2648 94.0655 74.2276 94.1078L74.1502 94.0411C74.2276 94.1078 74.2275 94.1079 74.2275 94.1079L74.2272 94.1082L74.2265 94.109L74.2241 94.1117C74.222 94.114 74.219 94.1174 74.215 94.1218C74.207 94.1305 74.1952 94.1432 74.1796 94.1596C74.1483 94.1924 74.1017 94.2399 74.0393 94.3C73.9144 94.4202 73.7264 94.5906 73.4722 94.7933C72.9636 95.1986 72.1898 95.7331 71.1257 96.2535C68.9969 97.2947 65.7089 98.2782 61.0625 98.0618C61.0059 98.0592 60.9622 98.0116 60.9649 97.9555C60.9675 97.8995 61.0156 97.8561 61.0722 97.8588C65.6832 98.0736 68.9367 97.0975 71.0349 96.0713C72.0843 95.558 72.8455 95.0318 73.3435 94.6349C73.5925 94.4365 73.7757 94.2703 73.8962 94.1543C73.9565 94.0963 74.0011 94.0508 74.0304 94.0201C74.045 94.0047 74.0559 93.993 74.0629 93.9853C74.0665 93.9814 74.069 93.9786 74.0707 93.9767L74.0725 93.9748L74.0728 93.9743L74.0729 93.9743Z" fill="#302945"/>
<path fill-rule="evenodd" clip-rule="evenodd" d="M75.7255 97.3088C75.7255 97.3088 75.7255 97.3088 75.7255 97.3088C75.7255 97.3088 75.7254 97.3089 75.7254 97.309L75.7238 97.3114C75.7222 97.3138 75.7194 97.3179 75.7154 97.3236C75.7072 97.335 75.6939 97.3528 75.6744 97.3762C75.6353 97.4232 75.5715 97.4932 75.4747 97.5811C75.2813 97.7567 74.9561 98.0043 74.4344 98.2825C73.3908 98.8391 71.5612 99.5182 68.43 99.9905C65.2943 100.463 63.3483 100.47 62.0397 100.26C60.7365 100.051 60.061 99.6273 59.4635 99.2233C59.4181 99.1926 59.355 99.2025 59.3226 99.2455C59.2901 99.2885 59.3007 99.3483 59.3461 99.379C59.9562 99.7915 60.6607 100.233 62.0059 100.449C63.3457 100.664 65.3165 100.654 68.4618 100.179L68.4459 100.085L68.4618 100.179C71.6098 99.7046 73.4637 99.0197 74.5336 98.4491C75.0688 98.1638 75.4079 97.9069 75.6147 97.7191C75.718 97.6252 75.7882 97.5486 75.8332 97.4945C75.8557 97.4675 75.8718 97.4461 75.8827 97.4309C75.8881 97.4233 75.8922 97.4173 75.8951 97.4129C75.8965 97.4108 75.8977 97.409 75.8985 97.4077L75.8996 97.406L75.9 97.4053L75.9001 97.4051C75.9002 97.405 75.9002 97.4049 75.8128 97.357L75.9002 97.4049C75.9282 97.3592 75.9116 97.3007 75.8633 97.2742C75.8152 97.2478 75.7536 97.2633 75.7255 97.3088Z" fill="#302945"/>
<path d="M68.477 102.387V108.363L64.5937 107.325C64.5937 107.325 58.4821 103.532 58.0509 103.82C57.6196 104.106 59.165 106.288 59.165 106.288C59.165 106.288 54.1676 105.072 53.8082 105.501C53.4487 105.93 56.899 107.933 56.899 107.933C56.899 107.933 53.7722 106.538 53.1253 107.147C52.4784 107.755 56.0365 110.187 56.0365 110.187C56.0365 110.187 53.0893 108.971 52.694 109.364C52.2987 109.758 55.4614 112.119 55.4614 112.119C55.4614 112.119 53.9245 111.206 53.5651 111.706C53.2057 112.207 59.3978 116.68 63.6764 117.61C67.955 118.54 76.0246 118.273 77.7857 112.87C79.5467 107.467 76.995 103.103 76.995 103.103L68.5113 102.244" fill="#D0CFFF"/>
<path d="M52.6597 115.532L47.6601 103.179L37.7106 103.075L42.191 115.168L52.6597 115.532Z" fill="#302945"/>
<path d="M51.8292 114.702L53.0603 115.532L58.4733 115.261L57.7803 114.959L52.6023 114.735L51.8292 114.702Z" fill="#302945"/>
<path fill-rule="evenodd" clip-rule="evenodd" d="M67.8378 103.075C67.7078 103.076 67.6053 103.122 67.6088 103.176L67.9685 108.792C67.972 108.847 68.0802 108.89 68.2102 108.888C68.3401 108.887 68.4426 108.841 68.4391 108.787L68.0794 103.171C68.0759 103.116 67.9677 103.073 67.8378 103.075Z" fill="#302945"/>
<path fill-rule="evenodd" clip-rule="evenodd" d="M64.1999 108.058C64.1494 108.055 64.1065 108.099 64.104 108.156L64.1261 108.158C64.1041 108.156 64.104 108.156 64.104 108.156L64.1039 108.157L64.1038 108.16L64.1031 108.173C64.1026 108.184 64.1017 108.201 64.1004 108.223C64.0977 108.267 64.0935 108.332 64.0871 108.416C64.0743 108.584 64.0529 108.828 64.0181 109.13C63.9486 109.735 63.8262 110.571 63.6145 111.499C63.1904 113.358 62.4114 115.566 60.9949 117.013C60.9574 117.051 60.9545 117.117 60.9883 117.159C61.0221 117.202 61.08 117.205 61.1175 117.167C62.5739 115.679 63.3645 113.422 63.7916 111.551C64.0056 110.613 64.1293 109.768 64.1995 109.157C64.2346 108.852 64.2564 108.605 64.2694 108.434C64.2759 108.348 64.2802 108.282 64.2828 108.236C64.2842 108.214 64.2851 108.197 64.2857 108.185L64.2864 108.171L64.2866 108.168L64.2866 108.167C64.2866 108.167 64.2866 108.167 64.1953 108.162L64.2866 108.167C64.2892 108.11 64.2503 108.061 64.1999 108.058Z" fill="#302945"/>
<path fill-rule="evenodd" clip-rule="evenodd" d="M64.3533 107.891C64.3534 107.891 64.3534 107.891 64.4097 107.806L64.3533 107.891C64.3628 107.897 64.3732 107.902 64.3841 107.904L69.3211 109.169C69.3758 109.183 69.4315 109.15 69.4456 109.096C69.4597 109.042 69.4268 108.986 69.3722 108.972L64.4517 107.712L64.397 107.677C64.3521 107.647 64.2861 107.604 64.202 107.55C64.0338 107.441 63.7928 107.285 63.5019 107.099C62.9201 106.727 62.1381 106.234 61.338 105.746C60.5383 105.259 59.719 104.777 59.0629 104.43C58.7352 104.257 58.4459 104.115 58.219 104.024C58.1058 103.978 58.0053 103.944 57.9217 103.924C57.8442 103.906 57.7603 103.895 57.6936 103.919C57.5741 103.962 57.5211 104.063 57.51 104.174C57.4996 104.278 57.5241 104.402 57.5652 104.531C57.648 104.79 57.8126 105.11 57.9911 105.416C58.1706 105.724 58.3679 106.025 58.52 106.248C58.5527 106.296 58.5834 106.341 58.6113 106.381C58.4976 106.348 58.3536 106.308 58.187 106.262C57.7609 106.145 57.187 105.994 56.5962 105.859C56.0061 105.725 55.3963 105.606 54.8996 105.553C54.6516 105.527 54.4279 105.517 54.2471 105.53C54.1567 105.537 54.0741 105.551 54.0031 105.572C53.933 105.594 53.8677 105.626 53.8189 105.674C53.7048 105.787 53.7336 105.939 53.7982 106.065C53.8645 106.194 53.9863 106.339 54.138 106.488C54.4434 106.79 54.8971 107.139 55.3624 107.469C55.6465 107.67 55.9366 107.865 56.2025 108.039C56.0126 107.963 55.81 107.885 55.6028 107.808C55.1333 107.636 54.6372 107.473 54.2096 107.377C53.9958 107.329 53.7963 107.296 53.6242 107.288C53.4548 107.28 53.2992 107.294 53.182 107.351L53.1818 107.351C53.1158 107.383 53.0652 107.432 53.0393 107.499C53.0144 107.563 53.0173 107.632 53.0333 107.697C53.0646 107.824 53.1542 107.969 53.2708 108.118C53.507 108.419 53.8901 108.781 54.2909 109.126C54.6516 109.437 55.0308 109.739 55.3392 109.977C55.1293 109.894 54.8912 109.805 54.6465 109.722C54.2696 109.593 53.8731 109.478 53.5377 109.423C53.3702 109.395 53.2136 109.382 53.0801 109.392C52.9493 109.402 52.8248 109.435 52.7386 109.514C52.6261 109.618 52.6518 109.764 52.7071 109.882C52.7644 110.005 52.872 110.144 53.0063 110.29C53.2769 110.584 53.6812 110.928 54.0963 111.256C54.4172 111.509 54.747 111.753 55.031 111.958C54.9742 111.937 54.9164 111.916 54.8582 111.896C54.5847 111.801 54.2966 111.719 54.0573 111.691C53.938 111.677 53.8239 111.675 53.7272 111.697C53.6298 111.718 53.5379 111.766 53.4861 111.859L53.5755 111.908L53.4863 111.858C53.4862 111.859 53.4862 111.859 53.4861 111.859C53.4437 111.935 53.4705 112.016 53.5007 112.074C53.5333 112.136 53.5873 112.203 53.6545 112.273C53.79 112.415 53.9981 112.589 54.2594 112.784C54.7833 113.177 55.5356 113.669 56.3871 114.189C58.0905 115.229 60.2006 116.387 61.6964 117.09C63.2098 117.802 65.6889 118.139 68.2099 117.989C70.731 117.839 73.3182 117.2 75.042 115.937C75.0874 115.904 75.097 115.841 75.0635 115.796C75.03 115.751 74.966 115.741 74.9206 115.774C73.2424 117.004 70.7007 117.638 68.1977 117.787C65.6944 117.936 63.254 117.598 61.7839 116.907C60.2963 116.207 58.1929 115.053 56.4942 114.016C55.6447 113.497 54.8988 113.009 54.3825 112.622C54.1238 112.429 53.9264 112.263 53.8028 112.134C53.7404 112.068 53.7014 112.017 53.6817 111.98C53.6736 111.964 53.6705 111.955 53.6693 111.95C53.6677 111.952 53.6663 111.954 53.6649 111.957C53.6649 111.957 53.6649 111.957 53.6648 111.957M53.6686 111.946C53.6687 111.947 53.6689 111.948 53.6693 111.95C53.6843 111.928 53.7136 111.907 53.7715 111.895C53.8363 111.88 53.9245 111.879 54.0333 111.892C54.2501 111.917 54.5214 111.994 54.7908 112.087C55.0589 112.18 55.3197 112.288 55.5137 112.373C55.6107 112.415 55.6907 112.452 55.7465 112.477C55.7744 112.49 55.7961 112.501 55.8109 112.508L55.8276 112.515L55.8319 112.517L55.8329 112.518L55.8331 112.518C55.8813 112.541 55.9395 112.524 55.9664 112.478C55.9932 112.432 55.9796 112.373 55.9352 112.343L55.8779 112.427C55.9352 112.343 55.9352 112.343 55.9352 112.343L55.9252 112.336C55.9185 112.332 55.9086 112.325 55.8957 112.316C55.87 112.299 55.8321 112.273 55.7841 112.24C55.6881 112.174 55.5515 112.079 55.3889 111.964C55.0638 111.734 54.6358 111.422 54.2234 111.097C53.81 110.771 53.4163 110.434 53.1571 110.153C53.0265 110.012 52.9363 109.891 52.8925 109.797C52.8466 109.698 52.868 109.671 52.8776 109.663C52.9135 109.63 52.9819 109.603 53.0953 109.594C53.206 109.586 53.3448 109.597 53.5044 109.623C53.8231 109.675 54.2071 109.787 54.5802 109.914C54.9525 110.04 55.3101 110.181 55.5749 110.29C55.7072 110.345 55.8161 110.392 55.8919 110.425C55.9298 110.441 55.9595 110.454 55.9795 110.463C55.9896 110.468 55.9972 110.471 56.0024 110.473L56.0081 110.476L56.0099 110.477L56.0523 110.385C56.1124 110.302 56.1124 110.302 56.1124 110.302L56.1118 110.302L56.1024 110.295C56.0957 110.29 56.0858 110.283 56.0729 110.274C56.047 110.255 56.0091 110.227 55.9612 110.192C55.8652 110.121 55.7289 110.019 55.5676 109.896C55.2449 109.649 54.823 109.317 54.425 108.973C54.0255 108.629 53.6553 108.278 53.4321 107.993C53.319 107.849 53.2523 107.732 53.2318 107.649C53.2219 107.609 53.2249 107.585 53.2301 107.571C53.2343 107.56 53.2437 107.547 53.2716 107.533C53.3421 107.499 53.4559 107.483 53.6143 107.49C53.77 107.498 53.9567 107.528 54.1643 107.575C54.5791 107.668 55.0656 107.827 55.5318 107.999C55.9974 108.17 56.44 108.352 56.7664 108.492C56.9295 108.562 57.0634 108.622 57.1566 108.663C57.2031 108.684 57.2394 108.701 57.2641 108.712C57.2726 108.716 57.2797 108.719 57.2853 108.722L57.2921 108.725L57.2992 108.728L57.3014 108.729C57.3015 108.729 57.3016 108.729 57.3447 108.637C57.3974 108.55 57.3974 108.55 57.3973 108.55L57.3946 108.549L57.3862 108.544C57.3788 108.539 57.3677 108.532 57.3533 108.524C57.3244 108.506 57.2821 108.481 57.2285 108.448C57.1211 108.382 56.9682 108.288 56.7864 108.173C56.4226 107.943 55.9435 107.631 55.4811 107.304C55.0176 106.975 54.5752 106.634 54.2821 106.345C54.1345 106.199 54.0315 106.073 53.9804 105.973C53.9277 105.87 53.9467 105.834 53.9634 105.817C53.98 105.801 54.0108 105.782 54.0633 105.766C54.1151 105.75 54.1816 105.739 54.2629 105.733C54.4257 105.72 54.6353 105.729 54.8779 105.755C55.3625 105.806 55.9629 105.923 56.5504 106.057C57.1372 106.191 57.7081 106.341 58.1325 106.457C58.3446 106.516 58.52 106.566 58.6423 106.601C58.7034 106.619 58.7513 106.633 58.7839 106.642C58.8001 106.647 58.8126 106.651 58.8209 106.653L58.8333 106.657C58.8333 106.657 58.8335 106.657 58.863 106.56L58.9457 106.5L58.9445 106.499L58.941 106.494L58.927 106.475C58.9148 106.458 58.8968 106.433 58.8742 106.401C58.8288 106.337 58.7646 106.245 58.6893 106.135C58.5387 105.913 58.3442 105.617 58.168 105.314C57.9909 105.011 57.8358 104.707 57.7599 104.469C57.7216 104.349 57.7071 104.257 57.7134 104.194C57.7191 104.136 57.7387 104.119 57.7633 104.11C57.7633 104.11 57.7654 104.109 57.7702 104.109C57.7754 104.108 57.7828 104.108 57.7929 104.109C57.8132 104.11 57.8403 104.114 57.8747 104.122C57.9437 104.138 58.0333 104.168 58.1421 104.212C58.3592 104.299 58.6412 104.437 58.9668 104.609C59.6173 104.953 60.4324 105.432 61.2311 105.919C62.0295 106.405 62.8101 106.898 63.3912 107.27C63.6818 107.456 63.9223 107.611 64.0903 107.72C64.1743 107.774 64.2401 107.817 64.2849 107.846L64.3533 107.891M58.863 106.56L58.9457 106.5C58.9715 106.536 58.9717 106.583 58.9463 106.619C58.9209 106.654 58.8755 106.67 58.8335 106.657L58.863 106.56ZM57.3447 108.637L57.3973 108.55C57.4439 108.578 57.4604 108.637 57.4349 108.685C57.4094 108.732 57.3507 108.752 57.3014 108.729L57.3447 108.637ZM56.0523 110.385L56.1124 110.302C56.1548 110.333 56.167 110.391 56.1406 110.436C56.1142 110.481 56.0576 110.498 56.0099 110.477L56.0523 110.385ZM53.6649 111.957C53.668 111.951 53.6686 111.947 53.6686 111.946L53.6649 111.957Z" fill="#302945"/>
<path fill-rule="evenodd" clip-rule="evenodd" d="M74.6681 101.63C75.6961 101.63 76.5586 102.814 76.5586 104.321C76.5586 105.828 75.6961 107.012 74.6681 107.012C73.6402 107.012 72.7777 105.828 72.7777 104.321C72.7777 102.814 73.6402 101.63 74.6681 101.63ZM76.7444 104.321C76.7444 102.736 75.8309 101.414 74.6681 101.414C73.5053 101.414 72.5919 102.736 72.5919 104.321C72.5919 105.905 73.5053 107.227 74.6681 107.227C75.8309 107.227 76.7444 105.905 76.7444 104.321Z" fill="#302945"/>
<path fill-rule="evenodd" clip-rule="evenodd" d="M59.2968 116.427C59.2763 116.375 59.2178 116.35 59.166 116.37L59.2031 116.465L59.2401 116.559C59.2918 116.539 59.3172 116.48 59.2968 116.427ZM44.4517 138.522L44.4901 138.371C44.5185 138.26 44.5603 138.097 44.6137 137.888C44.7206 137.471 44.874 136.874 45.0603 136.152C45.433 134.707 45.9375 132.765 46.4646 130.772C46.9916 128.779 47.5413 126.735 48.0045 125.088C48.4664 123.446 48.8451 122.188 49.0296 121.775C49.1308 121.549 49.3736 121.301 49.7 121.043C50.0301 120.782 50.4592 120.501 50.9506 120.211C51.9338 119.631 53.1747 119.011 54.3908 118.442C55.6074 117.874 56.8011 117.356 57.6905 116.98C58.1353 116.792 58.504 116.64 58.7617 116.534C58.8905 116.481 58.9915 116.44 59.0604 116.413C59.0948 116.399 59.1212 116.388 59.139 116.381L59.166 116.37C59.1661 116.37 59.166 116.37 59.2031 116.465C59.2401 116.559 59.2402 116.559 59.2401 116.559L59.2134 116.57C59.1957 116.577 59.1695 116.588 59.1352 116.602C59.0666 116.629 58.9658 116.67 58.8373 116.723C58.5803 116.828 58.2122 116.98 57.7683 117.168C56.8803 117.543 55.689 118.06 54.4755 118.627C53.2615 119.195 52.0272 119.812 51.0523 120.387C50.5647 120.674 50.1441 120.95 49.8241 121.203C49.5004 121.459 49.2927 121.681 49.2133 121.859C49.0365 122.254 48.6624 123.494 48.1984 125.144C47.7356 126.789 47.1862 128.832 46.6592 130.825C46.1323 132.817 45.6279 134.759 45.2553 136.203C45.069 136.925 44.9156 137.522 44.8088 137.939C44.7554 138.148 44.7137 138.311 44.6853 138.422L44.6418 138.592C44.6418 138.592 44.6418 138.593 44.5442 138.567L44.6418 138.593C44.6385 138.606 44.6326 138.618 44.6245 138.629L42.0443 142.068C42.0107 142.113 41.9475 142.122 41.9032 142.088C41.8588 142.054 41.8501 141.99 41.8837 141.945L44.4517 138.522Z" fill="#302945"/>
<path fill-rule="evenodd" clip-rule="evenodd" d="M50.8469 120.596C50.834 120.653 50.8681 120.709 50.9232 120.723C55.2043 121.756 57.8723 123.973 59.4702 125.93C60.2695 126.909 60.8014 127.823 61.1332 128.491C61.2472 128.721 61.3376 128.922 61.407 129.086C61.2428 128.914 61.0253 128.691 60.76 128.429C60.1154 127.794 59.1883 126.932 58.0581 126.027C55.8 124.217 52.7221 122.225 49.4613 121.521C49.4059 121.509 49.3515 121.546 49.3398 121.602C49.3282 121.659 49.3636 121.715 49.419 121.727C52.6344 122.421 55.6828 124.39 57.9318 126.192C59.0553 127.092 59.9771 127.949 60.6178 128.58C60.9382 128.896 61.1882 129.156 61.358 129.336C61.4429 129.426 61.5078 129.496 61.5513 129.544C61.5731 129.568 61.5895 129.586 61.6005 129.598L61.6128 129.612L61.6158 129.616L61.6165 129.616L61.6167 129.617C61.6167 129.617 61.6167 129.617 61.6927 129.546C61.7903 129.514 61.7903 129.514 61.7902 129.514L61.7901 129.514L61.7898 129.512L61.7884 129.508C61.7873 129.505 61.7856 129.5 61.7834 129.493C61.7789 129.479 61.7721 129.459 61.7631 129.433C61.7449 129.381 61.7173 129.306 61.6792 129.209C61.603 129.015 61.4847 128.736 61.3159 128.396C60.9783 127.716 60.4383 126.788 59.6275 125.795C58.0052 123.809 55.3002 121.564 50.9702 120.518C50.9151 120.505 50.8599 120.54 50.8469 120.596ZM61.6927 129.546L61.7903 129.514C61.805 129.561 61.7856 129.612 61.7438 129.637C61.702 129.662 61.6491 129.653 61.6167 129.617L61.6927 129.546Z" fill="#302945"/>
<path fill-rule="evenodd" clip-rule="evenodd" d="M48.5083 123.094C48.4996 123.15 48.5388 123.202 48.5958 123.211C51.497 123.645 54.7523 125.246 57.2892 126.745C58.5561 127.493 59.6409 128.215 60.4088 128.749C60.7928 129.016 61.0975 129.236 61.306 129.39C61.4103 129.466 61.4906 129.526 61.5447 129.567C61.5718 129.588 61.5923 129.603 61.606 129.614L61.6215 129.625L61.6253 129.628L61.6265 129.629C61.6265 129.629 61.6265 129.629 61.6909 129.549C61.7552 129.468 61.7552 129.468 61.7551 129.468L61.7548 129.468L61.7497 129.464L61.7339 129.452C61.7198 129.441 61.699 129.425 61.6717 129.405C61.617 129.363 61.5361 129.303 61.4311 129.226C61.2212 129.071 60.9151 128.85 60.5295 128.582C59.7583 128.045 58.6692 127.321 57.3968 126.569C54.8553 125.067 51.5708 123.449 48.6272 123.008C48.5702 123 48.517 123.038 48.5083 123.094ZM61.773 129.612C61.8085 129.567 61.8005 129.503 61.7551 129.468L61.6909 129.549L61.6265 129.629C61.6718 129.664 61.7375 129.656 61.773 129.612Z" fill="#302945"/>
<path fill-rule="evenodd" clip-rule="evenodd" d="M46.7986 130.543C46.7752 130.596 46.7972 130.659 46.8476 130.684L50.3771 132.404L50.3773 132.404C50.6832 132.552 50.851 132.903 50.7821 133.249L50.782 133.25L50.6724 133.812C50.5906 134.235 50.1916 134.502 49.792 134.4L46.1398 133.471C46.0858 133.458 46.0315 133.493 46.0185 133.55C46.0054 133.607 46.0386 133.664 46.0926 133.678L49.7448 134.607C50.2545 134.736 50.7648 134.396 50.8695 133.854C50.8695 133.854 50.8695 133.854 50.8695 133.854L50.979 133.293C50.979 133.293 50.979 133.293 50.9791 133.293C51.0671 132.85 50.8523 132.401 50.4615 132.211C50.4615 132.211 50.4615 132.211 50.4615 132.211L46.9321 130.491C46.8817 130.467 46.8219 130.49 46.7986 130.543Z" fill="#302945"/>
<path fill-rule="evenodd" clip-rule="evenodd" d="M45.0793 136.354C45.0603 136.399 45.0906 136.449 45.147 136.464L48.5941 137.399C48.9898 137.507 49.2084 137.845 49.0899 138.167C48.9866 138.445 48.6586 138.631 48.2972 138.612L48.2968 138.612L44.4691 138.425C44.4097 138.422 44.3586 138.458 44.355 138.506C44.3513 138.554 44.3966 138.595 44.456 138.598L48.2834 138.785C48.2835 138.785 48.2834 138.785 48.2834 138.785C48.746 138.809 49.165 138.572 49.2966 138.216C49.4481 137.805 49.1688 137.372 48.6633 137.235L45.216 136.3C45.1596 136.284 45.0984 136.309 45.0793 136.354Z" fill="#302945"/>
<path d="M38.5411 119.621C42.0521 122.55 44.4204 125.569 45.7585 128.821L46.0156 128.706C45.2726 125.027 43.2565 121.531 40.3582 118.854C40.2843 118.886 40.2103 118.918 40.1416 118.946C42.8497 121.416 44.7866 124.611 45.6388 127.996C44.2531 125.024 41.9834 122.237 38.7559 119.53C38.7348 119.538 38.7084 119.549 38.6872 119.557C38.6397 119.576 38.5922 119.597 38.5446 119.62L38.5411 119.621Z" fill="#302945"/>
<path d="M36.8801 120.641C37.6093 121.032 38.2538 121.54 38.8137 122.022C41.3324 124.188 43.4532 126.805 44.9853 129.651L45.1852 129.562C43.6387 126.695 41.5053 124.054 38.965 121.875C38.4231 121.406 37.7965 120.91 37.089 120.516C37.017 120.557 36.9504 120.596 36.8801 120.643V120.641Z" fill="#302945"/>
<path d="M32.388 128.819C32.54 128.819 32.6938 128.779 32.8285 128.697L33.1913 128.478C33.5593 128.253 33.6681 127.806 33.4366 127.457L31.6175 124.715C31.5864 124.668 31.5208 124.654 31.4707 124.683C31.4206 124.712 31.405 124.773 31.4361 124.819L33.2552 127.561C33.4245 127.817 33.345 128.147 33.0738 128.312L32.711 128.532C32.4744 128.675 32.1582 128.644 31.9613 128.457L29.5876 126.212C29.5462 126.173 29.4788 126.172 29.4373 126.212C29.3959 126.25 29.3941 126.313 29.4373 126.351L31.811 128.596C31.9665 128.744 32.1772 128.82 32.388 128.82V128.819Z" fill="#302945"/>
<path d="M29.3773 131.312C29.5686 131.312 29.7543 131.25 29.9088 131.133C30.238 130.884 30.3318 130.445 30.1313 130.089L28.5184 127.217C28.489 127.164 28.4191 127.144 28.3639 127.173C28.3088 127.201 28.2885 127.268 28.3179 127.321L29.9309 130.193C30.078 130.455 30.0081 130.777 29.7672 130.962C29.6311 131.066 29.4619 131.109 29.289 131.087C29.1161 131.064 28.9653 130.978 28.8642 130.843L27.1188 128.545C27.0821 128.495 27.0103 128.486 26.9607 128.52C26.911 128.555 26.8981 128.624 26.9368 128.672L28.6821 130.97C28.8219 131.155 29.026 131.271 29.2596 131.303C29.3 131.309 29.3387 131.31 29.3791 131.31L29.3773 131.312Z" fill="#302945"/>
<path d="M80.8967 127.134L81.1075 127.16C82.1303 121.158 82.562 115.036 82.9886 109.085C83.4204 103.046 83.8641 96.8277 84.2188 90.6599L84.008 90.6174C83.6534 96.7989 83.2096 103.021 82.7779 109.073C82.3547 115.021 81.9196 121.138 80.8967 127.136V127.134Z" fill="#302945"/>
<path d="M43.0045 108.037C43.1169 107.937 43.2394 107.857 43.3837 107.796C43.481 107.757 43.6303 107.689 43.7327 107.739C43.9793 107.858 43.8434 108.356 43.8183 108.544C43.7293 109.238 43.58 109.927 43.3854 110.603C43.3334 110.785 43.4827 110.959 43.6891 110.962C44.4642 110.975 45.2394 110.989 46.0145 111.002C46.4189 111.01 46.4189 110.443 46.0145 110.435C45.2394 110.421 44.4642 110.408 43.6891 110.394L43.9927 110.753C44.1219 110.305 44.231 109.854 44.3149 109.398C44.3988 108.943 44.4978 108.5 44.4927 108.056C44.4877 107.673 44.2763 107.248 43.8183 107.167C43.3602 107.085 42.8703 107.362 42.5616 107.634C42.2713 107.89 42.7176 108.291 43.0062 108.035L43.0045 108.037Z" fill="white"/>
<path d="M46.6819 107.462C46.3957 107.254 46.0516 107.073 45.6825 107.187C45.3133 107.302 45.1991 107.647 45.1194 107.968C44.9567 108.632 45.0302 109.332 45.3149 109.957C45.5761 110.534 46.1282 111.254 46.8806 110.915C47.5359 110.62 47.6548 109.739 47.5828 109.131C47.4999 108.424 47.1543 107.754 46.5849 107.287C46.3003 107.054 45.8842 107.446 46.1705 107.681C46.8602 108.245 47.2653 109.293 46.8837 110.126C46.807 110.293 46.6256 110.51 46.4066 110.433C46.2049 110.361 46.0688 110.125 45.9687 109.959C45.7169 109.535 45.6027 109.046 45.623 108.56C45.634 108.317 45.6652 107.997 45.7935 107.78C45.9218 107.563 46.2659 107.855 46.3863 107.942C46.5067 108.03 46.7148 107.962 46.7883 107.843C46.8759 107.699 46.8086 107.553 46.6835 107.461L46.6819 107.462Z" fill="white"/>
<path d="M45.4559 105.92C44.1206 105.835 42.1519 105.739 41.4356 107.106C40.7165 108.481 41.6629 110.14 42.7023 111.104C43.7417 112.067 45.3802 112.603 46.827 112.084C48.2739 111.565 49.0974 110.143 48.8372 108.716C48.6914 107.921 48.2124 107.206 47.5276 106.742C46.8427 106.278 45.9377 106.058 45.0999 105.874C44.8755 105.824 44.7811 106.156 45.0056 106.205C45.6875 106.357 46.3867 106.51 47.0057 106.836C47.6248 107.162 48.0737 107.63 48.3268 108.24C48.8286 109.456 48.3339 110.896 47.1544 111.559C45.9749 112.223 44.4151 111.974 43.3414 111.181C42.8153 110.793 42.3821 110.29 42.0532 109.737C41.6944 109.131 41.4342 108.414 41.5929 107.71C41.9632 106.064 44.1106 106.178 45.4559 106.265C45.6861 106.28 45.6847 105.936 45.4559 105.92Z" fill="#E74215"/>
<path d="M42.7547 110.978C44.5619 110.042 45.8647 108.575 47.5203 107.473C47.7152 107.344 47.5218 107.054 47.3253 107.185C45.6713 108.286 44.3638 109.756 42.5597 110.689C42.3462 110.8 42.5412 111.088 42.7547 110.978Z" fill="#E74215"/>
</g>
</g>
<defs>
<linearGradient id="paint0_linear_19_25512" x1="45.253" y1="-42.5222" x2="45.253" y2="179.32" gradientUnits="userSpaceOnUse">
<stop offset="0.458333" stop-color="#BDABFF"/>
<stop offset="1" stop-color="#7492FD" stop-opacity="0"/>
</linearGradient>
<clipPath id="clip0_19_25512">
<rect width="252.525" height="168.35" fill="white" transform="translate(-32.676 -9.53027)"/>
</clipPath>
<clipPath id="clip1_19_25512">
<rect width="544.435" height="582.478" fill="white" transform="translate(-199.911 -214.308)"/>
</clipPath>
<clipPath id="clip2_19_25512">
<rect width="61.4332" height="61.4332" fill="white" transform="translate(42.5255 120.162)"/>
</clipPath>
</defs>
</svg>
