<svg width="94" height="148" viewBox="0 0 94 148" fill="none" xmlns="http://www.w3.org/2000/svg">
<mask id="mask0_34_865" style="mask-type:alpha" maskUnits="userSpaceOnUse" x="0" y="0" width="94" height="148">
<rect y="0.631714" width="93.393" height="146.757" rx="11.3765" fill="#F6DFCF"/>
</mask>
<g mask="url(#mask0_34_865)">
<g clip-path="url(#clip0_34_865)">
<rect width="252.525" height="168.35" transform="matrix(-1 0 0 1 219.533 -11.8826)" fill="#D7E5FA"/>
<g clip-path="url(#clip1_34_865)">
<path d="M23.8907 37.8976H117.455C116.525 37.0504 115.486 36.3185 114.374 35.7396C112.95 34.9935 111.366 34.464 109.767 34.544C106.665 34.6899 103.824 37.0504 100.759 36.5491C98.6224 36.1938 96.9885 34.544 95.3404 33.1461C91.0902 29.5477 85.7351 27.1802 80.1721 26.839C74.6068 26.4977 68.8691 28.2793 64.7204 31.9882C62.7229 33.7768 60.9496 36.0714 58.357 36.7609C55.1458 37.6223 51.9275 35.7325 48.9123 34.3416C44.5818 32.3365 39.7367 31.2493 35.0072 31.8729C30.7287 32.4377 26.5589 34.5299 23.8931 37.8976H23.8907Z" fill="white" fill-opacity="0.2"/>
<path d="M-4.55058 24.9995H45.8656C43.3887 20.1162 37.0607 17.5651 31.8779 19.3584C29.8945 20.0409 28.1448 21.2529 26.2181 22.0883C24.2961 22.9238 22.0199 23.3521 20.1404 22.4272C18.7473 21.7377 17.7957 20.4292 16.6482 19.3843C14.7852 17.6875 12.3815 16.6967 9.93297 16.0871C6.80675 15.3105 3.47747 15.1222 0.379589 16.0142C-0.626282 16.3013 -1.60854 16.7179 -2.51996 17.245C-3.37943 19.7537 -4.05946 22.3425 -4.55058 24.9995Z" fill="white" fill-opacity="0.2"/>
<path d="M47.7813 14.7543H98.4171C97.1303 12.6927 95.7112 10.7205 94.167 8.84723C92.1411 8.3836 89.9995 8.43538 88.0255 9.11787C86.0468 9.80036 84.2925 11.0124 82.3728 11.8478C80.4508 12.6833 78.1746 13.1116 76.2904 12.182C74.902 11.4995 73.9504 10.1887 72.8029 9.14611C70.9399 7.4493 68.5315 6.45852 66.0877 5.84898C62.9614 5.07236 59.6274 4.88409 56.5343 5.77132C53.4364 6.66326 50.603 8.72485 49.2004 11.6148C48.6715 12.6998 47.8663 13.5564 47.7813 14.7566V14.7543Z" fill="white" fill-opacity="0.6"/>
<path d="M6.5533 35.9445L3.82377 37.4318C3.27597 37.7307 3.27597 38.5167 3.82377 38.8156L6.78942 40.4324C7.25694 40.6866 7.63945 41.0702 7.89446 41.5338L9.5166 44.4897C9.81647 45.0357 10.6051 45.0357 10.905 44.4897L12.5177 41.5526C12.7798 41.0749 13.1741 40.6842 13.651 40.423L16.5978 38.8156C17.1456 38.5167 17.1456 37.7307 16.5978 37.4318L13.9556 35.9915C13.278 35.6221 12.7207 35.0667 12.35 34.3912L10.905 31.7578C10.6051 31.2118 9.81647 31.2118 9.5166 31.7578L8.02432 34.4783C7.68431 35.0972 7.1743 35.6056 6.5533 35.9445Z" fill="white"/>
<path d="M99.1927 33.7049L98.0003 31.9093C97.7618 31.5492 97.2164 31.5939 97.0393 31.9893L96.0901 34.1285C95.9413 34.4651 95.6981 34.7522 95.3888 34.9546L93.4314 36.2443C93.0701 36.4819 93.115 37.0256 93.5117 37.2021L95.6462 38.1434C95.9933 38.2964 96.2884 38.5459 96.4962 38.8589L97.7831 40.7981C98.0215 41.1582 98.567 41.1135 98.7441 40.7181L99.5917 38.8118C99.809 38.3223 100.161 37.9058 100.609 37.6116L102.354 36.4608C102.716 36.2231 102.671 35.6794 102.274 35.5029L100.298 34.6322C99.8491 34.4345 99.4642 34.1121 99.195 33.7026L99.1927 33.7049Z" fill="white"/>
</g>
<path d="M20.0613 47.8356V88.8083H17.5282V50.4764H17.2851L7.96362 56.5783V53.8975L17.204 47.8356H20.0613Z" fill="black"/>
<path d="M42.7762 89.3685C40.0068 89.3685 37.6292 88.5283 35.6433 86.8477C33.6574 85.1672 32.1309 82.7598 31.0636 79.6255C30.0099 76.4778 29.483 72.71 29.483 68.322C29.483 63.9473 30.0166 60.1861 31.0839 57.0384C32.1511 53.8908 33.6709 51.4767 35.6433 49.7962C37.6292 48.1157 40.0068 47.2754 42.7762 47.2754C45.5456 47.2754 47.9165 48.1157 49.8889 49.7962C51.8748 51.4767 53.4013 53.8908 54.4686 57.0384C55.5358 60.1861 56.0694 63.9473 56.0694 68.322C56.0694 72.71 55.5358 76.4778 54.4686 79.6255C53.4148 82.7598 51.895 85.1672 49.9092 86.8477C47.9233 88.5283 45.5456 89.3685 42.7762 89.3685ZM42.7762 87.0478C46.1401 87.0478 48.7811 85.4006 50.6995 82.1063C52.6178 78.7986 53.577 74.2038 53.577 68.322C53.577 64.4007 53.1379 61.0397 52.2598 58.2388C51.3952 55.4379 50.1591 53.2973 48.5515 51.8168C46.9439 50.323 45.0188 49.5761 42.7762 49.5761C39.4124 49.5761 36.7713 51.23 34.853 54.5377C32.9347 57.8454 31.9755 62.4401 31.9755 68.322C31.9755 72.2432 32.4078 75.6042 33.2724 78.4051C34.137 81.1926 35.3731 83.3333 36.9807 84.8271C38.6018 86.3076 40.5337 87.0478 42.7762 87.0478Z" fill="black"/>
<path d="M74.3061 89.3685C71.5366 89.3685 69.159 88.5283 67.1731 86.8477C65.1872 85.1672 63.6607 82.7598 62.5934 79.6255C61.5397 76.4778 61.0128 72.71 61.0128 68.322C61.0128 63.9473 61.5465 60.1861 62.6137 57.0384C63.681 53.8908 65.2008 51.4767 67.1731 49.7962C69.159 48.1157 71.5366 47.2754 74.3061 47.2754C77.0755 47.2754 79.4464 48.1157 81.4187 49.7962C83.4046 51.4767 84.9312 53.8908 85.9984 57.0384C87.0657 60.1861 87.5993 63.9473 87.5993 68.322C87.5993 72.71 87.0657 76.4778 85.9984 79.6255C84.9447 82.7598 83.4249 85.1672 81.439 86.8477C79.4531 88.5283 77.0755 89.3685 74.3061 89.3685ZM74.3061 87.0478C77.6699 87.0478 80.311 85.4006 82.2293 82.1063C84.1476 78.7986 85.1068 74.2038 85.1068 68.322C85.1068 64.4007 84.6677 61.0397 83.7896 58.2388C82.925 55.4379 81.6889 53.2973 80.0813 51.8168C78.4737 50.323 76.5486 49.5761 74.3061 49.5761C70.9422 49.5761 68.3011 51.23 66.3828 54.5377C64.4645 57.8454 63.5053 62.4401 63.5053 68.322C63.5053 72.2432 63.9376 75.6042 64.8022 78.4051C65.6668 81.1926 66.9029 83.3333 68.5105 84.8271C70.1317 86.3076 72.0635 87.0478 74.3061 87.0478Z" fill="black"/>
<path d="M88.5672 48.041C88.5672 49.1483 83.9889 48.4312 83.266 49.1588C82.5431 49.8864 83.2555 54.4947 82.1554 54.4947C81.0554 54.4947 81.7678 49.8864 81.0449 49.1588C80.322 48.4312 75.7437 49.1483 75.7437 48.041C75.7437 46.9337 80.322 47.6508 81.0449 46.9232C81.7678 46.1956 81.0554 41.5873 82.1554 41.5873C83.2555 41.5873 82.5431 46.1956 83.266 46.9232C83.9889 47.6508 88.5672 46.9337 88.5672 48.041Z" fill="white"/>
<path d="M12.5141 84.2491C12.5141 84.9323 9.6709 84.4898 9.22197 84.9388C8.77305 85.3877 9.21547 88.2309 8.53232 88.2309C7.84917 88.2309 8.29159 85.3877 7.84266 84.9388C7.39374 84.4898 4.55054 84.9323 4.55054 84.2491C4.55054 83.566 7.39374 84.0084 7.84266 83.5595C8.29159 83.1105 7.84917 80.2673 8.53232 80.2673C9.21547 80.2673 8.77305 83.1105 9.22197 83.5595C9.6709 84.0084 12.5141 83.566 12.5141 84.2491Z" fill="white"/>
</g>
<g clip-path="url(#clip2_34_865)">
<path d="M87.5859 98.5829C90.5572 98.2148 95.2015 98.5319 97.6954 100.182C100.189 101.831 101.715 105.146 100.606 107.911C99.5558 110.53 96.6202 111.881 93.8386 112.424C91.0569 112.967 88.1325 112.967 85.5181 114.056C82.3349 115.38 79.986 118.158 76.9411 119.774C72.7117 122.018 67.599 121.81 63.0729 123.382C57.4872 125.325 53.153 129.846 47.6811 132.085C42.1892 134.334 35.9522 134.103 30.1546 132.819C27.2547 132.176 24.3883 131.28 21.4214 131.116C16.0276 130.819 10.8502 132.957 5.65493 134.429C0.459649 135.901 -5.46283 136.635 -10.0625 133.822C-14.0555 131.38 -16.1701 126.764 -17.232 122.225C-18.0261 118.825 -18.3384 115.164 -17.0513 111.916C-15.6482 108.379 -12.5029 105.769 -9.07655 104.075C-5.65244 102.381 -1.90265 101.47 1.74453 100.328C2.33343 100.144 3.02048 99.8357 3.08963 99.226C3.14317 98.7537 2.77957 98.3434 2.64573 97.8867C2.18843 96.3367 4.26521 95.3345 5.87576 95.1238C14.9904 93.9286 24.1987 95.6582 33.3735 96.2125C34.2591 96.2658 35.2629 96.2635 35.8785 95.6294C36.2823 95.2147 36.4206 94.6138 36.7463 94.1348C37.5605 92.9375 39.2491 92.8044 40.7035 92.7889C46.916 92.7224 52.6087 92.6581 58.8234 92.5916L87.5882 98.5851L87.5859 98.5829Z" fill="#709EE4"/>
<path d="M87.5859 98.8602C89.8054 98.5963 92.1164 98.6806 94.3002 99.1617C96.5488 99.6584 98.5319 100.707 99.7409 102.727C100.95 104.747 101.079 107.229 99.5892 109.113C98.1749 110.903 95.8394 111.761 93.66 112.176C90.9208 112.697 88.0521 112.71 85.4422 113.788C83.158 114.73 81.3132 116.397 79.3613 117.859C77.2422 119.446 74.9802 120.489 72.3949 121.087C69.8207 121.684 67.1795 121.954 64.6209 122.624C59.6599 123.919 55.7539 127.201 51.4665 129.813C49.1756 131.207 46.7598 132.314 44.1298 132.904C41.395 133.518 38.5642 133.622 35.7736 133.4C32.983 133.179 30.1724 132.551 27.4063 131.879C24.6402 131.207 21.8831 130.666 19.0301 130.859C13.3886 131.236 8.22014 133.728 2.74156 134.864C-2.23734 135.895 -7.84306 135.824 -11.7735 132.174C-15.3873 128.819 -17.0915 123.469 -17.551 118.692C-17.812 115.976 -17.5309 113.18 -16.1948 110.754C-14.988 108.568 -13.103 106.818 -11.0084 105.481C-8.71749 104.018 -6.15666 103.051 -3.57352 102.231C-2.23065 101.803 -0.876617 101.412 0.472952 101.009C1.3273 100.752 2.79287 100.552 3.24793 99.6473C3.74984 98.6495 2.4248 97.8025 3.06501 96.8091C3.60707 95.9665 4.79603 95.5851 5.73515 95.4255C8.69081 94.9177 11.8004 94.9354 14.7873 95.0241C20.7745 95.2015 26.7126 96.0508 32.6863 96.4477C33.737 96.5164 35.0152 96.6916 35.9008 95.982C36.2867 95.6738 36.4852 95.2458 36.6949 94.8112C36.9782 94.2259 37.3485 93.7779 37.9508 93.4985C39.0104 93.0107 40.2618 93.0728 41.3994 93.0595C42.9185 93.044 44.4376 93.0262 45.9567 93.0107C48.87 92.9797 51.7811 92.9464 54.6943 92.9154C55.4528 92.9065 56.2134 92.8999 56.9719 92.891C57.5474 92.8843 58.1854 92.8001 58.752 92.8622C58.8501 92.8732 58.9483 92.9043 59.0442 92.9242L72.2655 95.6782C77.0726 96.6805 81.8775 97.6805 86.6847 98.6828L87.51 98.8557C87.8602 98.9289 88.0097 98.3945 87.6572 98.3214C83.8361 97.5253 80.0127 96.7293 76.1915 95.9332C70.9092 94.8334 65.627 93.7314 60.3447 92.6316C59.8852 92.5362 59.4189 92.4098 58.9527 92.3411C58.2411 92.2369 57.4604 92.3322 56.7399 92.3411C55.2319 92.3566 53.724 92.3743 52.2183 92.3899C49.1488 92.4231 46.0772 92.4586 43.0078 92.4919C41.7251 92.5052 40.409 92.4386 39.1353 92.616C38.1783 92.7491 37.2013 93.0795 36.5967 93.8711C36.2287 94.3522 36.1038 94.9997 35.6799 95.4365C35.1803 95.9532 34.3817 95.9754 33.708 95.9532C32.2179 95.9066 30.7256 95.7536 29.2399 95.6228C26.1393 95.3478 23.0453 95.0108 19.9424 94.7647C16.8395 94.5185 13.7612 94.3678 10.665 94.4698C9.13918 94.5208 7.61562 94.6316 6.10098 94.8201C5.10609 94.9443 4.10452 95.2104 3.28362 95.8091C2.63672 96.2836 2.16158 96.9998 2.34004 97.8269C2.46942 98.4256 3.1364 99.0819 2.55419 99.623C2.07459 100.071 1.24254 100.195 0.631331 100.381C-2.14142 101.219 -4.9454 101.982 -7.61776 103.109C-12.1104 105 -16.4424 108.231 -17.7473 113.131C-18.4545 115.79 -18.2604 118.602 -17.7273 121.273C-17.2477 123.677 -16.5093 126.056 -15.3783 128.24C-14.3098 130.307 -12.8554 132.194 -10.9526 133.569C-8.94056 135.021 -6.52249 135.755 -4.06204 135.953C1.48122 136.4 6.72334 134.327 11.9432 132.817C14.8096 131.988 17.7586 131.314 20.7611 131.371C23.8305 131.431 26.7795 132.34 29.7485 133.015C35.1468 134.243 40.9444 134.622 46.2779 132.89C51.3015 131.261 55.2342 127.648 59.8004 125.158C62.2006 123.848 64.728 123.083 67.4115 122.586C70.0571 122.096 72.7607 121.764 75.2903 120.812C77.8199 119.861 79.7115 118.267 81.766 116.695C82.7743 115.923 83.816 115.18 84.9559 114.615C86.2742 113.961 87.7086 113.617 89.1563 113.384C91.7082 112.974 94.327 112.867 96.7295 111.836C98.7014 110.991 100.519 109.512 101.07 107.366C101.592 105.335 100.883 103.173 99.5981 101.57C98.195 99.8159 96.1807 98.9622 94.0147 98.5431C91.8487 98.124 89.7073 98.0553 87.577 98.3103C87.2245 98.3524 87.22 98.9067 87.577 98.8646L87.5859 98.8602Z" fill="#1D1D1B"/>
<path d="M90.2784 91.0704C90.2338 90.913 90.1758 90.7578 90.1133 90.6048C90.0999 90.3741 90.062 90.1458 89.9995 89.9151C89.7832 88.5869 89.2924 87.2676 88.2997 86.3075C88.1548 86.1678 88.0008 86.0369 87.8402 85.9128C87.7711 85.8263 87.7019 85.7398 87.6328 85.6556C87.5012 85.4915 87.3651 85.3407 87.2067 85.2032C86.5174 84.609 85.7969 84.15 84.9024 83.9105C84.8957 83.9105 84.8868 83.906 84.8779 83.906C82.8502 82.4514 80.7377 81.4669 78.2817 81.2585C77.6794 81.2075 77.1664 81.1388 76.5641 81.172C76.1559 81.1942 75.8436 81.1166 75.4376 81.1121C75.3461 81.0855 74.7684 81.0323 74.6792 80.9991C73.9051 80.6687 73.0217 80.6775 72.125 80.6731C71.4558 80.6709 70.8981 81.0944 70.2981 81.345C69.8006 81.5534 69.4549 81.7707 69.0355 82.1432C68.953 82.2164 68.8771 82.2984 68.8013 82.3827C67.7618 82.6 66.7446 82.9725 65.859 83.3805C64.8262 83.8573 63.8737 84.5557 63.0372 85.3185C62.2007 86.0835 61.469 87.0215 60.9136 88.006C60.3581 88.9905 59.9031 90.0903 59.6845 91.2057C59.593 91.6713 59.5372 92.1458 59.4815 92.6159C59.4324 93.0239 59.4658 93.3743 59.5216 93.7867C59.6086 94.4364 59.7291 94.8909 60.0726 95.5007C60.1306 95.6027 60.1975 95.7003 60.2667 95.7979C60.2622 95.8622 60.26 95.9242 60.2577 95.9886C59.7179 96.1792 59.1982 96.4342 58.7141 96.7425C58.4933 96.8023 58.2702 96.8578 58.0449 96.9065C57.9557 96.8689 57.8642 96.8378 57.7638 96.8201C54.3932 96.2059 50.9535 96.0418 47.545 96.4143C45.9947 96.585 44.4511 96.8356 42.9342 97.197C42.7379 97.1172 42.5282 97.0729 42.2985 97.0618C41.9259 97.0418 41.5601 97.0352 41.192 97.044C40.6187 97.0529 40.0477 97.095 39.4722 97.197C38.9591 97.2879 38.484 97.4698 38.0111 97.6871C37.4199 97.9576 36.976 98.6339 36.9894 99.288C36.9894 99.3412 36.9939 99.3944 36.9983 99.4454C36.6838 99.6628 36.3804 99.8978 36.0793 100.131C35.8941 100.275 35.7112 100.419 35.5283 100.563C35.4502 100.625 35.3655 100.683 35.2919 100.747C35.6711 100.41 35.3253 100.718 35.2316 100.787C34.587 101.255 33.8887 101.634 33.1593 101.953C31.0982 102.783 28.8831 103.242 26.7372 103.794C24.3258 104.415 21.9122 105.035 19.5008 105.656C18.1245 106.011 16.7504 106.364 15.374 106.718C14.8163 106.863 14.3702 107.337 14.2051 107.885C13.4489 107.94 12.695 108.042 11.9499 108.184C11.8562 107.823 11.7514 107.466 11.6332 107.111C11.4859 106.663 11.0599 106.275 10.558 106.297C10.0605 106.319 9.62553 106.628 9.48277 107.111C9.26639 107.84 9.09016 108.645 9.0857 109.408C9.08347 110.084 9.46492 110.714 10.1542 110.883C10.4866 110.965 10.8413 110.909 11.1826 110.858C11.2695 110.858 11.3543 110.847 11.4368 110.823C11.4368 110.823 11.4369 110.823 11.4391 110.823C11.7358 110.787 12.0347 110.75 12.3314 110.714C12.3247 110.772 12.318 110.827 12.3113 110.885C12.3046 110.963 12.3001 111.04 12.3024 111.118C12.2934 111.346 12.3425 111.561 12.4474 111.759C12.5143 111.965 12.6303 112.142 12.7931 112.293C12.811 112.313 12.831 112.328 12.8511 112.346C12.8154 112.484 12.7953 112.628 12.802 112.781C12.84 113.634 13.5404 114.504 14.4751 114.444C16.2306 114.333 17.9906 114.187 19.6815 113.672C20.4421 113.439 21.1872 113.164 21.9479 112.936C22.6951 112.712 23.4558 112.559 24.2276 112.45C26.3579 112.175 28.486 111.958 30.594 111.528C32.6998 111.098 34.7766 110.53 36.8087 109.832C37.1701 109.707 37.4935 109.472 37.7211 109.171C38.0356 109.1 38.3501 109.018 38.6602 108.923C39.9362 108.532 41.1608 108 42.4345 107.601C43.0792 107.399 43.7305 107.222 44.3864 107.06C44.2815 107.506 44.4667 108.018 44.7299 108.359C45.0467 108.767 45.5151 109.02 46.0438 109.016C48.2098 108.998 50.4182 108.927 52.4659 108.158C54.4066 107.428 56.1287 106.33 57.8397 105.184C58.21 104.936 58.491 104.552 58.6093 104.133C58.8234 103.973 59.0353 103.809 59.2294 103.627C59.2785 103.583 59.3231 103.534 59.3677 103.488C59.5171 103.41 59.6577 103.317 59.7781 103.208C60.2756 102.767 60.4094 102.018 60.1953 101.414C60.1373 101.184 60.0347 100.969 59.8941 100.78C59.8785 100.747 59.8607 100.718 59.8451 100.689C60.9247 100.492 61.991 100.222 63.0796 100.055C63.7912 99.9776 64.4983 99.9843 65.2054 100.055C67.416 100.663 69.6824 101.051 71.9733 101.27C75.1342 101.574 78.2817 101.392 81.4136 100.907C82.2167 100.783 83.013 100.63 83.8049 100.445C84.4183 100.304 85.0095 100.153 85.5694 99.8313C85.8794 99.6517 86.1583 99.4344 86.4059 99.1838C86.7516 99.0907 87.0818 98.9399 87.3919 98.7625C87.6952 98.5895 87.9473 98.3855 88.1704 98.1372C88.3711 97.9132 88.6098 97.6294 88.7481 97.3633C89.0983 96.6892 89.2255 95.9531 89.4619 95.2435C89.5869 95.0018 89.7229 94.7668 89.8434 94.5229C90.3899 93.4208 90.6107 92.2877 90.2717 91.0748L90.2784 91.0704Z" fill="white"/>
<path d="M84.5612 100.162C84.4697 100.022 84.3783 99.8822 84.289 99.7425C84.211 99.6205 84.0905 99.5607 83.9656 99.5473C83.9455 99.5207 83.9232 99.4963 83.9031 99.4697C83.9165 99.2746 83.9076 99.075 83.8385 98.8932C83.8206 98.8444 83.7916 98.8001 83.7559 98.758C83.7113 98.5007 83.6689 98.2435 83.6243 97.9863C83.6265 97.9508 83.6332 97.9176 83.6355 97.8821C83.6422 97.7956 83.6154 97.7202 83.5708 97.6604C83.5685 97.6448 83.5663 97.6293 83.5618 97.6138C83.5618 97.5207 83.5574 97.4275 83.5618 97.3322C83.5663 97.2213 83.5306 97.1348 83.4704 97.0705C83.4414 96.8998 83.4124 96.7291 83.3834 96.5583C83.37 96.4851 83.341 96.4297 83.3031 96.3854C83.3075 96.3632 83.3098 96.341 83.3142 96.3188C83.3767 96.2545 83.4191 96.1681 83.4235 96.0594C83.4392 95.7091 83.457 95.3587 83.4726 95.0106C83.4748 94.9552 83.4637 94.8997 83.4392 94.8509L83.4392 94.7933C83.4392 94.7445 83.4302 94.7002 83.4124 94.658C83.4035 94.3653 83.3812 94.0704 83.341 93.7777C83.3299 93.7001 83.2964 93.6269 83.2473 93.5649C83.2473 93.5582 83.2473 93.5493 83.2473 93.5427C83.2629 93.3387 83.2785 93.1369 83.2942 92.9329C83.2986 92.8664 83.2785 92.8021 83.2451 92.7444C83.2339 92.485 83.2161 92.2256 83.1804 91.9639C83.1737 91.9129 83.1581 91.8686 83.138 91.8286C83.1915 91.7666 83.2295 91.6867 83.2362 91.5892C83.254 91.3253 83.2719 91.0614 83.2897 90.7976C83.2919 90.7909 83.2964 90.7865 83.3009 90.7776C83.3633 90.6401 83.283 90.4738 83.1849 90.374C83.1804 90.3674 83.1737 90.363 83.1692 90.3563C83.1692 90.3563 83.167 90.3563 83.1648 90.3541C83.1469 90.2853 83.1291 90.2144 83.1112 90.1457C83.0599 89.9461 82.7789 89.7776 82.5558 89.8552C82.2279 89.6401 81.7282 89.9128 81.8487 90.2987C82.0539 90.9661 82.1989 91.6468 82.268 92.3386C82.2747 92.4074 82.297 92.4673 82.3283 92.5205C82.3461 92.7688 82.3484 93.0194 82.3461 93.2699C82.2948 93.689 82.2435 94.1059 82.1944 94.525C82.1766 94.7046 82.335 94.862 82.5157 94.9175C82.3796 94.9751 82.2747 95.0948 82.2658 95.2745C82.2234 96.0594 82.1788 96.8421 82.1364 97.6271C82.1231 97.8666 82.297 97.9974 82.4978 98.0218C82.4443 98.0839 82.4086 98.1593 82.4041 98.248C82.3707 98.7402 82.3372 99.2303 82.306 99.7225C82.306 99.7292 82.306 99.7358 82.306 99.7425C82.306 99.7491 82.306 99.7558 82.3037 99.7624C82.2368 99.8356 82.1967 99.9287 82.2056 100.029C82.2257 100.279 82.2279 100.53 82.2101 100.78C82.2101 100.998 82.4019 101.206 82.6294 101.197C82.6696 101.197 82.7075 101.186 82.7454 101.177C82.8324 101.255 82.9596 101.288 83.0689 101.279C83.1536 101.423 83.3075 101.51 83.486 101.485C83.573 101.474 83.6645 101.439 83.7269 101.37C83.7537 101.341 83.7715 101.312 83.7871 101.284C83.9924 101.299 84.1976 101.217 84.2422 100.995C84.2578 100.918 84.269 100.84 84.2757 100.765C84.5456 100.707 84.7553 100.443 84.5746 100.164L84.5612 100.162Z" fill="#709EE4"/>
<path d="M74.1617 80.9769C73.7334 80.8639 73.285 80.8129 72.8433 80.8262C72.7117 80.8306 72.5868 80.8971 72.5065 80.9991C72.4574 80.9592 72.4106 80.9171 72.366 80.8727C72.2098 80.7197 71.9288 80.7064 71.7748 80.8727C71.6232 81.039 71.6098 81.2962 71.7748 81.4603C72.2589 81.9371 72.9125 82.2142 73.5929 82.2497C73.9431 82.2675 74.3691 82.2408 74.6301 81.9792C74.8108 81.7996 74.8599 81.5113 74.7194 81.294C74.5922 81.0989 74.3781 81.0324 74.1639 80.9769L74.1617 80.9769Z" fill="#1D1D1B"/>
<path d="M84.7106 86.9416C84.356 86.3851 83.6087 86.1855 82.9863 86.2853C82.8882 86.3008 82.7922 86.3341 82.7052 86.3829C82.6405 86.3407 82.5625 86.3141 82.4755 86.3097C82.1096 86.292 81.7862 86.5691 81.6903 86.9106C81.5988 87.2366 81.7327 87.5936 81.9758 87.822C82.239 88.0681 82.5759 88.1523 82.9238 88.1923C83.2205 88.2255 83.5261 88.2366 83.825 88.2233C84.1173 88.2078 84.4229 88.1435 84.637 87.9284C84.898 87.6623 84.9069 87.2499 84.7129 86.9439L84.7106 86.9416ZM83.7737 87.3918C83.805 87.343 83.825 87.2898 83.8362 87.2343C83.8563 87.2454 83.8764 87.2587 83.8964 87.2698C83.8964 87.2698 83.8964 87.2698 83.8987 87.2698C83.912 87.2809 83.9254 87.292 83.9388 87.3053C83.9522 87.3186 83.9634 87.3341 83.9767 87.3452C83.979 87.3496 83.9834 87.3563 83.9857 87.3607C83.9634 87.3674 83.9388 87.374 83.9165 87.3785C83.9165 87.3785 83.9076 87.3785 83.8987 87.3829C83.8563 87.3829 83.8139 87.3896 83.7737 87.3896L83.7737 87.3918ZM83.8897 87.3873C83.8897 87.3873 83.8697 87.3918 83.8697 87.3896C83.8697 87.3896 83.8786 87.3896 83.8897 87.3873ZM84.0414 87.3452C84.0414 87.3452 84.0459 87.343 84.0459 87.3408C84.0503 87.3386 84.0459 87.3408 84.0414 87.3452Z" fill="#1D1D1B"/>
<path d="M69.6468 81.6066C68.2704 82.0102 66.9209 82.4936 65.6003 83.0524C64.3846 83.5668 63.1331 84.1167 62.2007 85.0746C61.2683 86.0325 60.6236 87.1967 60.057 88.3497C59.4904 89.5027 59.0242 90.791 58.848 92.1015C58.6718 93.412 58.6718 94.9641 59.6265 95.9775L59.6823 95.5429C59.1424 95.8223 58.5803 96.0396 57.9936 96.197C57.6479 96.2901 57.7951 96.8245 58.1409 96.7314C58.7744 96.5607 59.3834 96.3234 59.9633 96.0218C60.1284 95.9354 60.1373 95.7114 60.0191 95.5872C59.2205 94.7402 59.254 93.3721 59.3789 92.2944C59.5239 91.0505 59.9455 89.842 60.492 88.7178C61.0385 87.5936 61.6274 86.5337 62.4305 85.6401C63.2335 84.7465 64.3712 84.1855 65.491 83.6976C66.8896 83.0856 68.3284 82.5712 69.7918 82.1388C70.1353 82.0368 69.9881 81.5024 69.6445 81.6044L69.6468 81.6066Z" fill="#1D1D1B"/>
<path d="M75.5046 81.4248C77.6662 81.2519 79.7898 81.7508 81.8152 82.4714C83.66 83.1278 85.565 83.8794 87.1644 85.0281C88.7639 86.1767 89.8011 87.7244 90.2718 89.5604C90.7425 91.3964 90.5573 93.2545 89.839 94.9597C89.0003 96.9576 87.4656 98.5984 85.5695 99.6472C85.255 99.8202 85.536 100.299 85.8506 100.126C89.355 98.1882 91.5946 94.2524 90.9789 90.2455C90.6845 88.3364 89.7454 86.5292 88.2999 85.2343C86.7741 83.8661 84.8378 83.0479 82.9462 82.3073C80.5839 81.3827 78.0677 80.6665 75.5046 80.8727C75.1499 80.9015 75.1455 81.4559 75.5046 81.427L75.5046 81.4248Z" fill="#1D1D1B"/>
<path d="M81.5966 101.188C75.721 102.162 69.7092 101.74 63.9987 100.082C63.2915 99.8756 62.6446 99.7536 61.9241 99.9576C61.304 100.133 60.7173 100.439 60.0794 100.545C59.7269 100.605 59.8764 101.14 60.2266 101.08C60.7954 100.984 61.3263 100.727 61.8728 100.552C62.1294 100.47 62.3993 100.388 62.6692 100.383C63.0172 100.377 63.3674 100.479 63.6975 100.572C65.1296 100.975 66.5617 101.348 68.0251 101.616C70.9049 102.14 73.8405 102.352 76.7671 102.237C78.4335 102.171 80.0953 101.998 81.7416 101.725C82.094 101.667 81.9446 101.133 81.5944 101.191L81.5966 101.188Z" fill="#1D1D1B"/>
<path d="M59.9009 100.955C60.7798 101.738 60.2734 103.053 59.544 103.734C59.1068 104.142 58.5781 104.439 58.0561 104.723C57.4338 105.062 56.8114 105.401 56.1913 105.745C53.7509 107.1 51.2481 108.472 48.4597 108.951C47.7793 109.069 47.0878 109.124 46.3963 109.111C45.8275 109.1 45.1025 109.08 44.6965 108.616C44.3173 108.182 44.3686 107.526 44.5292 107.013C44.7077 106.441 45.0378 105.929 45.3858 105.443C46.0862 104.466 46.8982 103.528 47.1146 102.306C47.2105 101.767 47.1927 101.215 46.9741 100.707C46.8603 100.445 46.6729 100.235 46.5435 99.9842C46.4677 99.8379 46.4119 99.7315 46.5926 99.6538C46.7287 99.5962 46.9272 99.6161 47.07 99.6228C48.5534 99.7026 49.3966 101.148 49.6152 102.452C49.8159 103.652 49.7669 105.211 48.7497 106.051C48.4731 106.279 48.8701 106.67 49.1445 106.443C50.1572 105.608 50.329 104.166 50.2309 102.938C50.1216 101.583 49.604 100.193 48.3749 99.4698C47.8173 99.1438 47.0856 98.9509 46.4454 99.1195C46.1688 99.1926 45.939 99.39 45.91 99.6849C45.8788 100.009 46.0751 100.299 46.2469 100.554C47.0588 101.758 46.3539 103.173 45.6022 104.217C44.8504 105.262 43.7931 106.432 43.8556 107.829C43.8823 108.446 44.1612 109.022 44.7166 109.33C45.3077 109.661 46.0439 109.67 46.7041 109.665C49.9253 109.636 52.8943 108.191 55.6537 106.676C56.4456 106.242 57.2308 105.798 58.0271 105.37C58.6963 105.009 59.3812 104.65 59.9411 104.126C60.8891 103.244 61.4066 101.55 60.298 100.565C60.0303 100.328 59.6355 100.718 59.9031 100.958L59.9009 100.955Z" fill="#1D1D1B"/>
<path d="M50.4315 103.588C52.1135 103.237 53.7954 102.887 55.4751 102.536C55.8254 102.463 55.6781 101.929 55.3279 102.002C53.646 102.352 51.964 102.703 50.2843 103.053C49.9341 103.126 50.0813 103.661 50.4315 103.588Z" fill="#1D1D1B"/>
<path d="M58.2681 96.319C56.6575 95.4919 54.7079 95.5451 52.9434 95.5562C50.9827 95.5673 49.0241 95.7158 47.0834 95.993C45.9837 96.1504 44.8907 96.3522 43.8065 96.5939C43.4563 96.6715 43.6035 97.2059 43.9538 97.1283C47.6099 96.3145 51.402 95.9509 55.1451 96.1593C56.1199 96.2125 57.1081 96.3478 57.9848 96.8001C58.3038 96.9642 58.5849 96.4853 58.2659 96.3212L58.2681 96.319Z" fill="#1D1D1B"/>
<path d="M37.3196 99.2037C37.7992 97.0396 40.5094 96.9398 42.2739 97.1327C42.7111 97.1793 43.2019 97.2702 43.5521 97.554C43.8131 97.7669 44.0339 98.2126 43.7997 98.5252C43.6547 98.7181 43.329 98.7314 43.1104 98.7536C42.8338 98.7846 42.555 98.7957 42.2739 98.7957C41.7274 98.7957 41.1809 98.7536 40.6366 98.7226C40.0522 98.6893 39.461 98.6649 38.8766 98.7292C38.5799 98.7603 38.2855 98.809 37.9999 98.8889C37.7389 98.962 37.3753 99.1993 37.101 99.1461C36.7507 99.0796 36.599 99.6139 36.9537 99.6805C37.2772 99.7426 37.527 99.6361 37.8259 99.5253C38.1248 99.4144 38.455 99.3346 38.7829 99.2924C39.4298 99.2082 40.0901 99.2436 40.737 99.2813C41.3839 99.319 42.0575 99.3723 42.7201 99.339C43.2487 99.3124 43.9626 99.3013 44.2815 98.8046C44.5247 98.4276 44.4845 97.9088 44.2637 97.5318C44.0049 97.0928 43.5231 96.8378 43.0435 96.707C42.4702 96.5517 41.8523 96.5251 41.2612 96.5052C40.5987 96.4852 39.925 96.5251 39.2848 96.6981C38.1293 97.0107 37.0519 97.8489 36.7842 99.053C36.7061 99.4011 37.2437 99.5496 37.3218 99.1993L37.3196 99.2037Z" fill="#1D1D1B"/>
<path d="M36.8445 99.6228C33.8687 101.179 30.6186 102.168 27.4354 103.208C24.2522 104.248 20.8192 105.319 17.491 106.302C15.6351 106.849 13.7724 107.384 11.9076 107.9C11.5618 107.996 11.709 108.532 12.0548 108.435C18.7446 106.577 25.4144 104.574 31.9637 102.273C33.726 101.654 35.4704 100.969 37.1255 100.1C37.4423 99.9333 37.1612 99.4543 36.8445 99.6206L36.8445 99.6228Z" fill="#1D1D1B"/>
<path d="M31.1027 105.634C26.9849 106.865 22.8581 108.058 18.7179 109.209C17.5513 109.532 16.3824 109.854 15.2113 110.173C14.8655 110.266 15.0128 110.803 15.3585 110.708C19.5054 109.579 23.6411 108.41 27.7634 107.202C28.9256 106.86 30.0878 106.517 31.25 106.169C31.5935 106.067 31.4463 105.53 31.1027 105.634Z" fill="#1D1D1B"/>
<path d="M44.1032 107.126C42.1871 107.31 40.4181 108.051 38.6604 108.783C36.9026 109.515 35.0243 110.162 33.1416 110.668C29.3941 111.67 25.5506 112.255 21.7473 113C19.5946 113.422 17.451 113.896 15.3452 114.521C15.0017 114.623 15.1489 115.158 15.4924 115.056C19.1998 113.956 23.0232 113.326 26.8176 112.614C30.5986 111.905 34.3864 111.1 37.9644 109.663C39.9542 108.865 41.9372 107.889 44.101 107.681C44.4557 107.648 44.4579 107.093 44.101 107.126L44.1032 107.126Z" fill="#1D1D1B"/>
<path d="M12.2042 108.645C12.376 107.754 12.0548 106.874 11.4815 106.186C10.9796 105.583 10.0427 105.153 9.4248 105.856C9.16827 106.149 9.05451 106.539 8.97197 106.909C8.85821 107.426 8.77121 107.945 8.70429 108.47C8.63737 108.996 8.59276 109.539 8.57491 110.078C8.56376 110.433 8.43661 111.04 8.82921 111.246C9.02997 111.351 9.30658 111.333 9.52741 111.348C9.82856 111.368 10.1319 111.386 10.4331 111.399C11.0733 111.428 11.7135 111.442 12.3559 111.439C12.7151 111.439 12.7151 110.885 12.3559 110.885C11.8228 110.885 11.2874 110.878 10.7543 110.858C10.4688 110.847 10.1855 110.834 9.89994 110.816C9.75718 110.807 9.61664 110.798 9.47388 110.79C9.40919 110.785 9.21066 110.807 9.15489 110.765C9.09689 110.763 9.08797 110.759 9.12366 110.754C9.12366 110.685 9.12366 110.614 9.12366 110.546C9.12366 110.406 9.12812 110.269 9.13258 110.129C9.13927 109.887 9.15266 109.643 9.1705 109.402C9.21066 108.856 9.27758 108.311 9.37127 107.772C9.47165 107.191 9.64341 105.592 10.6138 106.155C11.361 106.588 11.8273 107.663 11.6666 108.497C11.5997 108.845 12.1373 108.996 12.2042 108.643L12.2042 108.645Z" fill="#1D1D1B"/>
<path d="M15.6574 111.938C15.4968 111.164 15.4411 110.195 14.9102 109.568C14.4194 108.989 13.6208 108.969 13.0676 109.475C12.4475 110.042 12.4586 110.929 12.4675 111.701C12.4765 112.512 12.3895 113.439 12.9204 114.118C13.4981 114.856 14.4596 115.038 15.3474 115.087C15.7065 115.107 15.7043 114.552 15.3474 114.533C14.5755 114.49 13.6297 114.335 13.2304 113.581C13.0319 113.204 13.0364 112.752 13.0319 112.337C13.0275 111.923 13.0096 111.475 13.0274 111.047C13.0453 110.648 13.1167 110.222 13.4044 109.923C13.6498 109.67 14.0067 109.559 14.3146 109.772C14.6224 109.985 14.7518 110.388 14.8365 110.745C14.9414 111.191 15.0261 111.641 15.1176 112.087C15.1912 112.435 15.7288 112.289 15.6552 111.94L15.6574 111.938Z" fill="#1D1D1B"/>
<path d="M75.1789 80.6621C74.0992 80.2984 72.9415 80.1809 71.8105 80.3273C70.9205 80.4426 69.7293 80.6798 69.707 81.7885C69.6869 82.8085 70.6082 83.4005 71.4915 83.6445C72.0492 83.7975 72.6314 83.8817 73.2092 83.9105C73.7334 83.9371 74.3044 83.9482 74.7997 83.7509C75.7388 83.3739 76.0109 82.1699 75.3484 81.416C75.112 81.1455 74.7193 81.5402 74.9536 81.8085C75.4109 82.3295 75.0896 83.1034 74.4651 83.283C74.0501 83.4028 73.5884 83.3806 73.1623 83.3562C72.7006 83.3296 72.2388 83.2608 71.7905 83.15C71.1235 82.9859 70.2736 82.6289 70.2669 81.824C70.2624 81.4625 70.49 81.2319 70.8179 81.11C71.2127 80.9636 71.6544 80.8949 72.0738 80.855C73.0776 80.7574 74.0814 80.8772 75.0361 81.1987C75.3774 81.314 75.5224 80.7774 75.1833 80.6643L75.1789 80.6621Z" fill="#1D1D1B"/>
<path d="M83.8942 85.8286C83.1424 85.7088 82.384 85.6467 81.6211 85.6623C81.2441 85.6689 80.8671 85.6933 80.4924 85.7354C80.1466 85.7731 79.7786 85.802 79.4484 85.9128C78.9309 86.088 78.5963 86.5093 78.516 87.0415C78.4357 87.5736 78.6387 88.1169 79.0023 88.536C79.8365 89.4983 81.3311 89.9174 82.5647 89.9485C83.7001 89.9773 85.275 89.7378 85.672 88.4961C86.1026 87.1457 84.9292 85.9793 83.6176 85.9306C83.2584 85.9173 83.2584 86.4716 83.6176 86.4849C84.5478 86.5204 85.4133 87.3009 85.1545 88.2766C84.8958 89.2522 83.4793 89.4119 82.6115 89.3963C81.6077 89.3786 80.5013 89.0837 79.7094 88.4451C79.3547 88.159 79.0536 87.771 79.0536 87.2987C79.0536 86.8264 79.3123 86.5071 79.7674 86.4006C81.0367 86.1013 82.4643 86.1634 83.7425 86.3652C84.0927 86.4206 84.2444 85.8862 83.8897 85.8308L83.8942 85.8286Z" fill="#1D1D1B"/>
<path d="M81.1929 90.2589C81.6413 90.9884 81.7126 91.8443 81.755 92.6781C81.8041 93.6471 81.8264 94.6161 81.8242 95.5873C81.8197 97.5452 81.7104 99.5032 81.5007 101.45C81.4628 101.805 82.0205 101.803 82.0584 101.45C82.2748 99.43 82.3863 97.3989 82.3819 95.3678C82.3819 94.3788 82.3595 93.3899 82.2971 92.4031C82.2435 91.5605 82.1231 90.7113 81.6747 89.9795C81.4873 89.6757 81.0055 89.9529 81.1929 90.2589Z" fill="#1D1D1B"/>
<path d="M83.0287 89.9907C83.1045 92.1327 83.1781 94.2769 83.3521 96.4144C83.3967 96.9577 83.4458 97.5009 83.5061 98.042C83.5529 98.4677 83.5953 98.8979 83.7559 99.2992C84.0526 100.029 84.8422 100.565 85.6207 100.193C85.9442 100.038 85.6609 99.5609 85.3397 99.7139C85.0185 99.8669 84.637 99.6629 84.4407 99.4035C84.2043 99.0886 84.1373 98.6673 84.0905 98.2881C83.979 97.3768 83.9076 96.461 83.8451 95.5452C83.7157 93.6959 83.651 91.8422 83.5864 89.9907C83.573 89.6359 83.0153 89.6337 83.0287 89.9907Z" fill="#1D1D1B"/>
<path d="M69.3434 85.895C69.4059 85.8994 69.4661 85.9039 69.5286 85.9105C69.4862 85.9039 69.4884 85.9061 69.5286 85.9105C69.5598 85.915 69.5888 85.9216 69.62 85.9261C69.736 85.9482 69.8498 85.9771 69.9613 86.0103C70.0193 86.0281 70.0796 86.048 70.1353 86.0702C70.1443 86.0746 70.2379 86.1101 70.1889 86.0901C70.1398 86.0702 70.2424 86.1145 70.2402 86.1145C70.3473 86.1633 70.4499 86.2187 70.5502 86.2786C70.5971 86.3074 70.6439 86.3363 70.6908 86.3673C70.7153 86.3851 70.7421 86.4028 70.7666 86.4205C70.78 86.4294 70.8469 86.4804 70.7867 86.4338C70.8782 86.5048 70.9674 86.5824 71.0499 86.6644C71.1325 86.7465 71.2105 86.833 71.2864 86.9239C71.3354 86.9837 71.273 86.9039 71.2998 86.9416C71.3176 86.9682 71.3354 86.9904 71.3533 87.017C71.389 87.068 71.4202 87.119 71.4537 87.1722C71.5674 87.3585 71.8351 87.445 72.027 87.3208C72.2188 87.1966 72.2991 86.9505 72.1764 86.7509C71.5741 85.762 70.5012 85.13 69.3457 85.0591C69.1271 85.0458 68.9174 85.2608 68.9263 85.4759C68.9375 85.7132 69.1092 85.8773 69.3457 85.8928L69.3434 85.895Z" fill="#1D1D1B"/>
</g>
</g>
<defs>
<clipPath id="clip0_34_865">
<rect width="252.525" height="168.35" fill="white" transform="translate(-32.9918 -11.8826)"/>
</clipPath>
<clipPath id="clip1_34_865">
<rect width="109.215" height="109.215" fill="white" transform="matrix(-1 0 0 1 105.802 -9.60718)"/>
</clipPath>
<clipPath id="clip2_34_865">
<rect width="119.453" height="55.745" fill="white" transform="translate(-18.2023 80.2673)"/>
</clipPath>
</defs>
</svg>
