<svg width="144" height="144" viewBox="0 0 144 144" fill="none" xmlns="http://www.w3.org/2000/svg">
<g clip-path="url(#clip0_117_23831)">
<path d="M114.929 114.99C138.635 91.2814 138.635 52.8426 114.929 29.1343C91.2236 5.42602 52.7894 5.42603 29.0839 29.1343C5.37846 52.8426 5.37846 91.2814 29.0839 114.99C52.7894 138.698 91.2236 138.698 114.929 114.99Z" fill="#FFF6E8" stroke="#FFD324" stroke-width="4" stroke-miterlimit="10"/>
<path d="M29.9279 48.9858C30.3478 49.2029 30.6307 49.5403 30.7766 49.9983C30.9225 50.4563 30.8869 50.8952 30.67 51.3151C30.4566 51.7281 30.1235 52.0067 29.6709 52.1509C29.2148 52.2933 28.775 52.255 28.3517 52.0362C27.9283 51.8174 27.6454 51.4843 27.5028 51.0369C27.3586 50.5842 27.3941 50.1496 27.6093 49.7332C27.8281 49.3098 28.1638 49.026 28.6164 48.8818C29.0674 48.7323 29.5046 48.767 29.9279 48.9858Z" fill="#F46338"/>
<path d="M45.858 36.5539L44.5431 37.6668L42.8826 36.539L40.8432 38.2651L41.6807 40.0894L40.3613 41.2061L37.2369 33.4952L38.7754 32.193L45.858 36.5539ZM38.695 33.6582C38.7771 33.8036 38.8914 34.0293 39.0377 34.3353C39.1845 34.6358 39.5987 35.5365 40.2802 37.0374L41.7651 35.7807C40.3767 34.8473 39.549 34.2864 39.282 34.0979C39.018 33.9068 38.8223 33.7602 38.695 33.6582Z" fill="#F46338"/>
<path d="M51.5819 33.0774L49.1102 28.6325C48.9109 28.274 48.6525 27.745 48.335 27.0455C48.6841 28.1476 48.8798 28.8009 48.922 29.0054L49.6197 31.7551L48.5034 32.376L46.5255 30.3383C46.2215 30.0246 45.7681 29.5147 45.1653 28.8085L45.4859 29.3006C45.7092 29.6458 45.9119 29.9823 46.0941 30.31L48.5658 34.755L47.4393 35.3815L43.5979 28.4734L45.3748 27.4852L47.487 29.656C47.6274 29.788 47.9116 30.1462 48.3394 30.7307C48.1134 30.1636 47.9634 29.733 47.8893 29.439L47.1619 26.4912L48.8773 25.5371L52.7187 32.4451L51.5819 33.0774Z" fill="#F46338"/>
<path d="M61.3036 29.2757L59.665 29.8072L58.5557 28.1343L56.0142 28.9587L56.0979 30.9643L54.4538 31.4976L54.4844 23.1779L56.4017 22.556L61.3036 29.2757ZM55.7721 23.8814C55.7929 24.0471 55.8131 24.2992 55.8326 24.6379C55.8546 24.9716 55.8965 25.9621 55.9585 27.6093L57.8089 27.009C56.8777 25.6192 56.3243 24.7864 56.1486 24.5107C55.9767 24.2339 55.8512 24.0241 55.7721 23.8814Z" fill="#F46338"/>
<path d="M69.2529 28.0705L63.1384 28.803L62.9927 27.5871L66.2631 21.8311L62.8016 22.2457L62.6406 20.9018L68.0744 20.2509L68.2173 21.4436L64.9496 27.2228L69.0919 26.7266L69.2529 28.0705Z" fill="#F46338"/>
<path d="M72.6883 20.0463L78.0397 20.4582L77.9372 21.7902L76.1203 21.6503L75.7189 26.8673L77.5358 27.0072L77.4334 28.3392L72.082 27.9273L72.1845 26.5953L74.0014 26.7352L74.4027 21.5182L72.5859 21.3783L72.6883 20.0463Z" fill="#F46338"/>
<path d="M83.9685 29.7197L83.3971 23.4142C83.237 24.3916 83.1033 25.0722 82.9959 25.4559L81.9598 29.1573L80.5097 28.7513L82.6404 21.1396L84.5419 21.672L85.1214 28.1441C85.2636 27.2306 85.4031 26.5294 85.54 26.0404L86.6014 22.2486L88.0514 22.6546L85.9207 30.2664L83.9685 29.7197Z" fill="#F46338"/>
<path d="M94.4101 32.8696C93.2025 33.1591 92.1623 33.0846 91.2897 32.6463C90.3787 32.1886 89.827 31.5115 89.6347 30.6149C89.4442 29.7149 89.6417 28.6819 90.2273 27.516C91.4352 25.1109 93.013 24.3975 94.9607 25.376C95.589 25.6916 96.0206 26.1117 96.2555 26.6362C96.4904 27.1608 96.5364 27.8002 96.3936 28.5547L94.8169 28.1167C94.9773 27.3361 94.8271 26.8301 94.3664 26.5986C93.8951 26.3619 93.4531 26.3759 93.0404 26.6407C92.6312 26.9072 92.2153 27.4611 91.7928 28.3024C91.4018 29.0808 91.2172 29.74 91.2389 30.2799C91.2607 30.8197 91.5106 31.2098 91.9889 31.45C92.1739 31.5429 92.3816 31.6036 92.6122 31.632C92.8462 31.6621 93.0663 31.6547 93.2725 31.6096L93.8905 30.3791L92.4559 29.6584L93.0292 28.517L95.8775 29.9478L94.4101 32.8696Z" fill="#F46338"/>
<path d="M106.366 44.5371L105.415 43.4387L106.352 42.1309C106.782 41.4998 107.212 40.895 107.641 40.3165L106.856 40.7255L105.903 41.2097L104.222 42.0613L103.271 40.9629L108.435 34.8527L109.429 35.9998L106.692 39.0605C106.44 39.3415 106.067 39.7053 105.576 40.1519L105.97 39.9267L106.867 39.4593L108.748 38.5972L109.496 39.4609L108.375 41.2C108.275 41.3534 108.172 41.4997 108.065 41.6389C107.964 41.7784 107.777 42.0253 107.505 42.3797L107.633 42.285C108.123 41.8909 108.497 41.6089 108.752 41.4389L112.153 39.1445L113.146 40.2916L106.366 44.5371Z" fill="#F46338"/>
<path d="M114.896 50.4635C113.726 51.1317 112.705 51.3997 111.834 51.2676C110.962 51.1354 110.273 50.6249 109.765 49.7361C109.258 48.8473 109.168 47.9923 109.495 47.1711C109.825 46.3534 110.575 45.6104 111.745 44.9422C112.915 44.274 113.93 44.0099 114.787 44.1498C115.647 44.2931 116.331 44.8091 116.838 45.698C117.346 46.5868 117.441 47.4362 117.126 48.2463C116.81 49.0563 116.067 49.7954 114.896 50.4635ZM114.028 48.942C115.585 48.053 116.128 47.1964 115.658 46.372C115.185 45.5442 114.171 45.5748 112.613 46.4638C111.833 46.9092 111.3 47.3506 111.015 47.7881C110.735 48.2269 110.712 48.6516 110.946 49.0621C111.18 49.4726 111.557 49.6671 112.075 49.6455C112.597 49.6219 113.248 49.3874 114.028 48.942Z" fill="#F46338"/>
<path d="M114.007 58.9886L116.324 56.4148L116 55.4541L113.14 56.4177L112.589 54.7797L120.079 52.2556L121.003 54.9987C121.332 55.976 121.388 56.7713 121.17 57.3847C120.952 57.9981 120.484 58.4258 119.766 58.6678C119.259 58.8387 118.782 58.8471 118.334 58.6929C117.886 58.5387 117.509 58.2435 117.201 57.8072L114.628 60.8321L114.007 58.9886ZM119.144 57.0411C119.492 56.9239 119.709 56.723 119.794 56.4386C119.883 56.153 119.843 55.7585 119.674 55.255L119.359 54.3221L117.272 55.0257L117.601 56.0029C117.915 56.9358 118.429 57.2819 119.144 57.0411Z" fill="#F46338"/>
<path d="M115.724 67.2903L118.714 64.9889L117.792 64.3594L115.381 64.676L115.156 62.9622L122.993 61.9331L123.218 63.6469L119.738 64.1038L123.55 66.1798L123.812 68.1725L120.097 65.9418L115.989 69.312L115.724 67.2903Z" fill="#F46338"/>
<path d="M118.367 75.1101L118.454 73.7653L123.863 73.9301L123.751 75.6491L118.367 75.1101ZM115.976 73.4158L117.554 73.5188L117.445 75.2027L115.866 75.0998L115.976 73.4158Z" fill="#F46338"/>
<path d="M114.595 94.0952C114.171 93.8879 113.88 93.557 113.724 93.1025C113.567 92.6481 113.593 92.2084 113.8 91.7836C114.004 91.3659 114.33 91.0797 114.779 90.9251C115.232 90.7722 115.673 90.8003 116.101 91.0093C116.529 91.2183 116.82 91.5448 116.973 91.9888C117.127 92.4381 117.102 92.8734 116.896 93.2946C116.687 93.7229 116.358 94.0144 115.909 94.169C115.462 94.3288 115.024 94.3042 114.595 94.0952Z" fill="#F46338"/>
<path d="M98.9698 106.889L100.259 105.746L101.945 106.835L103.944 105.062L103.064 103.257L104.357 102.11L107.66 109.747L106.152 111.084L98.9698 106.889ZM106.198 109.618C106.113 109.474 105.993 109.251 105.84 108.949C105.686 108.652 105.251 107.761 104.535 106.276L103.08 107.567C104.489 108.468 105.33 109.009 105.601 109.192C105.869 109.377 106.068 109.519 106.198 109.618Z" fill="#F46338"/>
<path d="M93.3277 110.494L95.9019 114.88C96.1095 115.234 96.3801 115.757 96.7137 116.449C96.3391 115.355 96.1283 114.706 96.0814 114.503L95.32 111.77L96.4216 111.123L98.4462 113.115C98.7575 113.421 99.2226 113.92 99.8416 114.612L99.5096 114.128C99.2784 113.788 99.068 113.456 98.8781 113.133L96.304 108.747L97.4156 108.094L101.416 114.911L99.6629 115.94L97.5009 113.819C97.3574 113.69 97.065 113.339 96.6238 112.764C96.8628 113.326 97.0228 113.753 97.1037 114.045L97.8993 116.975L96.2066 117.969L92.2059 111.152L93.3277 110.494Z" fill="#F46338"/>
<path d="M83.6933 114.519L85.3191 113.95L86.4669 115.597L88.9885 114.714L88.8583 112.71L90.4896 112.139L90.6521 120.457L88.7497 121.123L83.6933 114.519ZM89.3485 119.784C89.3237 119.619 89.2977 119.367 89.2704 119.029C89.2407 118.696 89.1757 117.707 89.0756 116.061L87.2396 116.704C88.2028 118.072 88.7754 118.892 88.9574 119.163C89.1357 119.436 89.266 119.643 89.3485 119.784Z" fill="#F46338"/>
<path d="M75.7801 115.911L81.8757 115.036L82.0497 116.248L78.9148 122.079L82.3658 121.583L82.5581 122.923L77.141 123.701L76.9703 122.512L80.1019 116.658L75.9724 117.251L75.7801 115.911Z" fill="#F46338"/>
<path d="M72.5144 124.013L67.1549 123.725L67.2265 122.391L69.0461 122.489L69.3263 117.264L67.5067 117.166L67.5782 115.832L72.9377 116.12L72.8662 117.454L71.0465 117.356L70.7663 122.581L72.586 122.679L72.5144 124.013Z" fill="#F46338"/>
<path d="M61.0429 114.606L61.7638 120.896C61.9006 119.915 62.0182 119.232 62.1164 118.846L63.0644 115.121L64.5237 115.492L62.5743 123.152L60.6607 122.665L59.9277 116.209C59.8073 117.125 59.6845 117.83 59.5592 118.322L58.5881 122.138L57.1288 121.766L59.0783 114.106L61.0429 114.606Z" fill="#F46338"/>
<path d="M50.5225 111.705C51.723 111.387 52.7646 111.437 53.6472 111.855C54.5687 112.291 55.1361 112.955 55.3493 113.847C55.5608 114.743 55.3875 115.78 54.8294 116.959C53.678 119.392 52.1173 120.142 50.1472 119.209C49.5117 118.908 49.0704 118.499 48.8233 117.98C48.5762 117.461 48.5153 116.822 48.6405 116.065L50.2269 116.466C50.0848 117.25 50.2468 117.752 50.7128 117.973C51.1895 118.199 51.631 118.174 52.0374 117.9C52.4403 117.624 52.8432 117.06 53.2459 116.21C53.6185 115.422 53.7877 114.759 53.7533 114.22C53.719 113.68 53.4599 113.296 52.9762 113.067C52.7891 112.979 52.58 112.923 52.3489 112.9C52.1142 112.875 51.8943 112.888 51.6892 112.938L51.1002 114.182L52.5512 114.869L52.0048 116.024L49.1238 114.66L50.5225 111.705Z" fill="#F46338"/>
<path d="M38.2894 100.317L39.2664 101.393L38.3605 102.723C37.9454 103.364 37.5301 103.978 37.1147 104.567L37.8902 104.139L38.8311 103.633L40.4916 102.742L41.4685 103.818L36.4491 110.048L35.4288 108.924L38.0924 105.8C38.3385 105.513 38.702 105.141 39.183 104.683L38.7943 104.917L37.9082 105.406L36.0479 106.312L35.2797 105.466L36.36 103.701C36.4559 103.545 36.5557 103.396 36.6593 103.255C36.7574 103.113 36.9381 102.862 37.2015 102.501L37.0766 102.599C36.5953 103.004 36.2288 103.295 35.977 103.471L32.6319 105.845L31.6116 104.721L38.2894 100.317Z" fill="#F46338"/>
<path d="M29.6351 94.5991C30.7892 93.9033 31.8035 93.6112 32.6779 93.7226C33.5524 93.834 34.2537 94.328 34.782 95.2045C35.3103 96.0811 35.4205 96.9337 35.1127 97.7624C34.8029 98.5877 34.0709 99.3483 32.9167 100.044C31.7625 100.74 30.7549 101.028 29.8939 100.908C29.0308 100.786 28.3352 100.286 27.8069 99.4094C27.2786 98.5329 27.1627 97.6859 27.4591 96.8687C27.7556 96.0514 28.4809 95.2949 29.6351 94.5991ZM30.5394 96.0996C29.0039 97.0253 28.4811 97.8946 28.9711 98.7076C29.4631 99.5239 30.4768 99.4692 32.0124 98.5436C32.7818 98.0797 33.3041 97.6258 33.5792 97.1817C33.8489 96.7363 33.8618 96.3112 33.6178 95.9064C33.3738 95.5015 32.993 95.3161 32.4752 95.35C31.9541 95.3859 31.3088 95.6358 30.5394 96.0996Z" fill="#F46338"/>
<path d="M30.3338 86.0648L28.0785 88.6929L28.4248 89.6456L31.2607 88.6144L31.8513 90.2389L24.4228 92.9401L23.4339 90.2197C23.0816 89.2505 23.007 88.4567 23.2103 87.8383C23.4136 87.2199 23.8714 86.7812 24.5835 86.5222C25.0865 86.3393 25.5635 86.3196 26.0147 86.4632C26.4659 86.6067 26.8505 86.8929 27.1685 87.3217L29.6692 84.2365L30.3338 86.0648ZM25.2442 88.1337C24.8991 88.2592 24.6872 88.4651 24.6084 88.7514C24.5259 89.0391 24.5755 89.4326 24.757 89.9319L25.0933 90.857L27.1638 90.1042L26.8114 89.135C26.4751 88.2098 25.9527 87.8761 25.2442 88.1337Z" fill="#F46338"/>
<path d="M28.4065 77.7907L25.4716 80.1614L26.4078 80.7692L28.8107 80.3963L29.0757 82.1044L21.2649 83.3165L20.9999 81.6084L24.4682 81.0702L20.6082 79.0839L20.3001 77.0979L24.0658 79.2411L28.0939 75.7758L28.4065 77.7907Z" fill="#F46338"/>
<path d="M25.5824 70.0065L25.526 71.353L20.1147 71.3138L20.1868 69.5927L25.5824 70.0065ZM28.012 71.6448L26.4314 71.5786L26.5021 69.8926L28.0827 69.9588L28.012 71.6448Z" fill="#F46338"/>
<path d="M107.988 75.5035C109.891 55.6291 95.3238 37.9749 75.4518 36.0717C55.5798 34.1685 37.9277 48.737 36.0247 68.6114C34.1218 88.4858 48.6886 106.14 68.5606 108.043C88.4326 109.946 106.085 95.3778 107.988 75.5035Z" fill="#FFD324"/>
<path d="M61.0368 60.2964C60.1003 62.5993 57.4712 63.7164 55.16 62.7798C52.8573 61.8432 51.7404 59.2137 52.6769 56.9022C53.6134 54.5993 56.2425 53.4823 58.5538 54.4189C60.8564 55.3555 61.9733 57.9849 61.0368 60.2964Z" fill="#5F1D08"/>
<path d="M95.3186 74.2256C94.382 76.5285 91.7529 77.6456 89.4417 76.709C87.1391 75.7724 86.0221 73.1429 86.9586 70.8314C87.8952 68.5285 90.5243 67.4115 92.8355 68.3481C95.1381 69.2847 96.2551 71.9141 95.3186 74.2256Z" fill="#5F1D08"/>
<path d="M65.9171 86.8828C59.9715 84.4682 57.1018 77.6626 59.5162 71.7163L61.372 72.4725C59.3701 77.3962 61.7501 83.0246 66.6732 85.0267C71.5964 87.0289 77.224 84.6486 79.2259 79.7249L81.0818 80.4811C78.6675 86.4274 71.8627 89.2974 65.9171 86.8828Z" fill="#5F1D08"/>
<path d="M81.7261 83.325C79.1657 82.2853 77.9285 79.3551 78.9681 76.7944L80.824 77.5506C80.1968 79.0887 80.9443 80.8417 82.4736 81.469L81.7175 83.325H81.7261Z" fill="#5F1D08"/>
<path d="M57.1877 73.3575L57.9438 71.5014C59.4818 72.1287 61.2345 71.3811 61.8617 69.8516L63.7176 70.6077C62.678 73.1684 59.7481 74.4058 57.1877 73.3661V73.3575Z" fill="#5F1D08"/>
</g>
<defs>
<clipPath id="clip0_117_23831">
<rect width="144" height="144" fill="white"/>
</clipPath>
</defs>
</svg>
