<svg width="180" height="170" viewBox="0 0 180 170" fill="none" xmlns="http://www.w3.org/2000/svg">
<path d="M163.725 102.689C160.913 115.057 145.758 121.042 137.704 129.721C129.399 138.668 124.389 154.121 112.731 157.734C101.428 161.24 88.6748 151.508 76.2988 148.694C63.9309 145.883 48.2238 149.135 39.5447 141.081C30.5969 132.775 32.7684 116.681 29.1571 105.015C25.6517 93.7132 14.5813 81.7601 17.4027 69.3861C20.2141 57.0182 35.3688 51.034 43.4229 42.3549C51.7285 33.4071 56.7384 17.9543 68.3967 14.3411C79.6987 10.8356 92.4524 20.568 104.828 23.3814C117.196 26.1929 132.903 22.9405 141.583 30.9946C150.53 39.3002 148.359 55.3941 151.97 67.0603C155.475 78.3624 166.546 90.3154 163.725 102.689Z" fill="#FFF6E8" stroke="#FFC03F" stroke-width="4" stroke-miterlimit="10"/>
<path d="M99.0789 117.603C116.472 113.082 126.906 95.3165 122.384 77.9238C117.863 60.531 100.098 50.0968 82.7053 54.6182C65.3125 59.1397 54.8783 76.9047 59.3997 94.2974C63.9212 111.69 81.6861 122.124 99.0789 117.603Z" fill="#FFC03F"/>
<path d="M78.3551 70.216C77.8111 72.2744 75.7033 73.4949 73.6448 72.9509C71.5864 72.4069 70.3659 70.299 70.9099 68.2406C71.4539 66.1821 73.5618 64.9617 75.6202 65.5057C77.6787 66.0497 78.8992 68.1575 78.3551 70.216Z" fill="#5F1D08"/>
<path d="M103.851 76.0159C103.307 78.0743 101.199 79.2948 99.1409 78.7508C97.0825 78.2068 95.862 76.099 96.406 74.0405C96.95 71.9821 99.0579 70.7616 101.116 71.3056C103.175 71.8496 104.395 73.9574 103.851 76.0159Z" fill="#5F1D08"/>
<path d="M91.2878 81.9209C91.5958 81.4207 91.8058 80.8712 91.8981 80.2846C92.1706 78.5069 91.0879 76.771 89.182 76.7464C88.0437 76.7312 87.1345 77.3724 86.0918 77.6936C85.1128 77.9964 83.9595 77.7999 83.103 77.2527C82.2766 76.7214 81.6757 75.8897 80.8116 75.4084C80.0357 74.9824 79.1003 74.8982 78.2872 75.2837C77.3012 75.754 76.7614 76.8237 76.6081 77.8692C76.2129 80.4969 78.3447 82.6492 80.4607 83.8248C82.7107 85.0753 85.5579 85.507 87.9962 84.5617C89.2771 84.0617 90.5434 83.1353 91.2858 81.9288L91.2878 81.9209Z" fill="#5F1D08"/>
<path d="M86.2691 79.7078C84.7276 79.6113 83.1536 79.7522 81.6833 80.2313C80.9292 80.4789 80.2398 80.8777 79.5966 81.33C79.2492 81.5753 78.7647 81.8971 78.3702 82.2662C78.9978 82.8845 79.7325 83.4104 80.4625 83.8167C82.7125 85.0673 85.5597 85.499 87.9981 84.5536C89.2789 84.0537 90.5452 83.1272 91.2877 81.9208C91.4574 81.6407 91.5892 81.3429 91.699 81.0313C89.9605 80.3199 88.1416 79.8343 86.2691 79.7078Z" fill="#F08363"/>
<path d="M137.584 90.3539C137.011 90.3279 136.528 90.0996 136.134 89.6687C135.74 89.2378 135.556 88.7358 135.582 88.1624C135.608 87.5986 135.834 87.1221 136.259 86.7331C136.69 86.3442 137.194 86.1628 137.773 86.189C138.351 86.2151 138.832 86.4386 139.216 86.8596C139.606 87.2855 139.787 87.7827 139.762 88.3513C139.735 88.9294 139.509 89.4129 139.083 89.802C138.662 90.196 138.162 90.38 137.584 90.3539Z" fill="#F46338"/>
<path d="M133.339 110.129C132.762 109.863 132.314 109.498 131.996 109.032C131.682 108.569 131.522 108.033 131.515 107.424C131.507 106.819 131.662 106.17 131.982 105.477L132.569 104.204L129.493 102.786L130.372 100.88L139.088 104.898L137.658 107.999C137.148 109.106 136.525 109.84 135.789 110.201C135.056 110.568 134.239 110.544 133.339 110.129ZM134.191 108.195C134.661 108.412 135.06 108.424 135.39 108.231C135.721 108.044 136.017 107.668 136.277 107.104L136.73 106.122L134.035 104.88L133.559 105.914C133.297 106.482 133.221 106.952 133.333 107.322C133.449 107.694 133.735 107.985 134.191 108.195Z" fill="#F46338"/>
<path d="M126.155 109.226L133.845 114.97L132.589 116.651L126.199 111.878L123.576 115.39L122.277 114.419L126.155 109.226Z" fill="#F46338"/>
<path d="M115.181 120.85L116.751 119.469L118.793 120.8L121.23 118.658L120.171 116.463L121.747 115.077L125.717 124.366L123.879 125.982L115.181 120.85ZM123.943 124.201C123.84 124.027 123.697 123.755 123.512 123.387C123.327 123.026 122.803 121.942 121.941 120.135L120.167 121.695C121.874 122.796 122.892 123.458 123.221 123.681C123.546 123.907 123.787 124.08 123.943 124.201Z" fill="#F46338"/>
<path d="M110.463 123.517L116.378 128.428C115.674 127.453 115.203 126.754 114.965 126.333L112.668 122.27L114.259 121.371L118.983 129.725L116.896 130.905L110.831 125.859C111.495 126.764 111.979 127.485 112.282 128.021L114.635 132.183L113.044 133.083L108.32 124.728L110.463 123.517Z" fill="#F46338"/>
<path d="M102.335 126.832L107.116 132.852C106.627 131.753 106.309 130.973 106.163 130.512L104.748 126.064L106.491 125.51L109.399 134.656L107.115 135.383L102.214 129.2C102.678 130.222 103.004 131.026 103.191 131.614L104.64 136.17L102.897 136.724L99.9887 127.578L102.335 126.832Z" fill="#F46338"/>
<path d="M98.8037 137.538L92.3184 138.18L92.1587 136.565L94.3606 136.347L93.7348 130.025L91.5329 130.243L91.3732 128.629L97.8585 127.987L98.0182 129.601L95.8163 129.819L96.4421 136.141L98.6439 135.923L98.8037 137.538Z" fill="#F46338"/>
<path d="M84.8986 128.136L86.8258 135.578C86.8249 134.375 86.851 133.534 86.9041 133.053L87.4161 128.414L89.2335 128.614L88.1807 138.154L85.7975 137.891L83.8277 130.251C83.8374 131.373 83.8085 132.241 83.7408 132.854L83.2164 137.606L81.3989 137.405L82.4518 127.866L84.8986 128.136Z" fill="#F46338"/>
<path d="M73.3655 126.486C74.7629 125.919 76.0252 125.82 77.1525 126.188C78.3293 126.572 79.1144 127.285 79.5079 128.326C79.8999 129.372 79.8501 130.648 79.3585 132.154C78.3444 135.261 76.5794 136.403 74.0634 135.582C73.2518 135.317 72.6575 134.891 72.2803 134.304C71.9032 133.717 71.732 132.957 71.7666 132.026L73.739 132.266C73.6881 133.232 73.9602 133.812 74.5553 134.006C75.164 134.205 75.6922 134.108 76.1397 133.715C76.5827 133.321 76.9816 132.581 77.3363 131.494C77.6645 130.488 77.7666 129.664 77.6426 129.019C77.5186 128.375 77.1477 127.952 76.53 127.751C76.291 127.673 76.0306 127.637 75.7486 127.645C75.4622 127.652 75.1992 127.7 74.9598 127.792L74.441 129.381L76.2942 129.986L75.8129 131.461L72.1336 130.26L73.3655 126.486Z" fill="#F46338"/>
<path d="M55.8609 120.907C56.2734 120.424 56.7467 120.092 57.2808 119.911C57.8118 119.735 58.3713 119.726 58.9591 119.884C59.5434 120.04 60.126 120.365 60.707 120.861L61.7733 121.771L63.9712 119.194L65.5679 120.556L59.3389 127.858L56.7408 125.642C55.8135 124.85 55.2758 124.052 55.1278 123.246C54.9732 122.441 55.2175 121.661 55.8609 120.907ZM57.4915 122.251C57.156 122.645 57.0365 123.026 57.133 123.395C57.2229 123.765 57.5042 124.151 57.9769 124.555L58.7996 125.256L60.7251 122.999L59.8591 122.261C59.3828 121.854 58.9514 121.655 58.5651 121.662C58.1757 121.672 57.8178 121.869 57.4915 122.251Z" fill="#F46338"/>
<path d="M50.7521 111.864C52.0479 110.865 53.2309 110.372 54.3012 110.385C55.3715 110.398 56.2861 110.897 57.0451 111.881C57.804 112.865 58.0553 113.878 57.799 114.92C57.5398 115.959 56.7623 116.978 55.4666 117.977C54.1708 118.976 52.9953 119.464 51.94 119.439C50.8819 119.411 49.9733 118.904 49.2144 117.92C48.4554 116.936 48.198 115.931 48.4422 114.904C48.6864 113.877 49.4564 112.864 50.7521 111.864ZM52.0513 113.549C50.3274 114.878 49.8174 116 50.5214 116.912C51.2282 117.829 52.4435 117.622 54.1674 116.292C55.0312 115.626 55.5982 115.006 55.8685 114.432C56.132 113.858 56.0886 113.343 55.7381 112.889C55.3876 112.434 54.9024 112.263 54.2825 112.376C53.6589 112.492 52.9151 112.883 52.0513 113.549Z" fill="#F46338"/>
<path d="M51.501 102.779L48.9342 106.573L50.2371 106.947L52.8951 105.661L53.8089 107.55L45.1689 111.729L44.2551 109.84L48.0915 107.984L42.9044 107.048L41.8419 104.851L46.9752 106.003L50.423 100.55L51.501 102.779Z" fill="#F46338"/>
<path d="M50.166 99.5115L40.8496 101.818L39.1949 95.1323L40.7695 94.7426L41.92 99.3904L44.1576 98.8366L43.1114 94.61L44.686 94.2203L45.7322 98.4469L48.0872 97.864L46.8667 92.9329L48.4413 92.5432L50.166 99.5115Z" fill="#F46338"/>
<path d="M48.0866 85.5099L44.4935 87.6942L44.5345 88.9243L48.1965 88.8021L48.2666 90.8997L38.6743 91.22L38.557 87.7073C38.5153 86.4559 38.7281 85.5115 39.1957 84.8742C39.6632 84.2369 40.3568 83.9029 41.2764 83.8722C41.9259 83.8505 42.484 84.0074 42.9508 84.343C43.4176 84.6786 43.7538 85.1539 43.9594 85.7687L48.0078 83.1491L48.0866 85.5099ZM41.4323 85.9812C40.9867 85.9961 40.6645 86.1539 40.4657 86.4548C40.2622 86.7558 40.1712 87.2287 40.1927 87.8734L40.2326 89.068L42.9062 88.9787L42.8644 87.7272C42.8245 86.5327 42.3472 85.9506 41.4323 85.9812Z" fill="#F46338"/>
<path d="M46.9733 67.7201C47.5118 67.9187 47.9032 68.283 48.1475 68.8129C48.3918 69.3429 48.4147 69.8771 48.2161 70.4155C48.0207 70.9451 47.6611 71.3306 47.1373 71.5721C46.609 71.812 46.0734 71.8318 45.5305 71.6316C44.9876 71.4313 44.5968 71.0723 44.358 70.5545C44.1165 70.0307 44.0942 69.5017 44.2912 68.9677C44.4915 68.4249 44.8535 68.0326 45.3774 67.7911C45.8985 67.5435 46.4304 67.5198 46.9733 67.7201Z" fill="#F46338"/>
<path d="M57.0546 59.9075L49.9941 53.4065L54.6591 48.3401L55.8524 49.4389L52.6091 52.9613L54.3049 54.5227L57.2542 51.3196L58.4475 52.4183L55.4982 55.6214L57.2829 57.2648L60.7238 53.5278L61.9171 54.6266L57.0546 59.9075Z" fill="#F46338"/>
<path d="M68.1859 48.3958C67.8113 49.8565 67.141 50.9308 66.1752 51.6187C65.1669 52.3369 64.127 52.5448 63.0556 52.2423C61.9814 51.936 60.9847 51.1377 60.0656 49.8474C58.1697 47.1856 58.2995 45.087 60.4552 43.5515C61.1506 43.0562 61.8464 42.8313 62.5427 42.8769C63.2391 42.9225 63.9516 43.2361 64.6803 43.8176L63.3154 45.2615C62.5685 44.6463 61.9401 44.5203 61.4302 44.8835C60.9087 45.255 60.6729 45.7374 60.7228 46.3308C60.7766 46.9214 61.1351 47.6822 61.7983 48.6132C62.4119 49.4747 63.0146 50.047 63.6064 50.3301C64.1982 50.6132 64.7588 50.5662 65.288 50.1892C65.4928 50.0434 65.6758 49.8548 65.8371 49.6234C66.0023 49.3893 66.1192 49.1488 66.1879 48.9018L65.2179 47.5401L63.6301 48.671L62.7303 47.4078L65.8827 45.1623L68.1859 48.3958Z" fill="#F46338"/>
<path d="M76.4405 44.5984C75.7742 45.9511 74.8978 46.865 73.8114 47.3401C72.6772 47.8362 71.6167 47.8262 70.6301 47.3104C69.6416 46.7902 68.83 45.8043 68.1952 44.3529C66.8857 41.3588 67.4434 39.3314 69.8682 38.2709C70.6505 37.9288 71.3776 37.8515 72.0498 38.039C72.7219 38.2265 73.355 38.6796 73.9488 39.3983L72.3167 40.5314C71.712 39.776 71.1228 39.5238 70.5492 39.7747C69.9625 40.0312 69.6328 40.455 69.5599 41.046C69.4914 41.635 69.6862 42.4532 70.1442 43.5005C70.568 44.4696 71.0405 45.1534 71.5616 45.5518C72.0827 45.9503 72.641 46.0194 73.2363 45.759C73.4667 45.6583 73.6845 45.5112 73.8898 45.3179C74.0995 45.1226 74.2633 44.9112 74.3812 44.6837L73.7113 43.1518L71.9252 43.933L71.3037 42.5119L74.8498 40.9611L76.4405 44.5984Z" fill="#F46338"/>
<path d="M79.3786 42.1855L79.0259 40.4857L83.0663 39.6474L83.419 41.3471L79.3786 42.1855Z" fill="#F46338"/>
<path d="M94.664 40.9888C94.6595 41.8995 94.3075 42.614 93.6077 43.1324C92.9127 43.646 91.9463 43.8998 90.7083 43.8938C89.5937 43.8884 88.6866 43.6492 87.9869 43.1762C87.2872 42.7033 86.8399 42.0181 86.6451 41.1207L88.674 40.8673C88.7809 41.3137 89.0069 41.6681 89.3518 41.9307C89.6968 42.1885 90.1705 42.3188 90.7729 42.3218C91.399 42.3248 91.8619 42.2274 92.1617 42.0297C92.4662 41.8319 92.6195 41.522 92.6215 41.0999C92.623 40.7869 92.4915 40.523 92.2269 40.3082C91.9624 40.0888 91.5767 39.9162 91.0697 39.7904C90.0512 39.5388 89.3313 39.3219 88.91 39.1396C88.4936 38.9526 88.1602 38.7446 87.9099 38.5158C87.6596 38.2869 87.4664 38.0203 87.3304 37.7161C87.1991 37.4072 87.1343 37.063 87.1362 36.6835C87.1402 35.8535 87.4754 35.1982 88.1418 34.7176C88.8129 34.2371 89.6939 33.9995 90.7848 34.0048C91.8472 34.0099 92.6762 34.225 93.2718 34.65C93.8674 35.0703 94.2508 35.722 94.422 36.605L92.3862 36.8015C92.1817 35.9325 91.6313 35.4958 90.7349 35.4915C90.2321 35.4891 89.8475 35.5821 89.5809 35.7705C89.3144 35.9542 89.1803 36.2215 89.1786 36.5725C89.1775 36.8049 89.2406 36.9997 89.3679 37.1568C89.4952 37.3092 89.6677 37.4405 89.8853 37.5506C90.1078 37.6561 90.5577 37.7982 91.2351 37.9769C92.1257 38.1994 92.8099 38.447 93.2876 38.7197C93.7654 38.9876 94.1148 39.3119 94.3359 39.6924C94.5569 40.0729 94.6663 40.5051 94.664 40.9888Z" fill="#F46338"/>
<path d="M102.159 37.1314L100.514 44.9355L98.4606 44.5028L100.105 36.6987L97.2784 36.1031L97.6128 34.5159L105.319 36.1396L104.985 37.7269L102.159 37.1314Z" fill="#F46338"/>
<path d="M108.75 37.3629L114.705 40.0092L114.046 41.4916L112.024 40.5931L109.444 46.3991L111.466 47.2975L110.808 48.7799L104.852 46.1336L105.511 44.6512L107.533 45.5497L110.113 39.7438L108.091 38.8453L108.75 37.3629Z" fill="#F46338"/>
<path d="M117.126 53.0792L120.753 48.0811C121.045 47.678 121.495 47.1226 122.103 46.4147C121.068 47.3636 120.45 47.9137 120.246 48.0649L117.576 50.2416L116.321 49.3306L117.551 46.1093C117.741 45.6139 118.07 44.8535 118.539 43.8282L118.161 44.4332C117.895 44.8558 117.629 45.2514 117.361 45.6199L113.734 50.618L112.468 49.6987L118.104 41.9309L120.103 43.3809L118.795 46.8183C118.721 47.0405 118.473 47.5368 118.048 48.3073C118.557 47.768 118.954 47.3822 119.24 47.15L122.112 44.8392L124.041 46.2391L118.404 54.0068L117.126 53.0792Z" fill="#F46338"/>
<path d="M124.888 60.9739L123.485 59.4225L124.787 57.3623L122.612 54.956L120.431 56.0452L119.023 54.4885L128.256 50.389L129.898 52.2043L124.888 60.9739ZM128.116 52.1651C127.943 52.2706 127.674 52.4182 127.308 52.608C126.95 52.7982 125.873 53.3368 124.079 54.2238L125.663 55.9758C126.74 54.2535 127.388 53.2266 127.606 52.895C127.828 52.567 127.998 52.3237 128.116 52.1651Z" fill="#F46338"/>
<path d="M134.557 61.7186L127.669 65.7391L126.611 63.9265L133.499 59.906L132.043 57.4114L133.444 56.5936L137.414 63.3955L136.013 64.2133L134.557 61.7186Z" fill="#F46338"/>
<path d="M129.673 69.6249L138.779 66.5935L140.955 73.1279L139.415 73.6402L137.903 69.0972L135.716 69.8253L137.091 73.9565L135.552 74.4689L134.177 70.3376L131.875 71.1039L133.479 75.9237L131.94 76.436L129.673 69.6249Z" fill="#F46338"/>
</svg>
