<svg width="53" height="50" viewBox="0 0 53 50" fill="none" xmlns="http://www.w3.org/2000/svg">
<path d="M48.2131 29.8419C47.377 33.52 42.8702 35.2996 40.475 37.8807C38.005 40.5417 36.5151 45.1371 33.0481 46.2117C29.687 47.2541 25.8942 44.3598 22.2137 43.5232C18.5357 42.6871 13.8646 43.6543 11.2835 41.2591C8.62254 38.7891 9.26831 34.003 8.19437 30.5336C7.15189 27.1725 3.85969 23.6178 4.69874 19.9379C5.53483 16.2599 10.0416 14.4803 12.4368 11.8992C14.9068 9.23822 16.3967 4.64274 19.8637 3.56822C23.2248 2.52574 27.0176 5.42004 30.6981 6.25671C34.3761 7.0928 39.0472 6.12559 41.6283 8.52077C44.2893 10.9908 43.6435 15.7769 44.7174 19.2463C45.7599 22.6074 49.0521 26.1621 48.2131 29.8419Z" fill="#FFF6E8" stroke="#FFC03F" stroke-width="1.4" stroke-miterlimit="10"/>
<path d="M28.9882 34.2767C34.1606 32.9321 37.2636 27.649 35.919 22.4766C34.5743 17.3042 29.2913 14.2012 24.1189 15.5458C18.9465 16.8904 15.8435 22.1735 17.1881 27.3459C18.5327 32.5183 23.8158 35.6213 28.9882 34.2767Z" fill="#FFC03F"/>
<path d="M22.8251 20.1845C22.6633 20.7967 22.0364 21.1597 21.4243 20.9979C20.8121 20.8361 20.4492 20.2093 20.611 19.5971C20.7727 18.9849 21.3996 18.622 22.0117 18.7838C22.6239 18.9455 22.9869 19.5724 22.8251 20.1845Z" fill="#5F1D08"/>
<path d="M30.4071 21.9092C30.2453 22.5213 29.6185 22.8843 29.0063 22.7225C28.3942 22.5607 28.0312 21.9339 28.193 21.3217C28.3548 20.7095 28.9816 20.3466 29.5938 20.5084C30.2059 20.6702 30.5689 21.297 30.4071 21.9092Z" fill="#5F1D08"/>
<path d="M26.6711 23.6655C26.7627 23.5167 26.8251 23.3534 26.8525 23.1789C26.9336 22.6502 26.6116 22.134 26.0448 22.1267C25.7063 22.1221 25.4359 22.3129 25.1258 22.4083C24.8347 22.4984 24.4917 22.44 24.237 22.2773C23.9912 22.1192 23.8125 21.8719 23.5556 21.7288C23.3248 21.6021 23.0466 21.577 22.8049 21.6917C22.5116 21.8316 22.3511 22.1497 22.3055 22.4606C22.188 23.242 22.8219 23.8821 23.4512 24.2317C24.1203 24.6036 24.9671 24.732 25.6922 24.4508C26.0731 24.3022 26.4497 24.0266 26.6705 23.6679L26.6711 23.6655Z" fill="#5F1D08"/>
<path d="M25.1787 23.0072C24.7203 22.9785 24.2522 23.0204 23.815 23.1629C23.5907 23.2365 23.3857 23.3551 23.1944 23.4896C23.0911 23.5625 22.947 23.6582 22.8297 23.768C23.0164 23.9519 23.2348 24.1083 23.4519 24.2291C24.1211 24.601 24.9678 24.7294 25.6929 24.4483C26.0738 24.2996 26.4504 24.0241 26.6712 23.6653C26.7217 23.582 26.7609 23.4934 26.7935 23.4008C26.2765 23.1892 25.7356 23.0448 25.1787 23.0072Z" fill="#F08363"/>
</svg>
